<?xml version="1.0" encoding="utf-8"?>
<!-- Generator: Adobe Illustrator 19.0.0, SVG Export Plug-In . SVG Version: 6.00 Build 0)  -->
<svg version="1.1" id="Calque_1" xmlns="http://www.w3.org/2000/svg" xmlns:xlink="http://www.w3.org/1999/xlink" x="0px" y="0px"
	 viewBox="0 0 200 200" style="enable-background:new 0 0 200 200;" xml:space="preserve">
<style type="text/css">
	.st0{fill:#4FC1EA;}
	.st1{opacity:0.3;}
	.st2{fill:#585763;}
</style>
<g id="XMLID_135_">
	<g id="XMLID_1529_">
		<path id="XMLID_2258_" class="st0" d="M76.1,72.9v46.2c0,4.1,3.3,7.4,7.4,7.4h32.9c4.1,0,7.4-3.3,7.4-7.4v-34c0-2-0.8-3.9-2.2-5.3
			l-12.2-12.2c-1.4-1.4-3.3-2.2-5.3-2.2H83.6C79.5,65.5,76.1,68.8,76.1,72.9z M106.8,70.4L119,82.6c0.7,0.7,1,1.6,1,2.5v34
			c0,2-1.6,3.6-3.6,3.6H83.6c-2,0-3.6-1.6-3.6-3.6V72.9c0-2,1.6-3.6,3.6-3.6h20.7C105.2,69.3,106.1,69.7,106.8,70.4z"/>
		<rect id="XMLID_2180_" x="88.9" y="80.8" class="st0" width="22.2" height="3.9"/>
		<rect id="XMLID_2171_" x="88.9" y="94.1" class="st0" width="22.2" height="3.9"/>
		<rect id="XMLID_1695_" x="88.9" y="107.3" class="st0" width="22.2" height="3.9"/>
	</g>
	<g id="XMLID_1420_" class="st1">
		<path id="XMLID_1437_" class="st2" d="M114.5,56.6c13.3,4.9,23.4,16.3,26.5,30.3l3.8-0.8c-3.5-15.7-15.1-28.5-30.2-33.5v-2.3
			c0-1.9-2.1-3.1-3.7-2.1l-5.1,2.9c-1.6,0.9-1.6,3.3,0,4.3l5.1,2.9C112.4,59,114.2,58.1,114.5,56.6z"/>
		<path id="XMLID_1435_" class="st2" d="M59.2,90.4l2.9-5.1c0.9-1.5-0.1-3.3-1.7-3.7C65.4,68.3,76.8,58.1,90.9,55L90,51.2
			c-15.8,3.5-28.6,15.2-33.6,30.4h-2.3c-1.9,0-3.1,2.1-2.1,3.7l2.9,5.1C55.9,92,58.3,92,59.2,90.4z"/>
		<path id="XMLID_1426_" class="st2" d="M96.8,136.8l-5.1-2.9c-1.6-0.9-3.7,0.2-3.7,2.1v0.3C73.5,132,62.3,120,59,105.1l-3.8,0.8
			c3.7,16.6,16.5,29.9,32.8,34.3v1.6c0,1.9,2.1,3.1,3.7,2.1l5.1-2.9C98.5,140.1,98.5,137.7,96.8,136.8z"/>
		<path id="XMLID_1424_" class="st2" d="M148,106.9l-2.9-5.1c-1-1.6-3.3-1.6-4.3,0l-2.9,5.1c-0.9,1.5,0,3.3,1.6,3.6
			c-4.9,13.3-16.3,23.4-30.3,26.5l0.8,3.8c15.7-3.5,28.5-15.1,33.5-30.2h2.3C147.8,110.6,148.9,108.5,148,106.9z"/>
	</g>
</g>
</svg>
