<?xml version="1.0" encoding="utf-8"?>
<!-- Generator: Adobe Illustrator 23.0.1, SVG Export Plug-In . SVG Version: 6.00 Build 0)  -->
<svg version="1.1" id="Layer_1" xmlns="http://www.w3.org/2000/svg" xmlns:xlink="http://www.w3.org/1999/xlink" x="0px" y="0px"
	 viewBox="0 0 512 512" style="enable-background:new 0 0 512 512;" xml:space="preserve">
<style type="text/css">
	.st0{fill:#D4E1F4;}
	.st1{fill:#F39200;}
	.st2{fill:#515D75;}
</style>
<path class="st0" d="M153.3,342.8c1.5-4.2,5-7.3,9.3-8.3c3.4-0.8,7-0.1,9.9,1.9l-10-10.4c-3.1-3.2-7.6-4.5-11.9-3.5
	c-4.3,1-7.9,4.1-9.3,8.3l-15,51.5l16.9-5L153.3,342.8z"/>
<path class="st0" d="M183.3,329.8C183.3,329.7,183.3,329.7,183.3,329.8c-0.1-0.1-0.1-0.1-0.2-0.2L156,301.5l9.5-9.1l-11.8-12.2
	l-9.7,9.4l27.1,28.1c0,0,0.1,0.1,0.1,0.1c0,0,0,0,0,0l46.3,48l0.2-0.2L183.3,329.8z"/>
<path class="st0" d="M166,275.2l29.5-36.1l-11.8-12.2L154,263.2l87.7,90.9l0.2-0.2L166,275.2z"/>
<path class="st0" d="M203.3,229.4l116-142.3c28.1-34.4,68.9-53.8,112.1-53.1c1.2,0,2.4,0,3.5,0.1l55.1,2l0-11.6l-67.1-2.4
	c-1.2,0-2.4-0.1-3.5-0.1c-43.2-0.7-84,18.7-112.1,53.1l-116,142.3L288.8,318l0.2-0.2L203.3,229.4z"/>
<g>
	<path class="st1" d="M279.4,190.9c-11.1,11-11.3,28.9-0.5,40.1c5.2,5.4,12.4,8.5,19.9,8.6h0.3c7.4,0,14.5-2.9,19.7-8.1
		c11.1-11,11.3-28.9,0.5-40.1c-10.8-11.2-28.6-11.4-39.7-0.7C279.6,190.8,279.5,190.8,279.4,190.9L279.4,190.9z M310.5,222.9
		c-6.3,6.2-16.5,6.2-22.7-0.1c0,0-0.1-0.1-0.1-0.1c-6.3-6.5-6.2-16.8,0.3-23.2c3-3,7.1-4.7,11.3-4.6h0.2c4.3,0,8.4,1.8,11.4,4.9
		C317,206.2,316.9,216.6,310.5,222.9z"/>
	<path class="st1" d="M374.2,143.3c1.6,0,3.1-0.6,4.2-1.7l50.2-49.4c17.8,16.8,42.6,23.8,66.6,18.9c3.2-0.7,5.3-3.8,4.7-7.1
		c-0.7-3.2-3.8-5.3-7.1-4.7c-21.4,4.3-43.5-2.6-58.6-18.4C418,64.2,412.2,40,419,17.8c1-3.2-0.8-6.5-4-7.5s-6.5,0.8-7.5,4l0,0
		c-7.3,23.8-2.4,49.6,13,69.1L370,133c-2.4,2.3-2.4,6.1-0.1,8.5C371,142.7,372.6,143.3,374.2,143.3L374.2,143.3z"/>
	<path class="st1" d="M353.9,163.3c1.6,0,3.1-0.6,4.2-1.7l8.4-8.3c2.4-2.3,2.4-6.1,0-8.5c-2.3-2.3-6.1-2.4-8.5-0.1l-8.4,8.3
		c-2.4,2.3-2.4,6.1-0.1,8.5C350.8,162.6,352.3,163.3,353.9,163.3L353.9,163.3z"/>
	<path class="st1" d="M335.3,167.2l-2.1,2.1c-2.4,2.3-2.4,6.1-0.1,8.5c2.3,2.4,6.1,2.4,8.5,0.1c0,0,0,0,0,0l2.1-2.1
		c2.4-2.3,2.4-6.1,0.1-8.5S337.7,164.8,335.3,167.2L335.3,167.2z"/>
	<path class="st1" d="M43.8,387.2c1.6,0,3.1-0.6,4.2-1.7l72.5-71.4c2.4-2.3,2.4-6.1,0.1-8.5s-6.1-2.4-8.5-0.1L39.6,377
		c-2.4,2.3-2.4,6.1-0.1,8.5C40.7,386.6,42.2,387.2,43.8,387.2z"/>
	<path class="st1" d="M32.2,401.1c2.4-2.3,2.4-6.1,0.1-8.5s-6.1-2.4-8.5-0.1l-12,11.8c-2.4,2.3-2.4,6.1-0.1,8.5s6.1,2.4,8.5,0.1
		L32.2,401.1z"/>
	<path class="st1" d="M88,379.6l-33.8,33.3c-2.4,2.3-2.4,6.1-0.1,8.5s6.1,2.4,8.5,0.1c0,0,0,0,0,0l33.8-33.3c2.3-2.4,2.3-6.2,0-8.5
		C94.1,377.4,90.4,377.3,88,379.6L88,379.6z"/>
	<path class="st1" d="M43.8,431.6c-2.3-2.4-6.1-2.4-8.5-0.1c0,0,0,0,0,0l-16.2,15.9c-2.4,2.3-2.4,6.1-0.1,8.5s6.1,2.4,8.5,0.1l0,0
		l16.2-15.9C46.1,437.8,46.1,434,43.8,431.6L43.8,431.6z"/>
	<path class="st1" d="M88.8,448.4l30.3-29.8c2.4-2.3,2.4-6.1,0.1-8.5s-6.1-2.4-8.5-0.1l0,0l-30.3,29.8c-2.4,2.3-2.4,6.1-0.1,8.5
		S86.4,450.7,88.8,448.4C88.8,448.4,88.8,448.4,88.8,448.4L88.8,448.4z"/>
	<path class="st1" d="M57.2,462.7l-12,11.8c-2.4,2.3-2.4,6.1-0.1,8.5s6.1,2.4,8.5,0.1l0,0l12-11.8c2.4-2.3,2.4-6.1,0.1-8.5
		S59.5,460.3,57.2,462.7L57.2,462.7z"/>
	<path class="st1" d="M113.4,469.4c2.3,2.4,6.1,2.4,8.5,0.1l77.1-75.9c2.4-2.3,2.4-6.1,0.1-8.5c-2.3-2.4-6.1-2.4-8.5-0.1l-77.1,75.9
		C111.1,463.2,111.1,467,113.4,469.4z"/>
	<path class="st1" d="M101.5,481.1c-2.3-2.4-6.1-2.4-8.5-0.1l-10.9,10.7c-2.4,2.3-2.4,6.1-0.1,8.5s6.1,2.4,8.5,0.1c0,0,0,0,0,0
		l10.9-10.7C103.8,487.2,103.9,483.4,101.5,481.1L101.5,481.1z"/>
</g>
<path class="st2" d="M491.6,12.6l-68.2-2.5c-1.3,0-2.5-0.1-3.8-0.1c-23.3-0.3-46.3,4.8-67.3,14.8c-21,10.1-39.6,24.7-54.3,42.7
	l-66.6,81.6l-139.2-49c-3.5-1.3-7.4,0-9.4,3.1c-2,3.2-1.6,7.5,1.1,10.2l95.7,99.2l-37.1,45.6c-2.6,3.2-2.4,7.8,0.4,10.8l2.4,2.5
	l-12.8,12.3c-1.5,1.4-2.3,3.4-2.4,5.4c0,2,0.7,3.9,2.1,5.4l15.6,16.1c-8.4,1.9-15.2,8-17.9,16.2l-15.2,52.4
	c-1.2,4.1-0.1,8.4,2.8,11.5c3,3.1,7.5,4.3,11.6,3.1l51.4-15.1l0.3-0.1c7.9-2.7,13.9-9.2,16-17.2l15.2,15.7c1.4,1.5,3.4,2.3,5.4,2.3
	c2,0,3.9-0.8,5.3-2.2l12.8-12.3c2.9,2.8,7.4,3.1,10.6,0.7l46.8-35.8l87.4,90.6c1.6,1.7,3.8,2.7,6.2,2.7c4.4,0,7.9-3.5,7.9-7.8
	c0-0.9-0.1-1.8-0.5-2.7l-42.1-127.8l85.2-65.2c18.9-14.3,34.2-32.8,44.8-54c13.3-26.8,20-56.6,20-88.4l0-53.9
	C501.9,17.6,497.4,12.9,491.6,12.6L491.6,12.6z M104.1,117.1l119.3,42l-36.1,44.2L104.1,117.1z M182.1,346.3
	c3.1,3.1,4.3,7.6,3.3,11.9c-1,4.3-4.1,7.8-8.3,9.2l-50.7,14.9l15-51.5c1.5-4.2,5-7.3,9.3-8.3c4.3-1,8.8,0.3,11.9,3.5l19.2,19.9
	C181.9,346,182,346.1,182.1,346.3L182.1,346.3z M217.6,365.7l-46.3-48c0,0,0,0,0,0c0,0-0.1-0.1-0.1-0.1L144,289.5l9.7-9.4l73.5,76.3
	L217.6,365.7z M241.7,354.1L154,263.2l29.6-36.3l95.6,98.6L241.7,354.1z M377.2,399.9l-74.6-77.3l39.3-30L377.2,399.9z M490,77.3
	c0,30-6.3,58-18.8,83.1c-9.8,19.5-23.9,36.5-41.3,49.8L288.8,318l-97.5-100.6l116-142.3c28.1-34.4,68.9-53.8,112.1-53.1
	c1.2,0,2.4,0,3.5,0.1l67.1,2.4L490,77.3z"/>
</svg>
