<?xml version="1.0" encoding="utf-8"?>
<!-- Generator: Adobe Illustrator 23.0.1, SVG Export Plug-In . SVG Version: 6.00 Build 0)  -->
<svg version="1.1" id="Calque_1" xmlns="http://www.w3.org/2000/svg" xmlns:xlink="http://www.w3.org/1999/xlink" x="0px" y="0px"
	 viewBox="0 0 800 600" style="enable-background:new 0 0 800 600;" xml:space="preserve">
<style type="text/css">
	.st0{fill:none;stroke:#5D5C74;stroke-width:4;stroke-miterlimit:10;}
	.st1{fill:#4FC1EA;stroke:#5D5C74;stroke-width:3;stroke-miterlimit:10;}
	.st2{fill:#5C5C74;}
	.st3{fill:#344258;stroke:#5D5C74;stroke-width:4;stroke-miterlimit:10;}
	.st4{fill:#FBD7CE;}
	.st5{fill:#E4E6E9;}
	.st6{fill:#CDCFD2;}
	.st7{fill:#5D5C74;}
	.st8{fill:#FFFFFF;}
	.st9{fill:#DFE1E2;}
	.st10{fill:#EDEEEF;}
	.st11{fill:none;stroke:#5D5C74;stroke-width:3;stroke-miterlimit:10;}
</style>
<line id="XMLID_7309_" class="st0" x1="50.3" y1="513.7" x2="759.5" y2="513.7"/>
<path id="XMLID_7308_" class="st1" d="M626.4,232.3c23.9,74.6-11.4,131.2-103.2,131.2c-97,0-125.1-56.4-102.2-131.2
	c14.5-47.2,9-98.5,23.7-122c20.8-33.1,40.1-46,78.4-46c36.1,0,59.5,11.5,74.3,43.7C609.6,134.2,610.9,183.9,626.4,232.3z"/>
<path id="XMLID_7305_" class="st2" d="M522.5,363.4c-45.8,0-78-12.2-95.9-36.4c-17.1-23.2-19.7-56.5-7.5-96.5
	c6.7-22,9.1-45,11.3-65.4c2.5-23.7,4.6-44.1,12.6-56.9c21.9-34.9,42-46.6,79.5-46.6c38.6,0,61.1,13.3,75.5,44.5
	c6.2,13.5,9.6,32.8,13.4,55.2c3.7,21.4,7.9,45.6,15.5,69.3c12.1,37.8,9.3,70.5-8.2,94.4C600.4,350.1,567.1,363.4,522.5,363.4z
	 M522.5,64.1c-36.5,0-56,11.5-77.4,45.4c-7.7,12.3-9.8,32.4-12.2,55.8c-2.1,20.5-4.6,43.7-11.4,65.9c-12,39.1-9.5,71.7,7.1,94.2
	c17.3,23.5,48.9,35.3,93.8,35.3c43.8,0,76.3-12.9,94.2-37.4c17-23.2,19.7-55.1,7.8-92.1c-7.7-23.9-11.9-48.2-15.6-69.6
	c-3.9-22.2-7.2-41.3-13.2-54.5C581.8,77,559.9,64.1,522.5,64.1z"/>
<path id="XMLID_7304_" class="st3" d="M392,406.9c0-54.9,59.2-99.5,132.2-99.5s132.2,44.5,132.2,99.5"/>
<path id="XMLID_7303_" class="st4" d="M553.8,156c-28.4,0-52.9-11.6-64.6-28.4c-4.7,18.9-18,33-34,35c0,17.7,0,45.8,0,61.2
	c0,23.6,14.8,53,37.9,67.8v23.6c0,13.2,8.3,31.7,30.2,31.7c21.3,0,30.6-18.5,30.6-31.7v-22c24.7-14.2,38-45,38-69.5
	c0-23.6,0-77.2,0-77.2c0-0.2,0-0.3,0-0.5C587.8,154,577.9,156,553.8,156z"/>
<path id="XMLID_7300_" class="st2" d="M523.1,347.5c-23.1,0-31.4-19.7-31.4-33v-23c-22-14.4-37.9-43.1-37.9-68.5v-61.2
	c0-0.6,0.5-1.2,1.1-1.3c15.3-1.9,28.2-15.2,32.9-34c0.1-0.5,0.5-0.9,1-1s1,0.1,1.3,0.5c12,17.1,36.3,27.8,63.5,27.8
	c24.7,0,33.3-2.1,36.9-9.1c0.3-0.5,0.9-0.8,1.4-0.7c0.6,0.1,1,0.6,1,1.2v0.5v77.2c0,23.1-11.9,54.8-38,70.2v21.2
	C555,328.2,545.1,347.5,523.1,347.5z M456.3,162.9V223c0,24.8,15.7,52.9,37.3,66.7c0.4,0.2,0.6,0.6,0.6,1.1v23.6
	c0,12.2,7.7,30.4,28.9,30.4c20.2,0,29.3-17.8,29.3-30.4v-22c0-0.5,0.2-0.9,0.6-1.1c24.5-14.1,37.3-45.1,37.3-68.4v-73.7
	c-5.8,6-17.2,7.1-36.8,7.1c-26.9,0-51.1-10.2-64.1-26.7C484.2,147.7,471.5,160.5,456.3,162.9z"/>
<g id="XMLID_7298_">
	<path id="XMLID_7299_" class="st2" d="M537.5,248.2c0,0-5.9,6.8-13.2,6.8s-13.2-6.8-13.2-6.8s5.9,0.8,13.2,0.8
		S537.5,248.2,537.5,248.2z"/>
</g>
<g id="XMLID_7296_">
	<path id="XMLID_7297_" class="st2" d="M525,229.8c-0.1,0-0.2,0-0.3,0c-2.1-0.1-3.9-0.9-4.9-2.3c-0.8-1.1-1-2.5-0.6-3.9l1.2,0.4
		c-0.3,1-0.2,1.9,0.4,2.7c0.8,1.1,2.2,1.8,3.9,1.8c2,0,3.8-0.7,4.7-1.9c0.6-0.8,0.6-1.8,0.2-2.9l1.2-0.5c0.8,1.9,0.3,3.3-0.3,4.1
		C529.5,228.8,527.3,229.8,525,229.8z"/>
</g>
<path id="XMLID_7295_" class="st5" d="M670.3,378.6v156.6c0,8.1-6.6,14.7-14.7,14.7H390.2c-8.1,0-14.7-6.6-14.7-14.7V378.4
	c0-8.1,6.6-14.7,14.7-14.7h265.4C663.7,363.9,670.3,370.5,670.3,378.6"/>
<path id="XMLID_7294_" class="st6" d="M670.3,518.1v17.2c0,8.1-6.6,14.7-14.7,14.7H390.2c-8.1,0-14.7-6.6-14.7-14.7V518L670.3,518.1
	z"/>
<path id="XMLID_7293_" class="st7" d="M375.5,460c-1.7,0-3.1-1.4-3.1-3.1v-31c0-1.7,1.6-2.9,3.1-2.9c1.6,0,2.9,1.4,2.9,2.9v31
	C378.6,458.6,377.2,460,375.5,460"/>
<path id="XMLID_7292_" class="st7" d="M655.6,553.2H390.2c-9.9,0-17.8-8-17.8-17.8V476c0-1.7,1.6-2.9,3.1-2.9c1.6,0,2.9,1.4,2.9,2.9
	v59.4c0,6.4,5.2,11.8,11.6,11.8h265.6c6.4,0,11.6-5.2,11.6-11.8V378.6c0-6.4-5.2-11.8-11.6-11.8H390.2c-6.4,0-11.6,5.2-11.6,11.8
	v30.8c0,1.7-1.4,3.1-3.1,3.1s-3.1-1.4-3.1-3.1v-30.8c0-9.9,8-17.8,17.8-17.8h265.4c9.9,0,17.8,8,17.8,17.8v156.6
	C673.4,545.1,665.5,553.2,655.6,553.2"/>
<path id="XMLID_7288_" class="st8" d="M650.2,428.5c-1.4,0-2.4-1-2.4-2.4v-28.2c0-6.8-5.5-12.3-12.3-12.3h-31.7
	c-1.4,0-2.4-1-2.4-2.4s1-2.4,2.4-2.4h31.7c9.5,0,17.2,7.8,17.2,17.2v28.2C652.8,427.3,651.6,428.5,650.2,428.5 M586.3,385.5h-22.2
	c-1.4,0-2.4-1-2.4-2.4s1-2.4,2.4-2.4h22.2c1.4,0,2.4,1,2.4,2.4C588.7,384.3,587.7,385.5,586.3,385.5 M531.4,469.4
	c11.6,13.9,2.8,20.1-8.3,20.1s-20.1-9-20.1-20.1s9-20.1,20.1-20.1S539.4,459.3,531.4,469.4"/>
<path id="XMLID_7285_" class="st7" d="M522.9,452.2c-9.4,0-17,7.6-17,17s7.6,17,17,17c5.2,0,9.4-1.6,10.4-4
	c1.2-2.4-0.3-6.4-4.3-11.1c-0.9-1-1-2.8,0-4c3.1-3.8,4-7.8,2.4-10.7C530.2,454,526.9,452.2,522.9,452.2 M522.9,492.6
	c-12.8,0-23.2-10.4-23.2-23.2c0-12.8,10.4-23.2,23.2-23.2c6.4,0,11.6,2.9,14,7.8c2.3,4.5,1.6,10-1.7,15.2c4.5,6.1,5.9,11.4,3.8,15.8
	C536.8,489.8,530.7,492.6,522.9,492.6"/>
<path id="XMLID_7284_" class="st7" d="M519.8,440.3c-1.7,0-3.1-1.4-3.1-3.1c0-0.3,0-0.5,0.2-0.9c0.2-0.3,2.8-9.7,10.6-12
	c1.6-0.5,3.3,0.5,3.8,2.3c0.3,1.6-0.5,3.3-2.1,3.6c-4.3,1.4-6.4,7.6-6.4,7.8C522.4,439.4,521.2,440.3,519.8,440.3"/>
<path id="XMLID_7283_" class="st9" d="M225,530.6h43v-64.1h-43V530.6z"/>
<path id="XMLID_7280_" class="st7" d="M228.1,527.5H265v-57.9h-36.9V527.5z M268.1,533.7h-43c-1.7,0-3.1-1.4-3.1-3.1v-64.1
	c0-1.7,1.4-3.1,3.1-3.1h43c1.7,0,3.1,1.4,3.1,3.1v64.1C271,532.3,269.8,533.7,268.1,533.7z"/>
<path id="XMLID_7275_" class="st7" d="M268.1,522.1c-1.7,0-3.1-1.4-3.1-3.1c0-1.7,1.4-3.1,3.1-3.1c9.5,0,17.3-7.8,17.3-17.3
	s-7.8-17.3-17.3-17.3c-1.7,0-3.1-1.4-3.1-3.1s1.4-3.1,3.1-3.1c13,0,23.4,10.6,23.4,23.6C291.5,511.6,280.9,522.1,268.1,522.1
	 M246.6,458.5c-0.5,0-1-0.2-1.4-0.7c-0.5-0.7-5.5-7.6-4.5-12.3c0.5-2.1,1.7-3.6,3.1-5.2c1.6-1.9,3.1-3.6,3.3-6.6
	c0.2-1,1-1.7,2.1-1.7c1,0.2,1.7,1,1.7,2.1c-0.3,4.2-2.4,6.6-4.2,8.7c-1,1.2-2.1,2.4-2.3,3.6c-0.5,2.4,2.4,7.3,3.8,9.2
	c0.7,0.9,0.5,1.9-0.3,2.6C247.3,458.4,247,458.5,246.6,458.5 M236,457.2c-0.2,0-0.3,0-0.5-0.2c-0.3-0.3-3.8-2.6-4.2-5
	c-0.2-1,0.2-2.1,0.7-2.9c0.5-1.2,0.9-2.3,0.5-3.6c-0.2-0.5,0.2-1,0.7-1c0.5-0.2,1,0.2,1,0.7c0.5,2.1-0.2,3.5-0.5,4.7
	c-0.3,0.7-0.5,1.4-0.5,2.1c0.2,1,2.1,2.8,3.3,3.8c0.3,0.3,0.5,0.9,0.2,1.2C236.6,457,236.4,457.2,236,457.2 M257.2,457.5
	c-0.3,0-0.7-0.2-0.9-0.7c-0.2-0.5-1.6-4.5-0.3-6.6c0.5-0.9,1.4-1.6,2.3-2.1c1-0.7,1.9-1.2,2.6-2.6c0.2-0.5,0.7-0.7,1.2-0.3
	c0.3,0.2,0.7,0.7,0.5,1.2c-0.9,1.9-2.3,2.8-3.3,3.5c-0.7,0.5-1.4,0.9-1.6,1.4c-0.5,1,0,3.5,0.5,5c0.2,0.5,0,1-0.5,1.2H257.2"/>
<path id="XMLID_7271_" class="st8" d="M239.4,517.3c-1.5,0-2.7-1.1-2.7-2.7v-20c0-1.5,1.1-2.7,2.7-2.7c1.5,0,2.7,1.1,2.7,2.7v20
	C242.1,516.2,240.9,517.3,239.4,517.3C239.4,517.5,239.4,517.5,239.4,517.3 M239.4,540.1c-1.5,0-2.7-1.1-2.7-2.7v-10.1
	c0-1.5,1.1-2.7,2.7-2.7c1.5,0,2.7,1.1,2.7,2.7v10.1C242.1,538.8,240.9,540.1,239.4,540.1"/>
<path id="XMLID_7270_" class="st6" d="M229.1,268.6L179,318.8c0,0-11.6-10.7-13.3-19.9c0,0-8.3-21.2,10.6-37.9c0,0,11-13,34.1-7.4
	C210.4,253.6,223,257.8,229.1,268.6z"/>
<path id="XMLID_7269_" class="st7" d="M109.9,233.2c0.1-0.5,0.5-0.8,0.9-1s0.9-0.2,1.4,0l59.9,26.3c0.2,0.1,0.4,0.2,0.6,0.4
	c15.5-14.2,39.6-13.9,54.6,1.1c2.3,2.3,4.3,4.9,5.9,7.6l0,0c0.7,0.8,0.7,2-0.1,2.7l-4.2,4.2h-5.7l5.8-5.8c-1.3-2-2.9-4-4.6-5.8
	c-13.8-13.8-36.3-13.8-50.2,0c-9.7,9.7-12.6,23.8-8.6,36.1l0,0c0.2,0.7,0.1,1.4-0.5,1.9c-0.8,0.8-2,0.8-2.8,0
	c-0.1-0.1-0.2-0.3-0.3-0.4c0,0-0.1,0-0.1-0.1v-0.1c0-0.1-0.1-0.2-0.1-0.3c-4.2-13.1-1.4-27.9,8.3-38.6l-57.6-25.3l-23.3,74.2h-3.6
	L109.9,233.2z"/>
<path id="XMLID_7265_" class="st7" d="M112.8,532.3c-0.5,0-1-0.2-1.3-0.6l-39.4-48.4h4.4l37.1,45.6h64.2c0.9,0,1.7,0.8,1.7,1.7v9
	c0,0.9-0.8,1.7-1.7,1.7l-137.5,1.4l0,0c-0.9,0-1.7-0.8-1.7-1.7s0.7-1.7,1.7-1.7l135.8-1.4v-5.6L112.8,532.3L112.8,532.3z"/>
<path id="XMLID_7263_" class="st7" d="M181.8,321.6c-0.8,0.8-2.1,0.8-2.8,0c-0.8-0.8-0.8-2.1,0-2.8l10.3-10.3v5.7L181.8,321.6z"/>
<path id="XMLID_7262_" class="st10" d="M220.4,308.9c-7.4,7.4-19.1,7.7-27,1.1l28-28C228.1,289.8,227.8,301.5,220.4,308.9z"/>
<path id="XMLID_7256_" class="st7" d="M228.9,274.5h-5.7l-34,34v5.7l1.3-1.3c9.4,8.2,23.7,7.9,32.6-1.1c8.9-8.9,9.3-23.2,1.1-32.6
	L228.9,274.5z M221.5,282c6.6,7.8,6.3,19.6-1.1,27c-7.4,7.4-19.1,7.7-27,1.1L221.5,282z"/>
<path id="XMLID_7255_" class="st5" d="M50.2,473.7c-11.2,0-20.2-9.1-20.2-20.2c0-11.2,9.1-20.2,20.2-20.2c11.2,0,20.2,9.1,20.2,20.2
	C70.4,464.7,61.3,473.7,50.2,473.7z"/>
<path id="XMLID_7251_" class="st7" d="M72.2,483.3h4.4l-10.2-12.6c4.6-4.3,7.5-10.4,7.5-17.2c0-10.1-6.4-18.7-15.3-22.1l2.8-8.9
	h-3.6l-2.5,7.9c-1.6-0.4-3.4-0.6-5.1-0.6c-13,0-23.6,10.6-23.6,23.6S37.2,477,50.2,477c5,0,9.7-1.6,13.5-4.3L72.2,483.3z
	 M50.2,473.7c-11.2,0-20.2-9.1-20.2-20.2c0-11.2,9.1-20.2,20.2-20.2c11.2,0,20.2,9.1,20.2,20.2C70.4,464.7,61.3,473.7,50.2,473.7z"
	/>
<rect id="XMLID_7247_" x="40.3" y="532.3" class="st6" width="135.8" height="7"/>
<line id="XMLID_7245_" class="st11" x1="56.4" y1="432.3" x2="88.2" y2="307.8"/>
<g id="XMLID_7240_">
	<path id="XMLID_7243_" class="st2" d="M475.8,189.7c-0.6,0-1.3-0.2-1.8-0.7c-1.1-1-1.1-2.6-0.1-3.7c3.3-3.5,7.9-5.3,12.3-4.9
		c3.7,0.3,6.8,2.2,8.7,5.1c0.8,1.2,0.4,2.8-0.8,3.6c-1.2,0.8-2.8,0.4-3.6-0.8c-1-1.6-2.7-2.5-4.7-2.7c-2.8-0.3-5.8,1-8,3.3
		C477.2,189.4,476.5,189.7,475.8,189.7z"/>
</g>
<g id="XMLID_7234_">
	<path id="XMLID_7235_" class="st2" d="M574.4,189.7c-0.7,0-1.4-0.3-1.9-0.8c-2.2-2.3-5.4-3.6-8.6-3.4c-2.6,0.1-4.8,1.2-6.2,3
		c-0.9,1.2-2.5,1.4-3.7,0.5c-1.1-0.9-1.4-2.5-0.5-3.7c2.3-3,5.9-4.8,10-5.1c4.8-0.3,9.4,1.6,12.7,5c1,1,1,2.7-0.1,3.7
		C575.7,189.4,575.1,189.7,574.4,189.7z"/>
</g>
</svg>
