<svg xmlns="http://www.w3.org/2000/svg" xmlns:svg="http://www.w3.org/2000/svg" id="svg21" version="1.1" viewBox="0 0 48 48"><metadata id="metadata27"/><title id="title10"/><g style="fill:#000" id="Radiation_Virus" data-name="Radiation Virus"><path style="fill:#000" id="path12" d="M29.71,36.41A9,9,0,0,1,46.87,31H47a12,12,0,0,0-14.59-8.63A12.19,12.19,0,0,0,27,2c6.25,2.22,8.29,11.1,2.82,15.66A9,9,0,0,1,15,10.81,9.42,9.42,0,0,1,21,2a12.18,12.18,0,0,0-5.41,20.37A12,12,0,0,0,1,31h.13a9,9,0,0,1,17.49,3,8.91,8.91,0,0,1-2.23,5.92A9,9,0,0,1,1.13,37H1a12,12,0,0,0,20.71,4.83h0a12.18,12.18,0,0,0,2.28-4c3.79,11.35,20,10.69,23-.81h-.13C43.92,45.32,32,44.82,29.71,36.41ZM24,30a3,3,0,1,1,3-3A3,3,0,0,1,24,30Z"/><path style="fill:#000" id="path14" d="M35,27.9a10.93,10.93,0,0,1-3.5,7.18,6.77,6.77,0,0,0,1.82,3.69A14.94,14.94,0,0,0,39,27,7,7,0,0,0,35,27.9Z"/><path style="fill:#000" id="path16" d="M14.72,38.77a6.7,6.7,0,0,0,1.81-3.7A10.94,10.94,0,0,1,13,27.9,6.78,6.78,0,0,0,9,27,14.94,14.94,0,0,0,14.72,38.77Z"/><path style="fill:#000" id="path18" d="M20.2,16.67a11.09,11.09,0,0,1,7.6,0,6.79,6.79,0,0,0,2.66-3.2,14.93,14.93,0,0,0-12.92,0A6.9,6.9,0,0,0,20.2,16.67Z"/></g></svg>