<?xml version="1.0" encoding="utf-8"?>
<!-- Generator: Adobe Illustrator 19.0.0, SVG Export Plug-In . SVG Version: 6.00 Build 0)  -->
<svg version="1.1" id="Calque_1" xmlns="http://www.w3.org/2000/svg" xmlns:xlink="http://www.w3.org/1999/xlink" x="0px" y="0px"
	 viewBox="0 0 798 454" style="enable-background:new 0 0 798 454;" xml:space="preserve">
<style type="text/css">
	.st0{opacity:0.2;}
</style>
<g class="st0">
	<path d="M42.8,188L42.8,188c-8.6,0-15.5-6.9-15.5-15.5V136c0-8.6,6.9-15.5,15.5-15.5h0c8.6,0,15.5,6.9,15.5,15.5v36.5
		C58.3,181.1,51.3,188,42.8,188z"/>
	<path d="M131.8,188L131.8,188c-8.6,0-15.5-6.9-15.5-15.5v-79c0-8.6,6.9-15.5,15.5-15.5h0c8.6,0,15.5,6.9,15.5,15.5v79
		C147.3,181.1,140.3,188,131.8,188z"/>
	<path d="M309.8,188L309.8,188c-8.6,0-15.5-6.9-15.5-15.5v-79c0-8.6,6.9-15.5,15.5-15.5h0c8.6,0,15.5,6.9,15.5,15.5v79
		C325.3,181.1,318.3,188,309.8,188z"/>
	<path d="M220.8,221L220.8,221c-8.6,0-15.5-6.9-15.5-15.5v-173c0-8.6,6.9-15.5,15.5-15.5h0c8.6,0,15.5,6.9,15.5,15.5v173
		C236.3,214.1,229.3,221,220.8,221z"/>
	<path d="M398.2,188L398.2,188c-8.6,0-15.5-6.9-15.5-15.5V136c0-8.6,6.9-15.5,15.5-15.5h0c8.6,0,15.5,6.9,15.5,15.5v36.5
		C413.7,181.1,406.8,188,398.2,188z"/>
	<path d="M755.2,188L755.2,188c-8.6,0-15.5-6.9-15.5-15.5V136c0-8.6,6.9-15.5,15.5-15.5h0c8.6,0,15.5,6.9,15.5,15.5v36.5
		C770.7,181.1,763.8,188,755.2,188z"/>
	<path d="M487.2,188L487.2,188c-8.6,0-15.5-6.9-15.5-15.5v-79c0-8.6,6.9-15.5,15.5-15.5h0c8.6,0,15.5,6.9,15.5,15.5v79
		C502.7,181.1,495.8,188,487.2,188z"/>
	<path d="M665.2,188L665.2,188c-8.6,0-15.5-6.9-15.5-15.5v-79c0-8.6,6.9-15.5,15.5-15.5h0c8.6,0,15.5,6.9,15.5,15.5v79
		C680.7,181.1,673.8,188,665.2,188z"/>
	<path d="M576.2,221L576.2,221c-8.6,0-15.5-6.9-15.5-15.5v-173c0-8.6,6.9-15.5,15.5-15.5h0c8.6,0,15.5,6.9,15.5,15.5v173
		C591.7,214.1,584.8,221,576.2,221z"/>
</g>
<g class="st0">
	<path d="M166.8,401.5c-12,0-20.9-3-26.6-9.1c-5.7-6.1-8.7-16.2-9-30.3l25.2-3.3c0,4,0.2,7.4,0.7,10.1c0.4,2.7,1.1,4.8,1.9,6.3
		c0.8,1.4,1.7,2.5,2.7,3s2.1,0.9,3.3,0.9c3.3,0,5-2.4,5-7.2c0-4.7-1.1-8.7-3.2-12.1s-5.5-7.1-10.2-11.1l-7.7-6.5
		c-2.8-2.4-5.1-4.5-6.8-6.4c-1.8-1.9-3.6-4.1-5.4-6.8c-1.8-2.7-3.2-5.7-4.1-9c-0.9-3.3-1.3-6.9-1.3-10.9c0-10.5,3.2-18.6,9.5-24.3
		c6.3-5.7,15.1-8.6,26.2-8.6c19.9,0,30,11.8,30.1,35.4l-25.8,2.6c0-3.2,0-5.6-0.1-7.1c-0.1-1.6-0.3-3.2-0.6-4.9
		c-0.3-1.7-0.9-2.9-1.6-3.5c-0.8-0.7-1.8-1-3-1c-1.8,0-3.2,1-4.1,2.9c-0.9,1.9-1.4,3.7-1.4,5.6c0,1,0.1,2,0.3,3
		c0.2,1,0.3,1.8,0.5,2.6c0.1,0.8,0.5,1.6,1,2.5c0.5,0.9,0.9,1.6,1.1,2.2c0.2,0.5,0.7,1.2,1.5,2.1s1.2,1.5,1.5,1.8
		c0.2,0.3,0.8,1,1.8,1.8c0.9,0.9,1.5,1.4,1.7,1.6c0.2,0.2,0.8,0.7,1.9,1.7c1.1,1,1.7,1.5,1.8,1.6l7,6.2c3,2.7,5.5,5.2,7.6,7.5
		c2.1,2.3,4.1,5,6,8.1s3.3,6.4,4.3,10c1,3.6,1.4,7.5,1.4,11.6c0,8.7-3,16.1-9,22C184.5,398.5,176.6,401.5,166.8,401.5z"/>
	<path d="M241.8,399.6v-51.6l-22.2-69.8h28.1l9.6,32.5l8-32.5h26.9l-21.8,69.8v51.6H241.8z"/>
	<path d="M350.3,401.5c-12,0-20.9-3-26.6-9.1c-5.7-6.1-8.7-16.2-9-30.3l25.2-3.3c0,4,0.2,7.4,0.7,10.1c0.4,2.7,1.1,4.8,1.9,6.3
		c0.8,1.4,1.7,2.5,2.7,3s2.1,0.9,3.3,0.9c3.3,0,5-2.4,5-7.2c0-4.7-1.1-8.7-3.2-12.1s-5.5-7.1-10.2-11.1l-7.7-6.5
		c-2.8-2.4-5.1-4.5-6.8-6.4c-1.8-1.9-3.6-4.1-5.4-6.8c-1.8-2.7-3.2-5.7-4.1-9c-0.9-3.3-1.3-6.9-1.3-10.9c0-10.5,3.2-18.6,9.5-24.3
		c6.3-5.7,15.1-8.6,26.2-8.6c19.9,0,30,11.8,30.1,35.4l-25.8,2.6c0-3.2,0-5.6-0.1-7.1c-0.1-1.6-0.3-3.2-0.6-4.9
		c-0.3-1.7-0.9-2.9-1.6-3.5c-0.8-0.7-1.8-1-3-1c-1.8,0-3.2,1-4.1,2.9c-0.9,1.9-1.4,3.7-1.4,5.6c0,1,0.1,2,0.3,3
		c0.2,1,0.3,1.8,0.5,2.6c0.1,0.8,0.5,1.6,1,2.5c0.5,0.9,0.9,1.6,1.1,2.2c0.2,0.5,0.7,1.2,1.5,2.1s1.2,1.5,1.5,1.8
		c0.2,0.3,0.8,1,1.8,1.8c0.9,0.9,1.5,1.4,1.7,1.6c0.2,0.2,0.8,0.7,1.9,1.7c1.1,1,1.7,1.5,1.8,1.6l7,6.2c3,2.7,5.5,5.2,7.6,7.5
		c2.1,2.3,4.1,5,6,8.1s3.3,6.4,4.3,10c1,3.6,1.4,7.5,1.4,11.6c0,8.7-3,16.1-9,22C367.9,398.5,360,401.5,350.3,401.5z"/>
	<path d="M421.7,399.6v-99.5H404v-22h65.1v22h-17.7v99.5H421.7z"/>
	<path d="M494.9,399.6V278.1h56.8v19.9h-27.1v27.1h20.2v20.7h-20.2v33.9H552v19.8H494.9z"/>
	<path d="M578.8,399.6V278.1h29.7v47.3l18.4-47.3h29.2l-22,55.2l22.3,66.3h-30.5L610.1,347l-1.5,1.9v50.7H578.8z"/>
</g>
</svg>
