<?xml version="1.0" encoding="utf-8"?>
<!-- Generator: Adobe Illustrator 19.0.0, SVG Export Plug-In . SVG Version: 6.00 Build 0)  -->
<svg version="1.1" id="Calque_1" xmlns="http://www.w3.org/2000/svg" xmlns:xlink="http://www.w3.org/1999/xlink" x="0px" y="0px"
	 viewBox="0 0 798 454" style="enable-background:new 0 0 798 454;" xml:space="preserve">
<style type="text/css">
	.st0{opacity:0.2;}
	.st1{fill:#FFFFFF;}
</style>
<path class="st0" d="M36.4,149l49-10.5v41h36v42h-37V294c0,0-0.5,26,37,15v38.5c0,0-21,14-63,0c0,0-19.3-14.4-22-39.3
	S36.4,149,36.4,149z"/>
<path class="st0" d="M137.4,181v172.7h49V235.5c0,0,18-20,36-8.5v-46.8c0,0-9.8-5.3-27.3,0.7c0,0-11,6-13.4,13.5l-2.4-14.6
	l-41.9,0.2V181z"/>
<rect x="235.1" y="180.7" class="st0" width="48.7" height="173.1"/>
<polygon class="st0" points="235.1,165 283.8,154.3 283.8,114.7 235.1,125.3 "/>
<path class="st0" d="M438.9,209.8c0,0-13.3-25.8-44.8-31.8c-31.5-6-46.3,14.5-46.3,14.5l-2.8,1.5v-54.2v-25.2L300.4,125v228.7h1.5
	h49.8v-11c19.5,13.3,40.3,12,40.3,12c33.8-7,41.8-24.3,41.8-24.3s11.8-11,18-50S438.9,209.8,438.9,209.8z"/>
<path class="st1" d="M351.1,230.3v72.3c0,0,15,16,36,5s16.7-54.7,16.7-54.7s-7.5-31.7-27.1-32.3C357.1,220,351.1,230.3,351.1,230.3z
	"/>
<path class="st0" d="M605.8,283.7h-95c0,0,0,25.1,22.7,27.9c22.7,2.8,34.7,2.5,62.7-8.5l0.3,38.3c0,0-46.3,23.7-87.7,7
	c-41.3-16.7-46-61-46-61s-10.3-53.3,20.7-87.7s78-19,78-19s36,15,42,58.3C603.4,239,608.8,254.7,605.8,283.7z"/>
<path class="st1" d="M509.9,246.5c0,0-1.2-27.7,24-29.7c25.2-2,26,30.7,26,30.7h-50L509.9,246.5z"/>
</svg>
