<?xml version="1.0" encoding="utf-8"?>
<!-- Generator: Adobe Illustrator 23.0.1, SVG Export Plug-In . SVG Version: 6.00 Build 0)  -->
<svg version="1.1" id="Layer_1" xmlns="http://www.w3.org/2000/svg" xmlns:xlink="http://www.w3.org/1999/xlink" x="0px" y="0px"
	 viewBox="0 0 500 500" style="enable-background:new 0 0 500 500;" xml:space="preserve">
<style type="text/css">
	.st0{opacity:0.1;}
	.st1{fill:#FFFFFF;}
	.st2{fill:#E2E2E2;}
	.st3{fill:#FFCBB7;}
	.st4{fill:#5B5B74;}
	.st5{fill:#FCD7CD;}
	.st6{fill:#F39200;}
	.st7{fill:#4FC1EA;}
	.st8{fill:#68BB88;}
	.st9{fill:#7C4DFF;}
	.st10{fill:#F7F7F7;}
	.st11{opacity:0.3;fill:#444444;enable-background:new    ;}
	.st12{fill:#FF3E00;}
	.st13{fill:#00D1B2;}
	.st14{fill:#2396ED;}
</style>
<g class="st0">
	<path d="M250,189c33.6,0,61,27.4,61,61s-27.4,61-61,61s-61-27.4-61-61S216.4,189,250,189 M250,188c-34.2,0-62,27.8-62,62
		s27.8,62,62,62s62-27.8,62-62S284.2,188,250,188L250,188z"/>
</g>
<g class="st0">
	<path d="M250,117c35.5,0,68.9,13.8,94,39c25.1,25.1,39,58.5,39,94s-13.8,68.9-39,94c-25.1,25.1-58.5,39-94,39s-68.9-13.8-94-39
		c-25.1-25.1-39-58.5-39-94s13.8-68.9,39-94C181.1,130.8,214.5,117,250,117 M250,116c-74,0-134,60-134,134s60,134,134,134
		s134-60,134-134S324,116,250,116L250,116z"/>
</g>
<g class="st0">
	<path d="M250,50c27,0,53.2,5.3,77.8,15.7c23.8,10.1,45.2,24.5,63.6,42.9s32.8,39.8,42.9,63.6C444.7,196.8,450,223,450,250
		s-5.3,53.2-15.7,77.8c-10.1,23.8-24.5,45.2-42.9,63.6s-39.8,32.8-63.6,42.9C303.2,444.7,277,450,250,450s-53.2-5.3-77.8-15.7
		c-23.8-10.1-45.2-24.5-63.6-42.9s-32.8-39.8-42.9-63.6C55.3,303.2,50,277,50,250s5.3-53.2,15.7-77.8c10.1-23.8,24.5-45.2,42.9-63.6
		s39.8-32.8,63.6-42.9C196.8,55.3,223,50,250,50 M250,49C139,49,49,139,49,250s90,201,201,201s201-90,201-201S361,49,250,49L250,49z
		"/>
</g>
<g>
	
		<image style="overflow:visible;opacity:0.12;enable-background:new    ;" width="127" height="127" xlink:href="F6498E95.png"  transform="matrix(1 0 0 1 54 41)">
	</image>
	<g>
		<circle class="st1" cx="115.5" cy="97.5" r="39"/>
		<path class="st2" d="M115.5,59c21.2,0,38.5,17.3,38.5,38.5S136.7,136,115.5,136S77,118.7,77,97.5S94.3,59,115.5,59 M115.5,58
			C93.7,58,76,75.7,76,97.5S93.7,137,115.5,137S155,119.3,155,97.5S137.3,58,115.5,58L115.5,58z"/>
	</g>
</g>
<g>
	
		<image style="overflow:visible;opacity:0.12;enable-background:new    ;" width="99" height="99" xlink:href="F6498E97.png"  transform="matrix(1 0 0 1 223 337)">
	</image>
	<g>
		<circle class="st1" cx="270.5" cy="379.5" r="25"/>
		<path class="st2" d="M270.5,355c13.5,0,24.5,11,24.5,24.5S284,404,270.5,404S246,393,246,379.5S257,355,270.5,355 M270.5,354
			c-14.1,0-25.5,11.4-25.5,25.5s11.4,25.5,25.5,25.5s25.5-11.4,25.5-25.5S284.6,354,270.5,354L270.5,354z"/>
	</g>
</g>
<g>
	
		<image style="overflow:visible;opacity:0.12;enable-background:new    ;" width="99" height="99" xlink:href="F6498E92.png"  transform="matrix(1 0 0 1 223 12)">
	</image>
	<g>
		<circle class="st1" cx="270.5" cy="54.5" r="25"/>
		<path class="st2" d="M270.5,30C284,30,295,41,295,54.5S284,79,270.5,79S246,68,246,54.5S257,30,270.5,30 M270.5,29
			C256.4,29,245,40.4,245,54.5S256.4,80,270.5,80S296,68.6,296,54.5S284.6,29,270.5,29L270.5,29z"/>
	</g>
</g>
<g>
	
		<image style="overflow:visible;opacity:0.12;enable-background:new    ;" width="113" height="113" xlink:href="F6498E93.png"  transform="matrix(1 0 0 1 143 179)">
	</image>
	<g>
		<circle class="st1" cx="197.5" cy="228.5" r="32"/>
		<path class="st2" d="M197.5,197c17.4,0,31.5,14.1,31.5,31.5S214.9,260,197.5,260S166,245.9,166,228.5S180.1,197,197.5,197
			 M197.5,196c-17.9,0-32.5,14.6-32.5,32.5s14.6,32.5,32.5,32.5s32.5-14.6,32.5-32.5S215.4,196,197.5,196L197.5,196z"/>
	</g>
</g>
<g>
	
		<image style="overflow:visible;opacity:0.12;enable-background:new    ;" width="114" height="113" xlink:href="F6498E9D.png"  transform="matrix(0.9956 0 0 0.9956 364.7516 305.2495)">
	</image>
	<g>
		<circle class="st1" cx="419.5" cy="354.5" r="32"/>
		<path class="st2" d="M419.5,323c17.4,0,31.5,14.1,31.5,31.5S436.9,386,419.5,386S388,371.9,388,354.5S402.1,323,419.5,323
			 M419.5,322c-17.9,0-32.5,14.6-32.5,32.5s14.6,32.5,32.5,32.5s32.5-14.6,32.5-32.5S437.4,322,419.5,322L419.5,322z"/>
	</g>
</g>
<g>
	
		<image style="overflow:visible;opacity:0.12;enable-background:new    ;" width="128" height="127" xlink:href="F6498E9F.png"  transform="matrix(0.9961 0 0 0.9961 53.7515 344.2495)">
	</image>
	<g>
		<circle class="st1" cx="115.5" cy="400.5" r="39"/>
		<path class="st2" d="M115.5,362c21.2,0,38.5,17.3,38.5,38.5S136.7,439,115.5,439S77,421.7,77,400.5S94.3,362,115.5,362 M115.5,361
			C93.7,361,76,378.7,76,400.5S93.7,440,115.5,440s39.5-17.7,39.5-39.5S137.3,361,115.5,361L115.5,361z"/>
	</g>
</g>
<g>
	
		<image style="overflow:visible;opacity:0.12;enable-background:new    ;" width="135" height="135" xlink:href="F6498E90.png"  transform="matrix(1 0 0 1 295 116)">
	</image>
	<g>
		<circle class="st1" cx="360.5" cy="176.5" r="43"/>
		<path class="st2" d="M360.5,134c23.4,0,42.5,19.1,42.5,42.5S383.9,219,360.5,219S318,199.9,318,176.5S337.1,134,360.5,134
			 M360.5,133c-24,0-43.5,19.5-43.5,43.5s19.5,43.5,43.5,43.5s43.5-19.5,43.5-43.5S384.5,133,360.5,133L360.5,133z"/>
	</g>
</g>
<g>
	<g>
		<g>
			<path class="st3" d="M134.4,98.1c0,2-1.3,3.6-2.9,3.6s-2.9-1.6-2.9-3.6s1.3-2.9,2.9-2.9S134.4,96.1,134.4,98.1z"/>
		</g>
		<g>
			<path class="st4" d="M131.6,102.1c-1.8,0-3.3-1.8-3.3-4c0-2.1,1.3-3.4,3.3-3.4s3.3,1.3,3.3,3.4
				C134.9,100.3,133.4,102.1,131.6,102.1z M131.6,95.6c-1.5,0-2.4,0.9-2.4,2.5c0,1.7,1.1,3.1,2.4,3.1s2.4-1.4,2.4-3.1
				C134,96.5,133.1,95.6,131.6,95.6z"/>
		</g>
	</g>
	<g>
		<g>
			<path class="st3" d="M102.2,98.1c0,2-1.3,3.6-2.9,3.6s-2.9-1.6-2.9-3.6s1.3-2.9,2.9-2.9C100.9,95.1,102.2,96.1,102.2,98.1z"/>
		</g>
		<g>
			<path class="st4" d="M99.3,102.1c-1.8,0-3.3-1.8-3.3-4c0-2.1,1.3-3.4,3.3-3.4s3.3,1.3,3.3,3.4
				C102.6,100.3,101.1,102.1,99.3,102.1z M99.3,95.6c-1.5,0-2.4,0.9-2.4,2.5c0,1.7,1.1,3.1,2.4,3.1s2.4-1.4,2.4-3.1
				C101.7,96.5,100.8,95.6,99.3,95.6z"/>
		</g>
	</g>
	<g>
		<path class="st5" d="M131.7,92.3c0,19.2-6.7,27.5-16.2,27.5S99,112.1,99,92.3c0-11.9,6.9-14.4,16.5-14.4S131.7,80.5,131.7,92.3z"
			/>
	</g>
	<g>
		<path class="st4" d="M115.4,120.3c-5.2,0-9.3-2.2-12.2-6.5c-3.1-4.7-4.7-11.9-4.7-21.4c0-13.1,8.6-14.8,17-14.8
			c8.7,0,16.7,1.8,16.7,14.8C132.1,110.4,126.2,120.3,115.4,120.3z M115.4,78.4c-5.4,0-9.1,0.8-11.6,2.7c-3,2.2-4.5,5.9-4.5,11.3
			c0,22.4,8.7,27,16.1,27c10.2,0,15.8-9.6,15.8-27C131.2,80.8,124.9,78.4,115.4,78.4z"/>
	</g>
	<g>
		<path class="st6" d="M115.1,101.9c6.4,0,7.9,4,10.8,4c3,0,5-4.3,5-4.3s1.9,21.9-15.3,21.9s-15.9-21.7-15.9-21.7s0.8,4,4.5,4
			S108.2,101.9,115.1,101.9z"/>
	</g>
	<g>
		<path class="st4" d="M115.7,124c-4.5,0-8.2-1.5-11-4.4c-3.2-3.3-4.5-8-5-11.3c-0.6-3.6-0.4-6.3-0.4-6.4c0-0.2,0.2-0.4,0.4-0.4
			c0.2,0,0.4,0.1,0.5,0.4c0,0.1,0.8,3.6,4,3.6c1.4,0,2.3-0.6,3.3-1.4c1.5-1.1,3.4-2.5,7.6-2.5c4,0,6.1,1.5,7.8,2.6
			c1.1,0.8,2,1.4,3,1.4c2.7,0,4.6-4,4.6-4c0.1-0.2,0.3-0.3,0.5-0.2c0.2,0,0.4,0.2,0.4,0.4c0,0.1,0.2,2.9-0.2,6.6
			c-0.5,3.4-1.6,8.1-4.7,11.5C123.8,122.5,120.2,124,115.7,124z M100.2,104.1c0.1,3.5,1,10.5,5.2,14.9c2.6,2.7,6,4.1,10.3,4.1
			c4.2,0,7.6-1.4,10.1-4.1c4.4-4.8,4.8-12.6,4.8-15.9c-0.9,1.3-2.6,3.2-4.7,3.2c-1.4,0-2.4-0.7-3.6-1.5c-1.6-1.1-3.6-2.5-7.3-2.5
			c-3.8,0-5.5,1.3-7,2.4c-1.1,0.8-2.2,1.6-3.9,1.6C102.2,106.3,100.9,105.2,100.2,104.1z"/>
	</g>
	<g>
		<g>
			<path class="st3" d="M121.1,109.2c-0.7,2.1-3.1,2.1-5.7,2.1s-5.6,0.3-6.2-1.9c-0.7-2.4,3.6-2.7,6.2-2.7S121.8,106.9,121.1,109.2z
				"/>
		</g>
		<g>
			<path class="st4" d="M113.9,111.8c-2.2,0-4.5-0.2-5.1-2.2c-0.2-0.6-0.1-1.2,0.3-1.7c0.8-1.1,2.8-1.5,6.4-1.5c2.4,0,5,0.2,5.9,1.4
				c0.2,0.3,0.5,0.9,0.2,1.7c-0.8,2.4-3.4,2.4-5.9,2.4h-0.2c-0.3,0-0.5,0-0.8,0C114.4,111.8,114.1,111.8,113.9,111.8z M115.4,107.2
				c-4,0-5.3,0.6-5.7,1.2c-0.2,0.2-0.2,0.5-0.1,0.9c0.4,1.3,1.9,1.6,4.2,1.6c0.3,0,0.5,0,0.8,0s0.5,0,0.8,0h0.2c2.8,0,4.5-0.1,5-1.8
				c0.1-0.5,0-0.7-0.1-0.9C119.8,107.2,116.5,107.2,115.4,107.2z"/>
		</g>
	</g>
	<g>
		<path class="st4" d="M105.2,96.8c-0.1,0-0.2-0.1-0.3-0.1c-0.2-0.2-0.2-0.5,0-0.6c0.7-0.6,1.6-0.9,2.5-0.8c0.7,0.1,1.3,0.4,1.7,0.9
			c0.1,0.2,0.1,0.5-0.1,0.6s-0.5,0.1-0.6-0.1c-0.2-0.3-0.6-0.5-1-0.5c-0.6-0.1-1.3,0.2-1.8,0.6C105.4,96.7,105.3,96.8,105.2,96.8z"
			/>
	</g>
	<g>
		<path class="st4" d="M125.4,96.8c-0.1,0-0.2,0-0.3-0.1c-0.5-0.4-1.2-0.7-1.9-0.6c-0.6,0-1,0.2-1.3,0.6c-0.2,0.2-0.5,0.2-0.6,0
			c-0.2-0.2-0.2-0.5,0-0.6c0.4-0.5,1.1-0.8,1.9-0.9c0.9-0.1,1.9,0.3,2.5,0.8c0.2,0.2,0.2,0.5,0,0.6
			C125.6,96.7,125.5,96.8,125.4,96.8z"/>
	</g>
	<g>
		<path class="st6" d="M111.1,68.8c6.1-1.6,12.4,2.5,15.4,6.3c2.5,3.1,5.4,2.3,7.6,5.7s0.8,9.8-0.9,12.5c-1.6,2.7-1.6,2.7-1.6,2.7
			s-2.1-8.4-5.4-9.8c-3.2-1.4-3.2,2-10.4,1.4c-7.2-0.6-9.7-4.8-11.4-4.3c-1.7,0.6-1.5,3.7-3,6.8C99.9,93.3,99,96,99,96
			s-4.8-9.2-2.9-14.4c1.5-4,4.3-2.6,6.3-5.1C104.5,74,106.8,70,111.1,68.8z"/>
	</g>
	<g>
		<path class="st4" d="M99,96.5c-0.2,0-0.3-0.1-0.4-0.2c-0.2-0.4-4.9-9.4-2.9-14.8c0.9-2.5,2.4-3,3.8-3.6c0.9-0.4,1.8-0.7,2.6-1.7
			c0.3-0.4,0.6-0.8,0.9-1.2c1.9-2.5,4.2-5.7,8-6.7c0.9-0.3,1.9-0.4,2.9-0.4c5.2,0,10.3,3.4,12.9,6.8c1.1,1.4,2.3,2,3.5,2.5
			c1.4,0.6,2.8,1.3,4.1,3.2c2.4,3.7,0.8,10.3-0.9,13l-1.6,2.7c-0.1,0.2-0.3,0.2-0.5,0.2s-0.3-0.2-0.4-0.3c-0.6-2.3-2.6-8.4-5.1-9.5
			c-0.5-0.2-0.9-0.3-1.3-0.3c-0.6,0-1.1,0.2-1.8,0.6c-1.1,0.5-2.7,1.3-5.6,1.3c-0.5,0-1,0-1.6-0.1c-4.5-0.4-7.2-2.1-9-3.3
			c-1-0.7-1.7-1.1-2.2-1c-0.8,0.3-1.1,1.4-1.5,2.9c-0.3,1.1-0.6,2.4-1.2,3.7c-1.5,3.1-2.4,5.8-2.4,5.8C99.4,96.4,99.2,96.5,99,96.5
			C99.1,96.5,99,96.5,99,96.5z M124.7,85.4c0.5,0,1,0.1,1.6,0.4c2.7,1.2,4.6,6.8,5.3,9.1l1.1-1.8c1.5-2.4,3.1-8.7,0.9-12.1
			c-1.1-1.7-2.4-2.3-3.7-2.9s-2.6-1.2-3.9-2.8c-2.4-3.1-7.3-6.5-12.2-6.5c-0.9,0-1.8,0.1-2.7,0.4c-3.5,0.9-5.7,3.9-7.5,6.3
			c-0.3,0.4-0.6,0.8-0.9,1.2c-0.9,1.2-2,1.6-3,2c-1.3,0.5-2.4,0.9-3.2,3c-1.5,4,1.2,10.6,2.4,13.1c0.4-1.1,1.1-2.9,2-4.9
			c0.6-1.2,0.9-2.4,1.2-3.5c0.4-1.7,0.8-3.2,2.1-3.6c0.2,0,0.3-0.1,0.5-0.1c0.7,0,1.5,0.5,2.5,1.2c1.7,1.1,4.3,2.8,8.6,3.2
			c0.5,0,1,0.1,1.5,0.1c2.7,0,4.1-0.7,5.2-1.2C123.3,85.7,124,85.4,124.7,85.4z"/>
	</g>
	<g>
		<path class="st4" d="M115.2,103c-0.2,0-0.3,0-0.5,0c-1.2-0.2-1.7-1.1-1.7-1.1c-0.1-0.2,0-0.5,0.2-0.6s0.5,0,0.6,0.2
			c0,0,0.3,0.5,1,0.6s1.3-0.1,1.5-0.4c0.2-0.2,0.1-0.6-0.1-0.9c-0.6-1-1.7-4.4-1.4-5.6c0.1-0.2,0.3-0.4,0.6-0.3
			c0.2,0.1,0.4,0.3,0.3,0.6c-0.2,0.8,0.7,3.9,1.3,4.9c0.4,0.6,0.4,1.3,0.1,1.9C116.7,102.7,116.1,103,115.2,103z"/>
	</g>
	<g>
		<path class="st4" d="M115.3,110.1c-1.3,0-2.3-0.5-2.9-1.2c-0.1-0.2-0.1-0.5,0.1-0.6s0.5-0.1,0.6,0.1c0.4,0.5,1.2,0.8,2.1,0.8l0,0
			c1.1,0,2.2-0.4,2.6-1c0.1-0.2,0.4-0.3,0.6-0.1c0.2,0.1,0.3,0.4,0.1,0.6C117.9,109.6,116.4,110.1,115.3,110.1L115.3,110.1z"/>
	</g>
	<g>
		<path class="st4" d="M105.8,79.9c0,0,0.1,0.1,0.3,0.2c0.1,0.1,0.2,0.1,0.3,0.2c0.1,0.1,0.2,0.2,0.4,0.3c0.1,0.1,0.3,0.2,0.4,0.3
			c0.2,0.1,0.3,0.2,0.5,0.3c0.2,0.1,0.4,0.2,0.5,0.3c0.2,0.1,0.4,0.2,0.5,0.3c0.2,0.1,0.4,0.2,0.5,0.3c0.2,0.1,0.4,0.2,0.5,0.3
			c0.1,0.1,0.2,0.1,0.3,0.2c0.1,0,0.2,0.1,0.3,0.1c0.2,0.1,0.3,0.2,0.5,0.3c0.1,0.1,0.3,0.2,0.4,0.2c0.1,0.1,0.2,0.1,0.3,0.2
			c0.2,0.1,0.3,0.2,0.3,0.2s-0.1,0-0.3,0c-0.1,0-0.2,0-0.4,0c-0.1,0-0.3,0-0.5-0.1c-0.2,0-0.4-0.1-0.5-0.1s-0.2-0.1-0.3-0.1
			c-0.1,0-0.2-0.1-0.3-0.1c-0.2-0.1-0.4-0.2-0.6-0.3c-0.2-0.1-0.4-0.2-0.6-0.3c-0.2-0.1-0.4-0.3-0.6-0.4s-0.4-0.3-0.5-0.4
			c-0.2-0.2-0.3-0.3-0.4-0.4s-0.3-0.3-0.4-0.4s-0.2-0.3-0.3-0.4c-0.1-0.1-0.1-0.2-0.2-0.3C105.8,80,105.8,79.9,105.8,79.9z"/>
	</g>
	<g>
		<path class="st4" d="M129.2,86.4c0,0-0.1-0.1-0.1-0.2S129,86.1,129,86s-0.1-0.2-0.2-0.3c-0.1-0.1-0.1-0.2-0.2-0.3
			c-0.1-0.1-0.1-0.2-0.2-0.3c-0.1-0.1-0.1-0.2-0.2-0.4c-0.1-0.1-0.1-0.2-0.2-0.4c-0.1-0.1-0.1-0.2-0.2-0.4c-0.1-0.1-0.1-0.2-0.2-0.3
			c-0.1-0.1-0.1-0.2-0.2-0.3c-0.1-0.1-0.1-0.2-0.2-0.3c-0.1-0.1-0.1-0.2-0.2-0.3c-0.1-0.1-0.1-0.1-0.1-0.2c-0.1-0.1-0.1-0.2-0.1-0.2
			s0.1,0,0.2,0.1c0.1,0,0.2,0,0.2,0.1c0,0,0.1,0,0.1,0.1l0.1,0.1c0.1,0.1,0.2,0.1,0.3,0.2c0.1,0.1,0.2,0.2,0.3,0.3
			c0.1,0.1,0.2,0.2,0.3,0.4c0.1,0.1,0.2,0.3,0.3,0.4c0.1,0.3,0.3,0.6,0.4,0.8c0,0.1,0.1,0.3,0.1,0.4s0,0.3,0,0.4c0,0.2,0,0.4,0,0.6
			C129.2,86.3,129.2,86.4,129.2,86.4z"/>
	</g>
</g>
<g>
	<g>
		<path class="st5" d="M354.3,200.8c-6-2.1-8.5-8.2-10.7-16.6c-1.3-4.9-1.8-8.2-1.8-14.4c0-14.7,7.6-20.1,19.7-20.1
			s20.3,3.1,20.3,17.8c0,22.1-7.2,35-20.3,35"/>
	</g>
	<g>
		<path class="st4" d="M361.5,203.1c-0.3,0-0.5-0.2-0.5-0.5s0.2-0.5,0.5-0.5c12.5,0,19.7-12.6,19.7-34.5c0-14.3-7.9-17.3-19.7-17.3
			c-6.3,0-10.9,1.4-14,4.4c-3.4,3.2-5.1,8.3-5.1,15.2c0,6.2,0.6,9.5,1.8,14.2c3,11.5,6.2,14.8,10.3,16.2c0.3,0.1,0.4,0.4,0.3,0.7
			s-0.4,0.4-0.7,0.3c-6-2.1-8.7-8-11-16.9c-1.3-4.8-1.9-8.2-1.9-14.5c0-13.9,6.6-20.7,20.3-20.7c10.8,0,20.8,2.2,20.8,18.4
			C382.3,190.2,374.7,203.1,361.5,203.1z"/>
	</g>
	<g>
		<path class="st4" d="M361.7,183.6c-0.2,0-0.4,0-0.7,0c-1.5-0.2-2.1-1.4-2.1-1.4c-0.1-0.3,0-0.6,0.2-0.7c0.3-0.1,0.6,0,0.7,0.2
			c0,0,0.4,0.7,1.3,0.9c0.9,0.1,1.6-0.1,1.9-0.5c0.2-0.3,0.2-0.8-0.1-1.2c-0.8-1.3-2.2-5.7-1.8-7.2c0.1-0.3,0.4-0.5,0.7-0.4
			c0.3,0.1,0.5,0.4,0.4,0.7c-0.3,1,0.8,5.1,1.7,6.4c0.5,0.8,0.5,1.7,0.1,2.4C363.6,183.3,362.8,183.6,361.7,183.6z"/>
	</g>
	<g>
		<path class="st4" d="M350.8,173.7c-0.1,0-0.3,0-0.4-0.1c-0.2-0.2-0.2-0.5,0-0.8c0.7-0.8,1.7-1.1,2.6-1.1c0.8,0.1,1.5,0.5,1.9,1.1
			c0.2,0.3,0.1,0.6-0.2,0.7c-0.3,0.2-0.6,0.1-0.7-0.2c-0.2-0.3-0.6-0.6-1-0.6c-0.6-0.1-1.3,0.2-1.8,0.7
			C351.1,173.7,351,173.7,350.8,173.7z"/>
	</g>
	<g>
		<path class="st4" d="M372.2,173.7c-0.1,0-0.3-0.1-0.4-0.2c-0.5-0.5-1.2-0.8-1.9-0.7c-0.6,0-1.1,0.3-1.4,0.7
			c-0.2,0.2-0.5,0.3-0.8,0.1c-0.2-0.2-0.3-0.5-0.1-0.8c0.5-0.6,1.3-1,2.2-1.1c1-0.1,2,0.3,2.7,1.1c0.2,0.2,0.2,0.6,0,0.8
			C372.4,173.7,372.3,173.7,372.2,173.7z"/>
	</g>
	<g>
		<path class="st4" d="M361.2,190.4c-1.4,0-2.6-0.5-3.1-1.4c-0.2-0.2-0.1-0.6,0.1-0.8s0.6-0.1,0.8,0.1c0.4,0.6,1.3,0.9,2.4,0.9
			c1.2,0,2.3-0.5,2.7-1.2c0.1-0.3,0.5-0.3,0.7-0.2c0.3,0.2,0.3,0.5,0.2,0.7c-0.6,1-2,1.6-3.6,1.7
			C361.4,190.4,361.3,190.4,361.2,190.4z"/>
	</g>
	<g>
		<g>
			<path class="st3" d="M343.6,182.6c-2.8-0.2-4.4-3.1-4.2-5.5c0.3-2.4,2.8-3,4.7-2.5"/>
		</g>
		<g>
			<path class="st4" d="M343.6,183.2C343.6,183.2,343.5,183.2,343.6,183.2c-1.4-0.1-2.5-0.7-3.4-1.8c-1-1.2-1.5-2.8-1.3-4.3
				c0.1-1.1,0.6-1.9,1.4-2.5c1-0.7,2.5-0.9,3.9-0.5c0.3,0.1,0.5,0.4,0.4,0.7s-0.4,0.5-0.7,0.4c-1.1-0.3-2.2-0.2-3,0.3
				c-0.6,0.4-0.9,1-1,1.7c-0.1,1.2,0.3,2.6,1.1,3.5c0.5,0.6,1.3,1.3,2.6,1.4c0.3,0,0.5,0.3,0.5,0.6
				C344.1,182.9,343.9,183.2,343.6,183.2z"/>
		</g>
	</g>
	<g>
		<g>
			<path class="st3" d="M379.9,182.5c2.9,0.2,4.9-2.6,5-5s-2.3-3.4-4.3-3.2"/>
		</g>
		<g>
			<path class="st4" d="M380.2,183.1c-0.1,0-0.2,0-0.4,0c-0.3,0-0.5-0.3-0.5-0.6s0.3-0.5,0.6-0.5c1.2,0.1,2.1-0.5,2.7-0.9
				c1-0.9,1.7-2.2,1.7-3.6c0-0.7-0.2-1.3-0.7-1.8c-0.7-0.6-1.8-1-3-0.8c-0.3,0-0.6-0.2-0.6-0.5s0.2-0.6,0.5-0.6
				c1.5-0.2,2.9,0.2,3.8,1.1c0.7,0.7,1.1,1.6,1,2.7c-0.1,1.6-0.9,3.3-2.1,4.3C382.4,182.7,381.4,183.1,380.2,183.1z"/>
		</g>
	</g>
	<g>
		<path class="st7" d="M345,175.2c-2.5,5.8,2.1,20.9,3,21.6c3.1,2.5-13.7-1.9-15.9-7.6c-3.2-8.3,6.8-33.1,14.7-37.4
			c2.5-1.3,9.4-9,20.5-5.4c10.2,3.3,15.8,7.9,19.8,16.2s8.7,25.1,5,29.1c-3.6,4-19.2,7.2-17.1,3.6c3.8-6.8,2.4-18.9,2.4-23.9
			c0-4.7-7.1-5.1-12.9-7c-6.5-2.2-14-5-14-5S347.4,169.8,345,175.2z"/>
	</g>
	<g>
		<path class="st4" d="M347.8,198c-2.7,0-14.3-3.7-16.2-8.6c-1.8-4.7,0.4-13.7,3.2-20.6c4.2-10.4,8.8-15.9,11.8-17.5
			c0.4-0.2,0.9-0.6,1.6-1.1c2.6-2,7.1-5.3,13.4-5.3c2,0,4,0.3,6,1c10.3,3.3,16.1,8.1,20.1,16.5c2.1,4.5,4.3,10.9,5.4,16.3
			c1,4.8,1.8,11-0.5,13.5c-2.7,3-11.2,5.3-15.3,5.3l0,0c-1.5,0-2.4-0.3-2.8-0.9c-0.2-0.3-0.3-0.8,0.1-1.5c3-5.4,2.7-14.3,2.4-20.2
			c-0.1-1.4-0.1-2.5-0.1-3.5c0-3.2-3.9-4.2-8.3-5.3c-1.4-0.4-2.9-0.7-4.2-1.2c-5.4-1.8-11.7-4.1-13.5-4.8
			c-0.7,2.2-3.2,10.7-5.3,15.3c-2.4,5.4,2,20,2.9,21c0.2,0.1,0.7,0.6,0.5,1.1C348.7,198,348,198,347.8,198z M361.5,146
			c-5.9,0-10.2,3.2-12.7,5.1c-0.7,0.5-1.3,0.9-1.7,1.2c-3.5,1.9-8,8.6-11.3,16.9c-3.4,8.4-4.6,16.2-3.2,19.8
			c1.6,4,11.7,7.7,14.9,7.9c-0.8-1.2-2-5.4-2.8-9c-0.9-4.2-1.6-9.8-0.2-13c2.3-5.3,5.3-15.7,5.4-15.8c0-0.1,0.1-0.3,0.3-0.3
			c0.1-0.1,0.3-0.1,0.4,0c0.1,0,7.6,2.9,14,5c1.3,0.4,2.8,0.8,4.2,1.2c4.7,1.2,9.2,2.4,9.2,6.4c0,0.9,0,2.1,0.1,3.4
			c0.3,6,0.6,15.1-2.5,20.8c-0.1,0.2-0.1,0.3-0.1,0.4c0.1,0.1,0.6,0.4,1.8,0.4l0,0c4.3,0,12.2-2.5,14.5-5c3.2-3.6-0.8-19.5-5.1-28.5
			c-3.9-8.2-9.4-12.7-19.5-15.9C365.2,146.3,363.3,146,361.5,146z"/>
	</g>
</g>
<g>
	<g>
		<path class="st5" d="M108.8,425c-5.4-1.9-7.6-7.3-9.6-14.9c-1.2-4.4-1.7-7.4-1.7-12.9c0-13.2,6.8-18.1,17.7-18.1s18.2,2.8,18.2,16
			c0,19.8-6.5,31.5-18.2,31.5"/>
	</g>
	<g>
		<path class="st4" d="M115.3,427c-0.3,0-0.5-0.2-0.5-0.5s0.2-0.5,0.5-0.5c11.3,0,17.7-11.3,17.7-31c0-12.9-7.1-15.5-17.7-15.5
			c-5.6,0-9.8,1.3-12.6,4c-3.1,2.9-4.6,7.5-4.6,13.7c0,5.6,0.5,8.6,1.6,12.8c2.7,10.4,5.6,13.3,9.3,14.6c0.3,0.1,0.4,0.4,0.3,0.6
			c-0.1,0.3-0.4,0.4-0.6,0.3c-5.4-1.9-7.8-7.2-9.9-15.2c-1.1-4.3-1.7-7.4-1.7-13.1c0-12.5,6-18.6,18.2-18.6c9.7,0,18.7,2,18.7,16.5
			C134,415.4,127.2,427,115.3,427z"/>
	</g>
	<g>
		<path class="st4" d="M115.5,409.5c-0.2,0-0.4,0-0.6,0c-1.3-0.2-1.9-1.2-1.9-1.3c-0.1-0.2,0-0.5,0.2-0.7c0.2-0.1,0.5,0,0.7,0.2
			c0,0,0.4,0.7,1.2,0.8c0.8,0.1,1.5-0.1,1.8-0.5c0.2-0.3,0.2-0.7-0.1-1.1c-0.7-1.2-2-5.1-1.6-6.5c0.1-0.3,0.3-0.4,0.6-0.3
			c0.3,0.1,0.4,0.3,0.3,0.6c-0.3,0.9,0.8,4.6,1.5,5.7c0.4,0.7,0.5,1.5,0.1,2.1C117.2,409.1,116.4,409.5,115.5,409.5z"/>
	</g>
	<g>
		<path class="st4" d="M105.7,400.6c-0.1,0-0.2,0-0.3-0.1c-0.2-0.2-0.2-0.5,0-0.7c0.6-0.7,1.5-1,2.4-0.9c0.7,0.1,1.3,0.4,1.7,1
			c0.1,0.2,0.1,0.5-0.1,0.7c-0.2,0.1-0.5,0.1-0.7-0.1c-0.2-0.3-0.5-0.5-0.9-0.5c-0.6-0.1-1.1,0.2-1.6,0.6
			C105.9,400.5,105.8,400.6,105.7,400.6z"/>
	</g>
	<g>
		<path class="st4" d="M124.9,400.6c-0.1,0-0.3,0-0.4-0.1c-0.4-0.5-1.1-0.7-1.7-0.7c-0.5,0-1,0.2-1.2,0.6c-0.2,0.2-0.5,0.3-0.7,0.1
			c-0.2-0.2-0.3-0.5-0.1-0.7c0.4-0.6,1.1-0.9,1.9-1c0.9-0.1,1.8,0.3,2.4,1c0.2,0.2,0.2,0.5,0,0.7C125.1,400.5,125,400.6,124.9,400.6
			z"/>
	</g>
	<g>
		<path class="st4" d="M115,415.6c-1.3,0-2.3-0.4-2.8-1.2c-0.2-0.2-0.1-0.5,0.1-0.7s0.5-0.1,0.7,0.1c0.4,0.5,1.2,0.8,2.2,0.8
			c1.1,0,2.1-0.5,2.4-1.1c0.1-0.2,0.4-0.3,0.7-0.2c0.2,0.1,0.3,0.4,0.2,0.7c-0.5,0.9-1.8,1.5-3.2,1.5
			C115.2,415.6,115.1,415.6,115,415.6z"/>
	</g>
	<g>
		<g>
			<path class="st3" d="M99.2,408.6c-2.5-0.2-4-2.8-3.8-5s2.5-2.7,4.2-2.2"/>
		</g>
		<g>
			<path class="st4" d="M99.2,409.1C99.2,409.1,99.1,409.1,99.2,409.1c-1.2-0.1-2.3-0.7-3.1-1.6c-0.9-1.1-1.3-2.5-1.2-3.9
				c0.1-1,0.6-1.7,1.3-2.2c0.9-0.6,2.3-0.8,3.5-0.4c0.3,0.1,0.4,0.3,0.3,0.6s-0.3,0.4-0.6,0.3c-1-0.3-2-0.2-2.7,0.3
				c-0.5,0.3-0.8,0.9-0.9,1.5c-0.1,1.1,0.3,2.3,1,3.2c0.4,0.5,1.2,1.2,2.4,1.3c0.3,0,0.5,0.3,0.4,0.5
				C99.6,408.9,99.4,409.1,99.2,409.1z"/>
		</g>
	</g>
	<g>
		<g>
			<path class="st3" d="M131.8,408.5c2.6,0.2,4.4-2.3,4.5-4.5s-2-3.1-3.8-2.9"/>
		</g>
		<g>
			<path class="st4" d="M132.1,409c-0.1,0-0.2,0-0.3,0c-0.3,0-0.5-0.3-0.4-0.5c0-0.3,0.3-0.5,0.5-0.4c1.1,0.1,1.9-0.4,2.4-0.8
				c0.9-0.8,1.5-2,1.6-3.2c0-0.7-0.2-1.2-0.6-1.6c-0.6-0.6-1.7-0.9-2.7-0.7c-0.3,0-0.5-0.2-0.5-0.4c0-0.3,0.2-0.5,0.4-0.5
				c1.3-0.2,2.6,0.2,3.5,1c0.7,0.6,1,1.4,0.9,2.4c-0.1,1.5-0.8,2.9-1.9,3.9C134.1,408.6,133.1,409,132.1,409z"/>
		</g>
	</g>
	<g>
		<path class="st8" d="M103,386.1c2.5,2.7,7,6.3,17.4,7c4.7,0.3,7.8-0.4,9.5,1.6c2.2,2.6,2.5,6.8,2.3,9.1c-0.1,1,3.6-3.4,3.6-3.4
			c-1.5-2.4,1.6-7.6,0.7-14.6c-0.4-2.9-6.5-9.4-15-11.6c-10.7-2.7-16.5,2.5-19.4,5.1c-2.2,2-5.1,1-7.3,5.8c-2,4.3,1.3,12.4,0.8,14.8
			c-0.2,1.1,0.8,0.8,3.1,3.6c0.9,1.1,1-3.4,1.2-6.1C100.3,394.8,103,386.1,103,386.1z"/>
	</g>
	<g>
		<path class="st4" d="M132.3,404.5c-0.2,0-0.3-0.1-0.4-0.2c-0.1-0.1-0.2-0.3-0.1-0.5c0.2-1.9,0-6.1-2.2-8.7
			c-1.1-1.3-2.9-1.3-5.7-1.3c-1,0-2.2,0-3.5-0.1c-9.9-0.6-14.6-3.9-17.2-6.6c-0.7,2.2-2.5,8.3-2.7,10.4c0,0.5-0.1,1-0.1,1.5
			c-0.3,3.9-0.4,5.2-1.3,5.2l0,0c-0.2,0-0.5-0.1-0.6-0.4c-1-1.3-1.8-1.9-2.3-2.3c-0.6-0.5-1.1-0.9-0.9-1.8c0.2-0.8-0.2-2.6-0.6-4.4
			c-0.7-3.4-1.6-7.7-0.2-10.6c1.5-3.2,3.4-4,5-4.6c0.9-0.3,1.7-0.7,2.4-1.3c2.1-1.9,6.5-6,13.9-6c1.9,0,3.9,0.3,5.9,0.8
			c3.8,1,7.6,3,10.7,5.6c2.6,2.2,4.4,4.7,4.6,6.4c0.5,3.7-0.1,6.9-0.6,9.5c-0.4,2.2-0.8,4-0.1,5c0.1,0.2,0.1,0.4,0,0.6
			C133.1,404.5,132.5,404.5,132.3,404.5z M115.8,374c-7,0-11.2,3.9-13.3,5.7c-0.9,0.8-1.8,1.2-2.7,1.5c-1.6,0.6-3.1,1.2-4.5,4.1
			c-1.2,2.6-0.4,6.7,0.3,10c0.4,2.1,0.8,3.8,0.6,4.8c-0.1,0.3-0.1,0.3,0.6,0.8c0.5,0.4,1.3,1,2.2,2.2c0.2-0.8,0.4-2.8,0.4-4.1
			c0-0.5,0.1-1.1,0.1-1.5c0.2-2.7,2.9-11.1,3-11.4c0.1-0.2,0.2-0.3,0.4-0.3c0.2,0,0.3,0,0.5,0.1c2.4,2.6,6.8,6.2,17.1,6.9
			c1.3,0.1,2.4,0.1,3.5,0.1c2.9,0,5,0,6.4,1.7c2.1,2.5,2.5,6.3,2.4,8.6c0.6-0.6,1.6-1.7,2.5-2.7c-0.6-1.3-0.2-3.1,0.2-5.3
			c0.5-2.5,1.1-5.6,0.6-9.2c-0.3-2.6-6.3-9-14.6-11.1C119.5,374.2,117.6,374,115.8,374z"/>
	</g>
	<g>
		<path class="st4" d="M104.5,383.6c0,0,0.1,0.1,0.3,0.2c0.1,0.1,0.2,0.2,0.3,0.3c0.1,0.1,0.3,0.2,0.4,0.3c0.1,0.1,0.3,0.2,0.4,0.4
			c0.2,0.1,0.3,0.3,0.5,0.4c0.2,0.2,0.4,0.3,0.6,0.4s0.4,0.3,0.6,0.4s0.4,0.3,0.6,0.4s0.4,0.3,0.6,0.4s0.4,0.3,0.5,0.4
			c0.2,0.1,0.3,0.2,0.5,0.3c0.2,0.1,0.3,0.2,0.4,0.3c0.1,0.1,0.2,0.1,0.3,0.2c0.2,0.1,0.3,0.2,0.3,0.2s-0.1,0-0.4,0
			c-0.1,0-0.3,0-0.4,0c-0.2,0-0.3,0-0.5-0.1s-0.4-0.1-0.6-0.2s-0.4-0.2-0.7-0.3c-0.2-0.1-0.5-0.2-0.7-0.4c-0.2-0.1-0.4-0.3-0.6-0.4
			s-0.4-0.3-0.6-0.5s-0.4-0.3-0.5-0.5c-0.2-0.2-0.3-0.4-0.5-0.5c-0.1-0.2-0.3-0.4-0.4-0.5c-0.1-0.2-0.2-0.3-0.3-0.5
			c-0.1-0.1-0.1-0.3-0.2-0.4C104.5,383.7,104.5,383.6,104.5,383.6z"/>
	</g>
</g>
<g>
	<path class="st6" d="M315.3,326.7c-0.5,0-1.1-0.1-1.6-0.2c-1.6-0.4-3-1.5-3.8-2.9l-4.7-8.2c-0.8-1.4-1.1-3.1-0.6-4.7
		c0.4-1.6,1.5-3,2.9-3.8l8.2-4.7c1.4-0.8,3.1-1.1,4.7-0.6c1.6,0.4,3,1.5,3.8,2.9l4.7,8.2c0.8,1.4,1.1,3.1,0.6,4.7
		c-0.4,1.6-1.5,3-2.9,3.8l-8.2,4.7C317.4,326.5,316.4,326.7,315.3,326.7z M318.7,302.3c-0.9,0-1.8,0.2-2.6,0.7l-8.2,4.7
		c-2.5,1.4-3.4,4.7-1.9,7.2l4.7,8.2c1.4,2.5,4.7,3.4,7.2,1.9l8.2-4.7c2.5-1.4,3.4-4.7,1.9-7.2l-4.7-8.2
		C322.3,303.2,320.5,302.3,318.7,302.3z"/>
</g>
<g>
	<path class="st7" d="M176.5,321c-0.4,0-0.8-0.1-1.3-0.2c-1.2-0.3-2.3-1.1-2.9-2.3l-3.7-6.4c-0.6-1.1-0.8-2.4-0.5-3.7
		c0.3-1.2,1.1-2.3,2.3-2.9l6.4-3.7c1.1-0.6,2.4-0.8,3.7-0.5c1.2,0.3,2.3,1.1,2.9,2.3l3.7,6.4c0.6,1.1,0.8,2.4,0.5,3.7
		c-0.3,1.2-1.1,2.3-2.3,2.9l-6.4,3.7C178.2,320.8,177.4,321,176.5,321z M179.2,302c-0.7,0-1.4,0.2-2,0.5l-6.4,3.7
		c-1.9,1.1-2.6,3.6-1.5,5.6l3.7,6.4c1.1,1.9,3.6,2.6,5.6,1.5l6.4-3.7c1.9-1.1,2.6-3.6,1.5-5.6l-3.7-6.4
		C182,302.8,180.6,302,179.2,302z"/>
</g>
<g>
	<path class="st7" d="M92.5,291.3c-0.3,0-0.6,0-1-0.1c-0.9-0.3-1.7-0.9-2.2-1.7l-2.8-4.8c-0.5-0.9-0.6-1.8-0.4-2.8
		c0.3-0.9,0.9-1.7,1.7-2.2l4.8-2.8c0.9-0.5,1.8-0.6,2.8-0.4c0.9,0.3,1.7,0.9,2.2,1.7l2.8,4.8c0.5,0.9,0.6,1.8,0.4,2.8
		c-0.3,0.9-0.9,1.7-1.7,2.2l-4.8,2.8C93.8,291.1,93.1,291.3,92.5,291.3z M94.5,276.9c-0.5,0-1.1,0.1-1.5,0.4l-4.8,2.8
		c-1.5,0.9-2,2.7-1.1,4.2l2.8,4.8c0.9,1.5,2.7,2,4.2,1.1l4.8-2.8c1.5-0.9,2-2.7,1.1-4.2l-2.8-4.8C96.6,277.4,95.6,276.9,94.5,276.9z
		"/>
</g>
<g>
	<path class="st7" d="M424.2,110.3c-0.3,0-0.5,0-0.8-0.1c-0.8-0.2-1.4-0.7-1.8-1.4l-2.2-3.9c-0.4-0.7-0.5-1.5-0.3-2.2
		c0.2-0.8,0.7-1.4,1.4-1.8l3.9-2.2c0.7-0.4,1.5-0.5,2.2-0.3c0.8,0.2,1.4,0.7,1.8,1.4l2.2,3.9c0.4,0.7,0.5,1.5,0.3,2.2
		c-0.2,0.8-0.7,1.4-1.4,1.8l-3.9,2.2C425.2,110.1,424.7,110.3,424.2,110.3z M425.8,98.7c-0.4,0-0.8,0.1-1.2,0.3l-3.9,2.2
		c-1.2,0.7-1.6,2.2-0.9,3.4l2.2,3.9c0.7,1.2,2.2,1.6,3.4,0.9l3.9-2.2c1.2-0.7,1.6-2.2,0.9-3.4L428,100
		C427.5,99.2,426.7,98.7,425.8,98.7z"/>
</g>
<g>
	<path class="st6" d="M110.1,41l-7.7-10c-0.6-0.8-0.7-1.7-0.3-2.6c0.4-0.9,1.2-1.5,2.1-1.6l12.5-1.6c1-0.1,1.9,0.3,2.5,1
		s0.7,1.7,0.3,2.6l-4.8,11.6c-0.4,0.9-1.2,1.5-2.1,1.6C111.6,42.2,110.6,41.8,110.1,41z M116.7,25.8l-12.5,1.6
		c-0.7,0.1-1.3,0.6-1.6,1.2c-0.3,0.7-0.2,1.4,0.3,2l7.7,10c0.4,0.6,1.1,0.9,1.9,0.8c0.7-0.1,1.3-0.6,1.6-1.2l4.8-11.6
		c0.3-0.7,0.2-1.4-0.3-2S117.5,25.7,116.7,25.8L116.7,25.8z"/>
</g>
<g>
	<path class="st6" d="M127,38.5l1.9-5.3c0.1-0.4,0.5-0.7,0.9-0.8s0.8,0.1,1.1,0.4l3.6,4.3c0.3,0.3,0.4,0.8,0.2,1.2s-0.5,0.7-0.9,0.8
		l-5.5,1c-0.4,0.1-0.8-0.1-1.1-0.4C126.9,39.4,126.8,38.9,127,38.5z M134.3,37.4l-3.6-4.3c-0.2-0.2-0.5-0.4-0.8-0.3
		c-0.3,0.1-0.6,0.3-0.7,0.6l-1.9,5.3c-0.1,0.3-0.1,0.6,0.2,0.9c0.2,0.2,0.5,0.4,0.8,0.3l5.5-1c0.3-0.1,0.6-0.3,0.7-0.6
		C134.5,37.9,134.5,37.6,134.3,37.4L134.3,37.4z"/>
</g>
<g>
	<path class="st1" d="M260.4,394.1l-7.3-12.7c-0.7-1.2-0.7-2.6,0-3.8l7.3-12.7c0.7-1.2,1.9-1.9,3.3-1.9h14.6c1.4,0,2.6,0.7,3.3,1.9
		l7.3,12.7c0.7,1.2,0.7,2.6,0,3.8l-7.3,12.7c-0.7,1.2-1.9,1.9-3.3,1.9h-14.6C262.3,396,261,395.3,260.4,394.1z"/>
	<path class="st9" d="M261,393.3l-6.9-12c-0.6-1.1-0.6-2.5,0-3.6l6.9-12c0.6-1.1,1.8-1.8,3.1-1.8h13.8c1.3,0,2.5,0.7,3.1,1.8
		l6.9,11.9c0.6,1.1,0.6,2.5,0,3.6l-6.9,12c-0.6,1.1-1.8,1.8-3.1,1.8h-13.8C262.8,395,261.6,394.4,261,393.3z"/>
	<path class="st10" d="M262.8,376.7c-0.3-0.3-0.5-0.7-0.5-1.2c0-2.5,2-4.5,4.5-4.5h8.5c1.8,0,3.2,1.4,3.2,3.2v2.7
		c0,0.2-0.1,0.3-0.3,0.3H272l5.9,5.9l0,0c0.4,0.3,0.6,0.7,0.6,1.2c0,2.6-2.1,4.6-4.6,4.6h-8.5c-1.7,0-3.1-1.4-3.1-3.1V383
		c0-0.2,0.1-0.3,0.3-0.3h6.2l-5.9-5.9C262.9,376.8,262.9,376.8,262.8,376.7z"/>
	<polygon class="st11" points="273.7,387.6 267.5,382.8 268.9,382.8 	"/>
	<polygon class="st11" points="267.2,372.3 272.1,377.2 273.7,377.2 	"/>
</g>
<g>
	<path class="st12" d="M213.1,213.5c-3.9-5.5-11.5-7.2-17-3.7l-9.7,6.2c-2.6,1.7-4.5,4.4-5,7.5c-0.5,2.6-0.1,5.2,1.2,7.5
		c-0.8,1.3-1.4,2.7-1.7,4.2c-0.6,3.1,0.2,6.4,2,9c3.9,5.5,11.5,7.2,17,3.7l9.7-6.2c2.7-1.7,4.5-4.4,5-7.5c0.5-2.6,0.1-5.2-1.2-7.5
		c0.8-1.3,1.4-2.7,1.7-4.2C215.7,219.3,215,216.1,213.1,213.5"/>
	<path class="st1" d="M195.1,244.7c-3.1,0.8-6.4-0.4-8.3-3.1c-1.1-1.6-1.6-3.5-1.2-5.4c0.1-0.3,0.1-0.6,0.2-0.9l0.2-0.6l0.5,0.4
		c1.1,0.8,2.4,1.5,3.8,1.9l0.4,0.1v0.4c0,0.5,0.1,1,0.4,1.4c0.6,0.8,1.5,1.2,2.5,0.9c0.2-0.1,0.4-0.1,0.6-0.3l9.7-6.2
		c0.5-0.3,0.8-0.8,0.9-1.4c0.1-0.6,0-1.2-0.4-1.6c-0.6-0.8-1.5-1.2-2.5-0.9c-0.2,0.1-0.4,0.1-0.6,0.3l-3.7,2.4
		c-0.6,0.4-1.3,0.7-2,0.9c-3.1,0.8-6.4-0.4-8.3-3.1c-1.1-1.6-1.6-3.5-1.2-5.4c0.3-1.9,1.4-3.5,3-4.5l9.7-6.2c0.6-0.4,1.3-0.7,2-0.9
		c3.1-0.8,6.4,0.4,8.3,3.1c1.1,1.6,1.6,3.5,1.2,5.4c-0.1,0.3-0.1,0.6-0.2,0.9l-0.2,0.6l-0.5-0.4c-1.1-0.8-2.4-1.5-3.8-1.9l-0.4-0.1
		v-0.4c0-0.5-0.1-1-0.4-1.4c-0.6-0.8-1.5-1.2-2.5-0.9c-0.2,0.1-0.4,0.1-0.6,0.3l-9.7,6.2c-0.5,0.3-0.8,0.8-0.9,1.4
		c-0.1,0.6,0,1.2,0.4,1.6c0.6,0.8,1.5,1.2,2.5,0.9c0.2-0.1,0.4-0.1,0.6-0.3l3.7-2.4c0.6-0.4,1.3-0.7,2-0.9c3.1-0.8,6.4,0.4,8.3,3.1
		c1.1,1.6,1.6,3.5,1.2,5.4c-0.3,1.9-1.4,3.5-3,4.5l-9.7,6.2C196.5,244.2,195.8,244.5,195.1,244.7"/>
</g>
<g>
	<polygon class="st13" points="407.1,360.8 409.6,343.1 419.7,333 432.4,345.6 424.8,353.2 434.9,363.3 419.7,373.4 	"/>
</g>
<g>
	<path class="st14" d="M290.8,51.2c-0.8-0.6-2.7-0.8-4.2-0.5c-0.2-1.4-1-2.7-2.4-3.8l-0.8-0.6l-0.6,0.8c-0.7,1.1-1,2.6-0.9,4.1
		c0,0.5,0.2,1.4,0.7,2.2c-0.5,0.3-1.5,0.7-2.8,0.7h-25.1l-0.1,0.3c-0.2,1.4-0.2,6,2.6,9.4c2.2,2.6,5.4,4,9.6,4
		c9.1,0,15.9-4.4,19-12.3c1.3,0,3.9,0,5.3-2.7c0-0.1,0.1-0.2,0.3-0.8l0.1-0.3L290.8,51.2L290.8,51.2z M274.7,41h-3.8v3.6h3.8V41
		L274.7,41z M274.7,45.3h-3.8V49h3.8V45.3L274.7,45.3z M270.2,45.3h-3.8V49h3.8V45.3L270.2,45.3z M265.7,45.3h-3.8V49h3.8V45.3
		L265.7,45.3z M261.2,49.7h-3.8v3.6h3.8V49.7L261.2,49.7z M265.7,49.7h-3.8v3.6h3.8V49.7L265.7,49.7z M270.2,49.7h-3.8v3.6h3.8V49.7
		L270.2,49.7z M274.7,49.7h-3.8v3.6h3.8V49.7L274.7,49.7z M279.3,49.7h-3.8v3.6h3.8V49.7L279.3,49.7z"/>
</g>
</svg>
