<?xml version="1.0" encoding="utf-8"?>
<!-- Generator: Adobe Illustrator 19.0.0, SVG Export Plug-In . SVG Version: 6.00 Build 0)  -->
<svg version="1.1" id="Calque_1" xmlns="http://www.w3.org/2000/svg" xmlns:xlink="http://www.w3.org/1999/xlink" x="0px" y="0px"
	 viewBox="-124 126 200 200" style="enable-background:new -124 126 200 200;" xml:space="preserve">
<style type="text/css">
	.st0{opacity:0.3;fill:#585763;enable-background:new    ;}
	.st1{fill:#4FC1EA;}
</style>
<g id="XMLID_81_">
	<path id="XMLID_2288_" class="st0" d="M-7.9,213.9v-9h-4.2v8.9h-5.1v-8.9h-4.2v8.9h-5.1v-8.9h-4.2v8.9h-5.1v-8.9H-40v9
		c-3.2,0.4-5.6,3.1-5.6,6.3v13.3c0,5.9,4.8,10.6,10.6,10.6h9v34h4.2v-34h9c5.9,0,10.6-4.8,10.6-10.6v-13.3
		C-2.2,216.9-4.7,214.2-7.9,213.9z M-6.5,233.5c0,3.5-2.9,6.4-6.4,6.4h-22.3c-3.5,0-6.4-2.9-6.4-6.4v-13.3c0-1.2,1-2.1,2.1-2.1h30.8
		c1.2,0,2.1,1,2.1,2.1L-6.5,233.5L-6.5,233.5z"/>
	<g id="XMLID_2286_">
		<path id="XMLID_2287_" class="st1" d="M7.8,197.9L7.8,197.9c0-7.4-5.9-13.4-13.2-13.6c-3-7.5-10.3-12.6-18.5-12.6
			s-15.5,5.1-18.5,12.6c-7.3,0.2-13.2,6.2-13.2,13.5c-5.4,1.9-9.1,7-9.1,12.8c0,7.5,6.1,13.5,13.5,13.5h5.5v-4c0-0.1,0-0.1,0-0.2
			h-5.5c-5.1,0-9.3-4.2-9.3-9.3c0-4.4,3.2-8.3,7.5-9.1c1.1-0.2,1.9-1.3,1.7-2.4c-0.1-0.5-0.1-0.9-0.1-1.3c0-5.1,4.2-9.3,9.3-9.3
			c0.3,0,0.6,0,1,0.1c1,0.1,2-0.5,2.3-1.5c1.8-6.5,8-11.1,14.8-11.1s13,4.6,14.9,11.1c0.3,1,1.2,1.6,2.3,1.5c0.3,0,0.6-0.1,1-0.1
			c5.1,0,9.3,4.2,9.3,9.3c0,0.4,0,0.8-0.1,1.3c-0.2,1.1,0.6,2.2,1.7,2.4c4.3,0.9,7.5,4.7,7.5,9.1c0,5.1-4.2,9.3-9.3,9.3h-5.5
			c0,0.1,0,0.1,0,0.2v4h5.5c7.5,0,13.5-6.1,13.5-13.5C16.8,204.9,13.1,199.8,7.8,197.9z"/>
	</g>
</g>
</svg>
