<?xml version="1.0" encoding="utf-8"?>
<!-- Generator: Adobe Illustrator 23.0.1, SVG Export Plug-In . SVG Version: 6.00 Build 0)  -->
<svg version="1.1" id="Layer_1" xmlns="http://www.w3.org/2000/svg" xmlns:xlink="http://www.w3.org/1999/xlink" x="0px" y="0px"
	 viewBox="0 0 500 500" style="enable-background:new 0 0 500 500;" xml:space="preserve">
<style type="text/css">
	.st0{fill:#4FC1EA;}
	.st1{fill:none;}
	.st2{fill:#FFFFFF;}
	.st3{fill:#4195CE;}
</style>
<g>
	<path class="st0" d="M476.5,450.7H24.2c-0.4,0-0.6-0.8-0.6-1.8c0-1,0.3-1.8,0.6-1.8h452.3"/>
	<path class="st0" d="M287.5,56.2c-6,0-11.9,2-16.7,5.6c-6.6-7.9-16.5-12.6-26.8-12.6c-19.2,0-34.8,15.6-34.8,34.8
		c0,6.2,5,11.2,11.2,11.2h83.8c6.2,0,11.2-5,11.2-11.2C315.4,68.7,302.9,56.2,287.5,56.2z M304.2,91.6h-83.8c-4.2,0-7.6-3.4-7.6-7.6
		c0-17.2,14-31.2,31.2-31.2c10,0,19.1,4.6,25.1,12.6c0.3,0.4,0.7,0.7,1.2,0.7c0.5,0.1,1-0.1,1.4-0.4c4.4-3.8,10.1-5.9,15.9-5.9
		c13.4,0,24.3,10.9,24.3,24.3C311.8,88.2,308.4,91.6,304.2,91.6z"/>
	<rect x="364" y="304.2" class="st1" width="28.7" height="37.6"/>
	<path class="st1" d="M329.1,145.4c5.2,0,9.4-4.2,9.4-9.4c0-5.2-4.2-9.4-9.4-9.4c-5.2,0-9.4,4.2-9.4,9.4
		C319.7,141.1,323.9,145.4,329.1,145.4z"/>
	<rect x="264.2" y="304.2" class="st1" width="28.7" height="37.6"/>
	<rect x="314.2" y="304.2" class="st1" width="28.7" height="37.6"/>
	<path class="st1" d="M371.6,184.9v-28.2h-85.2v28.2c0,16.5-10,30.6-24.2,36.8h133.4C381.5,215.6,371.6,201.5,371.6,184.9z
		 M353.2,214.1c0,0.9-0.7,1.6-1.6,1.6h-45c-0.9,0-1.6-0.7-1.6-1.6v-50c0-0.9,0.7-1.6,1.6-1.6h45c0.9,0,1.6,0.7,1.6,1.6V214.1z"/>
	<rect x="248.1" y="376.1" class="st2" width="160.9" height="1.7"/>
	<rect x="248.1" y="289" class="st2" width="160.9" height="1.7"/>
	<rect x="388.4" y="408.2" class="st2" width="4.4" height="5.9"/>
	<rect x="388.4" y="390.7" class="st2" width="4.4" height="5"/>
	<rect x="380.2" y="345.1" class="st2" width="12.5" height="11.1"/>
	<rect x="388.4" y="258.3" class="st2" width="4.4" height="5.9"/>
	<rect x="388.4" y="240.9" class="st2" width="4.4" height="5"/>
	<rect x="388.4" y="249.1" class="st2" width="4.4" height="5.9"/>
	<rect x="388.4" y="267.5" class="st2" width="4.4" height="5"/>
	<rect x="388.4" y="398.9" class="st2" width="4.4" height="5.9"/>
	<rect x="388.4" y="417.4" class="st2" width="4.4" height="5"/>
	<rect x="380" y="417.4" class="st2" width="5.1" height="5"/>
	<rect x="380" y="408.2" class="st2" width="5.1" height="5.9"/>
	<rect x="380" y="398.9" class="st2" width="5.1" height="5.9"/>
	<rect x="380" y="390.7" class="st2" width="5.1" height="5"/>
	<rect x="380" y="267.5" class="st2" width="5.1" height="5"/>
	<rect x="380" y="258.3" class="st2" width="5.1" height="5.9"/>
	<rect x="380" y="249.1" class="st2" width="5.1" height="5.9"/>
	<rect x="380" y="240.9" class="st2" width="5.1" height="5"/>
	<rect x="371.5" y="417.4" class="st2" width="5.3" height="5"/>
	<rect x="371.5" y="408.2" class="st2" width="5.3" height="5.9"/>
	<rect x="371.5" y="398.9" class="st2" width="5.3" height="5.9"/>
	<rect x="371.5" y="390.7" class="st2" width="5.3" height="5"/>
	<rect x="371.5" y="267.5" class="st2" width="5.3" height="5"/>
	<rect x="371.5" y="258.3" class="st2" width="5.3" height="5.9"/>
	<rect x="371.5" y="249.1" class="st2" width="5.3" height="5.9"/>
	<rect x="371.5" y="240.9" class="st2" width="5.3" height="5"/>
	<rect x="364" y="417.4" class="st2" width="4.2" height="5"/>
	<rect x="364" y="408.2" class="st2" width="4.2" height="5.9"/>
	<rect x="364" y="398.9" class="st2" width="4.2" height="5.9"/>
	<rect x="364" y="390.7" class="st2" width="4.2" height="5"/>
	<rect x="364" y="267.5" class="st2" width="4.2" height="5"/>
	<rect x="364" y="258.3" class="st2" width="4.2" height="5.9"/>
	<rect x="364" y="249.1" class="st2" width="4.2" height="5.9"/>
	<rect x="364" y="240.9" class="st2" width="4.2" height="5"/>
	<path class="st2" d="M294.7,143.5v9.9h68.7v-9.9c-4-0.4-7.7-2.1-10.6-5c-3.3-3.3-5.1-7.6-5.1-12.3v-10.2h-37.4v10.2
		C310.4,135.3,303.5,142.7,294.7,143.5z M329.1,123.3c7,0,12.7,5.7,12.7,12.7c0,7-5.7,12.7-12.7,12.7c-7,0-12.7-5.7-12.7-12.7
		C316.4,129,322.1,123.3,329.1,123.3z"/>
	<rect x="364" y="345.1" class="st2" width="12.9" height="11.1"/>
	<rect x="360.3" y="275.8" class="st2" width="36.2" height="0.9"/>
	<rect x="360.3" y="359.4" class="st2" width="36.2" height="0.9"/>
	<rect x="360.3" y="425.6" class="st2" width="36.2" height="0.9"/>
	<path class="st2" d="M409,445.9v-64.8H248.1v64.8h13.2v-56.8c0-0.9,0.7-1.6,1.6-1.6h31.3c0.9,0,1.6,0.7,1.6,1.6v56.8H409z M357,424
		c0-0.9,0.7-1.6,1.6-1.6h2.1v-6.4c0-0.1,0-0.1,0-0.2c0-0.1,0-0.1,0-0.2v-18c0-0.1,0-0.1,0-0.2c0-0.1,0-0.1,0-0.2v-8
		c0-0.9,0.7-1.6,1.6-1.6h32c0.9,0,1.6,0.7,1.6,1.6v33.3h2.1c0.9,0,1.6,0.7,1.6,1.6v4.1c0,0.9-0.7,1.6-1.6,1.6h-39.5
		c-0.9,0-1.6-0.7-1.6-1.6V424z M307.2,424c0-0.9,0.7-1.6,1.6-1.6h2.1v-6.4c0-0.1,0-0.1,0-0.2c0-0.1,0-0.1,0-0.2v-18
		c0-0.1,0-0.1,0-0.2c0-0.1,0-0.1,0-0.2v-8c0-0.9,0.7-1.6,1.6-1.6h32c0.9,0,1.6,0.7,1.6,1.6v33.3h2.1c0.9,0,1.6,0.7,1.6,1.6v4.1
		c0,0.9-0.7,1.6-1.6,1.6h-39.5c-0.9,0-1.6-0.7-1.6-1.6V424z"/>
	<path class="st2" d="M248.1,294v78.8H409V294H248.1z M299.9,362c0,0.9-0.7,1.6-1.6,1.6h-39.5c-0.9,0-1.6-0.7-1.6-1.6v-4.1
		c0-0.9,0.7-1.6,1.6-1.6h2.1v-53.6c0-0.9,0.7-1.6,1.6-1.6h32c0.9,0,1.6,0.7,1.6,1.6v53.6h2.1c0.9,0,1.6,0.7,1.6,1.6V362z M349.9,362
		c0,0.9-0.7,1.6-1.6,1.6h-39.5c-0.9,0-1.6-0.7-1.6-1.6v-4.1c0-0.9,0.7-1.6,1.6-1.6h2.1v-53.6c0-0.9,0.7-1.6,1.6-1.6h32
		c0.9,0,1.6,0.7,1.6,1.6v53.6h2.1c0.9,0,1.6,0.7,1.6,1.6V362z M398.1,363.6h-39.5c-0.9,0-1.6-0.7-1.6-1.6v-4.1
		c0-0.9,0.7-1.6,1.6-1.6h2.1v-53.6c0-0.9,0.7-1.6,1.6-1.6h32c0.9,0,1.6,0.7,1.6,1.6v53.6h2.1c0.9,0,1.6,0.7,1.6,1.6v4.1
		C399.8,362.9,399,363.6,398.1,363.6z"/>
	<path class="st2" d="M248.1,285.7H409v-60.8H248.1V285.7z M357,274.1c0-0.9,0.7-1.6,1.6-1.6h2.1v-6.4c0-0.1,0-0.1,0-0.2
		c0-0.1,0-0.1,0-0.2v-18c0-0.1,0-0.1,0-0.2c0-0.1,0-0.1,0-0.2v-8c0-0.9,0.7-1.6,1.6-1.6h32c0.9,0,1.6,0.7,1.6,1.6v33.3h2.1
		c0.9,0,1.6,0.7,1.6,1.6v4.1c0,0.9-0.7,1.6-1.6,1.6h-39.5c-0.9,0-1.6-0.7-1.6-1.6V274.1z M307.2,274.1c0-0.9,0.7-1.6,1.6-1.6h2.1
		v-6.4c0-0.1,0-0.1,0-0.2c0-0.1,0-0.1,0-0.2v-18c0-0.1,0-0.1,0-0.2c0-0.1,0-0.1,0-0.2v-8c0-0.9,0.7-1.6,1.6-1.6h32
		c0.9,0,1.6,0.7,1.6,1.6v33.3h2.1c0.9,0,1.6,0.7,1.6,1.6v4.1c0,0.9-0.7,1.6-1.6,1.6h-39.5c-0.9,0-1.6-0.7-1.6-1.6V274.1z
		 M257.2,274.1c0-0.9,0.7-1.6,1.6-1.6h2.1v-6.4c0-0.1,0-0.1,0-0.2c0-0.1,0-0.1,0-0.2v-18c0-0.1,0-0.1,0-0.2c0-0.1,0-0.1,0-0.2v-8
		c0-0.9,0.7-1.6,1.6-1.6h32c0.9,0,1.6,0.7,1.6,1.6v33.3h2.1c0.9,0,1.6,0.7,1.6,1.6v4.1c0,0.9-0.7,1.6-1.6,1.6h-39.5
		c-0.9,0-1.6-0.7-1.6-1.6V274.1z"/>
	<path class="st2" d="M308.2,212.5h41.7v-46.7h-41.7V212.5z M310.7,169.8c0-0.9,0.7-1.6,1.6-1.6h33.5c0.9,0,1.6,0.7,1.6,1.6v38.8
		c0,0.9-0.7,1.6-1.6,1.6h-33.5c-0.9,0-1.6-0.7-1.6-1.6V169.8z"/>
	<rect x="314" y="171.4" class="st2" width="30.2" height="35.5"/>
	<rect x="338.5" y="408.2" class="st2" width="4.4" height="5.9"/>
	<rect x="338.5" y="390.7" class="st2" width="4.4" height="5"/>
	<rect x="330.4" y="345.1" class="st2" width="12.5" height="11.1"/>
	<rect x="338.5" y="258.3" class="st2" width="4.4" height="5.9"/>
	<rect x="338.5" y="240.9" class="st2" width="4.4" height="5"/>
	<rect x="338.5" y="249.1" class="st2" width="4.4" height="5.9"/>
	<rect x="338.5" y="267.5" class="st2" width="4.4" height="5"/>
	<rect x="338.5" y="398.9" class="st2" width="4.4" height="5.9"/>
	<rect x="338.5" y="417.4" class="st2" width="4.4" height="5"/>
	<rect x="330.2" y="417.4" class="st2" width="5.1" height="5"/>
	<rect x="330.2" y="408.2" class="st2" width="5.1" height="5.9"/>
	<rect x="330.2" y="398.9" class="st2" width="5.1" height="5.9"/>
	<rect x="330.2" y="390.7" class="st2" width="5.1" height="5"/>
	<rect x="330.2" y="267.5" class="st2" width="5.1" height="5"/>
	<rect x="330.2" y="258.3" class="st2" width="5.1" height="5.9"/>
	<rect x="330.2" y="249.1" class="st2" width="5.1" height="5.9"/>
	<rect x="330.2" y="240.9" class="st2" width="5.1" height="5"/>
	<rect x="321.6" y="417.4" class="st2" width="5.3" height="5"/>
	<rect x="321.6" y="408.2" class="st2" width="5.3" height="5.9"/>
	<rect x="321.6" y="398.9" class="st2" width="5.3" height="5.9"/>
	<rect x="321.6" y="390.7" class="st2" width="5.3" height="5"/>
	<rect x="321.6" y="267.5" class="st2" width="5.3" height="5"/>
	<rect x="321.6" y="258.3" class="st2" width="5.3" height="5.9"/>
	<rect x="321.6" y="249.1" class="st2" width="5.3" height="5.9"/>
	<rect x="321.6" y="240.9" class="st2" width="5.3" height="5"/>
	<rect x="314.2" y="417.4" class="st2" width="4.2" height="5"/>
	<rect x="314.2" y="408.2" class="st2" width="4.2" height="5.9"/>
	<rect x="314.2" y="398.9" class="st2" width="4.2" height="5.9"/>
	<rect x="314.2" y="390.7" class="st2" width="4.2" height="5"/>
	<rect x="314.2" y="267.5" class="st2" width="4.2" height="5"/>
	<rect x="314.2" y="258.3" class="st2" width="4.2" height="5.9"/>
	<rect x="314.2" y="249.1" class="st2" width="4.2" height="5.9"/>
	<rect x="314.2" y="240.9" class="st2" width="4.2" height="5"/>
	<rect x="314.2" y="345.1" class="st2" width="12.9" height="11.1"/>
	<rect x="310.4" y="275.8" class="st2" width="36.2" height="0.9"/>
	<rect x="310.4" y="359.4" class="st2" width="36.2" height="0.9"/>
	<rect x="310.4" y="425.6" class="st2" width="36.2" height="0.9"/>
	<rect x="280.4" y="345.1" class="st2" width="12.5" height="11.1"/>
	<rect x="288.6" y="258.3" class="st2" width="4.4" height="5.9"/>
	<rect x="288.6" y="240.9" class="st2" width="4.4" height="5"/>
	<rect x="288.6" y="249.1" class="st2" width="4.4" height="5.9"/>
	<rect x="288.6" y="267.5" class="st2" width="4.4" height="5"/>
	<path class="st2" d="M288.3,395.4h-19.5v50.5h19.5V395.4z M286.9,425.3c0,0.9-0.7,1.6-1.6,1.6c-0.9,0-1.6-0.7-1.6-1.6v-7
		c0-0.9,0.7-1.6,1.6-1.6c0.9,0,1.6,0.7,1.6,1.6V425.3z"/>
	<rect x="280.2" y="267.5" class="st2" width="5.1" height="5"/>
	<rect x="280.2" y="258.3" class="st2" width="5.1" height="5.9"/>
	<rect x="280.2" y="249.1" class="st2" width="5.1" height="5.9"/>
	<rect x="280.2" y="240.9" class="st2" width="5.1" height="5"/>
	<rect x="271.7" y="267.5" class="st2" width="5.3" height="5"/>
	<rect x="271.7" y="258.3" class="st2" width="5.3" height="5.9"/>
	<rect x="271.7" y="249.1" class="st2" width="5.3" height="5.9"/>
	<rect x="271.7" y="240.9" class="st2" width="5.3" height="5"/>
	<rect x="264.2" y="267.5" class="st2" width="4.2" height="5"/>
	<rect x="264.2" y="258.3" class="st2" width="4.2" height="5.9"/>
	<rect x="264.2" y="249.1" class="st2" width="4.2" height="5.9"/>
	<rect x="264.2" y="240.9" class="st2" width="4.2" height="5"/>
	<path class="st2" d="M292.6,445.9v-55.2h-28.1v55.2h1v-52.1c0-0.9,0.7-1.6,1.6-1.6H290c0.9,0,1.6,0.7,1.6,1.6v52.1H292.6z"/>
	<rect x="264.2" y="345.1" class="st2" width="12.9" height="11.1"/>
	<rect x="260.5" y="275.8" class="st2" width="36.2" height="0.9"/>
	<rect x="260.5" y="359.4" class="st2" width="36.2" height="0.9"/>
	<path class="st0" d="M413.3,223.3c0-0.9-0.7-1.6-1.6-1.6c-0.3,0-0.6,0-1,0c-20-0.5-35.7-16.7-35.7-36.7v-29.9
		c0-0.9-0.7-1.6-1.6-1.6h-6.6V142c0-0.9-0.7-1.6-1.6-1.6c-3.7,0-7.3-1.5-9.9-4.1c-2.7-2.7-4.1-6.2-4.1-9.9v-11.8
		c0-0.9-0.7-1.6-1.6-1.6h-40.6c-0.9,0-1.6,0.7-1.6,1.6v11.8c0,7.7-6.3,14-14.1,14c-0.9,0-1.6,0.7-1.6,1.6v11.5h-6.6
		c-0.9,0-1.6,0.7-1.6,1.6v29.9c0,20.3-16.5,36.8-36.7,36.8c-0.9,0-1.6,0.7-1.6,1.6v64v5v82.1v5v68.1c0,0.9,0.7,1.6,1.6,1.6h16.5h4.3
		H290h4.3h116.4c0.9,0,1.6-0.7,1.6-1.6v-68.1v-5v-82.1v-5v-62.5C412.8,224.6,413.3,224,413.3,223.3z M268.8,395.4h19.5v50.5h-19.5
		V395.4z M290,392.2h-22.8c-0.9,0-1.6,0.7-1.6,1.6v52.1h-1v-55.2h28.1v55.2h-1v-52.1C291.6,392.9,290.9,392.2,290,392.2z
		 M294.2,387.4h-31.3c-0.9,0-1.6,0.7-1.6,1.6v56.8h-13.2v-64.8H409v64.8H295.9v-56.8C295.9,388.2,295.2,387.4,294.2,387.4z
		 M409,285.7H248.1v-60.8H409V285.7z M409,290.7H248.1V289H409V290.7z M409,377.8H248.1v-1.7H409V377.8z M248.1,372.8V294H409v78.8
		H248.1z M310.4,116.1h37.4v10.2c0,4.6,1.8,9,5.1,12.3c2.9,2.9,6.6,4.6,10.6,5v9.9h-68.7v-9.9c8.8-0.8,15.7-8.2,15.7-17.2V116.1z
		 M286.5,184.9v-28.2h85.2v28.2c0,16.6,9.8,30.7,24,36.8H262.3C276.5,215.5,286.5,201.4,286.5,184.9z"/>
	<path class="st0" d="M329.1,148.6c7,0,12.7-5.7,12.7-12.7c0-7-5.7-12.7-12.7-12.7c-7,0-12.7,5.7-12.7,12.7
		C316.4,142.9,322.1,148.6,329.1,148.6z M329.1,126.5c5.2,0,9.4,4.2,9.4,9.4c0,5.2-4.2,9.4-9.4,9.4c-5.2,0-9.4-4.2-9.4-9.4
		C319.7,130.8,323.9,126.5,329.1,126.5z"/>
	<path class="st0" d="M351.6,162.5h-45c-0.9,0-1.6,0.7-1.6,1.6v50c0,0.9,0.7,1.6,1.6,1.6h45c0.9,0,1.6-0.7,1.6-1.6v-50
		C353.2,163.2,352.5,162.5,351.6,162.5z M349.9,212.5h-41.7v-46.7h41.7V212.5z"/>
	<path class="st0" d="M312.3,210.1h33.5c0.9,0,1.6-0.7,1.6-1.6v-38.8c0-0.9-0.7-1.6-1.6-1.6h-33.5c-0.9,0-1.6,0.7-1.6,1.6v38.8
		C310.7,209.4,311.4,210.1,312.3,210.1z M314,171.4h30.2v35.5H314V171.4z"/>
	<path class="st0" d="M308.8,429.8h39.5c0.9,0,1.6-0.7,1.6-1.6V424c0-0.9-0.7-1.6-1.6-1.6h-2.1v-33.3c0-0.9-0.7-1.6-1.6-1.6h-32
		c-0.9,0-1.6,0.7-1.6,1.6v8c0,0.1,0,0.1,0,0.2c0,0.1,0,0.1,0,0.2v18c0,0.1,0,0.1,0,0.2c0,0.1,0,0.1,0,0.2v6.4h-2.1
		c-0.9,0-1.6,0.7-1.6,1.6v4.1C307.2,429,307.9,429.8,308.8,429.8z M342.9,395.7h-4.4v-5h4.4V395.7z M330.2,422.3v-5h5.1v5H330.2z
		 M321.6,422.3v-5h5.3v5H321.6z M335.3,404.9h-5.1v-5.9h5.1V404.9z M330.2,414.1v-5.9h5.1v5.9H330.2z M338.5,408.2h4.4v5.9h-4.4
		V408.2z M338.5,398.9h4.4v5.9h-4.4V398.9z M326.9,398.9v5.9h-5.3v-5.9H326.9z M318.4,404.9h-4.2v-5.9h4.2V404.9z M321.6,408.2h5.3
		v5.9h-5.3V408.2z M335.3,395.7h-5.1v-5h5.1V395.7z M326.9,395.7h-5.3v-5h5.3V395.7z M314.2,408.2h4.2v5.9h-4.2V408.2z M338.5,422.3
		v-5h4.4v5H338.5z M318.4,390.7v5h-4.2v-5H318.4z M314.2,417.4h4.2v5h-4.2V417.4z M310.4,425.6h36.2v0.9h-36.2V425.6z"/>
	<path class="st0" d="M358.7,429.8h39.5c0.9,0,1.6-0.7,1.6-1.6V424c0-0.9-0.7-1.6-1.6-1.6H396v-33.3c0-0.9-0.7-1.6-1.6-1.6h-32
		c-0.9,0-1.6,0.7-1.6,1.6v8c0,0.1,0,0.1,0,0.2c0,0.1,0,0.1,0,0.2v18c0,0.1,0,0.1,0,0.2c0,0.1,0,0.1,0,0.2v6.4h-2.1
		c-0.9,0-1.6,0.7-1.6,1.6v4.1C357,429,357.8,429.8,358.7,429.8z M380,422.3v-5h5.1v5H380z M371.5,422.3v-5h5.3v5H371.5z
		 M392.7,404.9h-4.4v-5.9h4.4V404.9z M392.7,414.1h-4.4v-5.9h4.4V414.1z M385.1,404.9H380v-5.9h5.1V404.9z M380,414.1v-5.9h5.1v5.9
		H380z M376.8,398.9v5.9h-5.3v-5.9H376.8z M368.2,404.9H364v-5.9h4.2V404.9z M368.2,408.2v5.9H364v-5.9H368.2z M371.5,408.2h5.3v5.9
		h-5.3V408.2z M392.7,395.7h-4.4v-5h4.4V395.7z M385.1,395.7H380v-5h5.1V395.7z M376.8,395.7h-5.3v-5h5.3V395.7z M388.4,422.3v-5
		h4.4v5H388.4z M368.2,390.7v5H364v-5H368.2z M368.2,417.4v5H364v-5H368.2z M360.3,425.6h36.2v0.9h-36.2V425.6z"/>
	<path class="st0" d="M258.8,279.9h39.5c0.9,0,1.6-0.7,1.6-1.6v-4.1c0-0.9-0.7-1.6-1.6-1.6h-2.1v-33.3c0-0.9-0.7-1.6-1.6-1.6h-32
		c-0.9,0-1.6,0.7-1.6,1.6v8c0,0.1,0,0.1,0,0.2c0,0.1,0,0.1,0,0.2v18c0,0.1,0,0.1,0,0.2c0,0.1,0,0.1,0,0.2v6.4h-2.1
		c-0.9,0-1.6,0.7-1.6,1.6v4.1C257.2,279.2,257.9,279.9,258.8,279.9z M292.9,245.8h-4.4v-5h4.4V245.8z M280.2,272.5v-5h5.1v5H280.2z
		 M271.7,272.5v-5h5.3v5H271.7z M285.3,255.1h-5.1v-5.9h5.1V255.1z M280.2,264.3v-5.9h5.1v5.9H280.2z M288.6,258.3h4.4v5.9h-4.4
		V258.3z M288.6,249.1h4.4v5.9h-4.4V249.1z M276.9,249.1v5.9h-5.3v-5.9H276.9z M268.4,255.1h-4.2v-5.9h4.2V255.1z M271.7,258.3h5.3
		v5.9h-5.3V258.3z M285.3,245.8h-5.1v-5h5.1V245.8z M276.9,245.8h-5.3v-5h5.3V245.8z M264.2,258.3h4.2v5.9h-4.2V258.3z M288.6,272.5
		v-5h4.4v5H288.6z M268.4,240.9v5h-4.2v-5H268.4z M264.2,267.5h4.2v5h-4.2V267.5z M260.5,275.8h36.2v0.9h-36.2V275.8z"/>
	<path class="st0" d="M308.8,279.9h39.5c0.9,0,1.6-0.7,1.6-1.6v-4.1c0-0.9-0.7-1.6-1.6-1.6h-2.1v-33.3c0-0.9-0.7-1.6-1.6-1.6h-32
		c-0.9,0-1.6,0.7-1.6,1.6v8c0,0.1,0,0.1,0,0.2c0,0.1,0,0.1,0,0.2v18c0,0.1,0,0.1,0,0.2c0,0.1,0,0.1,0,0.2v6.4h-2.1
		c-0.9,0-1.6,0.7-1.6,1.6v4.1C307.2,279.2,307.9,279.9,308.8,279.9z M342.9,245.8h-4.4v-5h4.4V245.8z M330.2,272.5v-5h5.1v5H330.2z
		 M321.6,272.5v-5h5.3v5H321.6z M335.3,255.1h-5.1v-5.9h5.1V255.1z M330.2,264.3v-5.9h5.1v5.9H330.2z M338.5,258.3h4.4v5.9h-4.4
		V258.3z M338.5,249.1h4.4v5.9h-4.4V249.1z M326.9,249.1v5.9h-5.3v-5.9H326.9z M318.4,255.1h-4.2v-5.9h4.2V255.1z M321.6,258.3h5.3
		v5.9h-5.3V258.3z M335.3,245.8h-5.1v-5h5.1V245.8z M326.9,245.8h-5.3v-5h5.3V245.8z M314.2,258.3h4.2v5.9h-4.2V258.3z M338.5,272.5
		v-5h4.4v5H338.5z M318.4,240.9v5h-4.2v-5H318.4z M314.2,267.5h4.2v5h-4.2V267.5z M310.4,275.8h36.2v0.9h-36.2V275.8z"/>
	<path class="st0" d="M358.7,279.9h39.5c0.9,0,1.6-0.7,1.6-1.6v-4.1c0-0.9-0.7-1.6-1.6-1.6H396v-33.3c0-0.9-0.7-1.6-1.6-1.6h-32
		c-0.9,0-1.6,0.7-1.6,1.6v8c0,0.1,0,0.1,0,0.2c0,0.1,0,0.1,0,0.2v18c0,0.1,0,0.1,0,0.2c0,0.1,0,0.1,0,0.2v6.4h-2.1
		c-0.9,0-1.6,0.7-1.6,1.6v4.1C357,279.2,357.8,279.9,358.7,279.9z M380,272.5v-5h5.1v5H380z M371.5,272.5v-5h5.3v5H371.5z
		 M392.7,255.1h-4.4v-5.9h4.4V255.1z M392.7,264.3h-4.4v-5.9h4.4V264.3z M385.1,255.1H380v-5.9h5.1V255.1z M380,264.3v-5.9h5.1v5.9
		H380z M376.8,249.1v5.9h-5.3v-5.9H376.8z M368.2,255.1H364v-5.9h4.2V255.1z M368.2,258.3v5.9H364v-5.9H368.2z M371.5,258.3h5.3v5.9
		h-5.3V258.3z M392.7,245.8h-4.4v-5h4.4V245.8z M385.1,245.8H380v-5h5.1V245.8z M376.8,245.8h-5.3v-5h5.3V245.8z M388.4,272.5v-5
		h4.4v5H388.4z M368.2,240.9v5H364v-5H368.2z M368.2,267.5v5H364v-5H368.2z M360.3,275.8h36.2v0.9h-36.2V275.8z"/>
	<path class="st0" d="M298.3,356.2h-2.1v-53.6c0-0.9-0.7-1.6-1.6-1.6h-32c-0.9,0-1.6,0.7-1.6,1.6v53.6h-2.1c-0.9,0-1.6,0.7-1.6,1.6
		v4.1c0,0.9,0.7,1.6,1.6,1.6h39.5c0.9,0,1.6-0.7,1.6-1.6v-4.1C299.9,356.9,299.2,356.2,298.3,356.2z M296.7,360.3h-36.2v-0.9h36.2
		V360.3z M292.9,341.8h-28.7v-37.6h28.7V341.8z M280.4,356.2v-11.1h12.5v11.1H280.4z M264.2,345.1h12.9v11.1h-12.9V345.1z"/>
	<path class="st0" d="M348.3,356.2h-2.1v-53.6c0-0.9-0.7-1.6-1.6-1.6h-32c-0.9,0-1.6,0.7-1.6,1.6v53.6h-2.1c-0.9,0-1.6,0.7-1.6,1.6
		v4.1c0,0.9,0.7,1.6,1.6,1.6h39.5c0.9,0,1.6-0.7,1.6-1.6v-4.1C349.9,356.9,349.2,356.2,348.3,356.2z M346.6,360.3h-36.2v-0.9h36.2
		V360.3z M342.9,341.8h-28.7v-37.6h28.7V341.8z M330.4,356.2v-11.1h12.5v11.1H330.4z M314.2,345.1h12.9v11.1h-12.9V345.1z"/>
	<path class="st0" d="M398.1,356.2H396v-53.6c0-0.9-0.7-1.6-1.6-1.6h-32c-0.9,0-1.6,0.7-1.6,1.6v53.6h-2.1c-0.9,0-1.6,0.7-1.6,1.6
		v4.1c0,0.9,0.7,1.6,1.6,1.6h39.5c0.9,0,1.6-0.7,1.6-1.6v-4.1C399.8,356.9,399,356.2,398.1,356.2z M396.5,360.3h-36.2v-0.9h36.2
		V360.3z M380.2,356.2v-11.1h12.5v11.1H380.2z M392.7,341.8H364v-37.6h28.7V341.8z M364,345.1h12.9v11.1H364V345.1z"/>
	<path class="st3" d="M285.3,416.7c-0.9,0-1.6,0.7-1.6,1.6v7c0,0.9,0.7,1.6,1.6,1.6c0.9,0,1.6-0.7,1.6-1.6v-7
		C286.9,417.4,286.2,416.7,285.3,416.7z"/>
	<path class="st1" d="M185.9,166.8v-42.2h-36v42.2c0,18.5-11.4,34.4-27.6,41h91.1C197.3,201.1,185.9,185.3,185.9,166.8z
		 M167.9,131.4c6.1,0,11,5,11,11c0,6.1-5,11-11,11c-6.1,0-11-5-11-11C156.9,136.4,161.8,131.4,167.9,131.4z M183.2,201.3
		c0,0.9-0.7,1.6-1.6,1.6h-27.3c-0.9,0-1.6-0.7-1.6-1.6v-25.1c0-4.1,1.6-7.9,4.5-10.8c2.9-2.9,6.7-4.5,10.8-4.5
		c8.4,0,15.3,6.9,15.3,15.3V201.3z"/>
	<rect x="157.1" y="302.2" class="st2" width="9.7" height="10.2"/>
	<rect x="114.4" y="262.4" class="st2" width="9.7" height="8.8"/>
	<rect x="114.4" y="250.3" class="st2" width="9.7" height="8.8"/>
	<rect x="114.1" y="302.2" class="st2" width="9.7" height="10.2"/>
	<rect x="114.1" y="315.7" class="st2" width="9.7" height="8.8"/>
	<path class="st2" d="M146.5,395.4H127v50.5h19.5V395.4z M145.1,425.3c0,0.9-0.7,1.6-1.6,1.6c-0.9,0-1.6-0.7-1.6-1.6v-7
		c0-0.9,0.7-1.6,1.6-1.6c0.9,0,1.6,0.7,1.6,1.6V425.3z"/>
	<path class="st2" d="M150.8,445.9v-55.2h-28.1v55.2h1v-52.1c0-0.9,0.7-1.6,1.6-1.6h22.8c0.9,0,1.6,0.7,1.6,1.6v52.1H150.8z"/>
	<rect x="127.1" y="315.7" class="st2" width="9.7" height="8.8"/>
	<rect x="127.1" y="302.2" class="st2" width="9.7" height="10.2"/>
	<rect x="127.4" y="236.9" class="st2" width="9.7" height="10.2"/>
	<rect x="127.1" y="327.8" class="st2" width="9.7" height="8.8"/>
	<rect x="127.1" y="339.8" class="st2" width="9.7" height="10.2"/>
	<rect x="127.4" y="250.3" class="st2" width="9.7" height="8.8"/>
	<rect x="127.4" y="262.4" class="st2" width="9.7" height="8.8"/>
	<rect x="157.1" y="327.8" class="st2" width="9.7" height="8.8"/>
	<rect x="127.4" y="274.4" class="st2" width="9.7" height="10.2"/>
	<rect x="157.1" y="315.7" class="st2" width="9.7" height="8.8"/>
	<rect x="157.1" y="339.8" class="st2" width="9.7" height="10.2"/>
	<rect x="157.3" y="236.9" class="st2" width="9.7" height="10.2"/>
	<rect x="157.3" y="262.4" class="st2" width="9.7" height="8.8"/>
	<rect x="157.3" y="250.3" class="st2" width="9.7" height="8.8"/>
	<rect x="157.3" y="274.4" class="st2" width="9.7" height="10.2"/>
	<rect x="170.1" y="315.7" class="st2" width="9.7" height="8.8"/>
	<rect x="169.5" y="390.7" class="st2" width="10.2" height="9.7"/>
	<rect x="169.5" y="403.7" class="st2" width="10.2" height="9.7"/>
	<rect x="170.1" y="302.2" class="st2" width="9.7" height="10.2"/>
	<rect x="170.1" y="327.8" class="st2" width="9.7" height="8.8"/>
	<rect x="170.3" y="236.9" class="st2" width="9.7" height="10.2"/>
	<rect x="170.1" y="339.8" class="st2" width="9.7" height="10.2"/>
	<path class="st2" d="M156,174.5h23.8c-0.8-5.9-5.8-10.4-11.9-10.4c-3.2,0-6.2,1.3-8.5,3.5C157.5,169.5,156.4,171.9,156,174.5z"/>
	<rect x="155.9" y="177.8" class="st2" width="24.1" height="21.8"/>
	<rect x="170.3" y="250.3" class="st2" width="9.7" height="8.8"/>
	<rect x="170.3" y="274.4" class="st2" width="9.7" height="10.2"/>
	<rect x="170.3" y="262.4" class="st2" width="9.7" height="8.8"/>
	<path class="st2" d="M150,121.4h35.8c-0.8-9.2-8.5-16.4-17.9-16.4C158.5,105,150.8,112.2,150,121.4z"/>
	<rect x="183" y="390.7" class="st2" width="8.8" height="9.7"/>
	<rect x="199.5" y="302.2" class="st2" width="9.7" height="10.2"/>
	<rect x="183" y="403.7" class="st2" width="8.8" height="9.7"/>
	<rect x="195.1" y="390.7" class="st2" width="8.8" height="9.7"/>
	<rect x="195.1" y="403.7" class="st2" width="8.8" height="9.7"/>
	<rect x="199.5" y="315.7" class="st2" width="9.7" height="8.8"/>
	<rect x="199.5" y="339.8" class="st2" width="9.7" height="10.2"/>
	<rect x="199.5" y="327.8" class="st2" width="9.7" height="8.8"/>
	<rect x="199.8" y="236.9" class="st2" width="9.7" height="10.2"/>
	<rect x="199.8" y="250.3" class="st2" width="9.7" height="8.8"/>
	<rect x="199.8" y="262.4" class="st2" width="9.7" height="8.8"/>
	<rect x="199.8" y="274.4" class="st2" width="9.7" height="10.2"/>
	<rect x="207.1" y="390.7" class="st2" width="10.2" height="9.7"/>
	<rect x="207.1" y="403.7" class="st2" width="10.2" height="9.7"/>
	<rect x="212.5" y="302.2" class="st2" width="9.7" height="10.2"/>
	<rect x="212.5" y="315.7" class="st2" width="9.7" height="8.8"/>
	<rect x="212.5" y="327.8" class="st2" width="9.7" height="8.8"/>
	<rect x="212.5" y="339.8" class="st2" width="9.7" height="10.2"/>
	<rect x="212.8" y="236.9" class="st2" width="9.7" height="10.2"/>
	<rect x="212.8" y="250.3" class="st2" width="9.7" height="8.8"/>
	<rect x="212.8" y="262.4" class="st2" width="9.7" height="8.8"/>
	<rect x="212.8" y="274.4" class="st2" width="9.7" height="10.2"/>
	<rect x="107.3" y="211" class="st2" width="121.2" height="3.8"/>
	<path class="st2" d="M107.3,218.1v150.6h121.2V218.1H107.3z M140.1,351.7c0,0.9-0.7,1.6-1.6,1.6h-26c-0.9,0-1.6-0.7-1.6-1.6v-51.1
		c0-0.9,0.7-1.6,1.6-1.6h26c0.9,0,1.6,0.7,1.6,1.6V351.7z M140.3,286.3c0,0.9-0.7,1.6-1.6,1.6h-26c-0.9,0-1.6-0.7-1.6-1.6v-51.1
		c0-0.9,0.7-1.6,1.6-1.6h26c0.9,0,1.6,0.7,1.6,1.6V286.3z M183.1,351.7c0,0.9-0.7,1.6-1.6,1.6h-26c-0.9,0-1.6-0.7-1.6-1.6v-51.1
		c0-0.9,0.7-1.6,1.6-1.6h26c0.9,0,1.6,0.7,1.6,1.6V351.7z M183.3,286.3c0,0.9-0.7,1.6-1.6,1.6h-26c-0.9,0-1.6-0.7-1.6-1.6v-51.1
		c0-0.9,0.7-1.6,1.6-1.6h26c0.9,0,1.6,0.7,1.6,1.6V286.3z M225.5,351.7c0,0.9-0.7,1.6-1.6,1.6h-26c-0.9,0-1.6-0.7-1.6-1.6v-51.1
		c0-0.9,0.7-1.6,1.6-1.6h26c0.9,0,1.6,0.7,1.6,1.6V351.7z M225.8,286.3c0,0.9-0.7,1.6-1.6,1.6h-26c-0.9,0-1.6-0.7-1.6-1.6v-51.1
		c0-0.9,0.7-1.6,1.6-1.6h26c0.9,0,1.6,0.7,1.6,1.6V286.3z"/>
	<rect x="107.3" y="372" class="st2" width="121.2" height="4.4"/>
	<path class="st2" d="M107.3,379.6v66.3h12.1v-56.8c0-0.9,0.7-1.6,1.6-1.6h31.3c0.9,0,1.6,0.7,1.6,1.6v56.8h74.5v-66.3H107.3z
		 M220.6,415c0,0.9-0.7,1.6-1.6,1.6h-51.1c-0.9,0-1.6-0.7-1.6-1.6v-26c0-0.9,0.7-1.6,1.6-1.6H219c0.9,0,1.6,0.7,1.6,1.6V415z"/>
	<rect x="114.1" y="327.8" class="st2" width="9.7" height="8.8"/>
	<rect x="114.4" y="236.9" class="st2" width="9.7" height="10.2"/>
	<rect x="114.4" y="274.4" class="st2" width="9.7" height="10.2"/>
	<rect x="114.1" y="339.8" class="st2" width="9.7" height="10.2"/>
	<path class="st2" d="M160.1,142.5c0,4.3,3.5,7.8,7.8,7.8c4.3,0,7.8-3.5,7.8-7.8c0-4.3-3.5-7.8-7.8-7.8
		C163.6,134.7,160.1,138.2,160.1,142.5z"/>
	<path class="st0" d="M230.1,207.7c-22.6,0-41-18.4-41-41v-42.2h7.2c0.9,0,1.6-0.7,1.6-1.6c0-0.9-0.7-1.6-1.6-1.6h-7.3
		c-0.8-11-10-19.6-21.2-19.6c-11.2,0-20.3,8.7-21.2,19.6h-7.3c-0.9,0-1.6,0.7-1.6,1.6c0,0.9,0.7,1.6,1.6,1.6h7.2v42.2
		c0,22.6-18.4,41-41,41c-0.9,0-1.6,0.7-1.6,1.6v161v7.7v69.5c0,0.9,0.7,1.6,1.6,1.6h15.4h4.3h22.8h4.3h77.7c0.9,0,1.6-0.7,1.6-1.6
		V378v-7.7v-161C231.8,208.5,231,207.7,230.1,207.7z M127,395.4h19.5v50.5H127V395.4z M148.1,392.2h-22.8c-0.9,0-1.6,0.7-1.6,1.6
		v52.1h-1v-55.2h28.1v55.2h-1v-52.1C149.8,392.9,149,392.2,148.1,392.2z M154,445.9v-56.8c0-0.9-0.7-1.6-1.6-1.6h-31.3
		c-0.9,0-1.6,0.7-1.6,1.6v56.8h-12.1v-66.3h121.2v66.3H154z M228.5,214.8H107.3V211h121.2V214.8z M228.5,372v4.4H107.3V372H228.5z
		 M107.3,368.7V218.1h121.2v150.6H107.3z M185.8,121.4H150c0.8-9.2,8.5-16.4,17.9-16.4C177.3,105,185,112.2,185.8,121.4z
		 M149.9,166.8v-42.2h36v42.2c0,18.5,11.4,34.4,27.6,41h-91.1C138.5,201.1,149.9,185.3,149.9,166.8z"/>
	<path class="st0" d="M167.9,153.5c6.1,0,11-5,11-11c0-6.1-5-11-11-11c-6.1,0-11,5-11,11C156.9,148.5,161.8,153.5,167.9,153.5z
		 M175.7,142.5c0,4.3-3.5,7.8-7.8,7.8c-4.3,0-7.8-3.5-7.8-7.8c0-4.3,3.5-7.8,7.8-7.8C172.2,134.7,175.7,138.2,175.7,142.5z"/>
	<path class="st0" d="M167.9,160.8c-4.1,0-7.9,1.6-10.8,4.5c-2.9,2.9-4.5,6.7-4.5,10.8v25.1c0,0.9,0.7,1.6,1.6,1.6h27.3
		c0.9,0,1.6-0.7,1.6-1.6v-25.1C183.2,167.7,176.3,160.8,167.9,160.8z M179.8,174.5H156c0.4-2.6,1.5-5,3.4-6.9
		c2.3-2.3,5.3-3.5,8.5-3.5C174,164.1,179,168.6,179.8,174.5z M155.9,177.8h24.1v21.8h-24.1V177.8z"/>
	<path class="st0" d="M138.4,299h-26c-0.9,0-1.6,0.7-1.6,1.6v51.1c0,0.9,0.7,1.6,1.6,1.6h26c0.9,0,1.6-0.7,1.6-1.6v-51.1
		C140.1,299.7,139.3,299,138.4,299z M136.8,302.2v10.2h-9.7v-10.2H136.8z M123.8,327.8v8.8h-9.7v-8.8H123.8z M127.1,327.8h9.7v8.8
		h-9.7V327.8z M127.1,315.7h9.7v8.8h-9.7V315.7z M123.8,315.7v8.8h-9.7v-8.8H123.8z M127.1,339.8h9.7V350h-9.7V339.8z M123.8,302.2
		v10.2h-9.7v-10.2H123.8z M114.1,339.8h9.7V350h-9.7V339.8z"/>
	<path class="st0" d="M181.4,299h-26c-0.9,0-1.6,0.7-1.6,1.6v51.1c0,0.9,0.7,1.6,1.6,1.6h26c0.9,0,1.6-0.7,1.6-1.6v-51.1
		C183.1,299.7,182.3,299,181.4,299z M157.1,339.8h9.7V350h-9.7V339.8z M166.8,336.6h-9.7v-8.8h9.7V336.6z M166.8,324.5h-9.7v-8.8
		h9.7V324.5z M166.8,312.4h-9.7v-10.2h9.7V312.4z M170.1,327.8h9.7v8.8h-9.7V327.8z M170.1,324.5v-8.8h9.7v8.8H170.1z M179.8,312.4
		h-9.7v-10.2h9.7V312.4z M170.1,350v-10.2h9.7V350H170.1z"/>
	<path class="st0" d="M223.9,299h-26c-0.9,0-1.6,0.7-1.6,1.6v51.1c0,0.9,0.7,1.6,1.6,1.6h26c0.9,0,1.6-0.7,1.6-1.6v-51.1
		C225.5,299.7,224.8,299,223.9,299z M222.3,302.2v10.2h-9.7v-10.2H222.3z M209.3,327.8v8.8h-9.7v-8.8H209.3z M212.5,327.8h9.7v8.8
		h-9.7V327.8z M212.5,315.7h9.7v8.8h-9.7V315.7z M209.3,315.7v8.8h-9.7v-8.8H209.3z M212.5,339.8h9.7V350h-9.7V339.8z M209.3,302.2
		v10.2h-9.7v-10.2H209.3z M199.5,339.8h9.7V350h-9.7V339.8z"/>
	<path class="st0" d="M138.7,233.6h-26c-0.9,0-1.6,0.7-1.6,1.6v51.1c0,0.9,0.7,1.6,1.6,1.6h26c0.9,0,1.6-0.7,1.6-1.6v-51.1
		C140.3,234.3,139.6,233.6,138.7,233.6z M114.4,284.6v-10.2h9.7v10.2H114.4z M127.4,259.1v-8.8h9.7v8.8H127.4z M124.1,259.1h-9.7
		v-8.8h9.7V259.1z M124.1,262.4v8.8h-9.7v-8.8H124.1z M127.4,271.2v-8.8h9.7v8.8H127.4z M137.1,247h-9.7v-10.2h9.7V247z
		 M124.1,236.9V247h-9.7v-10.2H124.1z M127.4,284.6v-10.2h9.7v10.2H127.4z"/>
	<path class="st0" d="M181.7,233.6h-26c-0.9,0-1.6,0.7-1.6,1.6v51.1c0,0.9,0.7,1.6,1.6,1.6h26c0.9,0,1.6-0.7,1.6-1.6v-51.1
		C183.3,234.3,182.6,233.6,181.7,233.6z M180,247h-9.7v-10.2h9.7V247z M167.1,262.4v8.8h-9.7v-8.8H167.1z M170.3,262.4h9.7v8.8h-9.7
		V262.4z M170.3,250.3h9.7v8.8h-9.7V250.3z M167.1,250.3v8.8h-9.7v-8.8H167.1z M170.3,274.4h9.7v10.2h-9.7V274.4z M167.1,236.9V247
		h-9.7v-10.2H167.1z M157.3,274.4h9.7v10.2h-9.7V274.4z"/>
	<path class="st0" d="M224.1,233.6h-26c-0.9,0-1.6,0.7-1.6,1.6v51.1c0,0.9,0.7,1.6,1.6,1.6h26c0.9,0,1.6-0.7,1.6-1.6v-51.1
		C225.8,234.3,225,233.6,224.1,233.6z M199.8,284.6v-10.2h9.7v10.2H199.8z M212.8,259.1v-8.8h9.7v8.8H212.8z M209.5,259.1h-9.7v-8.8
		h9.7V259.1z M209.5,262.4v8.8h-9.7v-8.8H209.5z M212.8,271.2v-8.8h9.7v8.8H212.8z M222.5,247h-9.7v-10.2h9.7V247z M209.5,236.9V247
		h-9.7v-10.2H209.5z M212.8,284.6v-10.2h9.7v10.2H212.8z"/>
	<path class="st0" d="M219,387.4h-51.1c-0.9,0-1.6,0.7-1.6,1.6v26c0,0.9,0.7,1.6,1.6,1.6H219c0.9,0,1.6-0.7,1.6-1.6v-26
		C220.6,388.2,219.9,387.4,219,387.4z M217.3,400.4h-10.2v-9.7h10.2V400.4z M169.5,403.7h10.2v9.7h-10.2V403.7z M203.9,400.4h-8.8
		v-9.7h8.8V400.4z M191.8,400.4H183v-9.7h8.8V400.4z M179.7,400.4h-10.2v-9.7h10.2V400.4z M183,403.7h8.8v9.7H183V403.7z
		 M195.1,403.7h8.8v9.7h-8.8V403.7z M207.1,413.4v-9.7h10.2v9.7H207.1z"/>
	<path class="st0" d="M143.4,416.7c-0.9,0-1.6,0.7-1.6,1.6v7c0,0.9,0.7,1.6,1.6,1.6c0.9,0,1.6-0.7,1.6-1.6v-7
		C145.1,417.4,144.3,416.7,143.4,416.7z"/>
	<polygon class="st2" points="237.7,316.4 234.3,319.8 249.9,319.8 246.4,316.4 	"/>
	<path class="st2" d="M234.2,323.1c0.8,3.7,4,6.4,7.9,6.4c3.9,0,7.2-2.8,7.9-6.4H234.2z"/>
	<rect x="238.7" y="312.9" class="st2" width="6.8" height="0.3"/>
	<polygon class="st2" points="212.8,442.9 208.1,442.9 208.1,445.9 227.4,445.9 227.4,442.9 222.7,442.9 	"/>
	<rect x="214.5" y="405.2" class="st2" width="6.6" height="34.4"/>
	<path class="st0" d="M255,320.3l-6.2-6.2v-2.9c0-0.9-0.7-1.6-1.6-1.6h-3.4v-11.7c0-3.7-1.4-7.2-4-9.8c-2.6-2.6-6.1-4-9.8-4
		c-7.6,0-13.8,6.2-13.8,13.8v9H213c-0.9,0-1.6,0.7-1.6,1.6v2.9c0,0.9,0.7,1.6,1.6,1.6h3.2v88.8h-3.3c-0.9,0-1.6,0.7-1.6,1.6v36h-4.8
		c-0.9,0-1.6,0.7-1.6,1.6v6.3c0,0.9,0.7,1.6,1.6,1.6h22.6c0.9,0,1.6-0.7,1.6-1.6v-6.3c0-0.9-0.7-1.6-1.6-1.6h-4.8v-36
		c0-0.9-0.7-1.6-1.6-1.6h-3.3v-88.8h3.2c0.9,0,1.6-0.7,1.6-1.6v-2.9c0-0.9-0.7-1.6-1.6-1.6h-3.2v-9c0-5.8,4.7-10.5,10.5-10.5
		c2.8,0,5.5,1.1,7.4,3.1c2,2,3.1,4.6,3.1,7.5v11.7h-3.4c-0.9,0-1.6,0.7-1.6,1.6v2.9l-6.2,6.2c-0.5,0.5-0.6,1.2-0.4,1.8
		c0.3,0.6,0.8,1,1.5,1h0.5c0.8,5.5,5.5,9.7,11.2,9.7c5.7,0,10.4-4.2,11.2-9.7h0.5c0.7,0,1.3-0.4,1.5-1
		C255.6,321.5,255.4,320.8,255,320.3z M227.4,445.9h-19.4v-3h4.8h9.8h4.8V445.9z M221.1,405.2v34.4h-6.6v-34.4H221.1z M242.1,329.5
		c-3.9,0-7.2-2.8-7.9-6.4H250C249.2,326.8,246,329.5,242.1,329.5z M234.3,319.8l3.4-3.4h8.7l3.4,3.4H234.3z M245.5,312.9v0.3h-6.8
		v-0.3H245.5z"/>
</g>
</svg>
