<?xml version="1.0" encoding="utf-8"?>
<!-- Generator: Adobe Illustrator 23.0.1, SVG Export Plug-In . SVG Version: 6.00 Build 0)  -->
<svg version="1.1" id="Layer_1" xmlns="http://www.w3.org/2000/svg" xmlns:xlink="http://www.w3.org/1999/xlink" x="0px" y="0px"
	 viewBox="0 0 500 500" style="enable-background:new 0 0 500 500;" xml:space="preserve">
<style type="text/css">
	.st0{fill:#4FC1EA;}
	.st1{fill:none;}
	.st2{fill:#FFFFFF;}
</style>
<g>
	<path class="st0" d="M491.8,449.7H23.7c-0.4,0-0.7-0.8-0.7-1.8c0-1,0.3-1.8,0.7-1.8h468.2"/>
	<rect x="315.1" y="253.8" class="st1" width="29.2" height="38.3"/>
	<rect x="268.3" y="253.8" class="st1" width="29.2" height="38.3"/>
	<rect x="361.8" y="253.8" class="st1" width="29.2" height="38.3"/>
	<path class="st1" d="M352,142.6v-4.8h-44.5v4.8c0,20.5-12.8,38.1-30.8,45.1h106.1C364.8,180.7,352,163.1,352,142.6z M355.9,180.4
		c0,0.9-0.7,1.7-1.7,1.7h-49.1c-0.9,0-1.7-0.7-1.7-1.7v-4.6c0-0.9,0.7-1.7,1.7-1.7h2.8c0.9-11.2,10.2-20.1,21.7-20.1
		s20.8,8.9,21.7,20.1h2.8c0.9,0,1.7,0.7,1.7,1.7V180.4z"/>
	<rect x="260.8" y="374.7" class="st2" width="138" height="2.1"/>
	<rect x="260.8" y="191.1" class="st2" width="138" height="2.5"/>
	<rect x="386.8" y="222.5" class="st2" width="4.4" height="6"/>
	<rect x="386.8" y="204.7" class="st2" width="4.4" height="5.1"/>
	<rect x="386.8" y="213.1" class="st2" width="4.4" height="6"/>
	<rect x="386.8" y="231.9" class="st2" width="4.4" height="5.1"/>
	<rect x="386.6" y="406.4" class="st2" width="4.4" height="6"/>
	<rect x="386.6" y="388.6" class="st2" width="4.4" height="5.1"/>
	<rect x="386.6" y="342.4" class="st2" width="4.4" height="6"/>
	<rect x="386.6" y="324.7" class="st2" width="4.4" height="5.1"/>
	<rect x="378.3" y="295.4" class="st2" width="12.7" height="11.3"/>
	<rect x="386.6" y="333" class="st2" width="4.4" height="6"/>
	<rect x="386.6" y="351.8" class="st2" width="4.4" height="5.1"/>
	<rect x="386.6" y="397" class="st2" width="4.4" height="6"/>
	<rect x="386.6" y="415.8" class="st2" width="4.4" height="5.1"/>
	<rect x="378.3" y="231.9" class="st2" width="5.2" height="5.1"/>
	<rect x="378.3" y="222.5" class="st2" width="5.2" height="6"/>
	<rect x="378.3" y="213.1" class="st2" width="5.2" height="6"/>
	<rect x="378.3" y="204.7" class="st2" width="5.2" height="5.1"/>
	<rect x="378.1" y="415.8" class="st2" width="5.2" height="5.1"/>
	<rect x="378.1" y="406.4" class="st2" width="5.2" height="6"/>
	<rect x="378.1" y="397" class="st2" width="5.2" height="6"/>
	<rect x="378.1" y="388.6" class="st2" width="5.2" height="5.1"/>
	<rect x="378.1" y="351.8" class="st2" width="5.2" height="5.1"/>
	<rect x="378.1" y="342.4" class="st2" width="5.2" height="6"/>
	<rect x="378.1" y="333" class="st2" width="5.2" height="6"/>
	<rect x="378.1" y="324.7" class="st2" width="5.2" height="5.1"/>
	<rect x="369.6" y="231.9" class="st2" width="5.3" height="5.1"/>
	<rect x="369.6" y="222.5" class="st2" width="5.3" height="6"/>
	<rect x="369.6" y="213.1" class="st2" width="5.3" height="6"/>
	<rect x="369.6" y="204.7" class="st2" width="5.3" height="5.1"/>
	<rect x="369.4" y="415.8" class="st2" width="5.4" height="5.1"/>
	<rect x="369.4" y="406.4" class="st2" width="5.4" height="6"/>
	<rect x="369.4" y="397" class="st2" width="5.4" height="6"/>
	<rect x="369.4" y="388.6" class="st2" width="5.4" height="5.1"/>
	<rect x="369.4" y="351.8" class="st2" width="5.4" height="5.1"/>
	<rect x="369.4" y="342.4" class="st2" width="5.4" height="6"/>
	<rect x="369.4" y="333" class="st2" width="5.4" height="6"/>
	<rect x="369.4" y="324.7" class="st2" width="5.4" height="5.1"/>
	<rect x="362" y="231.9" class="st2" width="4.3" height="5.1"/>
	<rect x="362" y="222.5" class="st2" width="4.3" height="6"/>
	<rect x="362" y="213.1" class="st2" width="4.3" height="6"/>
	<rect x="362" y="204.7" class="st2" width="4.3" height="5.1"/>
	<rect x="361.8" y="415.8" class="st2" width="4.3" height="5.1"/>
	<rect x="361.8" y="406.4" class="st2" width="4.3" height="6"/>
	<rect x="361.8" y="397" class="st2" width="4.3" height="6"/>
	<rect x="361.8" y="388.6" class="st2" width="4.3" height="5.1"/>
	<rect x="361.8" y="351.8" class="st2" width="4.3" height="5.1"/>
	<rect x="361.8" y="342.4" class="st2" width="4.3" height="6"/>
	<rect x="361.8" y="333" class="st2" width="4.3" height="6"/>
	<rect x="361.8" y="324.7" class="st2" width="4.3" height="5.1"/>
	<rect x="361.8" y="295.4" class="st2" width="13.1" height="11.3"/>
	<rect x="358.2" y="240.2" class="st2" width="36.8" height="0.9"/>
	<rect x="358" y="310" class="st2" width="36.8" height="0.9"/>
	<rect x="358" y="360.2" class="st2" width="36.8" height="0.9"/>
	<rect x="358" y="424.2" class="st2" width="36.8" height="0.9"/>
	<path class="st2" d="M398.8,444.8v-64.7h-138v64.7h51.4V387c0-0.9,0.7-1.7,1.7-1.7h31.9c0.9,0,1.7,0.7,1.7,1.7v57.8H398.8z
		 M304.6,426.7c0,0.9-0.7,1.7-1.7,1.7h-40.1c-0.9,0-1.7-0.7-1.7-1.7v-4.2c0-0.9,0.7-1.7,1.7-1.7h2.1v-6.5c0-0.1,0-0.1,0-0.2
		c0-0.1,0-0.1,0-0.2v-18.3c0-0.1,0-0.1,0-0.2c0-0.1,0-0.1,0-0.2V387c0-0.9,0.7-1.7,1.7-1.7h32.5c0.9,0,1.7,0.7,1.7,1.7v33.8h2.1
		c0.9,0,1.7,0.7,1.7,1.7V426.7z M354.7,422.5c0-0.9,0.7-1.7,1.7-1.7h2.1v-6.5c0-0.1,0-0.1,0-0.2c0-0.1,0-0.1,0-0.2v-18.3
		c0-0.1,0-0.1,0-0.2c0-0.1,0-0.1,0-0.2V387c0-0.9,0.7-1.7,1.7-1.7h32.5c0.9,0,1.7,0.7,1.7,1.7v33.8h2.1c0.9,0,1.7,0.7,1.7,1.7v4.2
		c0,0.9-0.7,1.7-1.7,1.7h-40.1c-0.9,0-1.7-0.7-1.7-1.7V422.5z"/>
	<path class="st2" d="M398.8,196.9h-138v174.4h138V196.9z M304.6,362.7c0,0.9-0.7,1.7-1.7,1.7h-40.1c-0.9,0-1.7-0.7-1.7-1.7v-4.2
		c0-0.9,0.7-1.7,1.7-1.7h2.1v-6.5c0-0.1,0-0.1,0-0.2c0-0.1,0-0.1,0-0.2v-18.3c0-0.1,0-0.1,0-0.2c0-0.1,0-0.1,0-0.2V323
		c0-0.9,0.7-1.7,1.7-1.7h32.5c0.9,0,1.7,0.7,1.7,1.7v33.8h2.1c0.9,0,1.7,0.7,1.7,1.7V362.7z M304.6,312.5c0,0.9-0.7,1.7-1.7,1.7
		h-40.1c-0.9,0-1.7-0.7-1.7-1.7v-4.2c0-0.9,0.7-1.7,1.7-1.7h2.1v-54.5c0-0.9,0.7-1.7,1.7-1.7h32.5c0.9,0,1.7,0.7,1.7,1.7v54.5h2.1
		c0.9,0,1.7,0.7,1.7,1.7V312.5z M304.8,242.8c0,0.9-0.7,1.7-1.7,1.7H263c-0.9,0-1.7-0.7-1.7-1.7v-4.2c0-0.9,0.7-1.7,1.7-1.7h2.1
		v-6.5c0-0.1,0-0.1,0-0.2c0-0.1,0-0.1,0-0.2v-18.3c0-0.1,0-0.1,0-0.2c0-0.1,0-0.1,0-0.2v-8.2c0-0.9,0.7-1.7,1.7-1.7h32.5
		c0.9,0,1.7,0.7,1.7,1.7v33.8h2.1c0.9,0,1.7,0.7,1.7,1.7V242.8z M351.4,362.7c0,0.9-0.7,1.7-1.7,1.7h-40.1c-0.9,0-1.7-0.7-1.7-1.7
		v-4.2c0-0.9,0.7-1.7,1.7-1.7h2.1v-6.5c0-0.1,0-0.1,0-0.2c0-0.1,0-0.1,0-0.2v-18.3c0-0.1,0-0.1,0-0.2c0-0.1,0-0.1,0-0.2V323
		c0-0.9,0.7-1.7,1.7-1.7h32.5c0.9,0,1.7,0.7,1.7,1.7v33.8h2.1c0.9,0,1.7,0.7,1.7,1.7V362.7z M351.4,312.5c0,0.9-0.7,1.7-1.7,1.7
		h-40.1c-0.9,0-1.7-0.7-1.7-1.7v-4.2c0-0.9,0.7-1.7,1.7-1.7h2.1v-54.5c0-0.9,0.7-1.7,1.7-1.7h32.5c0.9,0,1.7,0.7,1.7,1.7v54.5h2.1
		c0.9,0,1.7,0.7,1.7,1.7V312.5z M351.6,242.8c0,0.9-0.7,1.7-1.7,1.7h-40.1c-0.9,0-1.7-0.7-1.7-1.7v-4.2c0-0.9,0.7-1.7,1.7-1.7h2.1
		v-6.6c0-0.1,0-0.1,0-0.2c0-0.1,0-0.1,0-0.2v-18.4c0-0.1,0-0.1,0-0.2c0-0.1,0-0.1,0-0.2v-8.2c0-0.9,0.7-1.7,1.7-1.7h32.5
		c0.9,0,1.7,0.7,1.7,1.7v33.8h2.1c0.9,0,1.7,0.7,1.7,1.7V242.8z M398.2,362.7c0,0.9-0.7,1.7-1.7,1.7h-40.1c-0.9,0-1.7-0.7-1.7-1.7
		v-4.2c0-0.9,0.7-1.7,1.7-1.7h2.1v-6.5c0-0.1,0-0.1,0-0.2c0-0.1,0-0.1,0-0.2v-18.3c0-0.1,0-0.1,0-0.2c0-0.1,0-0.1,0-0.2V323
		c0-0.9,0.7-1.7,1.7-1.7h32.5c0.9,0,1.7,0.7,1.7,1.7v33.8h2.1c0.9,0,1.7,0.7,1.7,1.7V362.7z M398.2,312.5c0,0.9-0.7,1.7-1.7,1.7
		h-40.1c-0.9,0-1.7-0.7-1.7-1.7v-4.2c0-0.9,0.7-1.7,1.7-1.7h2.1v-54.5c0-0.9,0.7-1.7,1.7-1.7h32.5c0.9,0,1.7,0.7,1.7,1.7v54.5h2.1
		c0.9,0,1.7,0.7,1.7,1.7V312.5z M396.7,244.5h-40.1c-0.9,0-1.7-0.7-1.7-1.7v-4.2c0-0.9,0.7-1.7,1.7-1.7h2.1v-6.5c0-0.1,0-0.1,0-0.2
		c0-0.1,0-0.1,0-0.2v-18.3c0-0.1,0-0.1,0-0.2c0-0.1,0-0.1,0-0.2v-8.2c0-0.9,0.7-1.7,1.7-1.7h32.5c0.9,0,1.7,0.7,1.7,1.7v33.8h2.1
		c0.9,0,1.7,0.7,1.7,1.7v4.2C398.4,243.7,397.6,244.5,396.7,244.5z"/>
	<rect x="340" y="222.5" class="st2" width="4.4" height="6"/>
	<rect x="340" y="204.7" class="st2" width="4.4" height="5.1"/>
	<rect x="340" y="213.1" class="st2" width="4.4" height="6"/>
	<rect x="340" y="231.9" class="st2" width="4.4" height="5.1"/>
	<rect x="339.8" y="342.4" class="st2" width="4.4" height="6"/>
	<rect x="339.8" y="324.7" class="st2" width="4.4" height="5.1"/>
	<rect x="331.5" y="295.4" class="st2" width="12.7" height="11.3"/>
	<rect x="339.8" y="333" class="st2" width="4.4" height="6"/>
	<rect x="339.8" y="351.8" class="st2" width="4.4" height="5.1"/>
	<path class="st2" d="M339.7,393.5h-19.9v51.3h19.9V393.5z M338.2,423.8c0,0.9-0.7,1.7-1.7,1.7c-0.9,0-1.7-0.7-1.7-1.7v-7.1
		c0-0.9,0.7-1.7,1.7-1.7c0.9,0,1.7,0.7,1.7,1.7V423.8z"/>
	<rect x="331.5" y="231.9" class="st2" width="5.2" height="5.1"/>
	<rect x="331.5" y="222.5" class="st2" width="5.2" height="6"/>
	<rect x="331.5" y="213.1" class="st2" width="5.2" height="6"/>
	<rect x="331.5" y="204.7" class="st2" width="5.2" height="5.1"/>
	<rect x="331.3" y="351.8" class="st2" width="5.2" height="5.1"/>
	<rect x="331.3" y="342.4" class="st2" width="5.2" height="6"/>
	<rect x="331.3" y="333" class="st2" width="5.2" height="6"/>
	<rect x="331.3" y="324.7" class="st2" width="5.2" height="5.1"/>
	<path class="st2" d="M307.7,134.5h44.2C351,123,341.4,114,329.8,114C318.1,114,308.5,123,307.7,134.5z"/>
	<path class="st2" d="M311.4,174.2h36.7c-0.8-9.4-8.8-16.8-18.4-16.8C320.1,157.4,312.2,164.8,311.4,174.2z"/>
	<rect x="322.9" y="231.9" class="st2" width="5.3" height="5.1"/>
	<rect x="322.9" y="222.5" class="st2" width="5.3" height="6"/>
	<rect x="322.9" y="213.1" class="st2" width="5.3" height="6"/>
	<rect x="322.9" y="204.7" class="st2" width="5.3" height="5.1"/>
	<rect x="322.7" y="351.8" class="st2" width="5.3" height="5.1"/>
	<rect x="322.7" y="342.4" class="st2" width="5.3" height="6"/>
	<rect x="322.7" y="333" class="st2" width="5.3" height="6"/>
	<rect x="322.7" y="324.7" class="st2" width="5.3" height="5.1"/>
	<rect x="315.3" y="231.9" class="st2" width="4.3" height="5.1"/>
	<rect x="315.3" y="222.5" class="st2" width="4.3" height="6"/>
	<rect x="315.3" y="213.1" class="st2" width="4.3" height="6"/>
	<rect x="315.3" y="204.7" class="st2" width="4.3" height="5.1"/>
	<rect x="315.1" y="351.8" class="st2" width="4.3" height="5.1"/>
	<rect x="315.1" y="342.4" class="st2" width="4.3" height="6"/>
	<rect x="315.1" y="333" class="st2" width="4.3" height="6"/>
	<rect x="315.1" y="324.7" class="st2" width="4.3" height="5.1"/>
	<path class="st2" d="M344,444.8v-56.1h-28.5v56.1h1v-53c0-0.9,0.7-1.7,1.7-1.7h23.2c0.9,0,1.7,0.7,1.7,1.7v53H344z"/>
	<rect x="315.1" y="295.4" class="st2" width="13.1" height="11.3"/>
	<rect x="311.5" y="240.2" class="st2" width="36.8" height="0.9"/>
	<rect x="311.3" y="310" class="st2" width="36.8" height="0.9"/>
	<rect x="311.3" y="360.2" class="st2" width="36.8" height="0.9"/>
	<rect x="306.9" y="177.5" class="st2" width="45.7" height="1.2"/>
	<rect x="293.2" y="222.5" class="st2" width="4.4" height="6"/>
	<rect x="293.2" y="204.7" class="st2" width="4.4" height="5.1"/>
	<rect x="293.2" y="213.1" class="st2" width="4.4" height="6"/>
	<rect x="293.2" y="231.9" class="st2" width="4.4" height="5.1"/>
	<rect x="293" y="406.4" class="st2" width="4.4" height="6"/>
	<rect x="293" y="388.6" class="st2" width="4.4" height="5.1"/>
	<rect x="293" y="342.4" class="st2" width="4.4" height="6"/>
	<rect x="293" y="324.7" class="st2" width="4.4" height="5.1"/>
	<rect x="284.7" y="295.4" class="st2" width="12.7" height="11.3"/>
	<rect x="293" y="333" class="st2" width="4.4" height="6"/>
	<rect x="293" y="351.8" class="st2" width="4.4" height="5.1"/>
	<rect x="293" y="397" class="st2" width="4.4" height="6"/>
	<rect x="293" y="415.8" class="st2" width="4.4" height="5.1"/>
	<rect x="284.7" y="231.9" class="st2" width="5.2" height="5.1"/>
	<rect x="284.7" y="222.5" class="st2" width="5.2" height="6"/>
	<rect x="284.7" y="213.1" class="st2" width="5.2" height="6"/>
	<rect x="284.7" y="204.7" class="st2" width="5.2" height="5.1"/>
	<rect x="284.5" y="415.8" class="st2" width="5.2" height="5.1"/>
	<rect x="284.5" y="406.4" class="st2" width="5.2" height="6"/>
	<rect x="284.5" y="397" class="st2" width="5.2" height="6"/>
	<rect x="284.5" y="388.6" class="st2" width="5.2" height="5.1"/>
	<rect x="284.5" y="351.8" class="st2" width="5.2" height="5.1"/>
	<rect x="284.5" y="342.4" class="st2" width="5.2" height="6"/>
	<rect x="284.5" y="333" class="st2" width="5.2" height="6"/>
	<rect x="284.5" y="324.7" class="st2" width="5.2" height="5.1"/>
	<rect x="276.1" y="231.9" class="st2" width="5.3" height="5.1"/>
	<rect x="276.1" y="222.5" class="st2" width="5.3" height="6"/>
	<rect x="276.1" y="213.1" class="st2" width="5.3" height="6"/>
	<rect x="276.1" y="204.7" class="st2" width="5.3" height="5.1"/>
	<rect x="275.9" y="415.8" class="st2" width="5.4" height="5.1"/>
	<rect x="275.9" y="406.4" class="st2" width="5.4" height="6"/>
	<rect x="275.9" y="397" class="st2" width="5.4" height="6"/>
	<rect x="275.9" y="388.6" class="st2" width="5.4" height="5.1"/>
	<rect x="275.9" y="351.8" class="st2" width="5.4" height="5.1"/>
	<rect x="275.9" y="342.4" class="st2" width="5.4" height="6"/>
	<rect x="275.9" y="333" class="st2" width="5.4" height="6"/>
	<rect x="275.9" y="324.7" class="st2" width="5.4" height="5.1"/>
	<rect x="268.5" y="231.9" class="st2" width="4.3" height="5.1"/>
	<rect x="268.5" y="222.5" class="st2" width="4.3" height="6"/>
	<rect x="268.5" y="213.1" class="st2" width="4.3" height="6"/>
	<rect x="268.5" y="204.7" class="st2" width="4.3" height="5.1"/>
	<rect x="268.3" y="415.8" class="st2" width="4.3" height="5.1"/>
	<rect x="268.3" y="406.4" class="st2" width="4.3" height="6"/>
	<rect x="268.3" y="397" class="st2" width="4.3" height="6"/>
	<rect x="268.3" y="388.6" class="st2" width="4.3" height="5.1"/>
	<rect x="268.3" y="351.8" class="st2" width="4.3" height="5.1"/>
	<rect x="268.3" y="342.4" class="st2" width="4.3" height="6"/>
	<rect x="268.3" y="333" class="st2" width="4.3" height="6"/>
	<rect x="268.3" y="324.7" class="st2" width="4.3" height="5.1"/>
	<rect x="268.3" y="295.4" class="st2" width="13.1" height="11.3"/>
	<rect x="264.7" y="240.2" class="st2" width="36.8" height="0.9"/>
	<rect x="264.5" y="310" class="st2" width="36.8" height="0.9"/>
	<rect x="264.5" y="360.2" class="st2" width="36.8" height="0.9"/>
	<rect x="264.5" y="424.2" class="st2" width="36.8" height="0.9"/>
	<path class="st0" d="M302.9,356.8h-2.1V323c0-0.9-0.7-1.7-1.7-1.7h-32.5c-0.9,0-1.7,0.7-1.7,1.7v8.2c0,0.1,0,0.1,0,0.2
		c0,0.1,0,0.1,0,0.2v18.3c0,0.1,0,0.1,0,0.2c0,0.1,0,0.1,0,0.2v6.5h-2.1c-0.9,0-1.7,0.7-1.7,1.7v4.2c0,0.9,0.7,1.7,1.7,1.7h40.1
		c0.9,0,1.7-0.7,1.7-1.7v-4.2C304.6,357.6,303.9,356.8,302.9,356.8z M301.3,361.1h-36.8v-0.9h36.8V361.1z M284.5,348.4v-6h5.2v6
		H284.5z M293,342.4h4.4v6H293V342.4z M293,333h4.4v6H293V333z M289.7,339.1h-5.2v-6h5.2V339.1z M281.2,339.1h-5.4v-6h5.4V339.1z
		 M272.5,339.1h-4.3v-6h4.3V339.1z M275.9,342.4h5.4v6h-5.4V342.4z M281.2,351.8v5.1h-5.4v-5.1H281.2z M284.5,351.8h5.2v5.1h-5.2
		V351.8z M268.3,342.4h4.3v6h-4.3V342.4z M293,356.8v-5.1h4.4v5.1H293z M297.5,329.7H293v-5.1h4.4V329.7z M289.7,329.7h-5.2v-5.1
		h5.2V329.7z M281.2,329.7h-5.4v-5.1h5.4V329.7z M272.5,329.7h-4.3v-5.1h4.3V329.7z M268.3,351.8h4.3v5.1h-4.3V351.8z"/>
	<path class="st0" d="M302.9,420.8h-2.1V387c0-0.9-0.7-1.7-1.7-1.7h-32.5c-0.9,0-1.7,0.7-1.7,1.7v8.2c0,0.1,0,0.1,0,0.2
		c0,0.1,0,0.1,0,0.2v18.3c0,0.1,0,0.1,0,0.2c0,0.1,0,0.1,0,0.2v6.5h-2.1c-0.9,0-1.7,0.7-1.7,1.7v4.2c0,0.9,0.7,1.7,1.7,1.7h40.1
		c0.9,0,1.7-0.7,1.7-1.7v-4.2C304.6,421.6,303.9,420.8,302.9,420.8z M301.3,425.1h-36.8v-0.9h36.8V425.1z M297.5,393.7H293v-5.1h4.4
		V393.7z M284.5,420.8v-5.1h5.2v5.1H284.5z M275.9,420.8v-5.1h5.4v5.1H275.9z M289.7,403.1h-5.2v-6h5.2V403.1z M284.5,412.5v-6h5.2
		v6H284.5z M293,406.4h4.4v6H293V406.4z M293,397h4.4v6H293V397z M281.2,397v6h-5.4v-6H281.2z M272.5,403.1h-4.3v-6h4.3V403.1z
		 M275.9,406.4h5.4v6h-5.4V406.4z M289.7,393.7h-5.2v-5.1h5.2V393.7z M281.2,393.7h-5.4v-5.1h5.4V393.7z M268.3,406.4h4.3v6h-4.3
		V406.4z M293,420.8v-5.1h4.4v5.1H293z M272.5,388.6v5.1h-4.3v-5.1H272.5z M268.3,415.8h4.3v5.1h-4.3V415.8z"/>
	<path class="st0" d="M303.1,236.9H301v-33.8c0-0.9-0.7-1.7-1.7-1.7h-32.5c-0.9,0-1.7,0.7-1.7,1.7v8.2c0,0.1,0,0.1,0,0.2
		c0,0.1,0,0.1,0,0.2V230c0,0.1,0,0.1,0,0.2c0,0.1,0,0.1,0,0.2v6.5H263c-0.9,0-1.7,0.7-1.7,1.7v4.2c0,0.9,0.7,1.7,1.7,1.7h40.1
		c0.9,0,1.7-0.7,1.7-1.7v-4.2C304.8,237.7,304.1,236.9,303.1,236.9z M301.5,241.1h-36.8v-0.9h36.8V241.1z M281.4,204.7v5.1h-5.3
		v-5.1H281.4z M289.9,204.7v5.1h-5.2v-5.1H289.9z M297.7,204.7v5.1h-4.4v-5.1H297.7z M289.9,219.2h-5.2v-6h5.2V219.2z M284.7,228.5
		v-6h5.2v6H284.7z M293.2,222.5h4.4v6h-4.4V222.5z M293.2,213.1h4.4v6h-4.4V213.1z M281.4,213.1v6h-5.3v-6H281.4z M272.7,219.2h-4.3
		v-6h4.3V219.2z M276.1,222.5h5.3v6h-5.3V222.5z M281.4,231.9v5.1h-5.3v-5.1H281.4z M284.7,231.9h5.2v5.1h-5.2V231.9z M268.5,222.5
		h4.3v6h-4.3V222.5z M293.2,236.9v-5.1h4.4v5.1H293.2z M272.7,204.7v5.1h-4.3v-5.1H272.7z M268.5,231.9h4.3v5.1h-4.3V231.9z"/>
	<path class="st0" d="M302.9,306.6h-2.1v-54.5c0-0.9-0.7-1.7-1.7-1.7h-32.5c-0.9,0-1.7,0.7-1.7,1.7v54.5h-2.1
		c-0.9,0-1.7,0.7-1.7,1.7v4.2c0,0.9,0.7,1.7,1.7,1.7h40.1c0.9,0,1.7-0.7,1.7-1.7v-4.2C304.6,307.4,303.9,306.6,302.9,306.6z
		 M301.3,310.9h-36.8V310h36.8V310.9z M297.5,292.1h-29.2v-38.3h29.2V292.1z M284.7,306.6v-11.3h12.7v11.3H284.7z M268.3,295.4h13.1
		v11.3h-13.1V295.4z"/>
	<path class="st0" d="M349.7,356.8h-2.1V323c0-0.9-0.7-1.7-1.7-1.7h-32.5c-0.9,0-1.7,0.7-1.7,1.7v8.2c0,0.1,0,0.1,0,0.2
		c0,0.1,0,0.1,0,0.2v18.3c0,0.1,0,0.1,0,0.2c0,0.1,0,0.1,0,0.2v6.5h-2.1c-0.9,0-1.7,0.7-1.7,1.7v4.2c0,0.9,0.7,1.7,1.7,1.7h40.1
		c0.9,0,1.7-0.7,1.7-1.7v-4.2C351.4,357.6,350.6,356.8,349.7,356.8z M348.1,361.1h-36.8v-0.9h36.8V361.1z M331.3,348.4v-6h5.2v6
		H331.3z M339.8,342.4h4.4v6h-4.4V342.4z M339.8,333h4.4v6h-4.4V333z M336.5,339.1h-5.2v-6h5.2V339.1z M328,339.1h-5.3v-6h5.3V339.1
		z M319.3,339.1h-4.3v-6h4.3V339.1z M322.7,342.4h5.3v6h-5.3V342.4z M328,351.8v5.1h-5.3v-5.1H328z M331.3,351.8h5.2v5.1h-5.2V351.8
		z M315.1,342.4h4.3v6h-4.3V342.4z M339.8,356.8v-5.1h4.4v5.1H339.8z M344.3,329.7h-4.4v-5.1h4.4V329.7z M336.5,329.7h-5.2v-5.1h5.2
		V329.7z M328,329.7h-5.3v-5.1h5.3V329.7z M319.3,329.7h-4.3v-5.1h4.3V329.7z M315.1,351.8h4.3v5.1h-4.3V351.8z"/>
	<path class="st0" d="M349.9,236.9h-2.1v-33.8c0-0.9-0.7-1.7-1.7-1.7h-32.5c-0.9,0-1.7,0.7-1.7,1.7v8.2c0,0.1,0,0.1,0,0.2
		c0,0.1,0,0.1,0,0.2V230c0,0.1,0,0.1,0,0.2c0,0.1,0,0.1,0,0.2v6.6h-2.1c-0.9,0-1.7,0.7-1.7,1.7v4.2c0,0.9,0.7,1.7,1.7,1.7h40.1
		c0.9,0,1.7-0.7,1.7-1.7v-4.2C351.6,237.7,350.8,236.9,349.9,236.9z M348.3,241.1h-36.8v-0.9h36.8V241.1z M328.2,204.7v5.1h-5.3
		v-5.1H328.2z M336.7,204.7v5.1h-5.2v-5.1H336.7z M344.4,204.7v5.1H340v-5.1H344.4z M344.4,219.2H340v-6h4.4V219.2z M344.4,228.5
		H340v-6h4.4V228.5z M336.7,219.2h-5.2v-6h5.2V219.2z M331.5,228.5v-6h5.2v6H331.5z M328.2,213.1v6h-5.3v-6H328.2z M319.5,219.2
		h-4.3v-6h4.3V219.2z M319.5,222.5v6h-4.3v-6H319.5z M322.9,222.5h5.3v6h-5.3V222.5z M328.2,231.9v5.1h-5.3v-5.1H328.2z
		 M331.5,231.9h5.2v5.1h-5.2V231.9z M340,236.9v-5.1h4.4v5.1H340z M319.5,204.7v5.1h-4.3v-5.1H319.5z M319.5,231.9v5.1h-4.3v-5.1
		H319.5z"/>
	<path class="st0" d="M349.7,306.6h-2.1v-54.5c0-0.9-0.7-1.7-1.7-1.7h-32.5c-0.9,0-1.7,0.7-1.7,1.7v54.5h-2.1
		c-0.9,0-1.7,0.7-1.7,1.7v4.2c0,0.9,0.7,1.7,1.7,1.7h40.1c0.9,0,1.7-0.7,1.7-1.7v-4.2C351.4,307.4,350.6,306.6,349.7,306.6z
		 M348.1,310.9h-36.8V310h36.8V310.9z M344.3,292.1h-29.2v-38.3h29.2V292.1z M331.5,306.6v-11.3h12.7v11.3H331.5z M315.1,295.4h13.1
		v11.3h-13.1V295.4z"/>
	<path class="st0" d="M396.5,356.8h-2.1V323c0-0.9-0.7-1.7-1.7-1.7h-32.5c-0.9,0-1.7,0.7-1.7,1.7v8.2c0,0.1,0,0.1,0,0.2
		c0,0.1,0,0.1,0,0.2v18.3c0,0.1,0,0.1,0,0.2c0,0.1,0,0.1,0,0.2v6.5h-2.1c-0.9,0-1.7,0.7-1.7,1.7v4.2c0,0.9,0.7,1.7,1.7,1.7h40.1
		c0.9,0,1.7-0.7,1.7-1.7v-4.2C398.2,357.6,397.4,356.8,396.5,356.8z M394.8,361.1H358v-0.9h36.8V361.1z M391,339.1h-4.4v-6h4.4
		V339.1z M391,348.4h-4.4v-6h4.4V348.4z M378.1,348.4v-6h5.2v6H378.1z M383.3,339.1h-5.2v-6h5.2V339.1z M374.8,339.1h-5.4v-6h5.4
		V339.1z M366.1,339.1h-4.3v-6h4.3V339.1z M366.1,342.4v6h-4.3v-6H366.1z M369.4,342.4h5.4v6h-5.4V342.4z M374.8,351.8v5.1h-5.4
		v-5.1H374.8z M378.1,351.8h5.2v5.1h-5.2V351.8z M386.6,356.8v-5.1h4.4v5.1H386.6z M391,329.7h-4.4v-5.1h4.4V329.7z M383.3,329.7
		h-5.2v-5.1h5.2V329.7z M374.8,329.7h-5.4v-5.1h5.4V329.7z M366.1,329.7h-4.3v-5.1h4.3V329.7z M366.1,351.8v5.1h-4.3v-5.1H366.1z"/>
	<path class="st0" d="M356.4,428.4h40.1c0.9,0,1.7-0.7,1.7-1.7v-4.2c0-0.9-0.7-1.7-1.7-1.7h-2.1V387c0-0.9-0.7-1.7-1.7-1.7h-32.5
		c-0.9,0-1.7,0.7-1.7,1.7v8.2c0,0.1,0,0.1,0,0.2c0,0.1,0,0.1,0,0.2v18.3c0,0.1,0,0.1,0,0.2c0,0.1,0,0.1,0,0.2v6.5h-2.1
		c-0.9,0-1.7,0.7-1.7,1.7v4.2C354.7,427.6,355.5,428.4,356.4,428.4z M378.1,420.8v-5.1h5.2v5.1H378.1z M369.4,420.8v-5.1h5.4v5.1
		H369.4z M391,403.1h-4.4v-6h4.4V403.1z M391,412.5h-4.4v-6h4.4V412.5z M383.3,403.1h-5.2v-6h5.2V403.1z M378.1,412.5v-6h5.2v6
		H378.1z M374.8,397v6h-5.4v-6H374.8z M366.1,403.1h-4.3v-6h4.3V403.1z M366.1,406.4v6h-4.3v-6H366.1z M369.4,406.4h5.4v6h-5.4
		V406.4z M391,393.7h-4.4v-5.1h4.4V393.7z M383.3,393.7h-5.2v-5.1h5.2V393.7z M374.8,393.7h-5.4v-5.1h5.4V393.7z M386.6,420.8v-5.1
		h4.4v5.1H386.6z M366.1,388.6v5.1h-4.3v-5.1H366.1z M366.1,415.8v5.1h-4.3v-5.1H366.1z M358,424.2h36.8v0.9H358V424.2z"/>
	<path class="st0" d="M396.7,236.9h-2.1v-33.8c0-0.9-0.7-1.7-1.7-1.7h-32.5c-0.9,0-1.7,0.7-1.7,1.7v8.2c0,0.1,0,0.1,0,0.2
		c0,0.1,0,0.1,0,0.2V230c0,0.1,0,0.1,0,0.2c0,0.1,0,0.1,0,0.2v6.5h-2.1c-0.9,0-1.7,0.7-1.7,1.7v4.2c0,0.9,0.7,1.7,1.7,1.7h40.1
		c0.9,0,1.7-0.7,1.7-1.7v-4.2C398.4,237.7,397.6,236.9,396.7,236.9z M395,241.1h-36.8v-0.9H395V241.1z M375,204.7v5.1h-5.3v-5.1H375
		z M383.5,204.7v5.1h-5.2v-5.1H383.5z M391.2,204.7v5.1h-4.4v-5.1H391.2z M391.2,219.2h-4.4v-6h4.4V219.2z M391.2,228.5h-4.4v-6h4.4
		V228.5z M383.5,219.2h-5.2v-6h5.2V219.2z M378.3,228.5v-6h5.2v6H378.3z M375,213.1v6h-5.3v-6H375z M369.6,222.5h5.3v6h-5.3V222.5z
		 M375,231.9v5.1h-5.3v-5.1H375z M378.3,231.9h5.2v5.1h-5.2V231.9z M366.3,213.1v6H362v-6H366.3z M366.3,222.5v6H362v-6H366.3z
		 M386.8,236.9v-5.1h4.4v5.1H386.8z M366.3,204.7v5.1H362v-5.1H366.3z M362,231.9h4.3v5.1H362V231.9z"/>
	<path class="st0" d="M396.5,306.6h-2.1v-54.5c0-0.9-0.7-1.7-1.7-1.7h-32.5c-0.9,0-1.7,0.7-1.7,1.7v54.5h-2.1
		c-0.9,0-1.7,0.7-1.7,1.7v4.2c0,0.9,0.7,1.7,1.7,1.7h40.1c0.9,0,1.7-0.7,1.7-1.7v-4.2C398.2,307.4,397.4,306.6,396.5,306.6z
		 M394.8,310.9H358V310h36.8V310.9z M378.3,306.6v-11.3H391v11.3H378.3z M391,292.1h-29.2v-38.3H391V292.1z M361.8,295.4H375v11.3
		h-13.1V295.4z"/>
	<path class="st0" d="M354.3,174.2h-2.8c-0.9-11.2-10.2-20.1-21.7-20.1s-20.8,8.9-21.7,20.1h-2.8c-0.9,0-1.7,0.7-1.7,1.7v4.6
		c0,0.9,0.7,1.7,1.7,1.7h49.1c0.9,0,1.7-0.7,1.7-1.7v-4.6C355.9,174.9,355.2,174.2,354.3,174.2z M352.6,178.7h-45.7v-1.2h45.7V178.7
		z M348.1,174.2h-36.7c0.8-9.4,8.8-16.8,18.4-16.8C339.4,157.4,347.3,164.8,348.1,174.2z"/>
	<path class="st0" d="M336.6,415.1c-0.9,0-1.7,0.7-1.7,1.7v7.1c0,0.9,0.7,1.7,1.7,1.7c0.9,0,1.7-0.7,1.7-1.7v-7.1
		C338.2,415.8,337.5,415.1,336.6,415.1z"/>
	<path class="st0" d="M400.4,187.8c-24.9,0-45.1-20.2-45.1-45.1v-4.8h9.2c0.9,0,1.7-0.7,1.7-1.7c0-0.9-0.7-1.7-1.7-1.7h-9.3
		c-0.9-13.3-11.9-23.8-25.4-23.8c-13.5,0-24.6,10.6-25.4,23.8H295c-0.9,0-1.7,0.7-1.7,1.7c0,0.9,0.7,1.7,1.7,1.7h9.2v4.8
		c0,24.9-20.2,45.1-45.1,45.1c-0.9,0-1.7,0.7-1.7,1.7V373v5.4v68c0,0.9,0.7,1.7,1.7,1.7h54.7h4.3h23.2h4.3h54.7
		c0.9,0,1.7-0.7,1.7-1.7v-68V373V189.4C402.1,188.5,401.3,187.8,400.4,187.8z M319.8,393.5h19.9v51.3h-19.9V393.5z M341.4,390.1
		h-23.2c-0.9,0-1.7,0.7-1.7,1.7v53h-1v-56.1H344v56.1h-1v-53C343,390.9,342.3,390.1,341.4,390.1z M345.7,385.3h-31.9
		c-0.9,0-1.7,0.7-1.7,1.7v57.8h-51.4v-64.7h138v64.7h-51.4V387C347.4,386.1,346.6,385.3,345.7,385.3z M260.8,196.9h138v174.4h-138
		V196.9z M260.8,374.7h138v2.1h-138V374.7z M398.8,191.1v2.5h-138v-2.5H398.8z M351.9,134.5h-44.2c0.9-11.5,10.4-20.5,22.1-20.5
		C341.4,114,351,123,351.9,134.5z M307.5,142.6v-4.8H352v4.8c0,20.5,12.8,38.1,30.8,45.1H276.7C294.7,180.7,307.5,163.1,307.5,142.6
		z"/>
	<path class="st1" d="M173.1,361.9c0-8.7-7-15.7-15.7-15.7h-5.5c-8.6,0-15.7,7-15.7,15.7v7.7h36.9V361.9z"/>
	<path class="st1" d="M214.2,222.3h-5.5c-8.7,0-15.7,7-15.7,15.7v7.7h36.9v-7.7C229.8,229.3,222.8,222.3,214.2,222.3z"/>
	<path class="st1" d="M189.2,128.3c0.9,0,1.7,0.7,1.7,1.7c0,0.9-0.7,1.7-1.7,1.7h-10.4l8.8,12.3h12.5c0.9,0,1.7,0.7,1.7,1.7
		c0,0.9-0.7,1.7-1.7,1.7h-10.1l14.3,20c0.2,0.3,0.3,0.6,0.3,1v34.3h17.5v-50.3h-11.3c-0.9,0-1.7-0.7-1.7-1.7c0-0.9,0.7-1.7,1.7-1.7
		h11.3V140h-11.3c-0.9,0-1.7-0.7-1.7-1.7c0-0.9,0.7-1.7,1.7-1.7h11.3v-8.9h-11.3c-0.9,0-1.7-0.7-1.7-1.7c0-0.9,0.7-1.7,1.7-1.7h11.3
		v-4.9h-51.9l6.3,8.7H189.2z"/>
	<path class="st1" d="M115.8,361.9c0-8.7-7-15.7-15.7-15.7h-5.5c-8.7,0-15.7,7-15.7,15.7v7.7h36.9V361.9z"/>
	<path class="st1" d="M86.8,124.5H98c0.9,0,1.7,0.7,1.7,1.7c0,0.9-0.7,1.7-1.7,1.7H86.8v8.9H98c0.9,0,1.7,0.7,1.7,1.7
		c0,0.9-0.7,1.7-1.7,1.7H86.8v8.9H98c0.9,0,1.7,0.7,1.7,1.7c0,0.9-0.7,1.7-1.7,1.7H86.8v50.3h15.3v-34.3c0-0.3,0.1-0.7,0.3-1
		l14.3-20h-9.5c-0.9,0-1.7-0.7-1.7-1.7c0-0.9,0.7-1.7,1.7-1.7h11.9l8.8-12.3h-10.7c-0.9,0-1.7-0.7-1.7-1.7c0-0.9,0.7-1.7,1.7-1.7
		h12.9c0.1,0,0.2,0,0.2,0l6.3-8.8H86.8V124.5z"/>
	<path class="st1" d="M115.6,237.9c0-8.6-7-15.7-15.7-15.7h-5.5c-8.7,0-15.7,7-15.7,15.7v7.7h36.9V237.9z"/>
	<path class="st1" d="M214.4,346.2h-5.5c-8.7,0-15.7,7-15.7,15.7v7.7h36.9v-7.7C230.1,353.3,223,346.2,214.4,346.2z"/>
	<path class="st1" d="M172.9,237.9c0-8.6-7-15.7-15.7-15.7h-5.5c-8.7,0-15.7,7-15.7,15.7v7.7h36.9V237.9z"/>
	<polygon class="st2" points="240.8,330.8 68.1,330.8 68.1,330.8 68.1,335.9 68.1,335.9 240.8,335.9 	"/>
	<path class="st2" d="M225.4,126.1v12.2v12.2v52h15.4v-92.9c0-4.3-3.5-7.7-7.7-7.7s-7.7,3.5-7.7,7.7V126.1z"/>
	<rect x="193.1" y="373" class="st2" width="36.9" height="56.9"/>
	<rect x="192.9" y="249" class="st2" width="36.9" height="56.9"/>
	<path class="st0" d="M233.1,98.6c-6.1,0-11,5-11,11v6.6h-54.3l-5.7-8V94.7c0-0.4-0.1-0.7-0.3-1l-7-9.3c-0.6-0.8-2-0.8-2.7,0l-7,9.3
		c-0.2,0.3-0.3,0.6-0.3,1v13.4l-5.8,8.1H86.8v-6.6c0-6.1-4.9-11-11-11c-6.1,0-11,5-11,11v94.5v124.7c0,0,0,0.1,0,0.2v8.5
		c0,0,0,0.1,0,0.2v108.7c0,0.9,0.7,1.7,1.7,1.7h176.1c0.9,0,1.7-0.7,1.7-1.7V337.6v-8.5V204.2v-94.5
		C244.1,103.6,239.2,98.6,233.1,98.6z M68.1,109.7c0-4.3,3.5-7.7,7.7-7.7c4.3,0,7.7,3.5,7.7,7.7v8.3v8.2v12.2v12.2v52H68.1V109.7z
		 M148,95.3l5.3-7.1l5.3,7.1v11.8H148V95.3z M222.1,119.6v4.9h-11.3c-0.9,0-1.7,0.7-1.7,1.7c0,0.9,0.7,1.7,1.7,1.7h11.3v8.9h-11.3
		c-0.9,0-1.7,0.7-1.7,1.7c0,0.9,0.7,1.7,1.7,1.7h11.3v8.9h-11.3c-0.9,0-1.7,0.7-1.7,1.7c0,0.9,0.7,1.7,1.7,1.7h11.3v50.3h-17.5
		v-34.3c0-0.3-0.1-0.7-0.3-1l-14.3-20h10.1c0.9,0,1.7-0.7,1.7-1.7c0-0.9-0.7-1.7-1.7-1.7h-12.5l-8.8-12.3h10.4
		c0.9,0,1.7-0.7,1.7-1.7c0-0.9-0.7-1.7-1.7-1.7h-12.8l-6.3-8.7H222.1z M233.1,102c4.3,0,7.7,3.5,7.7,7.7v92.9h-15.4v-52v-12.2v-12.2
		v-16.5C225.4,105.4,228.8,102,233.1,102z M68.1,335.9v-5.2h0h172.7v5.2H68.1L68.1,335.9z M240.8,313.7v13.7H68.1v-13.7V205.9h17.1
		h18.6h99.1h20.8h17.1V313.7z M147.2,110.4h12.3l6,8.5l20,27.9l15.8,22.1v33.7h-95.8v-33.7l15.7-21.9c0.3-0.2,0.5-0.5,0.6-0.8
		L147.2,110.4z M130.3,128.3c-0.1,0-0.1,0-0.2,0h-12.9c-0.9,0-1.7,0.7-1.7,1.7c0,0.9,0.7,1.7,1.7,1.7h10.7l-8.8,12.3h-11.9
		c-0.9,0-1.7,0.7-1.7,1.7c0,0.9,0.7,1.7,1.7,1.7h9.5l-14.3,20c-0.2,0.3-0.3,0.6-0.3,1v34.3H86.8v-50.3H98c0.9,0,1.7-0.7,1.7-1.7
		c0-0.9-0.7-1.7-1.7-1.7H86.8V140H98c0.9,0,1.7-0.7,1.7-1.7c0-0.9-0.7-1.7-1.7-1.7H86.8v-8.9H98c0.9,0,1.7-0.7,1.7-1.7
		c0-0.9-0.7-1.7-1.7-1.7H86.8v-4.9h49.7L130.3,128.3z M240.8,437.7v7.1H68.1v-7.1v-98.5h32h57.3h56.9h26.5V437.7z"/>
	<path class="st2" d="M121.1,146.9l-15.7,21.9v33.7h95.8v-33.7l-15.8-22.1l-20-27.9l-6-8.5h-12.3l-25.6,35.7
		C121.6,146.5,121.4,146.7,121.1,146.9z M137.8,150.7c0-8.6,7-15.6,15.6-15.6s15.6,7,15.6,15.6v37.7c0,0.9-0.7,1.7-1.7,1.7h-27.8
		c-0.9,0-1.7-0.7-1.7-1.7V150.7z"/>
	<path class="st0" d="M208.8,342.9c-10.5,0-19,8.5-19,19v9.4v58.6h-3.6c-0.9,0-1.7,0.7-1.7,1.7v6.1c0,0.9,0.7,1.7,1.7,1.7H237
		c0.9,0,1.7-0.7,1.7-1.7v-6.1c0-0.9-0.7-1.7-1.7-1.7h-3.6v-58.6v-9.4c0-10.5-8.5-19-19-19H208.8z M235.4,436.1h-47.5v-2.8h3.6h40.3
		h3.6V436.1z M230.1,429.9h-36.9V373h36.9V429.9z M230.1,369.7h-36.9v-7.7c0-8.7,7-15.7,15.7-15.7h5.5c8.7,0,15.7,7,15.7,15.7V369.7
		z"/>
	<polygon class="st2" points="191.5,433.2 187.8,433.2 187.8,436.1 235.4,436.1 235.4,433.2 231.7,433.2 	"/>
	<path class="st0" d="M208.6,218.9c-10.5,0-19,8.5-19,19v9.4v58.6H186c-0.9,0-1.7,0.7-1.7,1.7v6.1c0,0.9,0.7,1.7,1.7,1.7h50.8
		c0.9,0,1.7-0.7,1.7-1.7v-6.1c0-0.9-0.7-1.7-1.7-1.7h-3.6v-58.6v-9.4c0-10.5-8.5-19-19-19H208.6z M235.1,312.1h-47.5v-2.8h3.6h40.2
		h3.6V312.1z M229.8,305.9h-36.9V249h36.9V305.9z M229.8,245.7h-36.9v-7.7c0-8.6,7-15.7,15.7-15.7h5.5c8.6,0,15.7,7,15.7,15.7V245.7
		z"/>
	<polygon class="st2" points="191.3,309.3 187.6,309.3 187.6,312.1 235.1,312.1 235.1,309.3 231.5,309.3 	"/>
	<path class="st2" d="M157.4,339.3h-57.3h-32v98.5v7.1h172.7v-7.1v-98.5h-26.5H157.4z M122.7,439.4H71.9c-0.9,0-1.7-0.7-1.7-1.7
		v-6.1c0-0.9,0.7-1.7,1.7-1.7h3.6v-58.6v-9.4c0-10.5,8.5-19,19-19h5.5c10.5,0,19,8.5,19,19v9.4v58.6h3.6c0.9,0,1.7,0.7,1.7,1.7v6.1
		C124.4,438.6,123.6,439.4,122.7,439.4z M180.1,439.4h-50.8c-0.9,0-1.7-0.7-1.7-1.7v-6.1c0-0.9,0.7-1.7,1.7-1.7h3.6v-58.6v-9.4
		c0-10.5,8.5-19,19-19h5.5c10.5,0,19,8.5,19,19v9.4v58.6h3.6c0.9,0,1.7,0.7,1.7,1.7v6.1C181.7,438.6,181,439.4,180.1,439.4z
		 M233.4,361.9v9.4v58.6h3.6c0.9,0,1.7,0.7,1.7,1.7v6.1c0,0.9-0.7,1.7-1.7,1.7h-50.9c-0.9,0-1.7-0.7-1.7-1.7v-6.1
		c0-0.9,0.7-1.7,1.7-1.7h3.6v-58.6v-9.4c0-10.5,8.5-19,19-19h5.5C224.8,342.9,233.4,351.4,233.4,361.9z"/>
	<rect x="136.2" y="373" class="st2" width="36.9" height="56.9"/>
	<rect x="136" y="249" class="st2" width="36.9" height="56.9"/>
	<rect x="141.1" y="152.3" class="st2" width="24.5" height="34.4"/>
	<path class="st2" d="M165.5,149c-0.8-6-5.9-10.6-12.1-10.6s-11.3,4.6-12.1,10.6H165.5z"/>
	<polygon class="st2" points="158.7,95.3 153.4,88.3 148,95.3 148,107.1 158.7,107.1 	"/>
	<path class="st0" d="M139.5,190h27.8c0.9,0,1.7-0.7,1.7-1.7v-37.7c0-8.6-7-15.6-15.6-15.6s-15.6,7-15.6,15.6v37.7
		C137.8,189.3,138.5,190,139.5,190z M153.4,138.4c6.2,0,11.3,4.6,12.1,10.6h-24.2C142.1,143,147.2,138.4,153.4,138.4z M165.6,186.7
		h-24.5v-34.4h24.5V186.7z"/>
	<polygon class="st2" points="134.5,433.2 130.9,433.2 130.9,436.1 178.4,436.1 178.4,433.2 174.8,433.2 	"/>
	<polygon class="st2" points="134.3,309.3 130.7,309.3 130.7,312.1 178.2,312.1 178.2,309.3 174.6,309.3 	"/>
	<path class="st0" d="M180.1,429.9h-3.6v-58.6v-9.4c0-10.5-8.5-19-19-19h-5.5c-10.5,0-19,8.5-19,19v9.4v58.6h-3.6
		c-0.9,0-1.7,0.7-1.7,1.7v6.1c0,0.9,0.7,1.7,1.7,1.7h50.8c0.9,0,1.7-0.7,1.7-1.7v-6.1C181.7,430.7,181,429.9,180.1,429.9z
		 M178.4,436.1h-47.5v-2.8h3.6h40.2h3.6V436.1z M136.2,361.9c0-8.7,7-15.7,15.7-15.7h5.5c8.7,0,15.7,7,15.7,15.7v7.7h-36.9V361.9z
		 M136.2,373h36.9v56.9h-36.9V373z"/>
	<path class="st0" d="M179.9,305.9h-3.6v-58.6v-9.4c0-10.5-8.5-19-19-19h-5.5c-10.5,0-19,8.5-19,19v9.4v58.6H129
		c-0.9,0-1.7,0.7-1.7,1.7v6.1c0,0.9,0.7,1.7,1.7,1.7h50.9c0.9,0,1.7-0.7,1.7-1.7v-6.1C181.5,306.7,180.8,305.9,179.9,305.9z
		 M178.2,312.1h-47.5v-2.8h3.6h40.3h3.6V312.1z M136,237.9c0-8.6,7-15.7,15.7-15.7h5.5c8.7,0,15.7,7,15.7,15.7v7.7H136V237.9z
		 M136,249h36.9v56.9H136V249z"/>
	<rect x="78.8" y="373" class="st2" width="36.9" height="56.9"/>
	<rect x="78.6" y="249" class="st2" width="36.9" height="56.9"/>
	<path class="st2" d="M83.5,150.6v-12.2v-12.2v-8.2v-8.3c0-4.3-3.5-7.7-7.7-7.7c-4.2,0-7.7,3.5-7.7,7.7v92.9h15.4V150.6z"/>
	<polygon class="st2" points="77.2,433.2 73.5,433.2 73.5,436.1 121.1,436.1 121.1,433.2 117.4,433.2 	"/>
	<polygon class="st2" points="77,309.3 73.3,309.3 73.3,312.1 120.9,312.1 120.9,309.3 117.2,309.3 	"/>
	<path class="st0" d="M122.7,429.9h-3.6v-58.6v-9.4c0-10.5-8.5-19-19-19h-5.5c-10.5,0-19,8.5-19,19v9.4v58.6h-3.6
		c-0.9,0-1.7,0.7-1.7,1.7v6.1c0,0.9,0.7,1.7,1.7,1.7h50.9c0.9,0,1.7-0.7,1.7-1.7v-6.1C124.4,430.7,123.6,429.9,122.7,429.9z
		 M121.1,436.1H73.5v-2.8h3.6h40.3h3.6V436.1z M78.8,361.9c0-8.7,7-15.7,15.7-15.7h5.5c8.7,0,15.7,7,15.7,15.7v7.7H78.8V361.9z
		 M78.8,373h36.9v56.9H78.8V373z"/>
	<path class="st0" d="M122.5,305.9h-3.6v-58.6v-9.4c0-10.5-8.5-19-19-19h-5.5c-10.5,0-19,8.5-19,19v9.4v58.6h-3.6
		c-0.9,0-1.7,0.7-1.7,1.7v6.1c0,0.9,0.7,1.7,1.7,1.7h50.8c0.9,0,1.7-0.7,1.7-1.7v-6.1C124.2,306.7,123.4,305.9,122.5,305.9z
		 M120.9,312.1H73.3v-2.8H77h40.2h3.6V312.1z M78.6,237.9c0-8.6,7-15.7,15.7-15.7h5.5c8.7,0,15.7,7,15.7,15.7v7.7H78.6V237.9z
		 M78.6,249h36.9v56.9H78.6V249z"/>
	<path class="st1" d="M202.9,205.9h-99.1H85.2H68.1v107.9v13.7h172.7v-13.7V205.9h-17.1H202.9z M122.5,315.4H71.7
		c-0.9,0-1.7-0.7-1.7-1.7v-6.1c0-0.9,0.7-1.7,1.7-1.7h3.6v-58.6v-9.4c0-10.5,8.5-19,19-19h5.5c10.5,0,19,8.5,19,19v9.4v58.6h3.6
		c0.9,0,1.7,0.7,1.7,1.7v6.1C124.2,314.7,123.4,315.4,122.5,315.4z M179.9,315.4H129c-0.9,0-1.7-0.7-1.7-1.7v-6.1
		c0-0.9,0.7-1.7,1.7-1.7h3.6v-58.6v-9.4c0-10.5,8.5-19,19-19h5.5c10.5,0,19,8.5,19,19v9.4v58.6h3.6c0.9,0,1.7,0.7,1.7,1.7v6.1
		C181.5,314.7,180.8,315.4,179.9,315.4z M233.2,237.9v9.4v58.6h3.6c0.9,0,1.7,0.7,1.7,1.7v6.1c0,0.9-0.7,1.7-1.7,1.7H186
		c-0.9,0-1.7-0.7-1.7-1.7v-6.1c0-0.9,0.7-1.7,1.7-1.7h3.6v-58.6v-9.4c0-10.5,8.5-19,19-19h5.5C224.6,218.9,233.2,227.5,233.2,237.9z
		"/>
	<path class="st2" d="M419.5,389.4l-1.8-7.5c-0.2-0.7-0.3-1.5-0.5-2.3l-0.3-1.3c-0.3-1.2-0.5-2.4-0.8-3.7l-0.3-1.6
		c-0.2-1-0.4-2-0.6-3l-2.1-10.5c-0.2-0.9-0.3-1.8-0.5-2.7c-0.3-1.4-0.5-2.8-0.7-4c-0.2-1.3-0.4-2.5-0.5-3.6
		c-0.2-1.8-0.4-3.6-0.6-5.5c-0.1-1.4-0.1-2.1-0.1-2.1c-0.2-8.3-6.9-14.9-15.1-15.1c-8.6-0.2-15.7,6.6-15.9,15.1c0,0,0,0.8-0.1,2.1
		c-0.1,1.9-0.3,3.7-0.6,5.5c-0.1,1.1-0.3,2.3-0.5,3.6c-0.2,1.3-0.4,2.6-0.7,4.1c-0.2,0.9-0.3,1.8-0.5,2.8l-2,10.4
		c-0.2,1-0.4,2-0.6,3l-0.3,1.6c-0.3,1.3-0.5,2.5-0.8,3.7l-0.3,1.3c-0.2,0.8-0.4,1.6-0.5,2.4l-1.8,7.5c-1,4.1-1,8.4,0,12.4
		c1.7,6.5,5.7,12,11.5,15.4c3.5,2.1,7.3,3.2,11.2,3.5V415c-8.3-0.8-14.9-7.9-14.9-16.5c0-0.9,0.7-1.7,1.7-1.7c0.9,0,1.7,0.7,1.7,1.7
		c0,6.7,5.1,12.3,11.6,13.1v-22c-7.3-0.8-12.9-7-12.9-14.5c0-0.9,0.7-1.7,1.7-1.7c0.9,0,1.7,0.7,1.7,1.7c0,5.6,4.2,10.3,9.6,11.1
		v-22c-5.4-0.8-9.6-5.5-9.6-11.2c0-0.9,0.7-1.7,1.7-1.7c0.9,0,1.7,0.7,1.7,1.7c0,3.8,2.7,7,6.3,7.8v-17.5c0-0.9,0.7-1.7,1.7-1.7
		c0.9,0,1.7,0.7,1.7,1.7v7.8c3.6-0.8,6.3-4,6.3-7.8c0-0.9,0.7-1.7,1.7-1.7c0.9,0,1.7,0.7,1.7,1.7c0,5.7-4.2,10.4-9.6,11.2v22
		c5.4-0.8,9.6-5.5,9.6-11.1c0-0.9,0.7-1.7,1.7-1.7s1.7,0.7,1.7,1.7c0,7.5-5.7,13.7-12.9,14.5v22c6.5-0.8,11.6-6.4,11.6-13.1
		c0-0.9,0.7-1.7,1.7-1.7c0.9,0,1.7,0.7,1.7,1.7c0,8.6-6.5,15.6-14.9,16.5v15.3c1.5-0.1,3-0.3,4.5-0.7
		C414.7,416.5,422.9,402.8,419.5,389.4z"/>
	<path class="st0" d="M422.7,388.6l-1.8-7.4c-0.2-0.7-0.3-1.5-0.5-2.3l-0.3-1.3c-0.3-1.2-0.5-2.4-0.8-3.7l-0.3-1.6
		c-0.2-1-0.4-2-0.6-3l-2-10.5c-0.2-0.9-0.3-1.8-0.5-2.6c-0.2-1.4-0.5-2.7-0.7-4c-0.2-1.3-0.4-2.5-0.5-3.6c-0.2-1.7-0.4-3.5-0.5-5.3
		c-0.1-1.2-0.1-1.9-0.1-2c-0.3-10.1-8.3-18.1-18.4-18.4c-0.2,0-0.3,0-0.5,0c-10.2,0-18.6,8.2-18.8,18.4c0,0,0,0.7-0.1,2
		c-0.1,1.8-0.3,3.6-0.6,5.3c-0.1,1.1-0.3,2.3-0.5,3.6c-0.2,1.3-0.4,2.6-0.7,4c-0.2,0.9-0.3,1.8-0.5,2.7l-2,10.4c-0.2,1-0.4,2-0.6,3
		L371,374c-0.3,1.3-0.5,2.5-0.8,3.7l-0.3,1.3c-0.2,0.8-0.3,1.6-0.5,2.3l-1.8,7.4c0,0,0,0,0,0c-1.2,4.6-1.2,9.5,0,14
		c3.1,12.3,13.9,20.6,25.9,21.4v22.5c0,0.9,0.7,1.7,1.7,1.7c0.9,0,1.7-0.7,1.7-1.7V424c1.8-0.1,3.6-0.4,5.3-0.8
		c7.4-1.9,13.5-6.5,17.4-13C423.5,403.6,424.6,396,422.7,388.6z M396.8,405.3c8.3-0.8,14.9-7.9,14.9-16.5c0-0.9-0.7-1.7-1.7-1.7
		c-0.9,0-1.7,0.7-1.7,1.7c0,6.7-5.1,12.3-11.6,13.1v-22c7.3-0.8,12.9-7,12.9-14.5c0-0.9-0.7-1.7-1.7-1.7s-1.7,0.7-1.7,1.7
		c0,5.6-4.2,10.3-9.6,11.1v-22c5.4-0.8,9.6-5.5,9.6-11.2c0-0.9-0.7-1.7-1.7-1.7c-0.9,0-1.7,0.7-1.7,1.7c0,3.8-2.7,7-6.3,7.8v-7.8
		c0-0.9-0.7-1.7-1.7-1.7c-0.9,0-1.7,0.7-1.7,1.7v17.5c-3.6-0.8-6.3-4-6.3-7.8c0-0.9-0.7-1.7-1.7-1.7c-0.9,0-1.7,0.7-1.7,1.7
		c0,5.7,4.2,10.4,9.6,11.2v22c-5.4-0.8-9.6-5.5-9.6-11.1c0-0.9-0.7-1.7-1.7-1.7c-0.9,0-1.7,0.7-1.7,1.7c0,7.5,5.7,13.7,12.9,14.5v22
		c-6.5-0.8-11.6-6.4-11.6-13.1c0-0.9-0.7-1.7-1.7-1.7c-0.9,0-1.7,0.7-1.7,1.7c0,8.6,6.5,15.6,14.9,16.5v5.7
		c-3.9-0.3-7.7-1.4-11.2-3.5c-5.8-3.4-9.8-8.9-11.5-15.4c-1-4-1-8.3,0-12.4l1.8-7.5c0.2-0.7,0.3-1.5,0.5-2.4l0.3-1.3
		c0.3-1.2,0.5-2.4,0.8-3.7l0.3-1.6c0.2-1,0.4-2,0.6-3l2-10.4c0.2-0.9,0.4-1.9,0.5-2.8c0.3-1.4,0.5-2.8,0.7-4.1
		c0.2-1.3,0.4-2.5,0.5-3.6c0.2-1.8,0.4-3.6,0.6-5.5c0.1-1.4,0.1-2.1,0.1-2.1c0.2-8.6,7.3-15.3,15.9-15.1c8.3,0.2,14.9,6.9,15.1,15.1
		c0,0,0,0.8,0.1,2.1c0.1,1.8,0.3,3.7,0.6,5.5c0.1,1.1,0.3,2.3,0.5,3.6c0.2,1.3,0.4,2.6,0.7,4c0.2,0.9,0.3,1.8,0.5,2.7l2.1,10.5
		c0.2,1,0.4,2,0.6,3l0.3,1.6c0.3,1.3,0.5,2.5,0.8,3.7l0.3,1.3c0.2,0.8,0.4,1.6,0.5,2.3l1.8,7.5c3.4,13.4-4.7,27.1-18.1,30.5
		c-1.5,0.4-3,0.6-4.5,0.7V405.3z"/>
	<polygon class="st2" points="482,313 478.5,316.5 494.3,316.5 490.9,313 	"/>
	<path class="st2" d="M494.5,319.8h-16.1c0.8,3.7,4.1,6.6,8,6.6C490.4,326.4,493.7,323.6,494.5,319.8z"/>
	<rect x="483" y="309.4" class="st2" width="6.9" height="0.3"/>
	<polygon class="st2" points="454,441.7 449.2,441.7 449.2,444.8 468.9,444.8 468.9,441.7 464,441.7 	"/>
	<rect x="455.7" y="403.4" class="st2" width="6.7" height="35"/>
	<polygon class="st2" points="423.7,316.5 439.5,316.5 436,313 427.2,313 	"/>
	<path class="st2" d="M439.7,319.8h-16.1c0.8,3.7,4.1,6.6,8,6.6C435.6,326.4,438.9,323.6,439.7,319.8z"/>
	<rect x="428.1" y="309.4" class="st2" width="6.9" height="0.3"/>
	<path class="st0" d="M499.5,317l-6.3-6.3v-2.9c0-0.9-0.7-1.7-1.7-1.7h-3.5v-11.9c0-3.8-1.5-7.3-4.1-9.9c-2.6-2.7-6.2-4.1-9.9-4.1
		c-7.7,0-14,6.3-14,14v9.2h-2v-9.2c0-7.7-6.3-14-14-14c-3.8,0-7.3,1.5-9.9,4.1c-2.7,2.6-4.1,6.2-4.1,9.9v11.9h-3.5
		c-0.9,0-1.7,0.7-1.7,1.7v2.9l-6.3,6.3c-0.5,0.5-0.6,1.2-0.4,1.8c0.3,0.6,0.9,1,1.5,1h0.5c0.8,5.6,5.6,9.9,11.4,9.9
		c5.8,0,10.6-4.3,11.4-9.9h0.5c0.7,0,1.3-0.4,1.5-1c0.3-0.6,0.1-1.3-0.4-1.8l-6.3-6.3v-2.9c0-0.9-0.7-1.7-1.7-1.7h-3.5v-11.9
		c0-2.9,1.1-5.6,3.1-7.6c2-2,4.7-3.1,7.6-3.1c5.9,0,10.7,4.8,10.7,10.7v9.2h-2c-0.9,0-1.7,0.7-1.7,1.7v3c0,0.9,0.7,1.7,1.7,1.7h4.7
		v90.3H454c-0.9,0-1.7,0.7-1.7,1.7v36.6h-4.9c-0.9,0-1.7,0.7-1.7,1.7v6.4c0,0.9,0.7,1.7,1.7,1.7h23c0.9,0,1.7-0.7,1.7-1.7V440
		c0-0.9-0.7-1.7-1.7-1.7h-4.9v-36.6c0-0.9-0.7-1.7-1.7-1.7h-3.3v-90.3h4.7c0.9,0,1.7-0.7,1.7-1.7v-3c0-0.9-0.7-1.7-1.7-1.7h-2v-9.2
		c0-5.9,4.8-10.7,10.7-10.7c2.9,0,5.6,1.1,7.6,3.1c2,2,3.1,4.7,3.1,7.6v11.9h-3.5c-0.9,0-1.7,0.7-1.7,1.7v2.9l-6.3,6.3
		c-0.5,0.5-0.6,1.2-0.4,1.8c0.3,0.6,0.9,1,1.5,1h0.5c0.8,5.6,5.6,9.9,11.4,9.9c5.8,0,10.6-4.3,11.4-9.9h0.5c0.7,0,1.3-0.4,1.5-1
		C500.1,318.2,500,317.5,499.5,317z M423.6,319.8h16.1c-0.8,3.7-4.1,6.6-8.1,6.6C427.6,326.4,424.3,323.6,423.6,319.8z M435.1,309.4
		v0.3h-6.9v-0.3H435.1z M439.5,316.5h-15.8l3.5-3.5h8.9L439.5,316.5z M468.9,444.8h-19.7v-3.1h4.9h10h4.9V444.8z M462.4,403.4v35
		h-6.7v-35H462.4z M478.4,319.8h16.1c-0.8,3.7-4.1,6.6-8.1,6.6C482.5,326.4,479.1,323.6,478.4,319.8z M478.5,316.5l3.5-3.5h8.9
		l3.5,3.5H478.5z M489.9,309.4v0.3H483v-0.3H489.9z"/>
	<path class="st2" d="M430,51.8c-11,0-21,5.1-27.6,13.9c-0.3,0.4-0.7,0.6-1.2,0.7c-0.5,0-0.9-0.1-1.3-0.4
		c-4.9-4.2-11.1-6.5-17.5-6.5c-14.7,0-26.7,12-26.7,26.7c0,4.7,3.9,8.6,8.6,8.6h91.3c4.7,0,8.6-3.9,8.6-8.6
		C464.3,67.2,448.9,51.8,430,51.8z"/>
	<path class="st0" d="M430,48.5c-11.3,0-22,5.1-29.2,13.8c-5.2-4-11.7-6.2-18.3-6.2c-16.6,0-30,13.5-30,30c0,6.6,5.3,11.9,11.9,11.9
		h91.3c6.6,0,11.9-5.3,11.9-11.9C467.6,65.4,450.7,48.5,430,48.5z M455.7,94.7h-91.3c-4.7,0-8.6-3.9-8.6-8.6
		c0-14.7,12-26.7,26.7-26.7c6.4,0,12.6,2.3,17.5,6.5c0.3,0.3,0.8,0.4,1.3,0.4c0.5-0.1,0.9-0.3,1.2-0.7C409,56.9,419,51.8,430,51.8
		c18.9,0,34.3,15.4,34.3,34.3C464.3,90.9,460.4,94.7,455.7,94.7z"/>
</g>
</svg>
