<?xml version="1.0" encoding="utf-8"?>
<!-- Generator: Adobe Illustrator 23.0.1, SVG Export Plug-In . SVG Version: 6.00 Build 0)  -->
<svg version="1.1" id="Layer_1" xmlns="http://www.w3.org/2000/svg" xmlns:xlink="http://www.w3.org/1999/xlink" x="0px" y="0px"
	 viewBox="0 0 512 512" style="enable-background:new 0 0 512 512;" xml:space="preserve">
<style type="text/css">
	.st0{fill:#D4E1F4;}
	.st1{fill:#515D75;}
	.st2{fill:#F39200;}
</style>
<g>
	<path class="st0" d="M166.1,254.3h-42.1c0.6-13.8,3.5-27.5,8.4-40.4c8.7,3,21.2,5.5,36.9,7.3C167.5,232.2,166.4,243.2,166.1,254.3
		L166.1,254.3z"/>
	<path class="st0" d="M166.1,266.3c0.3,11.5,1.4,22.9,3.5,34.2c-15.9,1.8-28.2,4.3-36.7,7.2c-5.2-13.2-8.2-27.2-8.8-41.4
		L166.1,266.3z"/>
	<path class="st0" d="M191.6,159.8c-0.4,0.6-0.7,1.3-1.1,1.9c-6.7-0.6-13.1-1.3-19.1-2c11.3-9.4,24-16.9,37.7-22.1
		C202.3,144.2,196.5,151.7,191.6,159.8z"/>
	<path class="st0" d="M160.2,170.2c7.5,1.2,15.6,2.1,24.2,3c-5.5,11.6-9.7,23.7-12.6,36.2c-14.9-1.7-26.7-3.9-34.5-6.5
		C143.2,190.9,150.9,179.9,160.2,170.2z"/>
	<path class="st0" d="M137.8,318.7c7.9-2.6,19.5-4.8,34.3-6.4c3,12.5,7.3,24.7,12.9,36.3c-8.5,0.8-16.5,1.7-23.8,2.8
		C151.7,341.8,143.9,330.8,137.8,318.7L137.8,318.7z"/>
	<path class="st0" d="M172.7,362c5.8-0.7,12-1.3,18.5-1.9c0.1,0.2,0.3,0.5,0.4,0.7c4.9,8.1,10.7,15.6,17.5,22.3
		C195.9,378,183.6,370.9,172.7,362L172.7,362z"/>
</g>
<path class="st1" d="M463.9,348.8V167.2c12.5-5,18.5-19.2,13.5-31.6c-5-12.5-19.2-18.5-31.6-13.5c-2.3,0.9-4.4,2.2-6.3,3.7
	l-159-90.9c0.4-1.8,0.7-3.7,0.7-5.6C281,15.7,269.9,4.9,256.4,5C243,5.2,232.3,16,232.1,29.3c0,1.9,0.2,3.9,0.7,5.8l-159.7,91
	c-11.5-7.2-26.6-3.8-33.9,7.7c-2.4,3.8-3.7,8.3-3.8,12.8c0,9.2,5.3,17.7,13.6,21.7v179.1c-13,3.4-20.8,16.7-17.4,29.7
	c3.4,13,16.7,20.8,29.7,17.4c3.8-1,7.2-2.8,10.1-5.4L233,481.1c0,0.5-0.1,1.1-0.1,1.6c0.2,13.5,11.3,24.4,24.8,24.3
	c13.3-0.1,24.1-10.9,24.3-24.3c0-0.9-0.1-1.8-0.2-2.7l158.4-90.2c9.7,9.3,25.2,9,34.5-0.8c9.3-9.7,9-25.2-0.8-34.5
	C471.1,351.9,467.7,349.9,463.9,348.8L463.9,348.8z M455,132.4c6.8,0.1,12.2,5.7,12,12.5c-0.1,6.8-5.7,12.2-12.5,12
	c-6.7-0.1-12-5.6-12-12.3C442.5,137.8,448.1,132.3,455,132.4z M256.7,17c6.8,0.1,12.2,5.7,12,12.5c-0.1,6.8-5.7,12.2-12.5,12
	c-6.7-0.1-12-5.6-12-12.3C244.2,22.4,249.8,16.9,256.7,17z M60,134.3c6.8,0.1,12.2,5.7,12,12.5c-0.1,6.8-5.7,12.2-12.5,12
	c-6.7-0.1-12-5.6-12-12.3C47.5,139.7,53.1,134.2,60,134.3z M55.1,383.3c-6.8-0.1-12.2-5.7-12-12.5c0.1-6.8,5.7-12.2,12.5-12
	c6.7,0.1,12,5.6,12,12.3C67.5,377.8,61.9,383.3,55.1,383.3L55.1,383.3z M257.5,495c-6.8-0.1-12.2-5.7-12-12.5
	c0.1-6.8,5.7-12.2,12.5-12c6.7,0.1,12,5.6,12,12.3C269.9,489.6,264.3,495.1,257.5,495z M263.5,459.2V398h-12v61.1
	c-6,1.5-11.2,5.2-14.6,10.4L78.2,379.1c1.6-4.4,1.8-9.2,0.7-13.7l61.4-28.8l-5.1-10.9l-62,29c-3.3-3.6-7.5-6.1-12.2-7.3V170.8
	c6.6-0.3,12.9-3.2,17.3-8.2l56.8,31.5l5.8-10.5L83.9,152c1.3-5.7,0.5-11.8-2.3-16.9l156.9-89.4c3.3,3.6,7.5,6.1,12.2,7.2l0.8,69.8
	l12-0.1l-0.8-69.7c4.7-1.2,8.9-3.7,12.2-7.3l157.3,90c-2.4,5.8-2.4,12.3-0.1,18.1L375,185.4l5.8,10.5l58.5-32.6
	c3.6,3,8,4.8,12.6,5.4v179.6c-5.1,1-9.7,3.7-13.2,7.5l-55.2-35.2l-6.4,10.1l56,35.7c-1.1,4.4-0.9,9.1,0.6,13.4l-156.2,89
	C274.1,464,269.1,460.6,263.5,459.2L263.5,459.2z M456.9,384.4c-6.8-0.1-12.2-5.7-12-12.5c0.1-6.8,5.7-12.2,12.5-12
	c6.7,0.1,12.1,5.6,12.1,12.3C469.4,378.9,463.8,384.4,456.9,384.4z"/>
<path class="st2" d="M257.5,116.6c-0.2,0-0.5,0-0.7,0c-0.2,0-0.3,0-0.5,0c-0.7,0-1.4,0-2.1,0c-78.7,1.8-142.2,65.5-142.2,143.7
	S175.4,402.2,254.1,404c0.7,0,1.4,0,2.1,0c0.2,0,0.3,0,0.5,0c0.2,0,0.5,0,0.7,0c80.3,0,145.6-64.5,145.6-143.7
	S337.7,116.6,257.5,116.6L257.5,116.6z M251.5,296.4c-26.3,0.1-50.2,1.1-69.9,2.9c-2-10.9-3.1-21.9-3.4-33h73.3V296.4z M263.5,266.3
	h71c-0.3,11-1.4,22-3.4,32.8c-19.2-1.6-42.3-2.5-67.6-2.7L263.5,266.3z M263.5,254.3v-28.9c25.7-0.1,48.6-1.1,67.8-2.7
	c1.8,10.5,2.9,21,3.2,31.6L263.5,254.3z M263.5,213.4v-37.2c19.4-0.1,36.7-0.6,52.1-1.6c5.8,11.5,10.3,23.7,13.2,36.2
	C310.1,212.4,287.9,213.3,263.5,213.4L263.5,213.4z M263.5,164.2v-35.1c16.8,2.6,32.6,14.4,45.3,33.9
	C295.3,163.7,280.2,164.2,263.5,164.2L263.5,164.2z M251.5,128.8v35.4c-16.9-0.1-32.9-0.6-47.5-1.6
	C217.3,142.5,233.9,130.7,251.5,128.8L251.5,128.8z M251.5,176.2v37.2c-25.5-0.1-48.5-1.1-67.6-2.8c3-12.6,7.5-24.8,13.4-36.4
	C213.8,175.4,232,176.1,251.5,176.2L251.5,176.2z M251.5,225.4v28.9h-73.3c0.3-10.7,1.3-21.3,3.2-31.8
	C201,224.3,224.7,225.3,251.5,225.4L251.5,225.4z M166.1,254.3h-42.1c0.6-13.8,3.5-27.5,8.4-40.4c8.7,3,21.2,5.5,36.9,7.3
	C167.5,232.2,166.4,243.2,166.1,254.3L166.1,254.3z M166.1,266.3c0.3,11.5,1.4,22.9,3.5,34.2c-15.9,1.8-28.2,4.3-36.7,7.2
	c-5.2-13.2-8.2-27.2-8.8-41.4L166.1,266.3z M251.5,308.4v37.2c-18.9,0.1-37.1,0.8-53.6,2c-6-11.6-10.7-23.8-13.8-36.5
	C203,309.5,225.8,308.5,251.5,308.4L251.5,308.4z M251.5,357.6v34.2c-17.2-1.8-33.6-13.2-46.7-32.6
	C219.4,358.2,235.1,357.7,251.5,357.6L251.5,357.6z M263.5,391.5v-33.9c15.3,0.1,30.3,0.6,44.4,1.5
	C295.3,377.7,279.9,388.9,263.5,391.5L263.5,391.5z M263.5,345.6v-37.2c24.6,0.1,46.6,1,65,2.5c-3.1,12.7-7.7,25-13.8,36.6
	C298.7,346.4,281.2,345.7,263.5,345.6L263.5,345.6z M346.5,266.3h44.4c-0.6,14.2-3.6,28.2-8.8,41.4c-9-3.1-22-5.6-39-7.5
	C345,289,346.2,277.7,346.5,266.3L346.5,266.3z M346.5,254.3c-0.3-11-1.3-22-3.2-32.8c16.8-1.9,30.2-4.5,39.2-7.6
	c5,12.9,7.8,26.6,8.4,40.4H346.5z M340.8,209.6c-2.9-12.4-7-24.5-12.4-36c9.7-0.9,18.5-2,26.5-3.3c9.2,9.6,16.8,20.6,22.7,32.5
	C369.4,205.6,356.8,207.9,340.8,209.6L340.8,209.6z M343.8,159.9c-6.6,0.9-13.8,1.6-21.5,2.2c-0.4-0.8-0.9-1.6-1.3-2.3
	c-5.2-8.7-11.6-16.7-19-23.7C317.3,141.5,331.4,149.5,343.8,159.9L343.8,159.9z M191.6,159.8c-0.4,0.6-0.7,1.3-1.1,1.9
	c-6.7-0.6-13.1-1.3-19.1-2c11.3-9.4,24-16.9,37.7-22.1C202.4,144.2,196.5,151.7,191.6,159.8L191.6,159.8z M160.2,170.2
	c7.5,1.2,15.6,2.1,24.2,3c-5.5,11.6-9.7,23.7-12.6,36.2c-14.9-1.7-26.7-3.9-34.5-6.5C143.2,190.9,150.9,179.9,160.2,170.2
	L160.2,170.2z M137.8,318.7c7.9-2.6,19.5-4.8,34.3-6.4c3,12.5,7.3,24.7,12.9,36.3c-8.5,0.8-16.5,1.7-23.8,2.8
	C151.7,341.8,143.9,330.8,137.8,318.7L137.8,318.7z M172.7,362c5.8-0.7,12-1.3,18.5-1.9c0.1,0.2,0.3,0.5,0.4,0.7
	c4.9,8.1,10.7,15.6,17.5,22.3C195.9,378,183.6,370.9,172.7,362L172.7,362z M321,360.8c0.2-0.3,0.3-0.6,0.5-0.8
	c7.3,0.6,14.3,1.3,20.8,2c-12,9.7-25.6,17.3-40.2,22.5C309.4,377.5,315.8,369.5,321,360.8L321,360.8z M353.8,351.5
	c-7.9-1.2-16.7-2.2-26.1-3c5.6-11.6,9.9-23.9,12.9-36.4c15.9,1.7,28.3,4,36.6,6.7C371.1,330.8,363.2,341.8,353.8,351.5L353.8,351.5z
	"/>
</svg>
