<?xml version="1.0" encoding="utf-8"?>
<!-- Generator: Adobe Illustrator 23.0.1, SVG Export Plug-In . SVG Version: 6.00 Build 0)  -->
<svg version="1.1" id="Calque_1" xmlns="http://www.w3.org/2000/svg" xmlns:xlink="http://www.w3.org/1999/xlink" x="0px" y="0px"
	 viewBox="0 0 979 300" style="enable-background:new 0 0 979 300;" xml:space="preserve">
<style type="text/css">
	.st0{fill:#FFFFFF;}
</style>
<g id="XMLID_1_">
	<path id="XMLID_25_" class="st0" d="M381.4,148.3c-2.2,0-4.2,1-6,3.1c-9.8,12.2-18.4,19.7-25.6,22.5c0.3-2.6,0.5-4.7,0.5-6.2
		c0-5.2-1.3-10-3.7-14.4s-6.1-9.6-10.8-16c-3.2-4-5.7-7.3-7.2-10c-1.6-2.6-2.3-5.2-2.3-7.3c0-3.7,1.4-8.3,4-13.5
		c1-2,1.8-3.9,2.4-5.7c0.6-2,0.9-3.3,0.9-4.2c0-1.6-0.8-2.9-2.4-3.6c-1.6-0.7-4.5-1.1-8.7-1.1c-9,0-14.8,3.2-17.6,9.8
		c-3.2,7.7-6.7,15.2-10,22.4c-3.4,7.2-6.4,13-9,17.2c-3.8,6-9.2,13.3-16.3,22.2c-5.5,5.3-10.4,8.8-14.9,10.6
		c0.3-2.6,0.5-4.7,0.5-6.2c0-5.2-1.3-10-3.7-14.4s-6.1-9.6-10.8-16c-3.2-4-5.7-7.3-7.2-10c-1.6-2.6-2.3-5.2-2.3-7.3
		c0-3.7,1.4-8.3,4-13.5c1-2,1.8-3.9,2.4-5.7c0.6-2,0.9-3.3,0.9-4.2c0-1.6-0.8-2.9-2.4-3.6c-1.6-0.7-4.5-1.1-8.7-1.1
		c-9,0-14.8,3.2-17.6,9.8c-3.2,7.7-6.7,15.2-10,22.4c-3.4,7.2-6.4,13-9,17.2c-3,4.6-6.9,10.1-11.8,16.5
		c-11.7,4.9-22.5,8.6-32.1,10.9c-9.9,2.4-19.6,3.7-29.3,3.7c-19.5,0-34.2-4.8-44.1-14.6c-10-9.8-14.9-23.5-14.9-41.3
		c0-17.1,2.8-31.8,8.3-44.2C72,60.1,79.2,50.7,88,44.3c9-6.4,18.3-9.5,28.1-9.5c14.5,0,21.6,6.8,21.6,20.3c0,2.6-0.5,6.2-1.4,10.7
		c-0.6,3.6-0.9,6-0.9,7.3c0,3.7,1.1,6.5,3.6,8.5c2.4,2,5.6,2.9,9.8,2.9c6,0,10.6-2.8,13.7-8.3c3.2-5.5,4.8-12.7,4.8-21.8
		c0-13.5-4.1-24.5-12.5-32.6c-8.4-8.3-20.6-12.4-36.5-12.4c-17.2,0-32.9,4.6-47.1,13.9S45.9,45.7,37.7,62.7
		c-8.3,17-12.4,36.3-12.4,58.2c0,15.7,3.4,29.6,10.4,41.4c7,11.9,17,21,30.1,27.6c13.1,6.4,28.5,9.6,46.2,9.6c10.2,0,21-1,32.4-3.2
		c10.4-2,20.6-5.1,30.3-9.1c2.5-0.2,4.9-1.4,7.2-3.6c3.6-2.2,6.1-4.9,7.8-8c2.6-2.9,5.2-5.9,7.5-9c4.5-5.7,9.1-13.1,13.7-21.8
		c2.1,2.4,4.4,5.2,6.7,8.4c2.4,3.2,4.4,6.5,5.9,9.9c1.6,3.4,2.4,7,2.5,10.9c-1.4-0.1-3.3-0.5-5.9-0.8c-2.6-0.3-4.8-0.6-6.8-0.6
		c-5.5,0-9.6,1.4-12.5,4.2s-4.2,6.2-4.2,10c0,4.5,2.1,8.5,6.1,12.1c4.1,3.6,10,5.4,17.7,5.4c8.2,0,15.3-2.5,21.1-7.6
		c10-0.3,18.3-2.1,25-5.5c6.8-3.3,13.9-9.6,21.2-18.8c0.6-0.7,1-1.5,1.5-2.3c0.9-1.1,1.8-2.3,2.8-3.4c4.5-5.7,9.1-13.1,13.7-21.8
		c2.1,2.4,4.4,5.2,6.7,8.4c2.4,3.2,4.4,6.5,5.9,9.9c1.6,3.4,2.4,7,2.5,10.9c-1.4-0.1-3.3-0.5-5.9-0.8c-2.6-0.3-4.8-0.6-6.8-0.6
		c-5.5,0-9.6,1.4-12.5,4.2s-4.2,6.2-4.2,10c0,4.5,2.1,8.5,6.1,12.1c4.1,3.6,10,5.4,17.7,5.4c8.2,0,15.3-2.5,21.1-7.6
		c10-0.3,18.3-2.1,25-5.5c6.8-3.3,13.9-9.6,21.2-18.8c2.9-3.6,4.2-8.2,4.2-13.8c0-3.1-0.6-5.6-1.7-7.3
		C384.9,149.1,383.4,148.3,381.4,148.3z"/>
	<path id="XMLID_26_" class="st0" d="M568.4,79.4c6.4,0,11.5-1.7,15.4-5.3c3.9-3.4,5.7-8.2,5.7-14.1c0-4.9-1.7-8.7-5.2-11.4
		c-3.4-2.6-7.9-4-13.3-4c-6.1,0-11.1,1.7-15.3,5.3c-4.1,3.4-6.1,7.8-6.1,13.1c0,5.2,1.6,9.3,4.7,12.2
		C557.5,77.9,562.1,79.4,568.4,79.4z"/>
	<path id="XMLID_27_" class="st0" d="M728.5,79.4c6.4,0,11.5-1.7,15.4-5.3c3.9-3.4,5.7-8.2,5.7-14.1c0-4.9-1.7-8.7-5.2-11.4
		s-7.9-4-13.3-4c-6.1,0-11.1,1.7-15.3,5.3c-4.1,3.4-6.1,7.8-6.1,13.1c0,5.2,1.6,9.3,4.7,12.2C717.6,77.9,722.2,79.4,728.5,79.4z"/>
	<path id="XMLID_30_" class="st0" d="M875.6,148.3c-2.2,0-4.2,1-6,3.1c-6.9,8.2-12.3,14.1-16.3,17.7c-4,3.7-7.5,5.5-10.2,5.5
		c-1.8,0-3.2-0.7-4.4-2s-1.7-3.1-1.7-5.4c0-6.7,1.7-18.6,5.2-35.7c2.2-11.7,3.3-19.2,3.3-22.3c0-5.2-3.7-7.8-10.9-7.8
		c-3.4,0-6.7,0.3-9.8,0.9c-0.7-3.2-1.7-5.5-2.8-6.8c-1.1-1.3-3.3-2-6.5-2c-10.2,0-20,3.2-29,9.6c-9.2,6.4-16.4,15-21.9,25.6
		c-4.4,8.4-6.9,17.1-7.8,26.2c-7.9,5.5-16.4,11.6-25.6,18.5l2.2-15.4c4.9-30.9,7.3-49.8,7.3-56.6c0-2.4-0.7-4.2-2.1-5.6
		s-4.4-2-8.8-2c-5.5,0-9.5,1-12.3,3c-2.8,2-4.4,5.2-4.9,9.5c-2,16-3.3,27.9-4.2,35.9c-0.3,4.4-0.8,8.6-1.3,13
		c-5.2,6.1-9.5,10.6-12.9,13.7c-4.1,3.7-7.6,5.5-10.6,5.5c-4.4,0-6.4-3-6.4-9c0-4.1,1.4-12.7,4.2-25.6c3.2-15.2,4.9-25.6,4.9-31.5
		c0-9.6-4.8-14.5-14.5-14.5c-4.9,0-10.3,1.7-16.2,5.2c-5.9,3.4-11.8,9.2-17.9,17.1c-6.1,8-11.6,18.4-16.5,31.2
		c0.6-6.5,1.4-12.1,2.2-16.5c0.9-4.5,2.1-9.6,3.6-15.6c2.2-8.3,3.3-13.7,3.3-16.1c0-2.1-0.6-3.4-1.8-4.2c-1.1-0.7-3.2-1.1-6.2-1.1
		c-5.5,0-9.8,1-12.9,3c-3.1,2-5.3,5.2-6.5,9.5c-5.2,16.2-7.8,33.2-8.2,51c-4.2,4.9-7.9,8.7-10.8,11.4c-4,3.7-7.3,5.6-10,5.6
		c-2.9,0-4.8-1.1-6-3.6c-1.1-2.4-1.8-5.7-1.8-10.2c0-5.7,1.8-16.9,5.4-33.2c2.9-13.5,4.2-22.2,4.2-25.8c0-5.1-3.8-7.6-11.4-7.6
		c-4.9,0-8.5,0.9-10.7,2.6s-4,5.1-5.4,9.8c-2.6,9.1-4.8,18.8-6.5,29.3c-1.5,8.8-2.3,16.3-2.5,22.4c-4.1,4.7-7.6,8.3-10.4,10.8
		c-4.1,3.7-7.6,5.5-10.6,5.5c-4.4,0-6.4-3-6.4-9c0-4.1,1.4-12.7,4.2-25.6c3.2-15.2,4.9-25.6,4.9-31.5c0-9.6-4.8-14.5-14.5-14.5
		c-4.9,0-10.3,1.7-16.2,5.2c-5.9,3.4-11.8,9.2-17.9,17.1c-6.1,8-11.6,18.4-16.5,31.2c0.6-6.5,1.4-12.1,2.2-16.5
		c0.9-4.5,2.1-9.6,3.6-15.6c2.2-8.3,3.3-13.7,3.3-16.1c0-2.1-0.6-3.4-1.8-4.2c-1.1-0.7-3.2-1.1-6.2-1.1c-5.5,0-9.8,1-12.9,3
		c-3.1,2-5.3,5.2-6.5,9.5c-5.5,17.3-8.3,35.7-8.3,55.1c0,13.1,1.1,22.6,3.4,28.5c2.3,6,6.3,9,11.9,9c4.6,0,8-1.3,10.1-3.7
		c2.2-2.4,4-7.1,5.7-14.1c2.2-9.1,5.2-17.7,8.8-25.8c3.7-8.2,7.2-14.7,10.7-19.7c3.4-4.9,6.2-7.5,8.2-7.5c1.6,0,2.4,1.1,2.4,3.6
		c0,3.6-0.9,10-2.9,19.4c-2.1,10.7-3.1,18.1-3.1,22.3c0,8.3,2,14.7,5.7,19.1c3.9,4.4,9.5,6.5,17.1,6.5c9.4,0,17.7-2.5,25-7.6
		c3.6-2.4,7-5.2,10.2-8.3c0.8,2,1.8,3.9,2.9,5.6c4.4,6.9,11.4,10.2,21,10.2c9.4,0,19.3-4.8,29.7-14.6c0.5,2.2,1,4,1.6,5.6
		c2.3,6,6.3,9,11.9,9c4.6,0,8-1.3,10.1-3.7c2.2-2.4,4-7.1,5.7-14.1c2.2-9.1,5.2-17.7,8.8-25.8c3.7-8.2,7.2-14.7,10.7-19.7
		c3.4-4.9,6.2-7.5,8.2-7.5c1.6,0,2.4,1.1,2.4,3.6c0,3.6-0.9,10-2.9,19.4c-2.1,10.7-3.1,18.1-3.1,22.3c0,8.3,2,14.7,5.7,19.1
		c3.9,4.4,9.5,6.5,17.1,6.5c9.4,0,17.7-2.5,25-7.6c1.7-1.1,3.3-2.4,5.1-3.8l-1.1,8.2c-22.6,17.6-38,32.3-46.2,44.2
		s-12.3,23.2-12.3,33.8c0,7.6,2.3,13.7,7,18.4s10.9,7,18.6,7c14.2,0,25.9-8.8,35.2-26.5c9.2-17.7,16.8-42,22.5-72.9
		c12.4-8.6,23-15.8,31.8-21.7c1.4,4,3.3,7.7,5.9,10.8c5.5,6.7,12.9,10,22,10c11.7,0,21.5-6.2,29.2-18.7c2.1,5.7,5.2,10.3,9.3,13.7
		c4.1,3.3,8.6,5.1,13.4,5.1c6.4,0,13-2.6,19.9-7.8c6.9-5.2,13.3-11.6,19.4-19.2c2.9-3.2,4.2-7.9,4.2-13.8c0-3.1-0.6-5.6-1.7-7.3
		C879,149.1,877.5,148.3,875.6,148.3z M684.1,264.6c-4.6,8.7-8.8,13.2-12.7,13.2c-4.1,0-6.2-2.9-6.2-8.7c0-6,2.5-12.9,7.5-20.7
		c4.9-7.8,13.1-16.5,24.5-26.2C693,241.7,688.6,255.8,684.1,264.6z M810.2,155.4c-1.4,6.4-3.4,11.5-6.4,15.4s-6.1,5.7-9.4,5.7
		c-3.2,0-5.9-1.1-7.7-3.3c-1.8-2.2-2.8-5.6-2.8-10.2c0-8.3,1.6-16.2,4.7-23.7s7.3-13.4,12.6-17.9c5.3-4.5,11-6.9,17.2-7L810.2,155.4
		z"/>
	<path id="XMLID_32_" class="st0" d="M926.9,162.4c-3.3-3.2-8.3-4.8-14.8-4.8c-6.9,0-12.2,2-16,6s-5.7,9.4-5.7,16.1
		c0,5.7,1.7,10.4,5.1,14c3.3,3.6,8.3,5.4,14.8,5.4c6.7,0,11.9-2.1,15.8-6.1c3.9-4.1,5.7-9.5,5.7-16.4
		C931.9,170.3,930.3,165.6,926.9,162.4z"/>
</g>
</svg>
