<?xml version="1.0" encoding="utf-8"?>
<!-- Generator: Adobe Illustrator 19.0.0, SVG Export Plug-In . SVG Version: 6.00 Build 0)  -->
<svg version="1.1" id="Calque_1" xmlns="http://www.w3.org/2000/svg" xmlns:xlink="http://www.w3.org/1999/xlink" x="0px" y="0px"
	 viewBox="-206 346 1230 300" style="enable-background:new -206 346 1230 300;" xml:space="preserve">
<style type="text/css">
	.st0{fill:#FFFFFF;}
	.st1{fill:#F39208;}
	.st2{fill:#FCC010;}
	.st3{fill:#F49619;}
	.st4{fill:#EC630E;}
	.st5{fill:#CBEAFC;}
	.st6{fill:#77C2E0;}
	.st7{fill:#F9DE6A;}
	.st8{fill:#C6781A;}
</style>
<circle id="XMLID_2_" class="st0" cx="897.4" cy="529.4" r="25.9"/>
<circle id="XMLID_19_" class="st1" cx="951.3" cy="464.9" r="30.8"/>
<circle id="XMLID_20_" class="st0" cx="955.7" cy="549.1" r="13"/>
<path id="XMLID_59_" class="st2" d="M-168.3,486.8c-30.8-30.8-30.8-80.7,0-111.5s80.8-30.8,111.6,0L-168.3,486.8z"/>
<path id="XMLID_58_" class="st3" d="M-69.3,387.9l-15.4,15.4l-51.8,51.8l-19.1,19.1c-23.9-23.9-23.9-62.5,0-86.4
	C-131.8,364-93.1,364-69.3,387.9z"/>
<path id="XMLID_57_" class="st4" d="M-84.7,403.3l-51.8,51.8l-3.5-44.3c-0.3-4.1,2.9-7.6,7-7.6L-84.7,403.3L-84.7,403.3z"/>
<polygon id="XMLID_56_" class="st5" points="22.8,411.5 20.6,440 18.1,471.6 5.5,632.7 -114.4,632.7 -126.7,474.4 -128.3,454.5 
	-131.6,411.5 "/>
<rect id="XMLID_55_" x="-72.8" y="460.5" class="st6" width="37.8" height="37.8"/>
<polygon id="XMLID_54_" class="st6" points="22.8,411.5 20.6,440 5.5,632.7 -4.9,632.7 10.2,440 12.4,411.5 "/>
<path id="XMLID_53_" class="st1" d="M18.1,471.6L5.5,632.7h-119.9l-12.3-158.3c11.4-4.4,27.9-6.9,48.8-0.6c31.4,9.5,57,3.3,85.6-0.9
	C11.1,472.5,14.6,472,18.1,471.6z"/>
<path id="XMLID_52_" class="st7" d="M-35,478.6v19.7h-37.8v-23C-59.5,478.7-47.1,479.3-35,478.6z"/>
<path id="XMLID_51_" class="st8" d="M18.1,471.6L5.5,632.7H-4.9L7.6,473C11.1,472.5,14.6,472,18.1,471.6z"/>
<rect id="XMLID_50_" x="-95.1" y="510.4" transform="matrix(-0.3456 0.9384 -0.9384 -0.3456 394.1975 783.7637)" class="st7" width="37.8" height="37.8"/>
<path id="XMLID_42_" class="st0" d="M25.9,408.7c-0.8-0.9-1.9-1.4-3.1-1.4H-82.7l16.4-16.4l0,0l0,0l12.6-12.6c1.7-1.7,1.7-4.3,0-6
	c-32.4-32.4-85.1-32.4-117.6,0c-14.5,14.6-23.1,33.9-24.2,54.5c-0.1,2.3,1.7,4.3,4,4.4c0.1,0,0.1,0,0.2,0c2.2,0,4.1-1.8,4.2-4
	c1-18.5,8.7-35.8,21.8-48.9c14.1-14.1,32.8-21.9,52.8-21.9c18.5,0,36,6.7,49.7,19l-6.6,6.6c-25.6-22.6-64.8-21.6-89.3,2.9
	s-25.4,63.7-2.9,89.3l-6.6,6.6c-9.6-10.7-15.8-23.8-18-38.1c-0.4-2.3-2.5-3.9-4.8-3.5c-2.3,0.4-3.9,2.5-3.5,4.8
	c2.7,17.5,10.8,33.3,23.3,45.8c0.8,0.8,1.9,1.2,3,1.2c1.1,0,2.2-0.4,3-1.2l32.9-32.9l1.4,17.7v0.1l8.7,111c0.2,2.2,2,3.9,4.2,3.9
	c0.1,0,0.2,0,0.3,0c2.3-0.2,4.1-2.2,3.9-4.6l-8.4-107.7c13.2-4.3,27.7-4.1,43.1,0.6c0.7,0.2,1.4,0.4,2.1,0.6v19.8
	c0,2.3,1.9,4.2,4.2,4.2H-35c2.3,0,4.2-1.9,4.2-4.2v-15.8c9.4-0.8,18.7-2.2,28.1-3.7c5.3-0.8,10.7-1.7,16.2-2.4l-11.9,152h-112
	l-2.1-27c-0.2-2.3-2.2-4.1-4.6-3.9c-2.3,0.2-4.1,2.2-3.9,4.6l2.4,30.9c0.2,2.2,2,3.9,4.2,3.9H5.5c2.2,0,4-1.7,4.2-3.9l12.7-161l0,0
	l2.7-34.7c0.2-2.3-1.6-4.4-3.9-4.6c-2.3-0.2-4.4,1.6-4.6,3.9l-2.4,31.2C8,468.6,1.9,469.6-4,470.5c-9,1.4-17.9,2.8-26.8,3.6v-13.5
	c0-2.3-1.9-4.2-4.2-4.2h-37.8c-2.3,0-4.2,1.9-4.2,4.2v9.2c-16-4.8-31.7-5.1-45.9-1l-4.1-52.9H18.3l-0.4,4.5
	c-0.2,2.3,1.6,4.4,3.9,4.6c2.3,0.2,4.4-1.6,4.6-3.9l0.7-9.1C27.2,410.7,26.7,409.5,25.9,408.7z M-39.3,494.1h-29.3v-13.5
	c8.7,1.8,16.9,2.5,25,2.5c1.5,0,2.9,0,4.4-0.1L-39.3,494.1L-39.3,494.1z M-39.3,464.8v9.8c-9.5,0.3-19.1-0.3-29.3-2.6v-7.2
	L-39.3,464.8L-39.3,464.8z M-94.7,407.3h-12.6v-32.8c11.5,1,22.7,5.5,31.9,13.5L-94.7,407.3z M-135.7,413.8l1.1,14h-34.6
	c0.7-12.1,5.2-24.1,13.6-33.8L-135.7,413.8z M-155.6,468.2c-8-9.2-12.5-20.4-13.5-31.9h35.1l0.7,9.6L-155.6,468.2z M-130.2,407.3
	l-19.4-19.3c9.8-8.4,21.7-13,33.8-13.6v33h-14.4V407.3z"/>
<path id="XMLID_39_" class="st0" d="M-50.5,514.2L-86,501.1c-1.1-0.4-2.2-0.3-3.2,0.1c-1,0.5-1.8,1.3-2.2,2.4l-13.1,35.5
	c-0.8,2.2,0.3,4.6,2.5,5.4l35.5,13.1c0.5,0.2,1,0.3,1.5,0.3c1.7,0,3.3-1.1,4-2.8l13.1-35.5C-47.2,517.4-48.3,515-50.5,514.2z
	 M-67.5,548.2L-95,538.1l10.1-27.5l27.5,10.1L-67.5,548.2z"/>
<path id="XMLID_38_" class="st0" d="M-10.8,519.6c2.3,0,4.2-1.9,4.2-4.2v-0.9c0-2.3-1.9-4.2-4.2-4.2s-4.2,1.9-4.2,4.2v0.9
	C-15,517.7-13.2,519.6-10.8,519.6z"/>
<path id="XMLID_37_" class="st0" d="M-69.3,601.7c-2.3,0-4.2,1.9-4.2,4.2v0.9c0,2.3,1.9,4.2,4.2,4.2s4.2-1.9,4.2-4.2v-0.9
	C-65,603.5-66.9,601.7-69.3,601.7z"/>
<path id="XMLID_36_" class="st0" d="M-53.9,617.8c2.3,0,4.2-1.9,4.2-4.2v-0.9c0-2.3-1.9-4.2-4.2-4.2s-4.2,1.9-4.2,4.2v0.9
	C-58.2,615.9-56.3,617.8-53.9,617.8z"/>
<path id="XMLID_35_" class="st0" d="M-18.9,573.6c-2.3,0-4.2,1.9-4.2,4.2v0.9c0,2.3,1.9,4.2,4.2,4.2s4.2-1.9,4.2-4.2v-0.9
	C-14.7,575.5-16.5,573.6-18.9,573.6z"/>
<path id="XMLID_34_" class="st0" d="M-53.9,566.6v-0.9c0-2.3-1.9-4.2-4.2-4.2s-4.2,1.9-4.2,4.2v0.9c0,2.3,1.9,4.2,4.2,4.2
	C-55.8,570.8-53.9,569-53.9,566.6z"/>
<path id="XMLID_33_" class="st0" d="M-24.4,504.8c-2.3,0-4.2,1.9-4.2,4.2v0.9c0,2.3,1.9,4.2,4.2,4.2s4.2-1.9,4.2-4.2V509
	C-20.2,506.7-22.1,504.8-24.4,504.8z"/>
<g id="XMLID_60_">
	<path id="XMLID_61_" class="st0" d="M139.6,457.9v43.6h84v49.7h-84v83H87.9v-226h137.3v49.7H139.6z"/>
	<path id="XMLID_63_" class="st0" d="M351.2,469.5v54.9c-20-3.2-48.5,4.8-48.5,36.8v73h-48.5V472.8h48.5v28.8
		C309.2,479.9,330.8,469.5,351.2,469.5z"/>
	<path id="XMLID_65_" class="st1" d="M451,595.5c13.2,0,24.6-5.2,31-12.3l38.8,22.3c-15.8,22-39.7,33.3-70.4,33.3
		c-55.2,0-89.5-37.1-89.5-85.3c0-48.1,34.9-85.3,85.9-85.3c47.2,0,82,36.5,82,85.3c0,6.8-0.6,13.2-1.9,19.4H412.2
		C418.4,589.7,433.2,595.5,451,595.5z M480.7,536.7c-5.2-18.7-19.7-25.5-34.2-25.5c-18.4,0-30.7,9-35.2,25.5H480.7z"/>
	<path id="XMLID_68_" class="st0" d="M675.2,585.8c0,37.1-32.3,53-67.2,53c-32.3,0-56.9-12.3-69.5-38.4l42-23.9
		c4.2,12.3,13.2,19.1,27.5,19.1c11.6,0,17.4-3.6,17.4-10c0-17.8-79.5-8.4-79.5-64.3c0-35.2,29.7-53,63.3-53
		c26.2,0,49.4,11.6,63,34.6l-41.3,22.3c-4.5-8.4-11-14.2-21.6-14.2c-8.4,0-13.6,3.2-13.6,9C595.7,538.3,675.2,526.1,675.2,585.8z"/>
	<path id="XMLID_70_" class="st0" d="M854.4,535.1v99.2H806v-92.1c0-20-12.6-29.4-28.1-29.4c-17.8,0-30,10.3-30,33.3v88.2h-48.5
		V408.2h48.5V488c8.7-12,24.9-19.7,46.2-19.7C826.7,468.2,854.4,491.5,854.4,535.1z"/>
</g>
</svg>
