<svg id="Capa_1" enable-background="new 0 0 511.995 511.995" height="512" viewBox="0 0 511.995 511.995" width="512" xmlns="http://www.w3.org/2000/svg"><g><path style="fill:#000000" d="m448.599 6.837c-.033-.051-.065-.102-.098-.152-3.733-5.607-10.834-8.054-17.23-5.92-46.639 15.546-86.965 48.825-112.172 92.173-7.532-1.292-15.17-1.943-22.823-1.943h-80.588c-7.642 0-15.271.65-22.793 1.938-25.209-43.349-65.532-76.622-112.17-92.169-6.347-2.114-13.538.248-17.321 6.06-40.378 60.677-48.007 138.097-21.178 205.172l8.286 20.714c-12.693 18.234-19.53 39.866-19.53 62.551 0 61.648 58.803 121.455 84.084 144.306 48.677 43.998 103.99 72.428 140.916 72.428 36.917 0 92.226-28.427 140.905-72.423 25.284-22.852 84.095-82.659 84.095-144.311 0-22.674-6.83-44.295-19.51-62.523l8.297-20.743c26.743-66.857 19.329-144.291-21.17-205.158zm-276.876 109.924c3.203 6.296 10.365 9.503 17.194 7.703 8.73-2.302 17.737-3.469 26.769-3.469h80.588c9.042 0 18.058 1.169 26.795 3.476 6.834 1.805 13.996-1.406 17.198-7.703 11.014-21.655 26.309-40.711 44.524-56.011-11.703 23.273-19.379 48.689-22.411 74.987-.551 4.781 1.225 9.536 4.775 12.785 4.702 4.302-2.178-3.743 50.343 75.458-21.482-11.272-41.761-27.966-59.95-49.54-12.566-14.904-30.954-23.452-50.448-23.452-17.378 0-33 8.74-43.044 16.072-5.007 3.654-12.311 3.133-17.764-1.266-13.19-10.641-27.218-15.329-44.148-14.759-18.365.621-35.975 9.714-49.586 25.605-15.562 18.169-34.697 33.138-55.93 44.039 48.847-73.686 44.021-68.521 48.124-72.269 3.554-3.249 5.331-8.007 4.779-12.791-3.034-26.277-10.697-51.667-22.376-74.91 18.233 15.305 33.545 34.373 44.568 56.045zm-93.266-76.597c21.155 26.197 35.2 58.098 40.351 92.013-.422.566-13.29 20.237-47.334 72.159l-1.393-3.483c-21.03-52.572-17.692-111.296 8.376-160.689zm298.313 377.151c-42.137 38.082-91.807 64.679-120.789 64.679-28.99 0-78.664-26.599-120.799-64.684-46.462-41.996-74.201-87.623-74.201-122.05 0-10.965 2.212-21.586 6.398-31.373 41.74-11.058 79.857-34.912 107.963-67.725 4.677-5.461 14.51-14.688 27.814-15.138 11.335-.388 17.91 2.971 24.299 8.125 16.006 12.913 38.33 13.796 54.288 2.149 9.103-6.644 18.108-10.304 25.357-10.304 10.632 0 20.659 4.662 27.513 12.79 32.026 37.986 70.258 62.974 111.005 72.662 3.508 9.07 5.364 18.797 5.364 28.815-.001 34.43-27.743 80.057-74.212 122.054zm65.145-216.461-1.406 3.514c-35.536-54.198-46.94-71.64-47.382-72.229 5.172-33.886 19.234-65.773 40.41-91.978 26.069 49.394 29.407 108.119 8.378 160.693z"/><path style="fill:#000000" d="m328.103 284.659c-2.462-3.376-5.008-6.867-7.401-10.274-14.69-20.908-38.885-33.39-64.721-33.39s-50.03 12.482-64.72 33.39c-2.393 3.406-4.938 6.896-7.398 10.27-14.551 19.954-29.598 40.587-32.424 67.589-3.351 32.006 15.731 60.23 45.372 67.11 22.283 5.172 44.817-2.473 59.171-18.673 14.292 16.131 36.797 23.867 59.172 18.673 29.641-6.88 48.723-35.104 45.372-67.11-2.828-27-17.874-47.632-32.423-67.585zm-72.122 76.336c-8.185 0-14.86-6.59-14.998-14.743 2.83-.341 7.54-.304 10.914-.278 2.673.021 5.496.021 8.169 0 3.375-.027 8.083-.063 10.914.278-.138 8.153-6.814 14.743-14.999 14.743zm52.389 29.136c-11.149 2.587-20.725-.747-27.375-6.75 12.043-8.084 19.986-21.824 19.986-37.387 0-8.942-2.681-16.137-7.969-21.384-8.895-8.826-21.233-8.679-33.181-8.586-2.52.02-5.181.02-7.7 0-11.939-.094-24.286-.239-33.181 8.586-5.288 5.247-7.969 12.441-7.969 21.384 0 15.563 7.943 29.303 19.986 37.387-6.651 6.003-16.227 9.337-27.374 6.75-14.684-3.408-24.07-18.028-22.318-34.763 1.986-18.973 14.052-35.519 26.827-53.037 2.538-3.48 5.161-7.078 7.706-10.7 9.079-12.922 24.097-20.637 40.173-20.637s31.094 7.715 40.174 20.637c2.545 3.623 5.17 7.222 7.708 10.703 12.773 17.517 24.838 34.062 26.824 53.034 1.753 16.735-7.633 31.355-22.317 34.763z"/><circle style="fill:#000000" cx="195.981" cy="225.995" r="15"/><circle style="fill:#000000" cx="315.981" cy="225.995" r="15"/></g></svg>