<?xml version="1.0" encoding="utf-8"?>
<!-- Generator: Adobe Illustrator 19.0.0, SVG Export Plug-In . SVG Version: 6.00 Build 0)  -->
<svg version="1.1" id="Calque_1" xmlns="http://www.w3.org/2000/svg" xmlns:xlink="http://www.w3.org/1999/xlink" x="0px" y="0px"
	 viewBox="-300 709 798 454" style="enable-background:new -300 709 798 454;" xml:space="preserve">
<style type="text/css">
	.st0{opacity:0.2;}
	.st1{opacity:0.2;enable-background:new    ;}
</style>
<g class="st0">
	<path d="M-270.7,993.5c9.2,32,16.7,41.7,20,47.7s23.8,26.1,23.8,26.1s51.3,43.8,103.3,31.5c52-12.3,67.8-30.3,67.8-30.3
		c9-4.8,41.5-39.5,41.5-39.5l-49.2-56c0,0-37,43.3-60.8,48.8s-38-5-38-5s-22.3-8.3-29-34.8s3.5-41.8,3.5-41.8s1-3.7,16.5-19.7
		s43-12,43-12c-16-9.8-20.8-11-20.8-11c-33.3-12.3-63.3-4-63.3-4s-33.9,5.5-50.6,46.2C-263,939.7-276.8,974.4-270.7,993.5z"/>
	<path d="M-269.2,938.5c0,0,5.5-37,53.5-56s95,17.5,95,17.5l30.8,29c0,0,89.7,103,120.7,133s63.5,34.5,63.5,34.5s35.5,9.5,76.5-5.5
		s55.5-39,55.5-39s29-34,30-74.5c0,0-9.3,28.8-31.5,40.3c-22.2,11.5-36.8,21.3-90,14.5c0,0-19.8-4.3-33.8-12.8s-33.3-27.3-33.3-27.3
		s-19.3-18.8-37-40.8s-45.3-56.8-45.3-56.8s-52.2-54.3-106.5-60.5c-54.3-6.2-90,18.8-90,18.8S-262.7,885.3-269.2,938.5z"/>
	<path d="M-0.7,897.5l49.5,62c0,0,43.5-53.5,74-51s38.5,16.5,38.5,16.5s16.5,16.2,17.5,41.4c1,25.2-21.9,47.7-39,55.1
		c0,0,36.9,7.7,70.5-6.5c33.6-14.2,47-52,46-67.5c0,0-42.7-3.2-55.7-39.2s4-48.7,2-50s-34.3-27.8-90.7-25.1
		C55.7,836,0.3,891.7-0.7,897.5z"/>
</g>
<g class="st1">
	<path d="M223.3,918c-0.5,0-0.9-0.5-0.9-1v-50.8c0-0.3,0.3-0.7,0.6-0.7h12c0.5,0,0.8,0.3,0.8,0.7v50.9c0,0.4-0.3,0.9-0.8,0.9H223.3z
		"/>
	<path d="M238.6,866.4c0-0.5,0.4-0.9,0.8-0.9h11.8c0.5,0,0.8,0.3,1,0.8l4.2,15.8c0.1,0.6,0.3,0.8,0.5,0.8c0.2,0,0.4-0.3,0.4-0.9
		v-15.6c0-0.5,0.3-0.9,0.8-0.9h10.5c0.6,0,0.9,0.5,0.9,1v50.6c0,0.5-0.3,0.9-0.8,0.9h-13.1c-0.3,0-0.7-0.3-0.8-0.7l-3.1-12.6
		c-0.1-0.7-0.4-1-0.6-1s-0.4,0.3-0.4,1v12.4c0,0.5-0.4,0.9-0.9,0.9h-10.6c-0.4,0-0.7-0.4-0.7-1V866.4z"/>
	<path d="M272.4,866.5c0-0.5,0.3-1,0.8-1h25.2c0.5,0,0.8,0.4,0.8,0.8v12.2c0,0.5-0.4,0.9-0.9,0.9H287c-0.4,0-0.8,0.3-0.8,0.8v4.2
		c0,0.4,0.2,0.6,0.7,0.6h5.3c0.3,0,0.8,0.3,0.8,0.7v12.7c0,0.4-0.3,0.8-0.8,0.8h-5.3c-0.3,0-0.7,0.5-0.7,0.9v17c0,0.6-0.4,1-0.9,1
		h-12.2c-0.4,0-0.8-0.4-0.8-0.9V866.5z"/>
	<path d="M302.7,918c-0.5,0-0.9-0.5-0.9-1v-50.8c0-0.3,0.3-0.7,0.6-0.7h12c0.5,0,0.8,0.3,0.8,0.7v50.9c0,0.4-0.3,0.9-0.8,0.9H302.7z
		"/>
	<path d="M318,866.4c0-0.5,0.4-0.9,0.8-0.9h11.8c0.5,0,0.8,0.3,1,0.8l4.2,15.8c0.1,0.6,0.3,0.8,0.5,0.8c0.2,0,0.4-0.3,0.4-0.9v-15.6
		c0-0.5,0.3-0.9,0.8-0.9h10.5c0.6,0,0.9,0.5,0.9,1v50.6c0,0.5-0.3,0.9-0.8,0.9h-13.1c-0.3,0-0.7-0.3-0.8-0.7l-3.1-12.6
		c-0.1-0.7-0.4-1-0.6-1s-0.4,0.3-0.4,1v12.4c0,0.5-0.4,0.9-0.9,0.9h-10.6c-0.4,0-0.7-0.4-0.7-1V866.4z"/>
	<path d="M352.7,918c-0.5,0-0.9-0.5-0.9-1v-50.8c0-0.3,0.3-0.7,0.6-0.7h12c0.5,0,0.8,0.3,0.8,0.7v50.9c0,0.4-0.4,0.9-0.8,0.9H352.7z
		"/>
	<path d="M377.4,918c-0.5,0-1-0.4-1-1v-36.5c0-0.5-0.4-0.8-0.9-0.8h-7c-0.4,0-0.9-0.6-0.9-1v-12.5c0-0.4,0.2-0.7,0.6-0.7h30
		c0.5,0,0.9,0.3,0.9,0.8v12.3c0,0.6-0.4,1-1,1h-7c-0.5,0-0.8,0.4-0.8,1v36.5c0,0.5-0.4,0.9-1,0.9H377.4z"/>
	<path d="M401.6,866.4c0-0.4,0.4-0.9,0.9-0.9h24.9c0.4,0,0.7,0.4,0.7,0.8v12.6c0,0.4-0.3,0.7-0.8,0.7h-11.7c-0.3,0-0.5,0.2-0.5,0.5
		v3.9c0,0.3,0.3,0.5,0.5,0.5h5.5c0.3,0,0.5,0.2,0.5,0.5v12.7c0,0.3-0.3,0.6-0.6,0.6h-5.7c-0.3,0-0.5,0.2-0.5,0.6v4.1
		c0,0.3,0.2,0.5,0.4,0.5h12.1c0.5,0,0.8,0.3,0.8,0.7v13c0,0.4-0.4,0.8-0.8,0.8h-25.1c-0.4,0-0.8-0.4-0.8-0.9V866.4z"/>
</g>
</svg>
