<?xml version="1.0" encoding="utf-8"?>
<!-- Generator: Adobe Illustrator 19.0.0, SVG Export Plug-In . SVG Version: 6.00 Build 0)  -->
<svg version="1.1" id="Calque_1" xmlns="http://www.w3.org/2000/svg" xmlns:xlink="http://www.w3.org/1999/xlink" x="0px" y="0px"
	 viewBox="0 0 798 454" style="enable-background:new 0 0 798 454;" xml:space="preserve">
<style type="text/css">
	.st0{opacity:0.2;}
	.st1{fill:#FFFFFF;}
</style>
<path class="st0" d="M92.8,330.4c-7.4,0-13.7-1.2-18.9-3.7c-5.2-2.5-9.4-6.1-12.4-10.8c-3-4.7-5.3-10.2-6.6-16.4
	c-1.4-6.2-2.1-13.3-2.1-21.5v-50.1c0-6.7,0.5-12.6,1.4-17.9c0.9-5.3,2.4-10.1,4.5-14.6c2.1-4.4,4.8-8.1,8.1-11
	c3.3-2.9,7.5-5.2,12.5-6.8c5-1.6,10.8-2.4,17.3-2.4c6.3,0,11.9,0.7,16.8,2.1c4.9,1.4,8.9,3.3,12.2,5.8c3.3,2.5,5.9,5.6,8,9.3
	c2.1,3.7,3.5,7.8,4.4,12.2c0.9,4.4,1.3,9.3,1.3,14.8v9.6h-31.5v-12.1c0-2.3,0-4.2-0.1-5.6s-0.3-3.1-0.7-4.8
	c-0.4-1.8-0.9-3.1-1.7-4.1c-0.7-1-1.8-1.8-3.2-2.5c-1.4-0.7-3.1-1-5.1-1c-2.1,0-3.8,0.4-5.2,1.2c-1.4,0.8-2.5,1.7-3.3,2.9
	c-0.8,1.1-1.4,2.6-1.8,4.5c-0.4,1.9-0.7,3.6-0.8,5.1c-0.1,1.5-0.1,3.4-0.1,5.7v69.1c0,6,0.9,10.8,2.6,14.2c1.7,3.5,4.9,5.2,9.4,5.2
	c8.4,0,12.7-6.7,12.7-20.1v-16.9H97.2v-19.9h42.3v78.4h-21.4l-1.8-12.6C112,325.4,104.1,330.4,92.8,330.4z"/>
<line class="st0" x1="175.9" y1="330" x2="118.1" y2="330"/>
<path class="st0" d="M297.2,304.2c-0.6,0.1-1.2,0.2-1.8,0.3c-0.6,0.1-1.4,0.2-2.4,0.2c-1,0.1-1.8,0.1-2.6,0
	c-6.3-0.2-9.4-3.1-9.4-8.7v-55.7h14.9v-19.8H281v-32.7h-29.6v32.7h-9.9h-11.5H227h-26.5v79c-7.5,4.4-11.9,3.8-14.3,1.9v-80.9h-29.4
	V305c0,7.3,1.6,13.3,4.9,18c3.3,4.7,8,7,14.2,7c3,0,5.9-0.5,8.8-1.5l0,0c0,0,6.5,0.2,15.8-5.5v5.2h29.4v-77.6h21.4v40
	c0,3.2,0.1,6,0.3,8.5c0.2,2.5,0.5,5.1,1,7.9c0.5,2.7,1.1,5.1,1.9,7.2c0.8,2.1,1.9,4.1,3.2,6c1.3,1.9,2.9,3.5,4.7,4.8
	c1.8,1.3,4,2.3,6.6,3.1c2.6,0.8,5.5,1.3,8.7,1.4c1,0.1,2,0.1,3,0.1c5.3,0,11.1-0.5,17.4-1.6V304C298.1,304,297.8,304.1,297.2,304.2z
	"/>
<polygon class="st0" points="308.5,219 332,219 352.5,296 372,219 396,219 415,296 436.5,219 460.5,219 429,330 404,330 
	384.5,256.1 365,330 340,330 "/>
<ellipse class="st0" cx="519" cy="275.1" rx="58.5" ry="57.9"/>
<ellipse class="st1" cx="519" cy="275.1" rx="31.5" ry="31.1"/>
<path class="st0" d="M593.7,219h24.7v16.7c0,0,9.7-17,39.7-16.7v25c0,0-33.3-5-39.3,26.7V330h-25V219z"/>
<path class="st0" d="M675,166.7h25V252c0,0,30.3,6.3,37.7-33H762c0,0,1,32.7-29.3,51.3L776,330h-30l-33.3-46c0,0-3.3-6.3-12.7-6v52
	h-25V166.7z"/>
</svg>
