<?xml version="1.0" encoding="utf-8"?>
<!-- Generator: Adobe Illustrator 23.0.1, SVG Export Plug-In . SVG Version: 6.00 Build 0)  -->
<svg version="1.1" id="Layer_1" xmlns="http://www.w3.org/2000/svg" xmlns:xlink="http://www.w3.org/1999/xlink" x="0px" y="0px"
	 viewBox="0 0 512 512" style="enable-background:new 0 0 512 512;" xml:space="preserve">
<style type="text/css">
	.st0{fill:#D4E1F4;}
	.st1{fill:#515D75;}
	.st2{fill:#F39200;}
</style>
<path class="st0" d="M222.1,471.6v-4.1h-30v4.1c0.1,10.2,8.4,18.4,18.6,18.4h30C230.5,490,222.2,481.8,222.1,471.6L222.1,471.6z"/>
<path class="st0" d="M207.1,355.7c-56.5-30.7-91.6-90.7-91.6-156.8c0-48.7,18.8-94.1,53-128c28.3-28,64.2-44.8,102.5-48.3
	c-4.3-0.4-8.7-0.6-13.1-0.7c-44.5-0.5-87,16.9-119.4,49c-34.2,33.8-53.1,79.3-53,128c0,66,35.1,126.1,91.6,156.8
	c8.5,4.7,13.8,13.7,13.7,23.4v76.4h30v-76.4C220.9,369.4,215.6,360.4,207.1,355.7L207.1,355.7z"/>
<path class="st1" d="M136.9,125.2c-3-1.4-6.6-0.2-8,2.8c0,0,0,0,0,0c-12.4,26-18.8,54.4-18.7,83.2c0,3.3,2.7,6,6,6s6-2.7,6-6
	c-0.1-27,5.9-53.7,17.5-78C141.1,130.2,139.9,126.7,136.9,125.2C136.9,125.2,136.9,125.2,136.9,125.2z"/>
<path class="st2" d="M269.4,361.6c-3.8,2.9-15.4,14.5-15.6,27.7h-69v12H333v-12h-67.1c0.2-7.7,8-16,10.7-18.1
	c13.9-10.3,20.7-30.4,16.7-48.8c-0.6-2.8-1.5-5.5-2.6-8.1c3.8-8.9,5-18.7,3.3-28.2c-1-6.3-4.8-21.9-18.7-32.3
	c-15.3-11.5-37-11.9-55.1-1c-2.8,1.7-3.8,5.4-2.1,8.2c1.7,2.8,5.4,3.8,8.2,2.1c13.9-8.4,30.3-8.2,41.7,0.3c10.7,8,13.4,20.9,14,24.6
	c0.7,4.3,0.7,8.8,0.1,13.1c-2.9-3.2-6-6-9.4-8.6c-4.9-3.8-13-10.1-24.6-10.1h-0.1c-14,0-21.1,6.3-24.6,11.5
	c-7.1,10.7-4.3,24.3,1.4,32.5c7.1,10.2,18.1,12,22.3,12.7c18,2.9,31.5-8.8,34.8-12C284,340.3,279,354.5,269.4,361.6L269.4,361.6z
	 M273.9,318.2c-0.4,0.5-11,11.3-24.8,9.1c-3.3-0.5-10.2-1.6-14.3-7.7c-3.5-5.1-5.1-13.3-1.3-19c2.7-4.1,7.6-6.1,14.7-6.1h0.1
	c7.5,0,12.9,4.2,17.2,7.6c4.6,3.3,8.5,7.5,11.7,12.2C276.2,315.6,275.1,316.9,273.9,318.2L273.9,318.2z"/>
<path class="st2" d="M184.8,423.1H333v12H184.8V423.1z"/>
<path class="st1" d="M431.6,147.2l-6.4-16.9c-15.9-41.9-46-76.8-85-98.9l-4.3-2.4l-0.3-0.1C311.6,16.7,285,10.3,258.1,10
	c-47.7-0.6-93.2,18.1-128,52.4c-17.7,17.4-31.7,38.2-41.4,61.1c-10.1,23.9-15.3,49.5-15.2,75.4c0,70.4,37.5,134.6,97.8,167.3
	c4.7,2.6,7.5,7.5,7.5,12.9v80c0,1.6,0.5,3.2,1.3,4.5v8c0.1,16.8,13.7,30.4,30.6,30.4h96.7c16.8,0,30.5-13.6,30.6-30.4v-8.5
	c0.7-1.2,1-2.6,1-4v-83.2c-0.1-5.1,2.6-9.9,7-12.6c57.1-33.5,92.6-96.5,92.6-164.4c0-9.6-0.7-19.3-2.1-28.8
	C435.3,162.4,433.6,154.7,431.6,147.2L431.6,147.2z M307.4,490h-96.7c-10.2,0-18.5-8.2-18.6-18.4v-4.1H326v4.1
	C325.9,481.8,317.6,490,307.4,490L307.4,490z M339.8,352.9c-8,4.8-12.9,13.5-12.9,22.9v79.7H190.8v-76.4c0.1-9.7-5.2-18.7-13.7-23.4
	C120.6,325,85.5,265,85.5,198.9c0-48.7,18.8-94.1,53-128c32.5-32.1,74.9-49.5,119.4-49c25.1,0.2,49.8,6.2,72.2,17.5l4.2,2.4
	c36.6,20.6,64.7,53.4,79.6,92.7l6.1,16.1c1.9,7,3.4,14,4.4,21.2c1.3,9,2,18,2,27C426.5,262.5,393.3,321.6,339.8,352.9L339.8,352.9z"
	/>
</svg>
