<?xml version="1.0" encoding="utf-8"?>
<!-- Generator: Adobe Illustrator 23.0.1, SVG Export Plug-In . SVG Version: 6.00 Build 0)  -->
<svg version="1.1" id="Layer_1" xmlns="http://www.w3.org/2000/svg" xmlns:xlink="http://www.w3.org/1999/xlink" x="0px" y="0px"
	 viewBox="0 0 500 500" style="enable-background:new 0 0 500 500;" xml:space="preserve">
<style type="text/css">
	.st0{fill:#4FC1EA;}
	.st1{fill:none;}
	.st2{fill:#FFFFFF;}
</style>
<g>
	<path class="st0" d="M476,450.3H24.6c-0.4,0-0.6-0.8-0.6-1.8c0-1,0.3-1.8,0.6-1.8H476"/>
	<polygon class="st1" points="210.2,287.9 209.4,292.3 214.1,296.9 223.2,287.9 	"/>
	<path class="st1" d="M228.8,335.2c-1,0-1.8-0.8-1.8-1.8v-26.6c0-1,0.8-1.8,1.8-1.8h26.6c1,0,1.8,0.8,1.8,1.8v3.1l4.6-4.6
		c0,0,0,0,0,0c0,0,0,0,0,0l5.8-5.8L256,287.9h-27.8l-7.4,7.4h13.8c1,0,1.8,0.8,1.8,1.8c0,1-0.8,1.8-1.8,1.8h-16.2
		c-0.3,0-0.6-0.1-0.9-0.3l-2.2,2.2l-9.2,9.2l-4.6,25.2h14.1c1,0,1.8,0.8,1.8,1.8c0,1-0.8,1.8-1.8,1.8h-14.8l-11.6,63.2h14.1
		c1,0,1.8,0.8,1.8,1.8c0,1-0.8,1.8-1.8,1.8h-14.7l-7.6,41.4h42v-7.3h-14.2c-1,0-1.8-0.8-1.8-1.8c0-1,0.8-1.8,1.8-1.8H223v-18.8
		c0-5.1,2-9.9,5.6-13.5c3.6-3.6,8.4-5.6,13.5-5.6c10.4,0,18.9,8.4,19.1,18.8h14.4c1,0,1.8,0.8,1.8,1.8c0,1-0.8,1.8-1.8,1.8h-14.4
		v26.4h42l-12.9-69.9l-41.7-41.7H228.8z M265.2,388.5h16.2c1,0,1.8,0.8,1.8,1.8c0,1-0.8,1.8-1.8,1.8h-16.2c-1,0-1.8-0.8-1.8-1.8
		C263.4,389.3,264.2,388.5,265.2,388.5z M257.2,350.1v26.6c0,1-0.8,1.8-1.8,1.8h-26.6c-1,0-1.8-0.8-1.8-1.8v-4.1h-14.4
		c-1,0-1.8-0.8-1.8-1.8c0-1,0.8-1.8,1.8-1.8H227v-18.9c0-1,0.8-1.8,1.8-1.8h26.6C256.4,348.3,257.2,349.1,257.2,350.1z"/>
	<polygon class="st1" points="261,287.9 271.3,298.2 276.9,303.7 273.9,287.9 	"/>
	<polygon class="st2" points="382.8,147.4 279.6,250.5 297.4,268.3 400.6,165.2 	"/>
	
		<rect x="253.5" y="191" transform="matrix(0.7069 -0.7073 0.7073 0.7069 -41.6565 287.82)" class="st2" width="145.9" height="6.4"/>
	<path class="st2" d="M366.2,412.2L263,309l-6.4,6.4c0,0,0,0,0,0l-11.4,11.4l5.3,5.3c0,0,0,0,0,0l97.8,97.8L366.2,412.2z"/>
	
		<rect x="316.2" y="282.9" transform="matrix(0.7069 -0.7074 0.7074 0.7069 -158.0669 330.2348)" class="st2" width="6.4" height="145.9"/>
	<path class="st2" d="M244.6,271.5l12.9,12.9h15.9c-0.8-5-3.6-18.5-11.8-29.9L244.6,271.5z"/>
	<polygon class="st2" points="242.1,274 231.8,284.3 252.4,284.3 	"/>
	<rect x="230.6" y="351.9" class="st2" width="23" height="23"/>
	<path class="st2" d="M230.6,331.6H245l-3.5-3.5c-0.7-0.7-0.7-1.8,0-2.5l12.1-12.1v-4.8h-23V331.6z"/>
	<path class="st2" d="M242.1,269l17.3-17.3c-4.8-5.8-10.7-10.1-17.3-12.7c-6.7,2.6-12.5,6.8-17.3,12.7L242.1,269z"/>
	<path class="st2" d="M257.6,417.1c0-8.6-7-15.6-15.6-15.6c-4.1,0-8,1.6-11,4.6c-3,3-4.6,6.9-4.6,11v19.8c0.1,0.2,0.2,0.5,0.2,0.8
		c0,0.3-0.1,0.5-0.2,0.8v8.3h31.1V417.1z"/>
	<path class="st2" d="M226.7,284.3l12.9-12.9l-17-17c-8.2,11.4-11,24.9-11.8,29.9H226.7z"/>
	<polygon class="st2" points="221.2,233.9 238.9,216.1 135.8,113 118,130.8 	"/>
	<polygon class="st2" points="218.7,236.4 115.5,133.3 110.9,137.8 214.1,241 	"/>
	
		<rect x="84.8" y="345.6" transform="matrix(0.7071 -0.7071 0.7071 0.7071 -200.4249 213.7086)" class="st2" width="145.9" height="6.4"/>
	
		<rect x="71.1" y="322.5" transform="matrix(0.7071 -0.7071 0.7071 0.7071 -194.7578 200.0259)" class="st2" width="145.9" height="25.2"/>
	<path class="st0" d="M228.8,348.3c-1,0-1.8,0.8-1.8,1.8v18.9h-14.4c-1,0-1.8,0.8-1.8,1.8c0,1,0.8,1.8,1.8,1.8H227v4.1
		c0,1,0.8,1.8,1.8,1.8h26.6c1,0,1.8-0.8,1.8-1.8v-26.6c0-1-0.8-1.8-1.8-1.8H228.8z M253.6,374.9h-23v-23h23V374.9z"/>
	<path class="st0" d="M265.2,392h16.2c1,0,1.8-0.8,1.8-1.8c0-1-0.8-1.8-1.8-1.8h-16.2c-1,0-1.8,0.8-1.8,1.8
		C263.4,391.2,264.2,392,265.2,392z"/>
	<path class="st0" d="M275.9,251.8C275.9,251.8,275.9,251.8,275.9,251.8C275.9,251.8,275.9,251.8,275.9,251.8l20.3,20.3
		c0.3,0.3,0.8,0.5,1.3,0.5c0.5,0,0.9-0.2,1.3-0.5l105.7-105.7c0.7-0.7,0.7-1.8,0-2.5l-20.3-20.3h0l-7.1-7.1c-0.7-0.7-1.8-0.7-2.5,0
		L268.8,242.2l-6.9,6.9c-5.4-6.4-11.8-11-19.2-13.7c-0.4-0.1-0.8-0.1-1.2,0c-7.4,2.7-13.9,7.4-19.2,13.7l-5.6-5.6l26.1-26.1
		c0.7-0.7,0.7-1.8,0-2.5L137,109.2c-0.7-0.7-1.8-0.7-2.5,0l-27.4,27.4c-0.7,0.7-0.7,1.8,0,2.5l105.7,105.7l7.2,7.2
		c-10.8,14.8-12.9,32.5-13,33.9l-0.6,3.4L188,270.8c-0.7-0.7-1.8-0.7-2.5,0L79.8,376.5c-0.3,0.3-0.5,0.8-0.5,1.3
		c0,0.5,0.2,0.9,0.5,1.3l27.4,27.4c0.3,0.3,0.8,0.5,1.3,0.5c0.5,0,0.9-0.2,1.3-0.5l92.1-92.1l-24.7,133.9c-0.1,0.5,0,1.1,0.4,1.5
		c0.3,0.4,0.8,0.6,1.4,0.6h126.5c0.5,0,1-0.2,1.4-0.6c0.3-0.4,0.5-0.9,0.4-1.5l-12.3-66.9l52.4,52.4c0.3,0.3,0.8,0.5,1.3,0.5
		c0.5,0,0.9-0.2,1.3-0.5l20.3-20.3c0,0,0,0,0,0l7.1-7.1c0.7-0.7,0.7-1.8,0-2.5l-95.7-95.7l-4.1-22.3c-0.2-1.5-2.2-19.2-13-33.9
		l5.9-5.9L275.9,251.8z M279.6,250.5l103.2-103.2l17.8,17.8L297.4,268.3L279.6,250.5z M277.1,248l-4.5-4.5l103.2-103.2l4.5,4.5
		L277.1,248z M214.1,296.9l-4.7-4.7l0.8-4.4h12.9L214.1,296.9z M186.8,274.6l17.8,17.8L101.4,395.6l-17.8-17.8L186.8,274.6z
		 M242.1,238.9c6.7,2.6,12.5,6.9,17.3,12.7L242.1,269l-17.3-17.3C229.6,245.8,235.4,241.5,242.1,238.9z M242.1,274l10.3,10.3h-20.7
		L242.1,274z M239.6,271.5l-12.9,12.9h-15.9c0.8-5,3.6-18.4,11.8-29.9L239.6,271.5z M207.1,294.9l4.5,4.5L108.4,402.6l-4.5-4.5
		L207.1,294.9z M257.5,284.3l-12.9-12.9l17-17c8.2,11.4,11,24.9,11.8,29.9H257.5z M238.9,216.1l-17.8,17.8L118,130.8l17.8-17.8
		L238.9,216.1z M115.5,133.3l103.2,103.2l-4.5,4.6L110.9,137.8L115.5,133.3z M226.5,438.4c0.1-0.2,0.2-0.5,0.2-0.8
		c0-0.3-0.1-0.5-0.2-0.8v-19.8c0-4.1,1.6-8,4.6-11c2.9-2.9,6.8-4.6,11-4.6c8.6,0,15.6,7,15.6,15.6v29.7h-31.1V438.4z M303.2,446.8
		h-42v-26.4h14.4c1,0,1.8-0.8,1.8-1.8c0-1-0.8-1.8-1.8-1.8h-14.4c-0.2-10.4-8.7-18.8-19.1-18.8c-5.1,0-9.9,2-13.5,5.6
		c-3.6,3.6-5.6,8.4-5.6,13.5v18.8h-14.2c-1,0-1.8,0.8-1.8,1.8c0,1,0.8,1.8,1.8,1.8H223v7.3h-42l7.6-41.4h14.7c1,0,1.8-0.8,1.8-1.8
		c0-1-0.8-1.8-1.8-1.8h-14.1l11.6-63.2h14.8c1,0,1.8-0.8,1.8-1.8c0-1-0.8-1.8-1.8-1.8h-14.1l4.6-25.2l9.2-9.2l2.2-2.2
		c0.3,0.2,0.6,0.3,0.9,0.3h16.2c1,0,1.8-0.8,1.8-1.8c0-1-0.8-1.8-1.8-1.8h-13.8l7.4-7.4H256l11.6,11.6l-5.8,5.8c0,0,0,0,0,0
		c0,0,0,0,0,0l-4.6,4.6v-3.1c0-1-0.8-1.8-1.8-1.8h-26.6c-1,0-1.8,0.8-1.8,1.8v26.6c0,1,0.8,1.8,1.8,1.8h19.8l41.7,41.7L303.2,446.8z
		 M253.6,313.4l-12.1,12.1c-0.7,0.7-0.7,1.8,0,2.5l3.5,3.5h-14.5v-23h23V313.4z M250.6,332.1C250.6,332.1,250.6,332.1,250.6,332.1
		l-5.3-5.3l11.4-11.4c0,0,0,0,0,0l6.4-6.4l103.2,103.2L348.4,430L250.6,332.1z M368.7,409.7L265.5,306.5l4.5-4.5l103.2,103.2
		L368.7,409.7z M271.3,298.2L261,287.9h12.9l2.9,15.9L271.3,298.2z"/>
	<path class="st1" d="M115.2,355.1c1.4,0.9,2.8,1.7,4.3,2.2v-8.6c-0.6-0.1-1.3-0.2-1.9-0.4l-8.5-0.5
		C111.5,349.9,113.6,352.4,115.2,355.1z"/>
	<path class="st1" d="M123.1,352.2c2.7-0.2,5.2-1.4,7.1-3.1l-7.1-0.4V352.2z"/>
	<path class="st1" d="M133,358.3c3-3.7,7-6.5,11.5-8.2l-9.9-0.6c-2.7,3.6-6.8,6-11.6,6.3v2.6c1.5,0.3,3.1,0.5,4.7,0.5
		C129.6,358.9,131.3,358.7,133,358.3z"/>
	<path class="st1" d="M119.5,369.6v-8.5c-0.6-0.2-1.2-0.4-1.8-0.7C118.8,363.4,119.4,366.4,119.5,369.6z"/>
	<path class="st1" d="M127.2,374.7c0-4.5,1.1-8.7,3.1-12.3c-0.9,0.1-1.7,0.1-2.6,0.1c-1.6,0-3.1-0.2-4.7-0.4v48h7.8
		c6.9,0,12.8-4.2,15.3-10.2C135.3,396.7,127.2,386.6,127.2,374.7z"/>
	<path class="st1" d="M119.5,371.9c-0.5,13.9-10.4,25.5-23.5,28.6c0,13,10.5,23.7,23.5,24V371.9z"/>
	<path class="st2" d="M146.2,349.5c0-0.1,0.1-0.2,0.1-0.3c2.7-3.8,4.1-8.3,4.1-13c0-12.5-10.1-22.6-22.6-22.6s-22.6,10.1-22.6,22.6
		c0,3.6,0.9,7.1,2.5,10.3c0.5,0.4,1,0.8,1.5,1.3l8.5,0.5c-4.9-1.6-8.4-6.1-8.4-11.5c0-1,0.8-1.8,1.8-1.8c1,0,1.8,0.8,1.8,1.8
		c0,4.1,2.9,7.5,6.8,8.3v-8.9c0-1,0.8-1.8,1.8-1.8c1,0,1.8,0.8,1.8,1.8v12.4l7.1,0.4c2.4-2.2,4-5.4,4-8.9c0-1,0.8-1.8,1.8-1.8
		c1,0,1.8,0.8,1.8,1.8c0,3.4-1.1,6.6-3,9.2l9.9,0.6C145.1,349.9,145.6,349.7,146.2,349.5z"/>
	<path class="st2" d="M153.4,352.1c-7.1,0-13.4,3.3-17.6,8.4c-0.1,0.3-0.3,0.6-0.6,0.8c-2.8,3.8-4.4,8.4-4.4,13.4
		c0,10.3,6.9,19,16.4,21.7c0.2-0.9,0.3-1.9,0.3-2.9v-12.1c-5.8-0.9-10.3-5.9-10.3-11.9c0-1,0.8-1.8,1.8-1.8c1,0,1.8,0.8,1.8,1.8
		c0,4.1,2.9,7.5,6.8,8.3v-3.2c0-1,0.8-1.8,1.8-1.8s1.8,0.8,1.8,1.8v13.9c5.8-0.9,10.3-5.9,10.3-11.9c0-1,0.8-1.8,1.8-1.8
		c1,0,1.8,0.8,1.8,1.8c0,8-6.1,14.6-13.8,15.5v1.4c0,1.2-0.1,2.4-0.3,3.6c0.9,0.1,1.8,0.2,2.8,0.2c12.5,0,22.6-10.1,22.6-22.6
		C176,362.2,165.9,352.1,153.4,352.1z"/>
	<path class="st0" d="M153.4,348.5c-0.9,0-1.7,0-2.6,0.1c2-3.8,3.1-8,3.1-12.3c0-14.4-11.7-26.2-26.2-26.2
		c-14.4,0-26.2,11.7-26.2,26.2c0,2.4,0.4,4.8,1,7.2c-4.1-2-8.7-3.2-13.6-3.2c-16.8,0-30.5,13.7-30.5,30.5
		c0,16.8,13.7,30.5,30.5,30.5c1.2,0,2.3-0.1,3.5-0.2c0.4,14.7,12.3,26.6,27,26.9v20.6c0,1,0.8,1.8,1.8,1.8c1,0,1.8-0.8,1.8-1.8
		v-34.9h7.8c8.6,0,15.9-5.4,18.8-13.1c1.2,0.2,2.5,0.3,3.7,0.3c14.4,0,26.2-11.7,26.2-26.2C179.6,360.2,167.8,348.5,153.4,348.5z
		 M153.4,397.3c-0.9,0-1.9-0.1-2.8-0.2c0.2-1.2,0.3-2.4,0.3-3.6v-1.4c7.8-0.9,13.8-7.5,13.8-15.5c0-1-0.8-1.8-1.8-1.8
		c-1,0-1.8,0.8-1.8,1.8c0,6-4.5,11-10.3,11.9v-13.9c0-1-0.8-1.8-1.8-1.8s-1.8,0.8-1.8,1.8v3.2c-3.9-0.8-6.8-4.2-6.8-8.3
		c0-1-0.8-1.8-1.8-1.8c-1,0-1.8,0.8-1.8,1.8c0,6.1,4.5,11.1,10.3,11.9v12.1c0,1-0.1,1.9-0.3,2.9c-9.4-2.7-16.4-11.4-16.4-21.7
		c0-5,1.7-9.6,4.4-13.4c0.3-0.2,0.5-0.5,0.6-0.8c4.2-5.1,10.5-8.4,17.6-8.4c12.5,0,22.6,10.1,22.6,22.6
		C176,387.2,165.9,397.3,153.4,397.3z M123.1,355.8c4.7-0.3,8.9-2.7,11.6-6.3c1.9-2.6,3-5.8,3-9.2c0-1-0.8-1.8-1.8-1.8
		c-1,0-1.8,0.8-1.8,1.8c0,3.5-1.5,6.7-4,8.9c-1.9,1.7-4.4,2.9-7.1,3.1v-3.5v-12.4c0-1-0.8-1.8-1.8-1.8c-1,0-1.8,0.8-1.8,1.8v8.9
		c-3.9-0.8-6.8-4.2-6.8-8.3c0-1-0.8-1.8-1.8-1.8c-1,0-1.8,0.8-1.8,1.8c0,5.4,3.5,10,8.4,11.5c0.6,0.2,1.2,0.3,1.9,0.4v8.6
		c-1.5-0.6-2.9-1.3-4.3-2.2c-1.6-2.7-3.7-5.2-6.1-7.3c-0.5-0.4-1-0.9-1.5-1.3c-1.6-3.2-2.5-6.7-2.5-10.3c0-12.5,10.1-22.6,22.6-22.6
		s22.6,10.1,22.6,22.6c0,4.7-1.4,9.2-4.1,13c-0.1,0.1-0.1,0.2-0.1,0.3c-0.6,0.2-1.1,0.3-1.6,0.5c-4.6,1.6-8.5,4.5-11.5,8.2
		c-1.7,0.4-3.5,0.7-5.3,0.7c-1.6,0-3.1-0.2-4.7-0.5V355.8z M119.5,369.6c-0.1-3.2-0.7-6.3-1.8-9.2c0.6,0.2,1.2,0.5,1.8,0.7V369.6z
		 M116.1,370.8c0,12.5-8.5,22.9-20,26v-13.4c5.8-0.9,10.3-5.9,10.3-11.9c0-1-0.8-1.8-1.8-1.8c-1,0-1.8,0.8-1.8,1.8
		c0,4.1-2.9,7.5-6.8,8.3v-3.5c0-1-0.8-1.8-1.8-1.8c-1,0-1.8,0.8-1.8,1.8v13.4c-7.4-0.5-13.2-6.6-13.2-14.1c0-1-0.8-1.8-1.8-1.8
		c-1,0-1.8,0.8-1.8,1.8c0,9.4,7.4,17.2,16.8,17.6v4.3c-1.1,0.1-2.3,0.2-3.5,0.2c-14.9,0-27-12.1-27-27c0-14.9,12.1-27,27-27
		C103.9,343.8,116.1,355.9,116.1,370.8z M96.1,400.5c13.1-3.1,23-14.6,23.5-28.6v52.5C106.6,424.1,96.1,413.5,96.1,400.5z
		 M130.9,410.1h-7.8v-48c1.5,0.3,3.1,0.4,4.7,0.4c0.9,0,1.7-0.1,2.6-0.1c-2,3.7-3.1,7.9-3.1,12.3c0,11.9,8,22,19,25.1
		C143.7,405.8,137.8,410.1,130.9,410.1z"/>
	<path class="st2" d="M62.1,370.8c0,14.9,12.1,27,27,27c1.2,0,2.3-0.1,3.5-0.2v-4.3c-9.3-0.5-16.8-8.2-16.8-17.6
		c0-1,0.8-1.8,1.8-1.8c1,0,1.8,0.8,1.8,1.8c0,7.5,5.9,13.6,13.2,14.1v-13.4c0-1,0.8-1.8,1.8-1.8c1,0,1.8,0.8,1.8,1.8v3.5
		c3.9-0.8,6.8-4.2,6.8-8.3c0-1,0.8-1.8,1.8-1.8c1,0,1.8,0.8,1.8,1.8c0,6.1-4.5,11.1-10.3,11.9v13.4c11.5-3.1,20-13.6,20-26
		c0-14.9-12.1-27-27-27C74.2,343.8,62.1,355.9,62.1,370.8z"/>
	<path class="st1" d="M446.4,364.3c0.4,0,0.7-0.3,0.7-0.7c0-0.4-0.3-0.7-0.7-0.7c-0.4,0-0.7,0.3-0.7,0.7
		C445.7,364,446,364.3,446.4,364.3z"/>
	<path class="st2" d="M406.1,365.8c0.2,0,0.4-0.2,0.4-0.4c0-0.2-0.2-0.4-0.4-0.4h-17.4c-0.2,0-0.4,0.2-0.4,0.4
		c0,0.2,0.2,0.4,0.4,0.4H406.1z"/>
	<path class="st2" d="M318.9,60.2c-5.8,0-11.4,2.1-15.8,5.9c-0.4,0.3-0.9,0.5-1.4,0.4c-0.5-0.1-0.9-0.3-1.2-0.7
		c-5.9-8-15.1-12.6-25-12.6c-17.2,0-31.2,14-31.2,31.2c0,4.2,3.4,7.6,7.6,7.6h83.6c4.2,0,7.6-3.4,7.6-7.6
		C343.1,71,332.2,60.2,318.9,60.2z"/>
	<path class="st0" d="M318.9,56.6c-6,0-11.9,2-16.7,5.6c-6.6-7.9-16.4-12.6-26.7-12.6c-19.1,0-34.7,15.6-34.7,34.7
		c0,6.2,5,11.2,11.2,11.2h83.6c6.2,0,11.2-5,11.2-11.2C346.6,69.1,334.2,56.6,318.9,56.6z M335.5,92h-83.6c-4.2,0-7.6-3.4-7.6-7.6
		c0-17.2,14-31.2,31.2-31.2c10,0,19.1,4.6,25,12.6c0.3,0.4,0.7,0.7,1.2,0.7c0.5,0.1,1-0.1,1.4-0.4c4.4-3.8,10-5.9,15.8-5.9
		c13.3,0,24.2,10.9,24.2,24.2C343.1,88.6,339.7,92,335.5,92z"/>
</g>
</svg>
