<?xml version="1.0" encoding="utf-8"?>
<!-- Generator: Adobe Illustrator 23.0.1, SVG Export Plug-In . SVG Version: 6.00 Build 0)  -->
<svg version="1.1" id="Layer_1" xmlns="http://www.w3.org/2000/svg" xmlns:xlink="http://www.w3.org/1999/xlink" x="0px" y="0px"
	 viewBox="0 0 500 500" style="enable-background:new 0 0 500 500;" xml:space="preserve">
<style type="text/css">
	.st0{fill:#EDECEB;}
	.st1{fill:#FFFFFF;}
	.st2{fill:#E2E2E2;}
	.st3{fill:#FFCBB7;}
	.st4{fill:#5B5B74;}
	.st5{fill:#FCD7CD;}
	.st6{fill:#F39200;}
	.st7{fill:#8C8C8C;}
	.st8{fill:#DBDBDB;}
	.st9{fill:none;stroke:#EDECEB;stroke-miterlimit:10;}
	.st10{fill:#4FC1EA;}
	.st11{fill:#68BB88;}
	.st12{fill:#FF3E00;}
	.st13{fill:#00D1B2;}
	.st14{fill:#2396ED;}
</style>
<g>
	<circle class="st0" cx="356" cy="36" r="2"/>
	<circle class="st0" cx="363" cy="36" r="2"/>
	<circle class="st0" cx="370" cy="36" r="2"/>
	<circle class="st0" cx="377" cy="36" r="2"/>
	<circle class="st0" cx="384" cy="36" r="2"/>
	<circle class="st0" cx="391" cy="36" r="2"/>
	<circle class="st0" cx="398" cy="36" r="2"/>
	<circle class="st0" cx="405" cy="36" r="2"/>
	<circle class="st0" cx="412" cy="36" r="2"/>
	<circle class="st0" cx="419" cy="36" r="2"/>
	<circle class="st0" cx="426" cy="36" r="2"/>
	<circle class="st0" cx="433" cy="36" r="2"/>
	<circle class="st0" cx="440" cy="36" r="2"/>
	<circle class="st0" cx="447" cy="36" r="2"/>
	<circle class="st0" cx="356" cy="44" r="2"/>
	<circle class="st0" cx="363" cy="44" r="2"/>
	<circle class="st0" cx="370" cy="44" r="2"/>
	<circle class="st0" cx="377" cy="44" r="2"/>
	<circle class="st0" cx="384" cy="44" r="2"/>
	<circle class="st0" cx="391" cy="44" r="2"/>
	<circle class="st0" cx="398" cy="44" r="2"/>
	<circle class="st0" cx="405" cy="44" r="2"/>
	<circle class="st0" cx="412" cy="44" r="2"/>
	<circle class="st0" cx="419" cy="44" r="2"/>
	<circle class="st0" cx="426" cy="44" r="2"/>
	<circle class="st0" cx="433" cy="44" r="2"/>
	<circle class="st0" cx="440" cy="44" r="2"/>
	<circle class="st0" cx="447" cy="44" r="2"/>
	<circle class="st0" cx="356" cy="52" r="2"/>
	<circle class="st0" cx="363" cy="52" r="2"/>
	<circle class="st0" cx="370" cy="52" r="2"/>
	<circle class="st0" cx="377" cy="52" r="2"/>
	<circle class="st0" cx="384" cy="52" r="2"/>
	<circle class="st0" cx="391" cy="52" r="2"/>
	<circle class="st0" cx="398" cy="52" r="2"/>
	<circle class="st0" cx="405" cy="52" r="2"/>
	<circle class="st0" cx="412" cy="52" r="2"/>
	<circle class="st0" cx="419" cy="52" r="2"/>
	<circle class="st0" cx="426" cy="52" r="2"/>
	<circle class="st0" cx="433" cy="52" r="2"/>
	<circle class="st0" cx="440" cy="52" r="2"/>
	<circle class="st0" cx="447" cy="52" r="2"/>
	<circle class="st0" cx="356" cy="60" r="2"/>
	<circle class="st0" cx="363" cy="60" r="2"/>
	<circle class="st0" cx="370" cy="60" r="2"/>
	<circle class="st0" cx="377" cy="60" r="2"/>
	<circle class="st0" cx="384" cy="60" r="2"/>
	<circle class="st0" cx="391" cy="60" r="2"/>
	<circle class="st0" cx="398" cy="60" r="2"/>
	<circle class="st0" cx="405" cy="60" r="2"/>
	<circle class="st0" cx="412" cy="60" r="2"/>
	<circle class="st0" cx="419" cy="60" r="2"/>
	<circle class="st0" cx="426" cy="60" r="2"/>
	<circle class="st0" cx="433" cy="60" r="2"/>
	<circle class="st0" cx="440" cy="60" r="2"/>
	<circle class="st0" cx="447" cy="60" r="2"/>
	<circle class="st0" cx="356" cy="68" r="2"/>
	<circle class="st0" cx="363" cy="68" r="2"/>
	<circle class="st0" cx="370" cy="68" r="2"/>
	<circle class="st0" cx="377" cy="68" r="2"/>
	<circle class="st0" cx="384" cy="68" r="2"/>
	<circle class="st0" cx="391" cy="68" r="2"/>
	<circle class="st0" cx="398" cy="68" r="2"/>
	<circle class="st0" cx="405" cy="68" r="2"/>
	<circle class="st0" cx="412" cy="68" r="2"/>
	<circle class="st0" cx="419" cy="68" r="2"/>
	<circle class="st0" cx="426" cy="68" r="2"/>
	<circle class="st0" cx="433" cy="68" r="2"/>
	<circle class="st0" cx="440" cy="68" r="2"/>
	<circle class="st0" cx="447" cy="68" r="2"/>
	<circle class="st0" cx="356" cy="76" r="2"/>
	<circle class="st0" cx="363" cy="76" r="2"/>
	<circle class="st0" cx="370" cy="76" r="2"/>
	<circle class="st0" cx="377" cy="76" r="2"/>
	<circle class="st0" cx="384" cy="76" r="2"/>
	<circle class="st0" cx="391" cy="76" r="2"/>
	<circle class="st0" cx="398" cy="76" r="2"/>
	<circle class="st0" cx="405" cy="76" r="2"/>
	<circle class="st0" cx="412" cy="76" r="2"/>
	<circle class="st0" cx="419" cy="76" r="2"/>
	<circle class="st0" cx="426" cy="76" r="2"/>
	<circle class="st0" cx="433" cy="76" r="2"/>
	<circle class="st0" cx="440" cy="76" r="2"/>
	<circle class="st0" cx="447" cy="76" r="2"/>
	<circle class="st0" cx="356" cy="84" r="2"/>
	<circle class="st0" cx="363" cy="84" r="2"/>
	<circle class="st0" cx="370" cy="84" r="2"/>
	<circle class="st0" cx="377" cy="84" r="2"/>
	<circle class="st0" cx="384" cy="84" r="2"/>
	<circle class="st0" cx="391" cy="84" r="2"/>
	<circle class="st0" cx="398" cy="84" r="2"/>
	<circle class="st0" cx="405" cy="84" r="2"/>
	<circle class="st0" cx="412" cy="84" r="2"/>
	<circle class="st0" cx="419" cy="84" r="2"/>
	<circle class="st0" cx="426" cy="84" r="2"/>
	<circle class="st0" cx="433" cy="84" r="2"/>
	<circle class="st0" cx="440" cy="84" r="2"/>
	<circle class="st0" cx="447" cy="84" r="2"/>
	<circle class="st0" cx="356" cy="92" r="2"/>
	<circle class="st0" cx="363" cy="92" r="2"/>
	<circle class="st0" cx="370" cy="92" r="2"/>
	<circle class="st0" cx="377" cy="92" r="2"/>
	<circle class="st0" cx="384" cy="92" r="2"/>
	<circle class="st0" cx="391" cy="92" r="2"/>
	<circle class="st0" cx="398" cy="92" r="2"/>
	<circle class="st0" cx="405" cy="92" r="2"/>
	<circle class="st0" cx="412" cy="92" r="2"/>
	<circle class="st0" cx="419" cy="92" r="2"/>
	<circle class="st0" cx="426" cy="92" r="2"/>
	<circle class="st0" cx="433" cy="92" r="2"/>
	<circle class="st0" cx="440" cy="92" r="2"/>
	<circle class="st0" cx="447" cy="92" r="2"/>
	<circle class="st0" cx="356" cy="100" r="2"/>
	<circle class="st0" cx="363" cy="100" r="2"/>
	<circle class="st0" cx="370" cy="100" r="2"/>
	<circle class="st0" cx="377" cy="100" r="2"/>
	<circle class="st0" cx="384" cy="100" r="2"/>
	<circle class="st0" cx="391" cy="100" r="2"/>
	<circle class="st0" cx="398" cy="100" r="2"/>
	<circle class="st0" cx="405" cy="100" r="2"/>
	<circle class="st0" cx="412" cy="100" r="2"/>
	<circle class="st0" cx="419" cy="100" r="2"/>
	<circle class="st0" cx="426" cy="100" r="2"/>
	<circle class="st0" cx="433" cy="100" r="2"/>
	<circle class="st0" cx="440" cy="100" r="2"/>
	<circle class="st0" cx="447" cy="100" r="2"/>
	<circle class="st0" cx="356" cy="108" r="2"/>
	<circle class="st0" cx="363" cy="108" r="2"/>
	<circle class="st0" cx="370" cy="108" r="2"/>
	<circle class="st0" cx="377" cy="108" r="2"/>
	<circle class="st0" cx="384" cy="108" r="2"/>
	<circle class="st0" cx="391" cy="108" r="2"/>
	<circle class="st0" cx="398" cy="108" r="2"/>
	<circle class="st0" cx="405" cy="108" r="2"/>
	<circle class="st0" cx="412" cy="108" r="2"/>
	<circle class="st0" cx="419" cy="108" r="2"/>
	<circle class="st0" cx="426" cy="108" r="2"/>
	<circle class="st0" cx="433" cy="108" r="2"/>
	<circle class="st0" cx="440" cy="108" r="2"/>
	<circle class="st0" cx="447" cy="108" r="2"/>
	<circle class="st0" cx="356" cy="116" r="2"/>
	<circle class="st0" cx="363" cy="116" r="2"/>
	<circle class="st0" cx="370" cy="116" r="2"/>
	<circle class="st0" cx="377" cy="116" r="2"/>
	<circle class="st0" cx="384" cy="116" r="2"/>
	<circle class="st0" cx="391" cy="116" r="2"/>
	<circle class="st0" cx="398" cy="116" r="2"/>
	<circle class="st0" cx="405" cy="116" r="2"/>
	<circle class="st0" cx="412" cy="116" r="2"/>
	<circle class="st0" cx="419" cy="116" r="2"/>
	<circle class="st0" cx="426" cy="116" r="2"/>
	<circle class="st0" cx="433" cy="116" r="2"/>
	<circle class="st0" cx="440" cy="116" r="2"/>
	<circle class="st0" cx="447" cy="116" r="2"/>
	<circle class="st0" cx="356" cy="124" r="2"/>
	<circle class="st0" cx="363" cy="124" r="2"/>
	<circle class="st0" cx="370" cy="124" r="2"/>
	<circle class="st0" cx="377" cy="124" r="2"/>
	<circle class="st0" cx="384" cy="124" r="2"/>
	<circle class="st0" cx="391" cy="124" r="2"/>
	<circle class="st0" cx="398" cy="124" r="2"/>
	<circle class="st0" cx="405" cy="124" r="2"/>
	<circle class="st0" cx="412" cy="124" r="2"/>
	<circle class="st0" cx="419" cy="124" r="2"/>
	<circle class="st0" cx="426" cy="124" r="2"/>
	<circle class="st0" cx="433" cy="124" r="2"/>
	<circle class="st0" cx="440" cy="124" r="2"/>
	<circle class="st0" cx="447" cy="124" r="2"/>
	<circle class="st0" cx="356" cy="132" r="2"/>
	<circle class="st0" cx="363" cy="132" r="2"/>
	<circle class="st0" cx="370" cy="132" r="2"/>
	<circle class="st0" cx="377" cy="132" r="2"/>
	<circle class="st0" cx="384" cy="132" r="2"/>
	<circle class="st0" cx="391" cy="132" r="2"/>
	<circle class="st0" cx="398" cy="132" r="2"/>
	<circle class="st0" cx="405" cy="132" r="2"/>
	<circle class="st0" cx="412" cy="132" r="2"/>
	<circle class="st0" cx="419" cy="132" r="2"/>
	<circle class="st0" cx="426" cy="132" r="2"/>
	<circle class="st0" cx="433" cy="132" r="2"/>
	<circle class="st0" cx="440" cy="132" r="2"/>
	<circle class="st0" cx="447" cy="132" r="2"/>
	<circle class="st0" cx="356" cy="140" r="2"/>
	<circle class="st0" cx="363" cy="140" r="2"/>
	<circle class="st0" cx="370" cy="140" r="2"/>
	<circle class="st0" cx="377" cy="140" r="2"/>
	<circle class="st0" cx="384" cy="140" r="2"/>
	<circle class="st0" cx="391" cy="140" r="2"/>
	<circle class="st0" cx="398" cy="140" r="2"/>
	<circle class="st0" cx="405" cy="140" r="2"/>
	<circle class="st0" cx="412" cy="140" r="2"/>
	<circle class="st0" cx="419" cy="140" r="2"/>
	<circle class="st0" cx="426" cy="140" r="2"/>
	<circle class="st0" cx="433" cy="140" r="2"/>
	<circle class="st0" cx="440" cy="140" r="2"/>
	<circle class="st0" cx="447" cy="140" r="2"/>
	<circle class="st0" cx="356" cy="148" r="2"/>
	<circle class="st0" cx="363" cy="148" r="2"/>
	<circle class="st0" cx="370" cy="148" r="2"/>
	<circle class="st0" cx="377" cy="148" r="2"/>
	<circle class="st0" cx="384" cy="148" r="2"/>
	<circle class="st0" cx="391" cy="148" r="2"/>
	<circle class="st0" cx="398" cy="148" r="2"/>
	<circle class="st0" cx="405" cy="148" r="2"/>
	<circle class="st0" cx="412" cy="148" r="2"/>
	<circle class="st0" cx="419" cy="148" r="2"/>
	<circle class="st0" cx="426" cy="148" r="2"/>
	<circle class="st0" cx="433" cy="148" r="2"/>
	<circle class="st0" cx="440" cy="148" r="2"/>
	<circle class="st0" cx="447" cy="148" r="2"/>
	<circle class="st0" cx="356" cy="156" r="2"/>
	<circle class="st0" cx="363" cy="156" r="2"/>
	<circle class="st0" cx="370" cy="156" r="2"/>
	<circle class="st0" cx="377" cy="156" r="2"/>
	<circle class="st0" cx="384" cy="156" r="2"/>
	<circle class="st0" cx="391" cy="156" r="2"/>
	<circle class="st0" cx="398" cy="156" r="2"/>
	<circle class="st0" cx="405" cy="156" r="2"/>
	<circle class="st0" cx="412" cy="156" r="2"/>
	<circle class="st0" cx="419" cy="156" r="2"/>
	<circle class="st0" cx="426" cy="156" r="2"/>
	<circle class="st0" cx="433" cy="156" r="2"/>
	<circle class="st0" cx="440" cy="156" r="2"/>
	<circle class="st0" cx="447" cy="156" r="2"/>
</g>
<g>
	<g>
		
			<image style="overflow:visible;opacity:0.12;" width="382" height="412" xlink:href="B057E2DE.png"  transform="matrix(1 0 0 1 61 51)">
		</image>
		<g>
			<path class="st1" d="M97.7,431.5c-7.6,0-13.7-6.2-13.7-13.7V82.2c0-7.6,6.2-13.7,13.7-13.7h304.5c7.6,0,13.7,6.2,13.7,13.7v335.5
				c0,7.6-6.2,13.7-13.7,13.7H97.7z"/>
			<g>
				<path class="st2" d="M402.3,69c7.3,0,13.2,5.9,13.2,13.2v335.5c0,7.3-5.9,13.2-13.2,13.2H97.7c-7.3,0-13.2-5.9-13.2-13.2V82.2
					c0-7.3,5.9-13.2,13.2-13.2H402.3 M402.3,68H97.7c-7.9,0-14.2,6.4-14.2,14.2v335.5c0,7.9,6.4,14.2,14.2,14.2h304.5
					c7.9,0,14.2-6.4,14.2-14.2V82.2C416.5,74.4,410.1,68,402.3,68L402.3,68z"/>
			</g>
		</g>
	</g>
	<g>
		
			<image style="overflow:visible;opacity:0.12;" width="109" height="108" xlink:href="B057E2D8.png"  transform="matrix(1 0 0 1 85 81)">
		</image>
		<g>
			<circle class="st1" cx="137.5" cy="128" r="29.5"/>
			<path class="st2" d="M137.5,99c16,0,29,13,29,29s-13,29-29,29s-29-13-29-29S121.5,99,137.5,99 M137.5,98c-16.6,0-30,13.4-30,30
				s13.4,30,30,30s30-13.4,30-30S154.1,98,137.5,98L137.5,98z"/>
		</g>
	</g>
	<g>
		<g>
			<g>
				<path class="st3" d="M151.9,128.4c0,1.5-1,2.7-2.2,2.7c-1.2,0-2.2-1.2-2.2-2.7c0-1.5,1-2.2,2.2-2.2
					C150.9,126.2,151.9,126.9,151.9,128.4z"/>
			</g>
			<g>
				<path class="st4" d="M149.7,131.5c-1.4,0-2.5-1.4-2.5-3.1c0-1.6,1-2.6,2.5-2.6s2.5,1,2.5,2.6
					C152.2,130.1,151.1,131.5,149.7,131.5z M149.7,126.6c-1.1,0-1.8,0.7-1.8,1.9c0,1.3,0.8,2.4,1.8,2.4s1.8-1.1,1.8-2.4
					C151.5,127.3,150.9,126.6,149.7,126.6z"/>
			</g>
		</g>
		<g>
			<g>
				<path class="st3" d="M127.4,128.4c0,1.5-1,2.7-2.2,2.7c-1.2,0-2.2-1.2-2.2-2.7c0-1.5,1-2.2,2.2-2.2
					C126.4,126.2,127.4,126.9,127.4,128.4z"/>
			</g>
			<g>
				<path class="st4" d="M125.2,131.5c-1.4,0-2.5-1.4-2.5-3.1c0-1.6,1-2.6,2.5-2.6s2.5,1,2.5,2.6
					C127.7,130.1,126.6,131.5,125.2,131.5z M125.2,126.6c-1.1,0-1.8,0.7-1.8,1.9c0,1.3,0.8,2.4,1.8,2.4c1,0,1.8-1.1,1.8-2.4
					C127,127.3,126.4,126.6,125.2,126.6z"/>
			</g>
		</g>
		<g>
			<path class="st5" d="M149.8,124.1c0,14.6-5.1,20.9-12.3,20.9s-12.5-5.8-12.5-20.9c0-9,5.3-10.9,12.5-10.9
				S149.8,115.1,149.8,124.1z"/>
		</g>
		<g>
			<path class="st4" d="M137.5,145.3c-4,0-7.1-1.7-9.3-5c-2.4-3.6-3.6-9.1-3.6-16.3c0-9.9,6.5-11.3,12.9-11.3
				c6.6,0,12.7,1.4,12.7,11.3C150.1,137.8,145.6,145.3,137.5,145.3z M137.5,113.5c-4.1,0-6.9,0.6-8.8,2c-2.3,1.6-3.4,4.5-3.4,8.6
				c0,17,6.6,20.5,12.2,20.5c7.7,0,12-7.3,12-20.5C149.4,115.3,144.7,113.5,137.5,113.5z"/>
		</g>
		<g>
			<path class="st6" d="M137.2,131.3c4.9,0,6,3,8.2,3s3.8-3.2,3.8-3.2s1.4,16.7-11.6,16.7c-13.1,0-12.1-16.5-12.1-16.5s0.6,3,3.4,3
				C131.7,134.4,132,131.3,137.2,131.3z"/>
		</g>
		<g>
			<path class="st4" d="M137.6,148.1c-3.4,0-6.3-1.1-8.3-3.3c-2.4-2.5-3.4-6.1-3.8-8.6c-0.4-2.7-0.3-4.8-0.3-4.9
				c0-0.2,0.1-0.3,0.3-0.3c0.2,0,0.3,0.1,0.4,0.3c0,0.1,0.6,2.8,3.1,2.8c1.1,0,1.7-0.5,2.5-1.1c1.2-0.9,2.6-1.9,5.7-1.9
				c3,0,4.6,1.1,5.9,2c0.8,0.6,1.5,1,2.3,1c2,0,3.5-3,3.5-3.1c0.1-0.1,0.2-0.2,0.4-0.2c0.2,0,0.3,0.2,0.3,0.3c0,0.1,0.2,2.2-0.2,5
				c-0.3,2.6-1.2,6.2-3.6,8.7C143.8,147,141,148.1,137.6,148.1z M125.9,133c0.1,2.7,0.8,8,3.9,11.3c2,2.1,4.6,3.1,7.8,3.1
				c3.2,0,5.8-1,7.7-3.1c3.3-3.6,3.7-9.6,3.6-12c-0.7,1-1.9,2.4-3.5,2.4c-1,0-1.8-0.5-2.7-1.2c-1.2-0.8-2.7-1.9-5.5-1.9
				c-2.9,0-4.2,1-5.3,1.8c-0.9,0.6-1.7,1.2-2.9,1.2C127.4,134.7,126.4,133.8,125.9,133z"/>
		</g>
		<g>
			<g>
				<path class="st3" d="M141.8,136.9c-0.5,1.6-2.3,1.6-4.3,1.6s-4.3,0.2-4.7-1.4c-0.5-1.8,2.8-2,4.7-2S142.3,135.2,141.8,136.9z"/>
			</g>
			<g>
				<path class="st4" d="M136.3,138.8c-1.6,0-3.4-0.1-3.9-1.7c-0.1-0.5-0.1-0.9,0.2-1.3c0.6-0.8,2.2-1.2,4.9-1.2
					c1.8,0,3.8,0.1,4.5,1.1c0.2,0.2,0.4,0.7,0.2,1.3c-0.6,1.8-2.6,1.8-4.5,1.8h-0.1c-0.2,0-0.4,0-0.6,0
					C136.7,138.8,136.5,138.8,136.3,138.8z M137.5,135.4c-3,0-4,0.5-4.3,0.9c-0.1,0.2-0.2,0.4-0.1,0.7c0.3,1,1.4,1.2,3.2,1.2
					c0.2,0,0.4,0,0.6,0c0.2,0,0.4,0,0.6,0h0.1c2.1,0,3.4-0.1,3.8-1.3c0.1-0.4,0-0.5-0.1-0.6C140.8,135.4,138.3,135.4,137.5,135.4z"
					/>
			</g>
		</g>
		<g>
			<path class="st4" d="M129.7,127.4c-0.1,0-0.2,0-0.3-0.1c-0.1-0.1-0.1-0.4,0-0.5c0.5-0.5,1.2-0.7,1.9-0.6c0.5,0.1,1,0.3,1.3,0.7
				c0.1,0.2,0.1,0.4-0.1,0.5c-0.2,0.1-0.4,0.1-0.5-0.1c-0.2-0.2-0.4-0.3-0.8-0.4c-0.5,0-1,0.1-1.3,0.5
				C129.9,127.4,129.8,127.4,129.7,127.4z"/>
		</g>
		<g>
			<path class="st4" d="M145,127.4c-0.1,0-0.2,0-0.2-0.1c-0.4-0.3-0.9-0.5-1.4-0.5c-0.4,0-0.8,0.2-1,0.4c-0.1,0.1-0.3,0.2-0.5,0
				c-0.1-0.1-0.2-0.3,0-0.5c0.3-0.4,0.9-0.6,1.5-0.6c0.7,0,1.4,0.2,1.9,0.6c0.1,0.1,0.2,0.3,0,0.5
				C145.2,127.4,145.1,127.4,145,127.4z"/>
		</g>
		<g>
			<path class="st6" d="M134.1,106.2c4.6-1.2,9.4,1.9,11.7,4.8c1.9,2.4,4.1,1.7,5.8,4.3c1.7,2.6,0.6,7.5-0.7,9.5
				c-1.2,2.1-1.2,2.1-1.2,2.1s-1.6-6.4-4.1-7.5c-2.5-1.1-2.4,1.5-7.9,1.1c-5.5-0.4-7.3-3.7-8.7-3.2c-1.3,0.4-1.1,2.8-2.3,5.2
				c-1.1,2.4-1.8,4.4-1.8,4.4s-3.7-7-2.2-10.9c1.1-3,3.3-1.9,4.8-3.9C129.1,110.1,130.9,107.1,134.1,106.2z"/>
		</g>
		<g>
			<path class="st4" d="M125,127.2c-0.1,0-0.2-0.1-0.3-0.2c-0.2-0.3-3.7-7.2-2.2-11.2c0.7-1.9,1.8-2.3,2.9-2.7
				c0.7-0.3,1.4-0.5,2-1.3c0.2-0.3,0.4-0.6,0.7-0.9c1.4-1.9,3.2-4.3,6.1-5.1c0.7-0.2,1.5-0.3,2.2-0.3c4,0,7.8,2.6,9.8,5.2
				c0.8,1.1,1.7,1.5,2.7,1.9c1.1,0.5,2.2,1,3.1,2.4c1.8,2.8,0.6,7.9-0.6,9.9l-1.2,2.1c-0.1,0.1-0.2,0.2-0.3,0.2
				c-0.1,0-0.3-0.1-0.3-0.3c-0.4-1.7-2-6.4-3.9-7.2c-0.4-0.2-0.7-0.2-1-0.2c-0.4,0-0.8,0.2-1.3,0.4c-0.9,0.4-2,1-4.3,1
				c-0.4,0-0.8,0-1.2-0.1c-3.4-0.3-5.5-1.6-6.9-2.5c-0.8-0.5-1.3-0.9-1.7-0.7c-0.6,0.2-0.8,1.1-1.1,2.2c-0.2,0.8-0.5,1.8-0.9,2.8
				c-1.1,2.3-1.8,4.4-1.8,4.4C125.3,127.1,125.2,127.2,125,127.2C125,127.2,125,127.2,125,127.2z M144.5,118.8
				c0.4,0,0.8,0.1,1.2,0.3c2.1,0.9,3.5,5.1,4.1,6.9l0.8-1.4c1.1-1.9,2.3-6.6,0.7-9.2c-0.8-1.3-1.8-1.7-2.8-2.2c-1-0.5-2-0.9-2.9-2.1
				c-1.9-2.4-5.5-4.9-9.3-4.9c-0.7,0-1.4,0.1-2,0.3c-2.6,0.7-4.3,3-5.7,4.8c-0.2,0.3-0.5,0.6-0.7,0.9c-0.7,0.9-1.5,1.2-2.3,1.5
				c-1,0.4-1.9,0.7-2.5,2.3c-1.1,3,0.9,8,1.8,9.9c0.3-0.8,0.8-2.2,1.5-3.7c0.4-0.9,0.7-1.8,0.9-2.7c0.3-1.3,0.6-2.4,1.6-2.7
				c0.1,0,0.2-0.1,0.4-0.1c0.6,0,1.1,0.4,1.9,0.9c1.3,0.9,3.3,2.1,6.5,2.4c0.4,0,0.8,0,1.2,0c2.1,0,3.1-0.5,4-0.9
				C143.4,119,143.9,118.8,144.5,118.8z"/>
		</g>
		<g>
			<path class="st4" d="M137.3,132.2c-0.1,0-0.3,0-0.4,0c-0.9-0.1-1.3-0.8-1.3-0.8c-0.1-0.2,0-0.4,0.1-0.5c0.2-0.1,0.4,0,0.5,0.1
				c0,0,0.2,0.4,0.8,0.5c0.6,0.1,1,0,1.2-0.3c0.1-0.2,0.1-0.4,0-0.7c-0.5-0.8-1.3-3.4-1.1-4.3c0.1-0.2,0.2-0.3,0.4-0.2
				c0.2,0.1,0.3,0.2,0.2,0.4c-0.2,0.6,0.5,2.9,1,3.7c0.3,0.5,0.3,1,0,1.4C138.4,132,137.9,132.2,137.3,132.2z"/>
		</g>
		<g>
			<path class="st4" d="M137.3,137.5c-1,0-1.8-0.3-2.2-0.9c-0.1-0.2-0.1-0.4,0.1-0.5c0.2-0.1,0.4-0.1,0.5,0.1
				c0.3,0.4,0.9,0.6,1.6,0.6c0,0,0,0,0,0c0.8,0,1.7-0.3,1.9-0.7c0.1-0.2,0.3-0.2,0.5-0.1c0.2,0.1,0.2,0.3,0.1,0.5
				C139.3,137.2,138.2,137.5,137.3,137.5C137.3,137.5,137.3,137.5,137.3,137.5z"/>
		</g>
		<g>
			<path class="st4" d="M130.1,114.7c0,0,0.1,0,0.2,0.1c0.1,0,0.1,0.1,0.2,0.2c0.1,0.1,0.2,0.1,0.3,0.2c0.1,0.1,0.2,0.2,0.3,0.2
				c0.1,0.1,0.2,0.2,0.4,0.2c0.1,0.1,0.3,0.2,0.4,0.3c0.1,0.1,0.3,0.2,0.4,0.3c0.1,0.1,0.3,0.2,0.4,0.3c0.1,0.1,0.3,0.2,0.4,0.2
				c0.1,0,0.1,0.1,0.2,0.1c0.1,0,0.1,0.1,0.2,0.1c0.1,0.1,0.2,0.1,0.4,0.2c0.1,0.1,0.2,0.1,0.3,0.2c0.1,0,0.2,0.1,0.2,0.1
				c0.1,0.1,0.2,0.1,0.2,0.1s-0.1,0-0.2,0c-0.1,0-0.2,0-0.3,0c-0.1,0-0.2,0-0.4,0c-0.1,0-0.3-0.1-0.4-0.1c-0.1,0-0.1,0-0.2-0.1
				c-0.1,0-0.1-0.1-0.2-0.1c-0.2-0.1-0.3-0.1-0.5-0.2c-0.2-0.1-0.3-0.2-0.5-0.3c-0.2-0.1-0.3-0.2-0.4-0.3c-0.1-0.1-0.3-0.2-0.4-0.3
				c-0.1-0.1-0.2-0.2-0.3-0.3c-0.1-0.1-0.2-0.2-0.3-0.3c-0.1-0.1-0.2-0.2-0.2-0.3c-0.1-0.1-0.1-0.2-0.1-0.2
				C130.1,114.7,130.1,114.7,130.1,114.7z"/>
		</g>
		<g>
			<path class="st4" d="M147.9,119.6c0,0,0,0-0.1-0.1c0,0-0.1-0.1-0.1-0.2c0-0.1-0.1-0.1-0.1-0.2c0-0.1-0.1-0.1-0.1-0.2
				c0-0.1-0.1-0.2-0.2-0.3c-0.1-0.1-0.1-0.2-0.2-0.3c-0.1-0.1-0.1-0.2-0.2-0.3c-0.1-0.1-0.1-0.2-0.2-0.3c0-0.1-0.1-0.2-0.2-0.3
				c-0.1-0.1-0.1-0.2-0.1-0.3c0-0.1-0.1-0.2-0.1-0.2c0-0.1-0.1-0.1-0.1-0.2c0-0.1-0.1-0.1-0.1-0.2c-0.1-0.1-0.1-0.2-0.1-0.2
				s0.1,0,0.2,0c0.1,0,0.1,0,0.2,0.1c0,0,0.1,0,0.1,0c0,0,0.1,0,0.1,0.1c0.1,0,0.2,0.1,0.2,0.2c0.1,0.1,0.2,0.1,0.2,0.2
				c0.1,0.1,0.2,0.2,0.2,0.3c0.1,0.1,0.1,0.2,0.2,0.3c0.1,0.2,0.2,0.4,0.3,0.6c0,0.1,0.1,0.2,0.1,0.3c0,0.1,0,0.2,0,0.3
				c0,0.2,0,0.3,0,0.4C147.9,119.5,147.9,119.6,147.9,119.6z"/>
		</g>
	</g>
	<g>
		<path d="M187.1,123.5H185v-4.6h-5.6v4.6h-2.1v-11.3h2.1v4.8h5.6v-4.8h2.1V123.5z"/>
		<path d="M196.9,120.2h-6.2c0.1,0.5,0.3,0.9,0.7,1.2c0.4,0.3,1,0.5,1.6,0.5c0.4,0,0.8-0.1,1.2-0.2c0.4-0.1,0.7-0.3,0.9-0.5l1.3,1.2
			c-0.4,0.4-0.9,0.7-1.5,1c-0.6,0.2-1.3,0.3-1.9,0.3c-1.4,0-2.4-0.4-3.2-1.2c-0.8-0.8-1.2-1.8-1.2-3.1c0-1.2,0.4-2.2,1.2-3
			c0.8-0.8,1.8-1.2,3.1-1.2c1.4,0,2.4,0.4,3.1,1.3S197,118.6,196.9,120.2z M190.7,118.6h4.3c-0.1-0.5-0.3-0.9-0.6-1.2
			c-0.4-0.3-0.8-0.4-1.4-0.4c-0.5,0-1,0.1-1.4,0.4C191.1,117.7,190.8,118.1,190.7,118.6z"/>
		<path d="M206.2,123.5h-2v-4.2c0-0.6-0.2-1.1-0.5-1.5s-0.8-0.6-1.4-0.6c-0.6,0-1.1,0.2-1.5,0.6c-0.4,0.4-0.6,1-0.6,1.6v4.1h-2v-8
			h1.8l0.1,1.1c0.8-0.8,1.7-1.2,2.6-1.2c1,0,1.8,0.3,2.4,1s1,1.6,1,2.9V123.5z"/>
		<path d="M207.9,115.5h1.8l0.1,0.9c0.3-0.5,0.6-0.8,1-0.9c0.4-0.2,0.8-0.2,1.3-0.2c0.9,0,1.5,0.3,2,0.8l-0.9,1.7
			c-0.4-0.3-0.9-0.5-1.4-0.5c-0.6,0-1,0.2-1.4,0.5c-0.4,0.3-0.6,0.8-0.6,1.5v4.2h-2V115.5z"/>
		<path d="M221.3,115.5h2.2l-4.9,11.3h-2.2l1.5-3.5l-3.2-7.8h2.3l1.2,3.4l0.8,2.2l0.8-2.2L221.3,115.5z"/>
		<path d="M237.9,123.3v0.1h-2.5l-3.3-3.8h-2v3.8h-2.1v-11.3c0.6,0,1.5,0,2.7,0s2.1,0,2.7,0c1.3,0,2.3,0.4,3,1.1
			c0.7,0.7,1.1,1.6,1.1,2.6c0,0.9-0.2,1.6-0.7,2.3c-0.5,0.7-1.2,1.1-2.2,1.3L237.9,123.3z M233.3,114.2H230v3.6h3.2
			c0.6,0,1.1-0.2,1.4-0.5s0.5-0.8,0.5-1.3c0-0.5-0.2-0.9-0.5-1.3C234.4,114.4,233.9,114.2,233.3,114.2z"/>
		<path d="M239.4,116.6c0.8-0.8,1.7-1.2,3-1.2s2.2,0.4,3,1.2c0.8,0.8,1.2,1.8,1.2,3c0,1.2-0.4,2.2-1.1,3c-0.8,0.8-1.8,1.2-3,1.2
			s-2.3-0.4-3-1.2c-0.7-0.8-1.1-1.8-1.1-3C238.3,118.3,238.6,117.4,239.4,116.6z M242.4,117.2c-0.7,0-1.2,0.2-1.6,0.7
			c-0.4,0.5-0.6,1-0.6,1.7s0.2,1.2,0.6,1.7c0.4,0.5,0.9,0.7,1.6,0.7c0.7,0,1.2-0.2,1.6-0.7c0.4-0.5,0.6-1,0.6-1.7
			c0-0.6-0.2-1.2-0.6-1.6C243.6,117.4,243,117.2,242.4,117.2z"/>
		<path d="M253.4,115.7l0.8-1l1.5,1.1l-0.9,1.1c0.6,0.6,0.8,1.4,0.8,2.4c0,0.6-0.1,1.2-0.4,1.7c-0.3,0.6-0.7,1-1.3,1.2
			c1.1,0.5,1.6,1.4,1.6,2.6c0,1.1-0.4,1.9-1.1,2.6s-1.7,1-2.9,1s-2.1-0.3-2.9-1c-0.8-0.7-1.1-1.5-1.1-2.6h2c0,0.5,0.2,0.9,0.6,1.2
			s0.9,0.5,1.5,0.5s1.1-0.2,1.4-0.5s0.6-0.7,0.6-1.3c0-0.5-0.2-0.9-0.6-1.2s-0.9-0.4-1.4-0.4c-1.2,0-2.2-0.4-3-1.1
			c-0.7-0.7-1.1-1.7-1.1-2.9c0-1.2,0.4-2.2,1.2-2.9c0.8-0.7,1.7-1.1,2.9-1.1C252.3,115.3,252.9,115.4,253.4,115.7z M251.5,117.1
			c-0.6,0-1.1,0.2-1.5,0.6c-0.4,0.4-0.6,1-0.6,1.6s0.2,1.2,0.6,1.6c0.4,0.4,0.9,0.6,1.5,0.6c0.6,0,1.1-0.2,1.5-0.6
			c0.4-0.4,0.6-0.9,0.6-1.6s-0.2-1.2-0.6-1.6C252.6,117.3,252.1,117.1,251.5,117.1z"/>
		<path d="M264.7,120.2h-6.2c0.1,0.5,0.3,0.9,0.7,1.2c0.4,0.3,1,0.5,1.6,0.5c0.4,0,0.8-0.1,1.2-0.2c0.4-0.1,0.7-0.3,0.9-0.5l1.3,1.2
			c-0.4,0.4-0.9,0.7-1.5,1s-1.3,0.3-1.9,0.3c-1.4,0-2.4-0.4-3.2-1.2c-0.8-0.8-1.2-1.8-1.2-3.1c0-1.2,0.4-2.2,1.2-3
			c0.8-0.8,1.8-1.2,3.1-1.2c1.4,0,2.4,0.4,3.1,1.3C264.6,117.4,264.9,118.6,264.7,120.2z M258.5,118.6h4.3c-0.1-0.5-0.3-0.9-0.6-1.2
			c-0.4-0.3-0.8-0.4-1.4-0.4c-0.5,0-1,0.1-1.4,0.4C258.9,117.7,258.7,118.1,258.5,118.6z"/>
		<path d="M266.2,115.5h1.8l0.1,0.9c0.3-0.5,0.6-0.8,1-0.9c0.4-0.2,0.8-0.2,1.3-0.2c0.9,0,1.5,0.3,2,0.8l-0.9,1.7
			c-0.4-0.3-0.9-0.5-1.4-0.5c-0.6,0-1,0.2-1.4,0.5c-0.4,0.3-0.6,0.8-0.6,1.5v4.2h-2V115.5z"/>
		<path d="M279.5,116.4l-1.1,1.3c-0.5-0.5-1.2-0.7-2-0.7c-1,0-1.5,0.3-1.5,0.8c0,0.5,0.5,0.8,1.5,0.9c0.4,0,0.7,0.1,0.9,0.1
			s0.6,0.1,0.9,0.2c0.3,0.1,0.6,0.3,0.8,0.4c0.2,0.2,0.4,0.4,0.5,0.7c0.1,0.3,0.2,0.7,0.2,1.1c0,0.7-0.3,1.4-0.9,1.9
			c-0.6,0.5-1.4,0.8-2.5,0.8c-0.7,0-1.4-0.1-2-0.3s-1.2-0.6-1.7-1.1l1-1.4c0.3,0.3,0.7,0.6,1.2,0.8c0.5,0.2,1.1,0.3,1.5,0.3
			c0.4,0,0.7-0.1,1-0.3c0.3-0.2,0.4-0.4,0.4-0.7c0-0.3-0.1-0.5-0.4-0.6c-0.2-0.1-0.6-0.2-1.2-0.2c-0.4,0-0.8-0.1-1.2-0.2
			c-0.4-0.1-0.7-0.2-1-0.4c-0.3-0.2-0.6-0.4-0.8-0.8c-0.2-0.3-0.3-0.7-0.3-1.1c0-0.4,0.1-0.8,0.3-1.2c0.2-0.3,0.5-0.6,0.8-0.8
			s0.7-0.3,1.1-0.4c0.4-0.1,0.8-0.1,1.1-0.1C277.7,115.3,278.7,115.7,279.5,116.4z"/>
	</g>
	<g>
		<path class="st7" d="M177.2,138.5c0.4,0.2,1,0.5,1.6,0.5c0.9,0,1.3-0.4,1.3-1c0-0.6-0.4-0.9-1.2-1.2c-1.2-0.4-1.8-1.1-1.8-1.9
			c0-1.1,0.9-1.9,2.3-1.9c0.7,0,1.3,0.2,1.6,0.4l-0.3,0.9c-0.3-0.2-0.7-0.4-1.4-0.4c-0.7,0-1.1,0.4-1.1,0.9c0,0.5,0.4,0.8,1.3,1.1
			c1.1,0.4,1.7,1,1.7,2c0,1.2-0.9,2-2.5,2c-0.7,0-1.4-0.2-1.9-0.5L177.2,138.5z"/>
		<path class="st7" d="M182.8,130h1.2v4.1h0c0.2-0.3,0.5-0.6,0.9-0.9c0.4-0.2,0.8-0.3,1.2-0.3c0.9,0,2.3,0.5,2.3,2.8v4h-1.2v-3.8
			c0-1.1-0.4-2-1.5-2c-0.8,0-1.4,0.6-1.6,1.2c-0.1,0.2-0.1,0.4-0.1,0.6v4h-1.2V130z"/>
		<path class="st7" d="M194.1,139.8l-0.1-0.8h0c-0.4,0.5-1.1,1-2,1c-1.3,0-2-1-2-1.9c0-1.6,1.4-2.5,4-2.5v-0.1
			c0-0.5-0.2-1.5-1.5-1.5c-0.6,0-1.3,0.2-1.7,0.5l-0.3-0.8c0.5-0.4,1.4-0.6,2.2-0.6c2,0,2.5,1.4,2.5,2.7v2.5c0,0.6,0,1.1,0.1,1.6
			H194.1z M193.9,136.4c-1.3,0-2.8,0.2-2.8,1.5c0,0.8,0.5,1.2,1.1,1.2c0.9,0,1.4-0.6,1.6-1.1c0-0.1,0.1-0.3,0.1-0.4V136.4z"/>
		<path class="st7" d="M197,135.2c0-0.8,0-1.5-0.1-2.1h1.1l0,1.3h0c0.3-0.9,1-1.5,1.8-1.5c0.1,0,0.2,0,0.3,0v1.1c-0.1,0-0.2,0-0.4,0
			c-0.9,0-1.5,0.6-1.6,1.5c0,0.2,0,0.4,0,0.6v3.5H197V135.2z"/>
		<path class="st7" d="M202.1,136.7c0,1.6,1.1,2.3,2.3,2.3c0.9,0,1.4-0.2,1.8-0.3l0.2,0.9c-0.4,0.2-1.2,0.4-2.2,0.4
			c-2,0-3.3-1.4-3.3-3.4c0-2,1.2-3.6,3.1-3.6c2.2,0,2.7,1.9,2.7,3.1c0,0.3,0,0.4,0,0.6H202.1z M205.6,135.8c0-0.8-0.3-2-1.7-2
			c-1.2,0-1.8,1.1-1.9,2H205.6z"/>
		<path class="st7" d="M214,130v8c0,0.6,0,1.3,0.1,1.7H213l-0.1-1.1h0c-0.4,0.7-1.2,1.3-2.3,1.3c-1.6,0-2.9-1.4-2.9-3.4
			c0-2.2,1.4-3.6,3-3.6c1,0,1.7,0.5,2,1h0v-4H214z M212.8,135.8c0-0.2,0-0.4-0.1-0.5c-0.2-0.8-0.8-1.4-1.7-1.4c-1.3,0-2,1.1-2,2.6
			c0,1.3,0.7,2.5,2,2.5c0.8,0,1.5-0.5,1.8-1.5c0-0.2,0.1-0.3,0.1-0.5V135.8z"/>
		<path class="st7" d="M222.6,139.8l-0.1-0.8h0c-0.4,0.5-1.1,1-2,1c-1.3,0-2-1-2-1.9c0-1.6,1.4-2.5,4-2.5v-0.1
			c0-0.5-0.2-1.5-1.5-1.5c-0.6,0-1.3,0.2-1.7,0.5l-0.3-0.8c0.5-0.4,1.4-0.6,2.2-0.6c2,0,2.5,1.4,2.5,2.7v2.5c0,0.6,0,1.1,0.1,1.6
			H222.6z M222.4,136.4c-1.3,0-2.8,0.2-2.8,1.5c0,0.8,0.5,1.2,1.1,1.2c0.9,0,1.4-0.6,1.6-1.1c0-0.1,0.1-0.3,0.1-0.4V136.4z"/>
		<path class="st7" d="M228.5,134.9c0-0.7,0-1.2-0.1-1.8h1.1l0.1,1.1h0c0.3-0.6,1.1-1.2,2.2-1.2c0.9,0,2.3,0.5,2.3,2.8v4h-1.2v-3.8
			c0-1.1-0.4-2-1.5-2c-0.8,0-1.4,0.6-1.6,1.2c-0.1,0.1-0.1,0.4-0.1,0.6v4h-1.2V134.9z"/>
		<path class="st7" d="M236.8,136.7c0,1.6,1.1,2.3,2.3,2.3c0.9,0,1.4-0.2,1.8-0.3l0.2,0.9c-0.4,0.2-1.2,0.4-2.2,0.4
			c-2,0-3.3-1.4-3.3-3.4c0-2,1.2-3.6,3.1-3.6c2.2,0,2.7,1.9,2.7,3.1c0,0.3,0,0.4,0,0.6H236.8z M240.3,135.8c0-0.8-0.3-2-1.7-2
			c-1.2,0-1.8,1.1-1.9,2H240.3z"/>
		<path class="st7" d="M243.5,133.1l0.9,3.4c0.2,0.7,0.4,1.4,0.5,2.1h0c0.1-0.7,0.4-1.4,0.6-2.1l1.1-3.4h1l1,3.3
			c0.2,0.8,0.4,1.5,0.6,2.2h0c0.1-0.7,0.3-1.4,0.5-2.2l0.9-3.3h1.2l-2.1,6.6h-1.1l-1-3.2c-0.2-0.7-0.4-1.4-0.6-2.2h0
			c-0.2,0.8-0.4,1.5-0.6,2.2l-1.1,3.2h-1.1l-2-6.6H243.5z"/>
		<path class="st7" d="M261.7,130v8c0,0.6,0,1.3,0.1,1.7h-1.1l-0.1-1.1h0c-0.4,0.7-1.2,1.3-2.3,1.3c-1.6,0-2.9-1.4-2.9-3.4
			c0-2.2,1.4-3.6,3-3.6c1,0,1.7,0.5,2,1h0v-4H261.7z M260.5,135.8c0-0.2,0-0.4-0.1-0.5c-0.2-0.8-0.8-1.4-1.7-1.4c-1.3,0-2,1.1-2,2.6
			c0,1.3,0.7,2.5,2,2.5c0.8,0,1.5-0.5,1.8-1.5c0-0.2,0.1-0.3,0.1-0.5V135.8z"/>
		<path class="st7" d="M269.8,136.4c0,2.5-1.7,3.5-3.3,3.5c-1.8,0-3.2-1.3-3.2-3.4c0-2.2,1.5-3.5,3.3-3.5
			C268.5,133,269.8,134.3,269.8,136.4z M264.5,136.4c0,1.5,0.8,2.6,2,2.6c1.2,0,2-1.1,2-2.6c0-1.1-0.6-2.5-2-2.5
			C265.1,133.9,264.5,135.2,264.5,136.4z"/>
		<path class="st7" d="M276,139.5c-0.3,0.2-1,0.4-1.9,0.4c-2,0-3.3-1.4-3.3-3.4c0-2,1.4-3.5,3.6-3.5c0.7,0,1.4,0.2,1.7,0.4l-0.3,0.9
			c-0.3-0.2-0.7-0.3-1.4-0.3c-1.5,0-2.3,1.1-2.3,2.5c0,1.5,1,2.5,2.3,2.5c0.7,0,1.1-0.2,1.5-0.3L276,139.5z"/>
		<path class="st7" d="M283,137.9c0,0.7,0,1.3,0.1,1.8H282l-0.1-1.1h0c-0.3,0.5-1,1.2-2.2,1.2c-1,0-2.3-0.6-2.3-2.9v-3.9h1.2v3.7
			c0,1.3,0.4,2.1,1.5,2.1c0.8,0,1.4-0.6,1.6-1.1c0.1-0.2,0.1-0.4,0.1-0.6v-4.1h1.2V137.9z"/>
		<path class="st7" d="M285,134.9c0-0.7,0-1.2-0.1-1.8h1l0.1,1.1h0c0.4-0.6,1-1.2,2.1-1.2c0.9,0,1.6,0.5,1.9,1.3h0
			c0.2-0.4,0.5-0.7,0.7-0.9c0.4-0.3,0.8-0.5,1.5-0.5c0.9,0,2.2,0.6,2.2,2.9v3.9h-1.2V136c0-1.3-0.5-2-1.4-2c-0.7,0-1.2,0.5-1.4,1.1
			c-0.1,0.2-0.1,0.4-0.1,0.6v4.1h-1.2v-4c0-1.1-0.5-1.8-1.4-1.8c-0.8,0-1.3,0.6-1.5,1.2c-0.1,0.2-0.1,0.4-0.1,0.6v4H285V134.9z"/>
		<path class="st7" d="M297.2,136.7c0,1.6,1.1,2.3,2.3,2.3c0.9,0,1.4-0.2,1.8-0.3l0.2,0.9c-0.4,0.2-1.2,0.4-2.2,0.4
			c-2,0-3.3-1.4-3.3-3.4c0-2,1.2-3.6,3.1-3.6c2.2,0,2.7,1.9,2.7,3.1c0,0.3,0,0.4,0,0.6H297.2z M300.7,135.8c0-0.8-0.3-2-1.7-2
			c-1.2,0-1.8,1.1-1.9,2H300.7z"/>
		<path class="st7" d="M303.4,134.9c0-0.7,0-1.2-0.1-1.8h1.1l0.1,1.1h0c0.3-0.6,1.1-1.2,2.2-1.2c0.9,0,2.3,0.5,2.3,2.8v4h-1.2v-3.8
			c0-1.1-0.4-2-1.5-2c-0.8,0-1.4,0.6-1.6,1.2c0,0.1-0.1,0.4-0.1,0.6v4h-1.2V134.9z"/>
		<path class="st7" d="M312.4,131.2v1.9h1.7v0.9h-1.7v3.6c0,0.8,0.2,1.3,0.9,1.3c0.3,0,0.5,0,0.7-0.1l0.1,0.9
			c-0.2,0.1-0.6,0.2-1.1,0.2c-0.6,0-1-0.2-1.3-0.5c-0.3-0.4-0.5-1-0.5-1.7V134h-1v-0.9h1v-1.6L312.4,131.2z"/>
	</g>
	<g>
		<path class="st8" d="M177,155.3c0.2,0.1,0.8,0.4,1.4,0.4c1.1,0,1.4-0.7,1.4-1.2c0-0.9-0.8-1.2-1.6-1.2h-0.5v-0.6h0.5
			c0.6,0,1.4-0.3,1.4-1c0-0.5-0.3-0.9-1.1-0.9c-0.5,0-1,0.2-1.2,0.4l-0.2-0.6c0.3-0.2,1-0.5,1.6-0.5c1.2,0,1.8,0.7,1.8,1.5
			c0,0.6-0.4,1.2-1.1,1.5v0c0.8,0.1,1.4,0.7,1.4,1.6c0,1-0.8,1.9-2.3,1.9c-0.7,0-1.3-0.2-1.6-0.4L177,155.3z"/>
		<path class="st8" d="M185.8,153.1c0,2.1-0.8,3.3-2.1,3.3c-1.2,0-2-1.1-2-3.2c0-2.1,0.9-3.2,2.2-3.2
			C185,149.9,185.8,151.1,185.8,153.1z M182.4,153.1c0,1.6,0.5,2.5,1.3,2.5c0.9,0,1.3-1,1.3-2.6c0-1.5-0.4-2.5-1.3-2.5
			C182.9,150.6,182.4,151.5,182.4,153.1z"/>
		<path class="st8" d="M188.8,152.9c0-0.5,0-0.9,0-1.2h0.7l0,0.7h0c0.3-0.4,0.7-0.8,1.5-0.8c0.6,0,1.1,0.4,1.3,0.9h0
			c0.1-0.3,0.3-0.5,0.5-0.6c0.3-0.2,0.6-0.3,1-0.3c0.6,0,1.5,0.4,1.5,2v2.7h-0.8v-2.6c0-0.9-0.3-1.4-1-1.4c-0.5,0-0.8,0.3-1,0.8
			c0,0.1-0.1,0.3-0.1,0.4v2.8h-0.8v-2.8c0-0.7-0.3-1.3-1-1.3c-0.5,0-0.9,0.4-1,0.8c0,0.1-0.1,0.3-0.1,0.4v2.8h-0.8V152.9z"/>
		<path class="st8" d="M197.7,150.3c0,0.3-0.2,0.5-0.5,0.5c-0.3,0-0.5-0.2-0.5-0.5c0-0.3,0.2-0.5,0.5-0.5
			C197.5,149.8,197.7,150,197.7,150.3z M196.7,156.2v-4.6h0.8v4.6H196.7z"/>
		<path class="st8" d="M199,152.9c0-0.5,0-0.9,0-1.2h0.7l0,0.8h0c0.2-0.4,0.8-0.9,1.5-0.9c0.6,0,1.6,0.4,1.6,2v2.7H202v-2.7
			c0-0.7-0.3-1.4-1.1-1.4c-0.5,0-1,0.4-1.1,0.9c0,0.1-0.1,0.3-0.1,0.4v2.8H199V152.9z"/>
		<path class="st8" d="M208.1,154.9c0,0.5,0,0.9,0,1.3h-0.7l0-0.8h0c-0.2,0.4-0.7,0.9-1.5,0.9c-0.7,0-1.6-0.4-1.6-2v-2.7h0.8v2.5
			c0,0.9,0.3,1.5,1,1.5c0.6,0,1-0.4,1.1-0.8c0-0.1,0.1-0.3,0.1-0.4v-2.8h0.8V154.9z"/>
		<path class="st8" d="M210.5,150.3v1.3h1.2v0.6h-1.2v2.5c0,0.6,0.2,0.9,0.6,0.9c0.2,0,0.4,0,0.5-0.1l0,0.6
			c-0.2,0.1-0.4,0.1-0.7,0.1c-0.4,0-0.7-0.1-0.9-0.4c-0.2-0.3-0.3-0.7-0.3-1.2v-2.5h-0.7v-0.6h0.7v-1.1L210.5,150.3z"/>
		<path class="st8" d="M213,154.1c0,1.1,0.7,1.6,1.6,1.6c0.6,0,1-0.1,1.3-0.2l0.1,0.6c-0.3,0.1-0.8,0.3-1.5,0.3
			c-1.4,0-2.3-0.9-2.3-2.3c0-1.4,0.8-2.5,2.2-2.5c1.5,0,1.9,1.3,1.9,2.2c0,0.2,0,0.3,0,0.4H213z M215.5,153.5c0-0.5-0.2-1.4-1.2-1.4
			c-0.9,0-1.2,0.8-1.3,1.4H215.5z"/>
		<path class="st8" d="M217.2,155.4c0.3,0.2,0.7,0.3,1.1,0.3c0.6,0,0.9-0.3,0.9-0.7c0-0.4-0.2-0.6-0.9-0.8c-0.8-0.3-1.2-0.8-1.2-1.3
			c0-0.7,0.6-1.3,1.6-1.3c0.5,0,0.9,0.1,1.1,0.3l-0.2,0.6c-0.2-0.1-0.5-0.3-0.9-0.3c-0.5,0-0.8,0.3-0.8,0.6c0,0.4,0.3,0.6,0.9,0.8
			c0.8,0.3,1.2,0.7,1.2,1.4c0,0.8-0.6,1.4-1.7,1.4c-0.5,0-1-0.1-1.3-0.3L217.2,155.4z"/>
		<path class="st8" d="M225.6,156.2l-0.1-0.6h0c-0.3,0.4-0.7,0.7-1.4,0.7c-0.9,0-1.4-0.7-1.4-1.3c0-1.1,1-1.7,2.8-1.7v-0.1
			c0-0.4-0.1-1.1-1-1.1c-0.4,0-0.9,0.1-1.2,0.3l-0.2-0.6c0.4-0.2,0.9-0.4,1.5-0.4c1.4,0,1.7,1,1.7,1.9v1.7c0,0.4,0,0.8,0.1,1.1
			H225.6z M225.5,153.9c-0.9,0-1.9,0.1-1.9,1c0,0.5,0.4,0.8,0.8,0.8c0.6,0,1-0.4,1.1-0.8c0-0.1,0-0.2,0-0.3V153.9z"/>
		<path class="st8" d="M231.6,151.6c0,0.3,0,0.7,0,1.3v2.7c0,1.1-0.2,1.7-0.7,2.1c-0.5,0.4-1.1,0.6-1.7,0.6c-0.6,0-1.2-0.1-1.5-0.4
			l0.2-0.6c0.3,0.2,0.8,0.4,1.4,0.4c0.9,0,1.5-0.4,1.5-1.6v-0.5h0c-0.3,0.4-0.8,0.8-1.5,0.8c-1.1,0-2-1-2-2.2c0-1.6,1-2.4,2.1-2.4
			c0.8,0,1.2,0.4,1.4,0.8h0l0-0.7H231.6z M230.8,153.4c0-0.1,0-0.3,0-0.4c-0.2-0.5-0.6-0.9-1.2-0.9c-0.8,0-1.4,0.7-1.4,1.7
			c0,0.9,0.5,1.7,1.4,1.7c0.5,0,1-0.3,1.2-0.9c0-0.1,0.1-0.3,0.1-0.4V153.4z"/>
		<path class="st8" d="M237.1,153.9c0,1.7-1.2,2.4-2.3,2.4c-1.2,0-2.2-0.9-2.2-2.4c0-1.5,1-2.4,2.3-2.4
			C236.2,151.5,237.1,152.5,237.1,153.9z M233.5,153.9c0,1,0.6,1.8,1.4,1.8c0.8,0,1.4-0.7,1.4-1.8c0-0.8-0.4-1.8-1.4-1.8
			C233.9,152.1,233.5,153,233.5,153.9z"/>
	</g>
	<line class="st9" x1="107.5" y1="187" x2="391.5" y2="187"/>
	<circle class="st9" cx="361" cy="132.5" r="9"/>
	<g>
		
			<image style="overflow:visible;opacity:0.12;" width="109" height="108" xlink:href="B057E2D7.png"  transform="matrix(1 0 0 1 85 195)">
		</image>
		<g>
			<circle class="st1" cx="137.5" cy="242" r="29.5"/>
			<path class="st2" d="M137.5,213c16,0,29,13,29,29s-13,29-29,29s-29-13-29-29S121.5,213,137.5,213 M137.5,212
				c-16.6,0-30,13.4-30,30s13.4,30,30,30s30-13.4,30-30S154.1,212,137.5,212L137.5,212z"/>
		</g>
	</g>
	<g>
		<path d="M187.1,237.5H185v-4.6h-5.6v4.6h-2.1v-11.3h2.1v4.8h5.6v-4.8h2.1V237.5z"/>
		<path d="M196.9,234.2h-6.2c0.1,0.5,0.3,0.9,0.7,1.2c0.4,0.3,1,0.5,1.6,0.5c0.4,0,0.8-0.1,1.2-0.2c0.4-0.1,0.7-0.3,0.9-0.5l1.3,1.2
			c-0.4,0.4-0.9,0.7-1.5,1c-0.6,0.2-1.3,0.3-1.9,0.3c-1.4,0-2.4-0.4-3.2-1.2c-0.8-0.8-1.2-1.8-1.2-3.1c0-1.2,0.4-2.2,1.2-3
			c0.8-0.8,1.8-1.2,3.1-1.2c1.4,0,2.4,0.4,3.1,1.3S197,232.6,196.9,234.2z M190.7,232.6h4.3c-0.1-0.5-0.3-0.9-0.6-1.2
			c-0.4-0.3-0.8-0.4-1.4-0.4c-0.5,0-1,0.1-1.4,0.4C191.1,231.7,190.8,232.1,190.7,232.6z"/>
		<path d="M198.4,226.2h2v11.3h-2V226.2z"/>
		<path d="M210,234.2h-6.2c0.1,0.5,0.3,0.9,0.7,1.2c0.4,0.3,1,0.5,1.6,0.5c0.4,0,0.8-0.1,1.2-0.2c0.4-0.1,0.7-0.3,0.9-0.5l1.3,1.2
			c-0.4,0.4-0.9,0.7-1.5,1c-0.6,0.2-1.3,0.3-1.9,0.3c-1.4,0-2.4-0.4-3.2-1.2c-0.8-0.8-1.2-1.8-1.2-3.1c0-1.2,0.4-2.2,1.2-3
			c0.8-0.8,1.8-1.2,3.1-1.2c1.4,0,2.4,0.4,3.1,1.3S210.1,232.6,210,234.2z M203.8,232.6h4.3c-0.1-0.5-0.3-0.9-0.6-1.2
			c-0.4-0.3-0.8-0.4-1.4-0.4c-0.5,0-1,0.1-1.4,0.4C204.2,231.7,203.9,232.1,203.8,232.6z"/>
		<path d="M219.3,237.5h-2v-4.2c0-0.6-0.2-1.1-0.5-1.5s-0.8-0.6-1.4-0.6c-0.6,0-1.1,0.2-1.5,0.6c-0.4,0.4-0.6,1-0.6,1.6v4.1h-2v-8
			h1.8l0.1,1.1c0.8-0.8,1.7-1.2,2.6-1.2c1,0,1.8,0.3,2.4,1s1,1.6,1,2.9V237.5z"/>
		<path d="M234.3,237.5v-8.2l-3.7,4.9h-0.4l-3.6-4.9v8.2h-2.1v-11.3h2.5l3.5,4.9l3.5-4.9h2.4v11.3H234.3z"/>
		<path d="M238.4,228.1c-0.2-0.2-0.4-0.5-0.4-0.9s0.1-0.7,0.4-0.9c0.2-0.2,0.5-0.3,0.8-0.3c0.3,0,0.6,0.1,0.8,0.3
			c0.2,0.2,0.4,0.5,0.4,0.9s-0.1,0.7-0.4,0.9c-0.2,0.2-0.5,0.3-0.8,0.3C238.9,228.5,238.7,228.3,238.4,228.1z M240.2,229.5h-2v8h2
			V229.5z"/>
		<path d="M242,226.2h2v11.3h-2V226.2z"/>
		<path d="M245.7,226.2h2v11.3h-2V226.2z"/>
		<path d="M257.2,234.2H251c0.1,0.5,0.3,0.9,0.7,1.2c0.4,0.3,1,0.5,1.6,0.5c0.4,0,0.8-0.1,1.2-0.2c0.4-0.1,0.7-0.3,0.9-0.5l1.3,1.2
			c-0.4,0.4-0.9,0.7-1.5,1s-1.3,0.3-1.9,0.3c-1.4,0-2.4-0.4-3.2-1.2c-0.8-0.8-1.2-1.8-1.2-3.1c0-1.2,0.4-2.2,1.2-3
			c0.8-0.8,1.8-1.2,3.1-1.2c1.4,0,2.4,0.4,3.1,1.3C257.1,231.4,257.4,232.6,257.2,234.2z M251.1,232.6h4.3c-0.1-0.5-0.3-0.9-0.6-1.2
			c-0.4-0.3-0.8-0.4-1.4-0.4c-0.5,0-1,0.1-1.4,0.4C251.5,231.7,251.2,232.1,251.1,232.6z"/>
		<path d="M258.8,229.5h1.8l0.1,0.9c0.3-0.5,0.6-0.8,1-0.9c0.4-0.2,0.8-0.2,1.3-0.2c0.9,0,1.5,0.3,2,0.8l-0.9,1.7
			c-0.4-0.3-0.9-0.5-1.4-0.5c-0.6,0-1,0.2-1.4,0.5c-0.4,0.3-0.6,0.8-0.6,1.5v4.2h-2V229.5z"/>
	</g>
	<g>
		<path class="st7" d="M177.4,244h1.2v9.8h-1.2V244z"/>
		<path class="st7" d="M182,245.2c0,0.4-0.3,0.8-0.8,0.8c-0.4,0-0.7-0.3-0.7-0.8c0-0.4,0.3-0.8,0.8-0.8
			C181.7,244.5,182,244.8,182,245.2z M180.6,253.8v-6.6h1.2v6.6H180.6z"/>
		<path class="st7" d="M185,250.2L185,250.2c0.2-0.2,0.4-0.5,0.6-0.8l2-2.3h1.5l-2.6,2.7l2.9,3.9h-1.5l-2.3-3.2l-0.6,0.7v2.5h-1.2
			V244h1.2V250.2z"/>
		<path class="st7" d="M191,250.7c0,1.6,1.1,2.3,2.3,2.3c0.9,0,1.4-0.2,1.8-0.3l0.2,0.9c-0.4,0.2-1.2,0.4-2.2,0.4
			c-2,0-3.3-1.4-3.3-3.4c0-2,1.2-3.6,3.1-3.6c2.2,0,2.7,1.9,2.7,3.1c0,0.3,0,0.4,0,0.6H191z M194.5,249.8c0-0.8-0.3-2-1.7-2
			c-1.2,0-1.8,1.1-1.9,2H194.5z"/>
		<path class="st7" d="M202.9,244v8c0,0.6,0,1.3,0.1,1.7h-1.1l-0.1-1.1h0c-0.4,0.7-1.2,1.3-2.3,1.3c-1.6,0-2.9-1.4-2.9-3.4
			c0-2.2,1.4-3.6,3-3.6c1,0,1.7,0.5,2,1h0v-4H202.9z M201.7,249.8c0-0.2,0-0.4-0.1-0.5c-0.2-0.8-0.8-1.4-1.7-1.4c-1.3,0-2,1.1-2,2.6
			c0,1.3,0.7,2.5,2,2.5c0.8,0,1.5-0.5,1.8-1.5c0-0.2,0.1-0.3,0.1-0.5V249.8z"/>
		<path class="st7" d="M208.3,247.1l1.5,3.9c0.2,0.4,0.3,1,0.4,1.4h0c0.1-0.4,0.3-0.9,0.4-1.4l1.3-3.9h1.3l-1.8,4.7
			c-0.9,2.3-1.5,3.4-2.3,4.2c-0.6,0.5-1.2,0.7-1.5,0.8l-0.3-1c0.3-0.1,0.7-0.3,1.1-0.6c0.3-0.3,0.7-0.7,1-1.3
			c0.1-0.1,0.1-0.2,0.1-0.3c0-0.1,0-0.2-0.1-0.3l-2.4-6.1H208.3z"/>
		<path class="st7" d="M220.2,250.4c0,2.5-1.7,3.5-3.3,3.5c-1.8,0-3.2-1.3-3.2-3.4c0-2.2,1.5-3.5,3.3-3.5
			C218.9,247,220.2,248.3,220.2,250.4z M214.9,250.4c0,1.5,0.8,2.6,2,2.6c1.2,0,2-1.1,2-2.6c0-1.1-0.6-2.5-2-2.5
			C215.5,247.9,214.9,249.2,214.9,250.4z"/>
		<path class="st7" d="M227.2,251.9c0,0.7,0,1.3,0.1,1.8h-1.1l-0.1-1.1h0c-0.3,0.5-1,1.2-2.2,1.2c-1,0-2.3-0.6-2.3-2.9v-3.9h1.2v3.7
			c0,1.3,0.4,2.1,1.5,2.1c0.8,0,1.4-0.6,1.6-1.1c0.1-0.2,0.1-0.4,0.1-0.6v-4.1h1.2V251.9z"/>
		<path class="st7" d="M229.3,249.2c0-0.8,0-1.5-0.1-2.1h1.1l0,1.3h0c0.3-0.9,1-1.5,1.8-1.5c0.1,0,0.2,0,0.3,0v1.1
			c-0.1,0-0.2,0-0.4,0c-0.9,0-1.5,0.6-1.6,1.5c0,0.2,0,0.4,0,0.6v3.5h-1.2V249.2z"/>
		<path class="st7" d="M236.7,244h1.2v9.8h-1.2V244z"/>
		<path class="st7" d="M243.6,253.8l-0.1-0.8h0c-0.4,0.5-1.1,1-2,1c-1.3,0-2-1-2-1.9c0-1.6,1.4-2.5,4-2.5v-0.1
			c0-0.5-0.2-1.5-1.5-1.5c-0.6,0-1.3,0.2-1.7,0.5l-0.3-0.8c0.5-0.4,1.4-0.6,2.2-0.6c2,0,2.5,1.4,2.5,2.7v2.5c0,0.6,0,1.1,0.1,1.6
			H243.6z M243.4,250.4c-1.3,0-2.8,0.2-2.8,1.5c0,0.8,0.5,1.2,1.1,1.2c0.9,0,1.4-0.6,1.6-1.1c0-0.1,0.1-0.3,0.1-0.4V250.4z"/>
		<path class="st7" d="M246.4,252.5c0.4,0.2,1,0.5,1.6,0.5c0.9,0,1.3-0.4,1.3-1c0-0.6-0.4-0.9-1.2-1.2c-1.2-0.4-1.8-1.1-1.8-1.9
			c0-1.1,0.9-1.9,2.3-1.9c0.7,0,1.3,0.2,1.6,0.4l-0.3,0.9c-0.3-0.2-0.7-0.4-1.4-0.4c-0.7,0-1.1,0.4-1.1,0.9c0,0.5,0.4,0.8,1.3,1.1
			c1.1,0.4,1.7,1,1.7,2c0,1.2-0.9,2-2.5,2c-0.7,0-1.4-0.2-1.9-0.5L246.4,252.5z"/>
		<path class="st7" d="M253.4,245.2v1.9h1.7v0.9h-1.7v3.6c0,0.8,0.2,1.3,0.9,1.3c0.3,0,0.5,0,0.7-0.1l0.1,0.9
			c-0.2,0.1-0.6,0.2-1.1,0.2c-0.6,0-1-0.2-1.3-0.5c-0.3-0.4-0.5-1-0.5-1.7V248h-1v-0.9h1v-1.6L253.4,245.2z"/>
		<path class="st7" d="M259.4,249.3c0-0.8,0-1.5-0.1-2.2h1.1l0.1,1.1h0c0.5-0.8,1.3-1.3,2.4-1.3c1.6,0,2.8,1.4,2.8,3.4
			c0,2.4-1.5,3.6-3,3.6c-0.9,0-1.7-0.4-2-1h0v3.6h-1.2V249.3z M260.6,251.1c0,0.2,0,0.3,0.1,0.5c0.2,0.8,0.9,1.4,1.8,1.4
			c1.3,0,2-1,2-2.6c0-1.3-0.7-2.5-2-2.5c-0.8,0-1.6,0.6-1.8,1.5c0,0.2-0.1,0.3-0.1,0.5V251.1z"/>
		<path class="st7" d="M273.3,250.4c0,2.5-1.7,3.5-3.3,3.5c-1.8,0-3.2-1.3-3.2-3.4c0-2.2,1.5-3.5,3.3-3.5
			C272,247,273.3,248.3,273.3,250.4z M268,250.4c0,1.5,0.8,2.6,2,2.6c1.2,0,2-1.1,2-2.6c0-1.1-0.6-2.5-2-2.5
			C268.6,247.9,268,249.2,268,250.4z"/>
		<path class="st7" d="M274.6,252.5c0.4,0.2,1,0.5,1.6,0.5c0.9,0,1.3-0.4,1.3-1c0-0.6-0.4-0.9-1.2-1.2c-1.2-0.4-1.8-1.1-1.8-1.9
			c0-1.1,0.9-1.9,2.3-1.9c0.7,0,1.3,0.2,1.6,0.4l-0.3,0.9c-0.3-0.2-0.7-0.4-1.4-0.4c-0.7,0-1.1,0.4-1.1,0.9c0,0.5,0.4,0.8,1.3,1.1
			c1.1,0.4,1.7,1,1.7,2c0,1.2-0.9,2-2.5,2c-0.7,0-1.4-0.2-1.9-0.5L274.6,252.5z"/>
		<path class="st7" d="M281.7,245.2v1.9h1.7v0.9h-1.7v3.6c0,0.8,0.2,1.3,0.9,1.3c0.3,0,0.5,0,0.7-0.1l0.1,0.9
			c-0.2,0.1-0.6,0.2-1.1,0.2c-0.6,0-1-0.2-1.3-0.5c-0.3-0.4-0.5-1-0.5-1.7V248h-1v-0.9h1v-1.6L281.7,245.2z"/>
	</g>
	<g>
		<path class="st8" d="M178.6,264.8L178.6,264.8l-1.1,0.6l-0.2-0.6l1.3-0.7h0.7v6.2h-0.8V264.8z"/>
		<path class="st8" d="M183.9,263.5h0.8v2.9h0c0.1-0.2,0.3-0.4,0.6-0.6c0.2-0.1,0.5-0.2,0.9-0.2c0.6,0,1.6,0.4,1.6,2v2.7H187v-2.6
			c0-0.7-0.3-1.4-1.1-1.4c-0.5,0-1,0.4-1.1,0.8c0,0.1-0.1,0.2-0.1,0.4v2.8h-0.8V263.5z"/>
		<path class="st8" d="M193.4,267.9c0,1.7-1.2,2.4-2.3,2.4c-1.2,0-2.2-0.9-2.2-2.4c0-1.5,1-2.4,2.3-2.4
			C192.5,265.5,193.4,266.5,193.4,267.9z M189.7,267.9c0,1,0.6,1.8,1.4,1.8c0.8,0,1.4-0.7,1.4-1.8c0-0.8-0.4-1.8-1.4-1.8
			C190.2,266.1,189.7,267,189.7,267.9z"/>
		<path class="st8" d="M198.3,268.9c0,0.5,0,0.9,0,1.3h-0.7l0-0.8h0c-0.2,0.4-0.7,0.9-1.5,0.9c-0.7,0-1.6-0.4-1.6-2v-2.7h0.8v2.5
			c0,0.9,0.3,1.5,1,1.5c0.6,0,1-0.4,1.1-0.8c0-0.1,0.1-0.3,0.1-0.4v-2.8h0.8V268.9z"/>
		<path class="st8" d="M199.7,267c0-0.5,0-1,0-1.4h0.7l0,0.9h0c0.2-0.6,0.7-1,1.3-1c0.1,0,0.2,0,0.2,0v0.8c-0.1,0-0.2,0-0.3,0
			c-0.6,0-1,0.4-1.1,1.1c0,0.1,0,0.3,0,0.4v2.5h-0.8V267z"/>
		<path class="st8" d="M207.3,270.2l-0.1-0.6h0c-0.3,0.4-0.7,0.7-1.4,0.7c-0.9,0-1.4-0.7-1.4-1.3c0-1.1,1-1.7,2.8-1.7v-0.1
			c0-0.4-0.1-1.1-1-1.1c-0.4,0-0.9,0.1-1.2,0.3l-0.2-0.6c0.4-0.2,0.9-0.4,1.5-0.4c1.4,0,1.7,1,1.7,1.9v1.7c0,0.4,0,0.8,0.1,1.1
			H207.3z M207.2,267.9c-0.9,0-1.9,0.1-1.9,1c0,0.5,0.4,0.8,0.8,0.8c0.6,0,1-0.4,1.1-0.8c0-0.1,0-0.2,0-0.3V267.9z"/>
		<path class="st8" d="M213.3,265.6c0,0.3,0,0.7,0,1.3v2.7c0,1.1-0.2,1.7-0.7,2.1c-0.5,0.4-1.1,0.6-1.7,0.6c-0.6,0-1.2-0.1-1.5-0.4
			l0.2-0.6c0.3,0.2,0.8,0.4,1.4,0.4c0.9,0,1.5-0.4,1.5-1.6v-0.5h0c-0.3,0.4-0.8,0.8-1.5,0.8c-1.1,0-2-1-2-2.3c0-1.6,1-2.4,2.1-2.4
			c0.8,0,1.2,0.4,1.4,0.8h0l0-0.7H213.3z M212.5,267.4c0-0.1,0-0.3,0-0.4c-0.2-0.5-0.6-0.9-1.2-0.9c-0.8,0-1.4,0.7-1.4,1.7
			c0,0.9,0.5,1.7,1.4,1.7c0.5,0,1-0.3,1.2-0.9c0-0.1,0.1-0.3,0.1-0.4V267.4z"/>
		<path class="st8" d="M218.8,267.9c0,1.7-1.2,2.4-2.3,2.4c-1.2,0-2.2-0.9-2.2-2.4c0-1.5,1-2.4,2.3-2.4
			C217.9,265.5,218.8,266.5,218.8,267.9z M215.2,267.9c0,1,0.6,1.8,1.4,1.8c0.8,0,1.4-0.7,1.4-1.8c0-0.8-0.4-1.8-1.4-1.8
			C215.6,266.1,215.2,267,215.2,267.9z"/>
	</g>
	<line class="st9" x1="107.5" y1="301" x2="391.5" y2="301"/>
	<circle class="st9" cx="361" cy="246.5" r="9"/>
	<g>
		
			<image style="overflow:visible;opacity:0.12;" width="109" height="108" xlink:href="B057E2EC.png"  transform="matrix(1 0 0 1 85 309)">
		</image>
		<g>
			<circle class="st1" cx="137.5" cy="356" r="29.5"/>
			<path class="st2" d="M137.5,327c16,0,29,13,29,29s-13,29-29,29s-29-13-29-29S121.5,327,137.5,327 M137.5,326
				c-16.6,0-30,13.4-30,30s13.4,30,30,30s30-13.4,30-30S154.1,326,137.5,326L137.5,326z"/>
		</g>
	</g>
	<g>
		<path d="M181.6,340.2c0.9,0,1.8,0.2,2.5,0.5c0.7,0.3,1.3,0.7,1.8,1.3c0.4,0.5,0.8,1.1,1,1.8s0.4,1.3,0.4,2c0,0.7-0.1,1.4-0.3,2.1
			c-0.2,0.7-0.6,1.3-1,1.8c-0.4,0.5-1,1-1.8,1.3c-0.7,0.3-1.6,0.5-2.5,0.5h-4.4v-11.3H181.6z M179.3,342.2v7.2h2.3
			c1.2,0,2.1-0.4,2.7-1.1c0.6-0.7,0.9-1.6,0.9-2.6c0-1-0.3-1.8-0.9-2.5c-0.6-0.7-1.5-1-2.6-1H179.3z"/>
		<path d="M194.9,344.6l0.1-1.1h1.9v8H195l-0.1-1.2c-0.2,0.4-0.6,0.8-1.1,1c-0.5,0.2-1,0.4-1.5,0.4c-1.2,0-2.2-0.4-3-1.1
			c-0.8-0.7-1.1-1.8-1.1-3.1c0-1.3,0.4-2.4,1.2-3.1c0.8-0.7,1.8-1.1,3-1.1c0.5,0,1,0.1,1.5,0.4C194.4,343.9,194.7,344.2,194.9,344.6
			z M192.6,345.1c-0.7,0-1.2,0.2-1.7,0.6c-0.4,0.4-0.7,1-0.7,1.8s0.2,1.3,0.7,1.8c0.4,0.4,1,0.7,1.7,0.7c0.6,0,1.1-0.2,1.5-0.5
			c0.4-0.3,0.7-0.7,0.7-1.2c0.1-0.5,0.1-0.9,0-1.4c-0.1-0.5-0.3-0.9-0.7-1.2C193.7,345.3,193.2,345.1,192.6,345.1z"/>
		<path d="M206.4,351.5h-2v-4.2c0-0.6-0.2-1.1-0.5-1.5c-0.3-0.4-0.8-0.6-1.4-0.6c-0.6,0-1.1,0.2-1.5,0.6c-0.4,0.4-0.6,1-0.6,1.6v4.1
			h-2v-8h1.8l0.1,1.1c0.8-0.8,1.7-1.2,2.6-1.2c1,0,1.8,0.3,2.4,1c0.6,0.7,1,1.6,1,2.9V351.5z"/>
		<path d="M216.8,340.2c1.2,0,2.1,0.3,2.8,0.8c0.7,0.5,1.1,1.4,1.1,2.5c0,1-0.5,1.7-1.5,2.2c0.6,0.2,1,0.5,1.3,1.1s0.5,1,0.5,1.5
			c0,2.2-1.4,3.3-4.2,3.3h-5.4v-11.3H216.8z M213.5,342.1v2.6h3.3c1.2,0,1.8-0.4,1.8-1.2c0-0.3-0.1-0.6-0.4-0.9
			c-0.3-0.3-0.7-0.4-1.3-0.4H213.5z M213.5,346.6v2.9h3.3c0.3,0,0.6,0,0.9-0.1s0.6-0.2,0.8-0.4c0.2-0.2,0.4-0.5,0.4-0.8
			c0-0.5-0.2-0.8-0.7-1.1c-0.5-0.3-0.9-0.4-1.4-0.4H213.5z"/>
		<path d="M228.6,344.6l0.1-1.1h1.9v8h-1.9l-0.1-1.2c-0.2,0.4-0.6,0.8-1.1,1c-0.5,0.2-1,0.4-1.5,0.4c-1.2,0-2.2-0.4-3-1.1
			c-0.8-0.7-1.1-1.8-1.1-3.1c0-1.3,0.4-2.4,1.2-3.1c0.8-0.7,1.8-1.1,3-1.1c0.5,0,1,0.1,1.5,0.4C228,343.9,228.4,344.2,228.6,344.6z
			 M226.2,345.1c-0.7,0-1.2,0.2-1.7,0.6c-0.4,0.4-0.7,1-0.7,1.8s0.2,1.3,0.7,1.8c0.4,0.4,1,0.7,1.7,0.7c0.6,0,1.1-0.2,1.5-0.5
			c0.4-0.3,0.7-0.7,0.7-1.2c0.1-0.5,0.1-0.9,0-1.4c-0.1-0.5-0.3-0.9-0.7-1.2C227.3,345.3,226.8,345.1,226.2,345.1z"/>
		<path d="M235.7,346.2l1.6-2.7h2.4v0.1l-2.6,3.9l2.8,4v0h-2.4l-1.7-2.7l-1.7,2.7h-2.4v0l2.8-4l-2.6-3.9v-0.1h2.4L235.7,346.2z"/>
		<path d="M241.6,341.5l2-0.2v2.3h2.2v1.7h-2.2v3.4c0,0.4,0.1,0.6,0.3,0.8s0.4,0.3,0.8,0.3c0.3,0,0.6-0.1,1-0.2l0.5,1.7
			c-0.5,0.2-1.1,0.3-1.6,0.3c-0.9,0-1.6-0.2-2.1-0.7s-0.8-1.2-0.8-2.2v-3.4h-1.5v-1.7h1.5V341.5z"/>
		<path d="M255.1,348.2h-6.2c0.1,0.5,0.3,0.9,0.7,1.2c0.4,0.3,1,0.5,1.6,0.5c0.4,0,0.8-0.1,1.2-0.2c0.4-0.1,0.7-0.3,0.9-0.5l1.3,1.2
			c-0.4,0.4-0.9,0.7-1.5,1s-1.3,0.3-1.9,0.3c-1.4,0-2.4-0.4-3.2-1.2c-0.8-0.8-1.2-1.8-1.2-3.1c0-1.2,0.4-2.2,1.2-3s1.8-1.2,3.1-1.2
			c1.4,0,2.4,0.4,3.1,1.3C255,345.4,255.3,346.6,255.1,348.2z M249,346.6h4.3c-0.1-0.5-0.3-0.9-0.6-1.2c-0.4-0.3-0.8-0.4-1.4-0.4
			c-0.5,0-1,0.1-1.4,0.4C249.4,345.7,249.1,346.1,249,346.6z"/>
		<path d="M256.6,343.5h1.8l0.1,0.9c0.3-0.5,0.6-0.8,1-0.9c0.4-0.2,0.8-0.2,1.3-0.2c0.9,0,1.5,0.3,2,0.8l-0.9,1.7
			c-0.4-0.3-0.9-0.5-1.4-0.5c-0.6,0-1,0.2-1.4,0.5c-0.4,0.3-0.6,0.8-0.6,1.5v4.2h-2V343.5z"/>
	</g>
	<g>
		<path class="st7" d="M177.4,363.3c0-0.8,0-1.5-0.1-2.2h1.1l0.1,1.1h0c0.5-0.8,1.3-1.3,2.4-1.3c1.6,0,2.8,1.4,2.8,3.4
			c0,2.4-1.5,3.6-3,3.6c-0.9,0-1.7-0.4-2-1h0v3.6h-1.2V363.3z M178.6,365.1c0,0.2,0,0.3,0.1,0.5c0.2,0.8,0.9,1.4,1.8,1.4
			c1.3,0,2-1,2-2.6c0-1.3-0.7-2.5-2-2.5c-0.8,0-1.6,0.6-1.8,1.5c0,0.2-0.1,0.3-0.1,0.5V365.1z"/>
		<path class="st7" d="M191.2,364.4c0,2.5-1.7,3.5-3.3,3.5c-1.8,0-3.2-1.3-3.2-3.4c0-2.2,1.5-3.5,3.3-3.5
			C189.9,361,191.2,362.3,191.2,364.4z M185.9,364.4c0,1.5,0.8,2.6,2,2.6c1.2,0,2-1.1,2-2.6c0-1.1-0.6-2.5-2-2.5
			C186.6,361.9,185.9,363.2,185.9,364.4z"/>
		<path class="st7" d="M192.6,366.5c0.4,0.2,1,0.5,1.6,0.5c0.9,0,1.3-0.4,1.3-1c0-0.6-0.4-0.9-1.2-1.2c-1.2-0.4-1.8-1.1-1.8-1.9
			c0-1.1,0.9-1.9,2.3-1.9c0.7,0,1.3,0.2,1.6,0.4l-0.3,0.9c-0.3-0.2-0.7-0.4-1.4-0.4c-0.7,0-1.1,0.4-1.1,0.9c0,0.6,0.4,0.8,1.3,1.1
			c1.1,0.4,1.7,1,1.7,2c0,1.2-0.9,2-2.5,2c-0.7,0-1.4-0.2-1.9-0.5L192.6,366.5z"/>
		<path class="st7" d="M199.6,359.2v1.9h1.7v0.9h-1.7v3.6c0,0.8,0.2,1.3,0.9,1.3c0.3,0,0.5,0,0.7-0.1l0.1,0.9
			c-0.2,0.1-0.6,0.2-1.1,0.2c-0.6,0-1-0.2-1.3-0.5c-0.3-0.4-0.5-1-0.5-1.7V362h-1v-0.9h1v-1.6L199.6,359.2z"/>
		<path class="st7" d="M203.3,364.7c0,1.6,1.1,2.3,2.3,2.3c0.9,0,1.4-0.2,1.8-0.3l0.2,0.9c-0.4,0.2-1.2,0.4-2.2,0.4
			c-2,0-3.3-1.4-3.3-3.4c0-2,1.2-3.6,3.1-3.6c2.2,0,2.7,1.9,2.7,3.1c0,0.3,0,0.4,0,0.6H203.3z M206.9,363.8c0-0.8-0.3-2-1.7-2
			c-1.2,0-1.8,1.1-1.9,2H206.9z"/>
		<path class="st7" d="M215.3,358v8c0,0.6,0,1.3,0.1,1.7h-1.1l-0.1-1.1h0c-0.4,0.7-1.2,1.3-2.3,1.3c-1.6,0-2.9-1.4-2.9-3.4
			c0-2.2,1.4-3.6,3-3.6c1,0,1.7,0.5,2,1h0v-4H215.3z M214.1,363.8c0-0.2,0-0.4-0.1-0.5c-0.2-0.8-0.8-1.4-1.7-1.4c-1.3,0-2,1.1-2,2.6
			c0,1.3,0.7,2.5,2,2.5c0.8,0,1.5-0.5,1.8-1.5c0-0.2,0.1-0.3,0.1-0.5V363.8z"/>
		<path class="st7" d="M223.9,367.8l-0.1-0.8h0c-0.4,0.5-1.1,1-2,1c-1.3,0-2-1-2-1.9c0-1.6,1.4-2.5,4-2.5v-0.1
			c0-0.5-0.2-1.5-1.5-1.5c-0.6,0-1.3,0.2-1.7,0.5l-0.3-0.8c0.5-0.4,1.4-0.6,2.2-0.6c2,0,2.5,1.4,2.5,2.7v2.5c0,0.6,0,1.1,0.1,1.6
			H223.9z M223.7,364.4c-1.3,0-2.8,0.2-2.8,1.5c0,0.8,0.5,1.2,1.1,1.2c0.9,0,1.4-0.6,1.6-1.1c0-0.1,0.1-0.3,0.1-0.4V364.4z"/>
		<path class="st7" d="M229.7,362.9c0-0.7,0-1.2-0.1-1.8h1.1l0.1,1.1h0c0.3-0.6,1.1-1.2,2.2-1.2c0.9,0,2.3,0.5,2.3,2.8v4h-1.2v-3.8
			c0-1.1-0.4-2-1.5-2c-0.8,0-1.4,0.6-1.6,1.2c-0.1,0.1-0.1,0.4-0.1,0.6v4h-1.2V362.9z"/>
		<path class="st7" d="M238,364.7c0,1.6,1.1,2.3,2.3,2.3c0.9,0,1.4-0.2,1.8-0.3l0.2,0.9c-0.4,0.2-1.2,0.4-2.2,0.4
			c-2,0-3.3-1.4-3.3-3.4c0-2,1.2-3.6,3.1-3.6c2.2,0,2.7,1.9,2.7,3.1c0,0.3,0,0.4,0,0.6H238z M241.6,363.8c0-0.8-0.3-2-1.7-2
			c-1.2,0-1.8,1.1-1.9,2H241.6z"/>
		<path class="st7" d="M244.7,361.1l0.9,3.4c0.2,0.7,0.4,1.4,0.5,2.1h0c0.1-0.7,0.4-1.4,0.6-2.1l1.1-3.4h1l1,3.3
			c0.2,0.8,0.4,1.5,0.6,2.2h0c0.1-0.7,0.3-1.4,0.5-2.2l0.9-3.3h1.2l-2.1,6.6h-1.1l-1-3.2c-0.2-0.7-0.4-1.4-0.6-2.2h0
			c-0.2,0.8-0.4,1.5-0.6,2.2l-1.1,3.2h-1.1l-2-6.6H244.7z"/>
		<path class="st7" d="M262,367.5c-0.3,0.2-1,0.4-1.9,0.4c-2,0-3.3-1.4-3.3-3.4c0-2,1.4-3.5,3.6-3.5c0.7,0,1.4,0.2,1.7,0.4l-0.3,0.9
			c-0.3-0.2-0.7-0.3-1.4-0.3c-1.5,0-2.3,1.1-2.3,2.5c0,1.5,1,2.5,2.3,2.5c0.7,0,1.1-0.2,1.5-0.3L262,367.5z"/>
		<path class="st7" d="M269.3,364.4c0,2.5-1.7,3.5-3.3,3.5c-1.8,0-3.2-1.3-3.2-3.4c0-2.2,1.5-3.5,3.3-3.5
			C268,361,269.3,362.3,269.3,364.4z M264.1,364.4c0,1.5,0.8,2.6,2,2.6c1.2,0,2-1.1,2-2.6c0-1.1-0.6-2.5-2-2.5
			C264.7,361.9,264.1,363.2,264.1,364.4z"/>
		<path class="st7" d="M270.9,362.9c0-0.7,0-1.2-0.1-1.8h1l0.1,1.1h0c0.4-0.6,1-1.2,2.1-1.2c0.9,0,1.6,0.5,1.9,1.3h0
			c0.2-0.4,0.5-0.7,0.7-0.9c0.4-0.3,0.8-0.5,1.5-0.5c0.9,0,2.2,0.6,2.2,2.9v3.9h-1.2V364c0-1.3-0.5-2-1.4-2c-0.7,0-1.2,0.5-1.4,1.1
			c-0.1,0.2-0.1,0.4-0.1,0.6v4.1H275v-4c0-1.1-0.5-1.8-1.4-1.8c-0.8,0-1.3,0.6-1.5,1.2c-0.1,0.2-0.1,0.4-0.1,0.6v4h-1.2V362.9z"/>
		<path class="st7" d="M282.3,362.9c0-0.7,0-1.2-0.1-1.8h1l0.1,1.1h0c0.4-0.6,1-1.2,2.1-1.2c0.9,0,1.6,0.5,1.9,1.3h0
			c0.2-0.4,0.5-0.7,0.7-0.9c0.4-0.3,0.8-0.5,1.5-0.5c0.9,0,2.2,0.6,2.2,2.9v3.9h-1.2V364c0-1.3-0.5-2-1.4-2c-0.7,0-1.2,0.5-1.4,1.1
			c-0.1,0.2-0.1,0.4-0.1,0.6v4.1h-1.2v-4c0-1.1-0.5-1.8-1.4-1.8c-0.8,0-1.3,0.6-1.5,1.2c-0.1,0.2-0.1,0.4-0.1,0.6v4h-1.2V362.9z"/>
		<path class="st7" d="M294.4,364.7c0,1.6,1.1,2.3,2.3,2.3c0.9,0,1.4-0.2,1.8-0.3l0.2,0.9c-0.4,0.2-1.2,0.4-2.2,0.4
			c-2,0-3.3-1.4-3.3-3.4c0-2,1.2-3.6,3.1-3.6c2.2,0,2.7,1.9,2.7,3.1c0,0.3,0,0.4,0,0.6H294.4z M298,363.8c0-0.8-0.3-2-1.7-2
			c-1.2,0-1.8,1.1-1.9,2H298z"/>
		<path class="st7" d="M300.7,362.9c0-0.7,0-1.2-0.1-1.8h1.1l0.1,1.1h0c0.3-0.6,1.1-1.2,2.2-1.2c0.9,0,2.3,0.5,2.3,2.8v4h-1.2v-3.8
			c0-1.1-0.4-2-1.5-2c-0.8,0-1.4,0.6-1.6,1.2c0,0.1-0.1,0.4-0.1,0.6v4h-1.2V362.9z"/>
		<path class="st7" d="M309.7,359.2v1.9h1.7v0.9h-1.7v3.6c0,0.8,0.2,1.3,0.9,1.3c0.3,0,0.5,0,0.7-0.1l0.1,0.9
			c-0.2,0.1-0.6,0.2-1.1,0.2c-0.6,0-1-0.2-1.3-0.5c-0.3-0.4-0.5-1-0.5-1.7V362h-1v-0.9h1v-1.6L309.7,359.2z"/>
	</g>
	<g>
		<path class="st8" d="M179.4,384.2v-1.7h-2.9V382l2.8-3.9h0.9v3.8h0.9v0.6h-0.9v1.7H179.4z M179.4,381.9v-2.1c0-0.3,0-0.6,0-1l0,0
			c-0.2,0.4-0.3,0.6-0.5,0.9l-1.5,2.1l0,0H179.4z"/>
		<path class="st8" d="M183.9,377.5h0.8v2.9h0c0.1-0.2,0.3-0.4,0.6-0.6c0.2-0.1,0.5-0.2,0.9-0.2c0.6,0,1.6,0.4,1.6,2v2.7H187v-2.6
			c0-0.7-0.3-1.4-1.1-1.4c-0.5,0-1,0.4-1.1,0.8c0,0.1-0.1,0.2-0.1,0.4v2.8h-0.8V377.5z"/>
		<path class="st8" d="M193.4,381.9c0,1.7-1.2,2.4-2.3,2.4c-1.2,0-2.2-0.9-2.2-2.4c0-1.5,1-2.4,2.3-2.4
			C192.5,379.5,193.4,380.5,193.4,381.9z M189.7,381.9c0,1,0.6,1.8,1.4,1.8c0.8,0,1.4-0.7,1.4-1.8c0-0.8-0.4-1.8-1.4-1.8
			C190.2,380.1,189.7,381,189.7,381.9z"/>
		<path class="st8" d="M198.3,382.9c0,0.5,0,0.9,0,1.3h-0.7l0-0.8h0c-0.2,0.4-0.7,0.9-1.5,0.9c-0.7,0-1.6-0.4-1.6-2v-2.7h0.8v2.5
			c0,0.9,0.3,1.5,1,1.5c0.6,0,1-0.4,1.1-0.8c0-0.1,0.1-0.3,0.1-0.4v-2.8h0.8V382.9z"/>
		<path class="st8" d="M199.7,381c0-0.5,0-1,0-1.4h0.7l0,0.9h0c0.2-0.6,0.7-1,1.3-1c0.1,0,0.2,0,0.2,0v0.8c-0.1,0-0.2,0-0.3,0
			c-0.6,0-1,0.4-1.1,1.1c0,0.1,0,0.3,0,0.4v2.5h-0.8V381z"/>
		<path class="st8" d="M202.7,383.4c0.3,0.2,0.7,0.3,1.1,0.3c0.6,0,0.9-0.3,0.9-0.7c0-0.4-0.2-0.6-0.9-0.8c-0.8-0.3-1.2-0.8-1.2-1.3
			c0-0.7,0.6-1.3,1.6-1.3c0.5,0,0.9,0.1,1.1,0.3l-0.2,0.6c-0.2-0.1-0.5-0.3-0.9-0.3c-0.5,0-0.8,0.3-0.8,0.6c0,0.4,0.3,0.6,0.9,0.8
			c0.8,0.3,1.2,0.7,1.2,1.4c0,0.8-0.6,1.4-1.7,1.4c-0.5,0-1-0.1-1.3-0.3L202.7,383.4z"/>
		<path class="st8" d="M213.1,384.2l-0.1-0.6h0c-0.3,0.4-0.7,0.7-1.4,0.7c-0.9,0-1.4-0.7-1.4-1.3c0-1.1,1-1.7,2.8-1.7v-0.1
			c0-0.4-0.1-1.1-1-1.1c-0.4,0-0.9,0.1-1.2,0.3l-0.2-0.6c0.4-0.2,0.9-0.4,1.5-0.4c1.4,0,1.7,1,1.7,1.9v1.7c0,0.4,0,0.8,0.1,1.1
			H213.1z M213,381.9c-0.9,0-1.9,0.1-1.9,1c0,0.5,0.4,0.8,0.8,0.8c0.6,0,1-0.4,1.1-0.8c0-0.1,0-0.2,0-0.3V381.9z"/>
		<path class="st8" d="M219.1,379.6c0,0.3,0,0.7,0,1.3v2.7c0,1.1-0.2,1.7-0.7,2.1c-0.5,0.4-1.1,0.6-1.7,0.6c-0.6,0-1.2-0.1-1.5-0.4
			l0.2-0.6c0.3,0.2,0.8,0.4,1.4,0.4c0.9,0,1.5-0.4,1.5-1.6v-0.5h0c-0.3,0.4-0.8,0.8-1.5,0.8c-1.1,0-2-1-2-2.3c0-1.6,1-2.4,2.1-2.4
			c0.8,0,1.2,0.4,1.4,0.8h0l0-0.7H219.1z M218.2,381.4c0-0.1,0-0.3,0-0.4c-0.2-0.5-0.6-0.9-1.2-0.9c-0.8,0-1.4,0.7-1.4,1.7
			c0,0.9,0.5,1.7,1.4,1.7c0.5,0,1-0.3,1.2-0.9c0-0.1,0.1-0.3,0.1-0.4V381.4z"/>
		<path class="st8" d="M224.6,381.9c0,1.7-1.2,2.4-2.3,2.4c-1.2,0-2.2-0.9-2.2-2.4c0-1.5,1-2.4,2.3-2.4
			C223.7,379.5,224.6,380.5,224.6,381.9z M221,381.9c0,1,0.6,1.8,1.4,1.8c0.8,0,1.4-0.7,1.4-1.8c0-0.8-0.4-1.8-1.4-1.8
			C221.4,380.1,221,381,221,381.9z"/>
	</g>
	<circle class="st9" cx="361" cy="360.5" r="9"/>
	<g>
		<g>
			<path class="st5" d="M132.9,256.6c-3.7-1.3-5.2-5-6.6-10.2c-0.8-3-1.1-5.1-1.1-8.9c0-9.1,4.7-12.5,12.2-12.5s12.5,1.9,12.5,11
				c0,13.6-4.5,21.6-12.5,21.6"/>
		</g>
		<g>
			<path class="st4" d="M137.3,258c-0.2,0-0.3-0.1-0.3-0.3s0.1-0.3,0.3-0.3c7.8,0,12.2-7.8,12.2-21.3c0-8.9-4.9-10.7-12.2-10.7
				c-3.9,0-6.7,0.9-8.7,2.7c-2.1,2-3.2,5.1-3.2,9.4c0,3.8,0.4,5.9,1.1,8.8c1.9,7.1,3.8,9.1,6.4,10c0.2,0.1,0.3,0.3,0.2,0.4
				c-0.1,0.2-0.3,0.3-0.4,0.2c-3.7-1.3-5.4-5-6.8-10.5c-0.8-3-1.1-5.1-1.1-9c0-8.6,4.1-12.8,12.5-12.8c6.7,0,12.9,1.4,12.9,11.4
				C150.2,250,145.5,258,137.3,258z"/>
		</g>
		<g>
			<path class="st4" d="M137.5,246c-0.1,0-0.3,0-0.4,0c-0.9-0.1-1.3-0.8-1.3-0.9c-0.1-0.2,0-0.4,0.1-0.5c0.2-0.1,0.4,0,0.5,0.1
				c0,0,0.3,0.5,0.8,0.5c0.6,0.1,1,0,1.2-0.3c0.1-0.2,0.1-0.5,0-0.8c-0.5-0.8-1.4-3.5-1.1-4.5c0-0.2,0.2-0.3,0.4-0.2
				c0.2,0,0.3,0.2,0.2,0.4c-0.2,0.6,0.5,3.1,1,4c0.3,0.5,0.3,1,0,1.5C138.7,245.7,138.1,246,137.5,246z"/>
		</g>
		<g>
			<path class="st4" d="M130.8,239.8c-0.1,0-0.2,0-0.2-0.1c-0.1-0.1-0.1-0.3,0-0.5c0.4-0.5,1-0.7,1.6-0.7c0.5,0,0.9,0.3,1.1,0.7
				c0.1,0.2,0.1,0.4-0.1,0.5c-0.2,0.1-0.4,0.1-0.5-0.1c-0.1-0.2-0.4-0.3-0.6-0.4c-0.4,0-0.8,0.1-1.1,0.4
				C130.9,239.8,130.8,239.8,130.8,239.8z"/>
		</g>
		<g>
			<path class="st4" d="M143.9,239.8c-0.1,0-0.2,0-0.2-0.1c-0.3-0.3-0.7-0.5-1.2-0.5c-0.3,0-0.7,0.2-0.8,0.4
				c-0.1,0.1-0.3,0.2-0.5,0.1c-0.1-0.1-0.2-0.3-0.1-0.5c0.3-0.4,0.8-0.6,1.3-0.7c0.6,0,1.2,0.2,1.7,0.7c0.1,0.1,0.1,0.3,0,0.5
				C144.1,239.8,144,239.8,143.9,239.8z"/>
		</g>
		<g>
			<path class="st4" d="M137.2,250.2c-0.9,0-1.6-0.3-1.9-0.8c-0.1-0.2-0.1-0.4,0.1-0.5c0.2-0.1,0.4-0.1,0.5,0.1
				c0.2,0.4,0.8,0.6,1.5,0.5c0.7,0,1.4-0.3,1.7-0.7c0.1-0.2,0.3-0.2,0.5-0.1c0.2,0.1,0.2,0.3,0.1,0.5c-0.4,0.6-1.2,1-2.2,1.1
				C137.3,250.2,137.2,250.2,137.2,250.2z"/>
		</g>
		<g>
			<g>
				<path class="st3" d="M126.3,245.3c-1.7-0.2-2.7-1.9-2.6-3.4s1.7-1.9,2.9-1.5"/>
			</g>
			<g>
				<path class="st4" d="M126.3,245.7C126.3,245.7,126.3,245.7,126.3,245.7c-0.8-0.1-1.6-0.5-2.1-1.1c-0.6-0.7-0.9-1.7-0.8-2.7
					c0.1-0.7,0.4-1.2,0.9-1.5c0.6-0.4,1.6-0.5,2.4-0.3c0.2,0.1,0.3,0.2,0.2,0.4c-0.1,0.2-0.2,0.3-0.4,0.2c-0.7-0.2-1.4-0.1-1.8,0.2
					c-0.4,0.2-0.6,0.6-0.6,1.1c-0.1,0.8,0.2,1.6,0.7,2.2c0.3,0.4,0.8,0.8,1.6,0.9c0.2,0,0.3,0.2,0.3,0.4
					C126.6,245.5,126.5,245.7,126.3,245.7z"/>
			</g>
		</g>
		<g>
			<g>
				<path class="st3" d="M148.8,245.3c1.8,0.1,3-1.6,3.1-3.1c0.1-1.5-1.4-2.1-2.6-2"/>
			</g>
			<g>
				<path class="st4" d="M148.9,245.6c-0.1,0-0.1,0-0.2,0c-0.2,0-0.3-0.2-0.3-0.4c0-0.2,0.2-0.3,0.4-0.3c0.8,0.1,1.3-0.3,1.7-0.6
					c0.6-0.5,1-1.4,1.1-2.2c0-0.5-0.1-0.8-0.4-1.1c-0.4-0.4-1.1-0.6-1.8-0.5c-0.2,0-0.3-0.1-0.4-0.3c0-0.2,0.1-0.3,0.3-0.4
					c0.9-0.1,1.8,0.2,2.4,0.7c0.4,0.4,0.7,1,0.6,1.6c-0.1,1-0.6,2-1.3,2.7C150.3,245.3,149.7,245.6,148.9,245.6z"/>
			</g>
		</g>
		<g>
			<path class="st10" d="M127.2,240.7c-1.6,3.6,1.3,12.9,1.8,13.3c1.9,1.6-8.5-1.1-9.9-4.7c-2-5.1,4.2-20.5,9.1-23.1
				c1.5-0.8,5.8-5.6,12.7-3.3c6.3,2,9.8,4.9,12.2,10c2.4,5.1,5.4,15.5,3.1,18c-2.2,2.4-11.8,4.5-10.6,2.2c2.4-4.2,1.5-11.7,1.5-14.8
				c0-2.9-4.4-3.1-8-4.3c-4-1.3-8.7-3.1-8.7-3.1S128.6,237.4,127.2,240.7z"/>
		</g>
		<g>
			<path class="st4" d="M128.9,254.8c-1.7,0-8.8-2.3-10-5.3c-1.1-2.9,0.3-8.5,2-12.7c2.6-6.4,5.5-9.8,7.3-10.8
				c0.2-0.1,0.6-0.4,1-0.7c1.6-1.2,4.4-3.3,8.3-3.3c1.2,0,2.5,0.2,3.7,0.6c6.3,2,9.9,5,12.4,10.2c1.3,2.8,2.6,6.7,3.4,10.1
				c0.6,3,1.1,6.8-0.3,8.3c-1.7,1.8-6.9,3.3-9.5,3.3c0,0,0,0,0,0c-0.9,0-1.5-0.2-1.7-0.6c-0.1-0.2-0.2-0.5,0.1-0.9
				c1.9-3.4,1.6-8.8,1.5-12.5c0-0.8-0.1-1.6-0.1-2.1c0-2-2.4-2.6-5.2-3.3c-0.9-0.2-1.8-0.5-2.6-0.7c-3.3-1.1-7.2-2.6-8.3-3
				c-0.4,1.4-2,6.6-3.2,9.5c-1.5,3.3,1.2,12.3,1.8,13c0.1,0.1,0.4,0.4,0.3,0.7C129.4,254.8,129,254.8,128.9,254.8z M137.4,222.7
				c-3.7,0-6.3,2-7.9,3.1c-0.4,0.3-0.8,0.6-1.1,0.7c-2.2,1.2-4.9,5.3-7,10.5c-2.1,5.2-2.8,10-2,12.2c1,2.5,7.2,4.7,9.2,4.9
				c-0.5-0.7-1.3-3.4-1.7-5.5c-0.5-2.6-1-6-0.1-8c1.4-3.3,3.3-9.7,3.3-9.7c0-0.1,0.1-0.2,0.2-0.2s0.2,0,0.3,0c0,0,4.7,1.8,8.7,3.1
				c0.8,0.3,1.7,0.5,2.6,0.7c2.9,0.7,5.7,1.5,5.7,3.9c0,0.6,0,1.3,0.1,2.1c0.2,3.7,0.4,9.3-1.6,12.8c-0.1,0.1-0.1,0.2-0.1,0.2
				c0.1,0.1,0.4,0.2,1.1,0.2c0,0,0,0,0,0c2.6,0,7.6-1.5,9-3.1c2-2.2-0.5-12.1-3.2-17.6c-2.4-5.1-5.8-7.8-12-9.8
				C139.7,222.9,138.5,222.7,137.4,222.7z"/>
		</g>
	</g>
	<g>
		<g>
			<path class="st5" d="M133.5,370.6c-3.6-1.3-5.1-4.9-6.4-9.9c-0.8-2.9-1.1-4.9-1.1-8.6c0-8.8,4.6-12.1,11.8-12.1
				s12.2,1.9,12.2,10.7c0,13.2-4.3,21-12.2,21"/>
		</g>
		<g>
			<path class="st4" d="M137.8,372c-0.2,0-0.3-0.1-0.3-0.3s0.1-0.3,0.3-0.3c7.5,0,11.8-7.5,11.8-20.7c0-8.6-4.7-10.4-11.8-10.4
				c-3.8,0-6.5,0.9-8.4,2.6c-2,1.9-3.1,5-3.1,9.1c0,3.7,0.4,5.7,1.1,8.5c1.8,6.9,3.7,8.8,6.2,9.7c0.2,0.1,0.3,0.2,0.2,0.4
				c-0.1,0.2-0.2,0.3-0.4,0.2c-3.6-1.3-5.2-4.8-6.6-10.2c-0.8-2.9-1.1-4.9-1.1-8.7c0-8.3,4-12.4,12.1-12.4c6.5,0,12.5,1.3,12.5,11
				C150.3,364.2,145.8,372,137.8,372z"/>
		</g>
		<g>
			<path class="st4" d="M138,360.3c-0.1,0-0.3,0-0.4,0c-0.9-0.1-1.3-0.8-1.3-0.8c-0.1-0.2,0-0.4,0.1-0.4c0.2-0.1,0.4,0,0.4,0.1
				c0,0,0.2,0.4,0.8,0.5c0.6,0.1,1,0,1.2-0.3c0.1-0.2,0.1-0.5,0-0.7c-0.5-0.8-1.3-3.4-1.1-4.3c0-0.2,0.2-0.3,0.4-0.2
				c0.2,0,0.3,0.2,0.2,0.4c-0.2,0.6,0.5,3.1,1,3.8c0.3,0.5,0.3,1,0,1.4C139.1,360.1,138.6,360.3,138,360.3z"/>
		</g>
		<g>
			<path class="st4" d="M131.4,354.4c-0.1,0-0.2,0-0.2-0.1c-0.1-0.1-0.1-0.3,0-0.5c0.4-0.5,1-0.7,1.6-0.6c0.5,0,0.9,0.3,1.1,0.7
				c0.1,0.2,0.1,0.4-0.1,0.4c-0.2,0.1-0.4,0.1-0.4-0.1c-0.1-0.2-0.4-0.3-0.6-0.4c-0.4,0-0.8,0.1-1.1,0.4
				C131.6,354.4,131.5,354.4,131.4,354.4z"/>
		</g>
		<g>
			<path class="st4" d="M144.2,354.4c-0.1,0-0.2,0-0.2-0.1c-0.3-0.3-0.7-0.5-1.1-0.4c-0.3,0-0.6,0.2-0.8,0.4
				c-0.1,0.1-0.3,0.2-0.5,0.1c-0.1-0.1-0.2-0.3-0.1-0.5c0.3-0.4,0.8-0.6,1.3-0.6c0.6,0,1.2,0.2,1.6,0.6c0.1,0.1,0.1,0.3,0,0.5
				C144.4,354.4,144.3,354.4,144.2,354.4z"/>
		</g>
		<g>
			<path class="st4" d="M137.7,364.4c-0.8,0-1.5-0.3-1.9-0.8c-0.1-0.1-0.1-0.3,0.1-0.4c0.1-0.1,0.3-0.1,0.4,0.1
				c0.2,0.3,0.8,0.6,1.5,0.5c0.7,0,1.4-0.3,1.6-0.7c0.1-0.2,0.3-0.2,0.4-0.1c0.2,0.1,0.2,0.3,0.1,0.4c-0.3,0.6-1.2,1-2.2,1
				C137.8,364.4,137.7,364.4,137.7,364.4z"/>
		</g>
		<g>
			<g>
				<path class="st3" d="M127.1,359.7c-1.7-0.1-2.7-1.9-2.5-3.3s1.7-1.8,2.8-1.5"/>
			</g>
			<g>
				<path class="st4" d="M127.1,360C127.1,360,127.1,360,127.1,360c-0.8-0.1-1.5-0.4-2-1.1c-0.6-0.7-0.9-1.7-0.8-2.6
					c0.1-0.6,0.4-1.2,0.9-1.5c0.6-0.4,1.5-0.5,2.3-0.3c0.2,0,0.3,0.2,0.2,0.4c0,0.2-0.2,0.3-0.4,0.2c-0.6-0.2-1.3-0.1-1.8,0.2
					c-0.3,0.2-0.5,0.6-0.6,1c-0.1,0.7,0.2,1.5,0.6,2.1c0.3,0.3,0.8,0.8,1.6,0.8c0.2,0,0.3,0.2,0.3,0.3
					C127.4,359.9,127.3,360,127.1,360z"/>
			</g>
		</g>
		<g>
			<g>
				<path class="st3" d="M148.9,359.7c1.7,0.1,2.9-1.5,3-3c0.1-1.5-1.4-2.1-2.6-1.9"/>
			</g>
			<g>
				<path class="st4" d="M149.1,360c-0.1,0-0.1,0-0.2,0c-0.2,0-0.3-0.2-0.3-0.3c0-0.2,0.2-0.3,0.3-0.3c0.7,0.1,1.3-0.3,1.6-0.6
					c0.6-0.5,1-1.3,1-2.1c0-0.4-0.1-0.8-0.4-1.1c-0.4-0.4-1.1-0.6-1.8-0.5c-0.2,0-0.3-0.1-0.4-0.3c0-0.2,0.1-0.3,0.3-0.4
					c0.9-0.1,1.8,0.1,2.3,0.7c0.4,0.4,0.6,1,0.6,1.6c-0.1,1-0.5,2-1.3,2.6C150.4,359.7,149.7,360,149.1,360z"/>
			</g>
		</g>
		<g>
			<path class="st11" d="M129.6,344.8c1.7,1.8,4.7,4.2,11.6,4.7c3.2,0.2,5.2-0.3,6.3,1.1c1.5,1.7,1.7,4.5,1.5,6
				c-0.1,0.7,2.4-2.3,2.4-2.3c-1-1.6,1.1-5.1,0.5-9.7c-0.3-1.9-4.3-6.3-10-7.7c-7.1-1.8-11,1.7-12.9,3.4c-1.5,1.4-3.4,0.7-4.9,3.9
				c-1.4,2.9,0.9,8.2,0.6,9.9c-0.2,0.8,0.6,0.6,2,2.4c0.6,0.8,0.7-2.3,0.8-4.1C127.8,350.5,129.6,344.8,129.6,344.8z"/>
		</g>
		<g>
			<path class="st4" d="M149.2,357c-0.1,0-0.2,0-0.3-0.1c-0.1-0.1-0.1-0.2-0.1-0.3c0.1-1.3,0-4.1-1.4-5.8c-0.7-0.8-1.9-0.9-3.8-0.9
				c-0.7,0-1.5,0-2.3-0.1c-6.6-0.4-9.7-2.6-11.5-4.4c-0.4,1.5-1.7,5.5-1.8,7c0,0.3,0,0.7-0.1,1c-0.2,2.6-0.3,3.5-0.9,3.5
				c0,0,0,0,0,0c-0.2,0-0.3-0.1-0.4-0.2c-0.7-0.8-1.2-1.2-1.5-1.5c-0.4-0.3-0.7-0.6-0.6-1.2c0.1-0.5-0.1-1.7-0.4-2.9
				c-0.5-2.3-1.1-5.1-0.2-7.1c1-2.2,2.3-2.6,3.4-3.1c0.6-0.2,1.1-0.4,1.6-0.9c1.4-1.3,4.3-4,9.3-4c1.3,0,2.6,0.2,3.9,0.5
				c2.6,0.6,5.1,2,7.1,3.7c1.7,1.5,2.9,3.1,3.1,4.2c0.3,2.5-0.1,4.6-0.4,6.3c-0.3,1.5-0.5,2.6-0.1,3.3c0.1,0.1,0.1,0.3,0,0.4
				C149.7,357,149.3,357,149.2,357z M138.2,336.6c-4.7,0-7.5,2.6-8.8,3.8c-0.6,0.5-1.2,0.8-1.8,1c-1.1,0.4-2.1,0.8-3,2.7
				c-0.8,1.7-0.2,4.4,0.2,6.6c0.3,1.4,0.5,2.5,0.4,3.2c0,0.2,0,0.2,0.4,0.5c0.3,0.3,0.8,0.7,1.5,1.5c0.2-0.5,0.2-1.9,0.3-2.7
				c0-0.4,0-0.7,0.1-1c0.2-1.8,1.9-7.4,2-7.6c0-0.1,0.1-0.2,0.2-0.2c0.1,0,0.2,0,0.3,0.1c1.6,1.8,4.5,4.1,11.4,4.6
				c0.8,0.1,1.6,0.1,2.3,0.1c1.9,0,3.4,0,4.3,1.1c1.4,1.7,1.7,4.2,1.6,5.7c0.4-0.4,1.1-1.1,1.7-1.8c-0.4-0.9-0.2-2.1,0.1-3.5
				c0.3-1.7,0.7-3.7,0.4-6.1c-0.2-1.8-4.2-6-9.7-7.4C140.6,336.8,139.4,336.6,138.2,336.6z"/>
		</g>
		<g>
			<path class="st4" d="M130.6,343c0,0,0.1,0.1,0.2,0.1c0.1,0,0.1,0.1,0.2,0.2c0.1,0.1,0.2,0.1,0.3,0.2c0.1,0.1,0.2,0.2,0.3,0.3
				c0.1,0.1,0.2,0.2,0.3,0.3c0.1,0.1,0.2,0.2,0.4,0.3c0.1,0.1,0.2,0.2,0.4,0.3c0.1,0.1,0.3,0.2,0.4,0.3c0.1,0.1,0.3,0.2,0.4,0.3
				c0.1,0.1,0.2,0.2,0.4,0.2c0.1,0.1,0.2,0.1,0.3,0.2c0.1,0.1,0.2,0.1,0.3,0.2c0.1,0,0.2,0.1,0.2,0.1c0.1,0.1,0.2,0.1,0.2,0.1
				s-0.1,0-0.2,0c-0.1,0-0.2,0-0.3,0c-0.1,0-0.2,0-0.4-0.1c-0.1,0-0.3-0.1-0.4-0.1c-0.1,0-0.3-0.1-0.4-0.2c-0.1-0.1-0.3-0.1-0.4-0.2
				c-0.1-0.1-0.3-0.2-0.4-0.3c-0.1-0.1-0.3-0.2-0.4-0.3c-0.1-0.1-0.3-0.2-0.4-0.4c-0.1-0.1-0.2-0.2-0.3-0.4
				c-0.1-0.1-0.2-0.2-0.2-0.4c-0.1-0.1-0.1-0.2-0.2-0.3c0-0.1-0.1-0.2-0.1-0.2C130.7,343.1,130.6,343,130.6,343z"/>
		</g>
	</g>
</g>
<g>
	
		<image style="overflow:visible;opacity:0.12;" width="73" height="73" xlink:href="B057E2ED.png"  transform="matrix(1 0 0 1 208 434)">
	</image>
	<g>
		<path class="st1" d="M242.5,474.5c-4.6,0-8.7-2.9-10.3-7.2c-2.1-5.7,0.8-12,6.5-14.1c1.2-0.5,2.5-0.7,3.8-0.7
			c4.6,0,8.7,2.9,10.3,7.2c2.1,5.7-0.8,12-6.5,14.1C245.1,474.3,243.8,474.5,242.5,474.5z"/>
		<path class="st2" d="M242.5,453L242.5,453c4.4,0,8.3,2.7,9.8,6.8c2,5.4-0.8,11.5-6.2,13.5c-1.2,0.4-2.4,0.7-3.7,0.7
			c-4.4,0-8.3-2.7-9.8-6.8c-2-5.4,0.8-11.5,6.2-13.5C240,453.2,241.3,453,242.5,453 M242.5,452c-1.3,0-2.7,0.2-4,0.7
			c-6,2.2-9,8.8-6.8,14.8c1.7,4.6,6.1,7.5,10.8,7.5c1.3,0,2.7-0.2,4-0.7c6-2.2,9-8.8,6.8-14.8C251.6,454.9,247.2,452,242.5,452
			L242.5,452z"/>
	</g>
</g>
<g>
	
		<image style="overflow:visible;opacity:0.12;" width="77" height="77" xlink:href="B057E2EE.png"  transform="matrix(1 0 0 1 357.1072 3.011)">
	</image>
	<g>
		<path class="st1" d="M393.6,47.5c-1.5,0-2.9-0.3-4.3-0.7c-3.3-1.2-5.9-3.5-7.4-6.6c-1.5-3.1-1.7-6.7-0.5-9.9
			c1.8-5.2,6.8-8.7,12.3-8.7c1.5,0,2.9,0.3,4.3,0.7c3.3,1.2,5.9,3.5,7.4,6.6c1.5,3.1,1.7,6.7,0.5,9.9C404,44,399.1,47.5,393.6,47.5z
			"/>
		<path class="st2" d="M393.6,22L393.6,22c1.4,0,2.8,0.2,4.2,0.7c3.1,1.1,5.7,3.4,7.1,6.4s1.6,6.4,0.5,9.6c-1.8,5-6.5,8.3-11.8,8.3
			c-1.4,0-2.8-0.2-4.2-0.7c-3.1-1.1-5.7-3.4-7.1-6.4c-1.4-3-1.6-6.4-0.5-9.6C383.6,25.4,388.3,22,393.6,22 M393.6,21
			c-5.6,0-10.8,3.5-12.7,9c-2.5,7,1.2,14.7,8.2,17.2c1.5,0.5,3,0.8,4.5,0.8c5.6,0,10.8-3.5,12.7-9c2.5-7-1.2-14.7-8.2-17.2
			C396.6,21.3,395.1,21,393.6,21L393.6,21z"/>
	</g>
</g>
<g>
	
		<image style="overflow:visible;opacity:0.12;" width="81" height="81" xlink:href="B057E2EF.png"  transform="matrix(1 0 0 1 41 358)">
	</image>
	<g>
		<path class="st1" d="M79.5,406.5c-6.2,0-11.8-3.9-14-9.7c-1.4-3.7-1.3-7.8,0.3-11.5c1.6-3.7,4.6-6.5,8.3-7.9c1.7-0.7,3.5-1,5.3-1
			c6.2,0,11.8,3.9,14,9.7c1.4,3.7,1.3,7.8-0.3,11.5c-1.6,3.7-4.6,6.5-8.3,7.9C83.1,406.2,81.3,406.5,79.5,406.5z"/>
		<path class="st2" d="M79.5,377L79.5,377c6,0,11.4,3.8,13.6,9.3c1.4,3.6,1.3,7.6-0.3,11.1c-1.6,3.5-4.4,6.2-8.1,7.6
			c-1.7,0.6-3.4,1-5.2,1c-6,0-11.4-3.8-13.6-9.3c-1.4-3.6-1.3-7.6,0.3-11.1c1.6-3.5,4.4-6.2,8.1-7.6C76,377.3,77.7,377,79.5,377
			 M79.5,376c-1.8,0-3.7,0.3-5.5,1c-8,3.1-12,12-9,20c2.4,6.2,8.2,10,14.5,10c1.8,0,3.7-0.3,5.5-1c8-3.1,12-12,9-20
			C91.6,379.8,85.7,376,79.5,376L79.5,376z"/>
	</g>
</g>
<g>
	<path class="st6" d="M77.3,121.7c-0.5,0-1.1-0.1-1.6-0.2c-1.6-0.4-3-1.5-3.8-2.9l-4.7-8.2c-0.8-1.4-1.1-3.1-0.6-4.7
		c0.4-1.6,1.5-3,2.9-3.8l8.2-4.7c1.4-0.8,3.1-1.1,4.7-0.6c1.6,0.4,3,1.5,3.8,2.9l4.7,8.2c0.8,1.4,1.1,3.1,0.6,4.7
		c-0.4,1.6-1.5,3-2.9,3.8l-8.2,4.7C79.4,121.5,78.4,121.7,77.3,121.7z M80.7,97.3c-0.9,0-1.8,0.2-2.6,0.7l-8.2,4.7
		c-2.5,1.4-3.4,4.7-1.9,7.2l4.7,8.2c1.4,2.5,4.7,3.4,7.2,1.9l8.2-4.7c2.5-1.4,3.4-4.7,1.9-7.2l-4.7-8.2
		C84.3,98.2,82.5,97.3,80.7,97.3z"/>
</g>
<g>
	<path class="st10" d="M444.5,350c-0.4,0-0.8-0.1-1.3-0.2c-1.2-0.3-2.3-1.1-2.9-2.3l-3.7-6.4c-0.6-1.1-0.8-2.4-0.5-3.7
		c0.3-1.2,1.1-2.3,2.3-2.9l6.4-3.7c1.1-0.6,2.4-0.8,3.7-0.5c1.2,0.3,2.3,1.1,2.9,2.3l3.7,6.4c0.6,1.1,0.8,2.4,0.5,3.7
		c-0.3,1.2-1.1,2.3-2.3,2.9l-6.4,3.7C446.2,349.8,445.4,350,444.5,350z M447.2,331c-0.7,0-1.4,0.2-2,0.5l-6.4,3.7
		c-1.9,1.1-2.6,3.6-1.5,5.6l3.7,6.4c1.1,1.9,3.6,2.6,5.6,1.5l6.4-3.7c1.9-1.1,2.6-3.6,1.5-5.6l-3.7-6.4
		C450,331.8,448.6,331,447.2,331z"/>
</g>
<g>
	<path class="st10" d="M453.5,372.3c-0.3,0-0.6,0-1-0.1c-0.9-0.3-1.7-0.9-2.2-1.7l-2.8-4.8c-0.5-0.9-0.6-1.8-0.4-2.8
		c0.3-0.9,0.9-1.7,1.7-2.2l4.8-2.8c0.9-0.5,1.8-0.6,2.8-0.4c0.9,0.3,1.7,0.9,2.2,1.7l2.8,4.8c0.5,0.9,0.6,1.8,0.4,2.8
		c-0.3,0.9-0.9,1.7-1.7,2.2l-4.8,2.8C454.8,372.1,454.1,372.3,453.5,372.3z M455.5,357.9c-0.5,0-1.1,0.1-1.5,0.4l-4.8,2.8
		c-1.5,0.9-2,2.7-1.1,4.2l2.8,4.8c0.9,1.5,2.7,2,4.2,1.1l4.8-2.8c1.5-0.9,2-2.7,1.1-4.2l-2.8-4.8
		C457.6,358.4,456.6,357.9,455.5,357.9z"/>
</g>
<g>
	<path class="st10" d="M53.2,77.3c-0.3,0-0.5,0-0.8-0.1c-0.8-0.2-1.4-0.7-1.8-1.4l-2.2-3.9c-0.4-0.7-0.5-1.5-0.3-2.2
		c0.2-0.8,0.7-1.4,1.4-1.8l3.9-2.2c0.7-0.4,1.5-0.5,2.2-0.3c0.8,0.2,1.4,0.7,1.8,1.4l2.2,3.9c0.4,0.7,0.5,1.5,0.3,2.2
		c-0.2,0.8-0.7,1.4-1.4,1.8l-3.9,2.2C54.2,77.1,53.7,77.3,53.2,77.3z M54.8,65.7c-0.4,0-0.8,0.1-1.2,0.3l-3.9,2.2
		c-1.2,0.7-1.6,2.2-0.9,3.4l2.2,3.9c0.7,1.2,2.2,1.6,3.4,0.9l3.9-2.2c1.2-0.7,1.6-2.2,0.9-3.4L57,67C56.5,66.2,55.7,65.7,54.8,65.7z
		"/>
</g>
<g>
	<path class="st6" d="M207.1,43l-7.7-10c-0.6-0.8-0.7-1.7-0.3-2.6c0.4-0.9,1.2-1.5,2.1-1.6l12.5-1.6c1-0.1,1.9,0.3,2.5,1
		s0.7,1.7,0.3,2.6l-4.8,11.6c-0.4,0.9-1.2,1.5-2.1,1.6S207.6,43.8,207.1,43z M213.7,27.8l-12.5,1.6c-0.7,0.1-1.3,0.6-1.6,1.2
		c-0.3,0.7-0.2,1.4,0.3,2l7.7,10c0.4,0.6,1.1,0.9,1.9,0.8c0.7-0.1,1.3-0.6,1.6-1.2l4.8-11.6c0.3-0.7,0.2-1.4-0.3-2
		S214.5,27.7,213.7,27.8L213.7,27.8z"/>
</g>
<g>
	<path class="st6" d="M348,461.5l1.9-5.3c0.1-0.4,0.5-0.7,0.9-0.8s0.8,0.1,1.1,0.4l3.6,4.3c0.3,0.3,0.4,0.8,0.2,1.2
		c-0.1,0.4-0.5,0.7-0.9,0.8l-5.5,1c-0.4,0.1-0.8-0.1-1.1-0.4S347.8,461.9,348,461.5z M355.3,460.4l-3.6-4.3
		c-0.2-0.2-0.5-0.4-0.8-0.3c-0.3,0.1-0.6,0.3-0.7,0.6l-1.9,5.3c-0.1,0.3-0.1,0.6,0.2,0.9c0.2,0.2,0.5,0.4,0.8,0.3l5.5-1
		c0.3-0.1,0.6-0.3,0.7-0.6S355.5,460.6,355.3,460.4L355.3,460.4z"/>
</g>
<g>
	<path class="st12" d="M389.9,26.3c-2.7,0.8-4.4,3.5-3.8,6.2l1.1,4.7c0.3,1.3,1.1,2.4,2.2,3c0.9,0.5,2,0.7,3.1,0.6
		c0.4,0.5,0.9,0.9,1.4,1.2c1.2,0.7,2.5,0.8,3.8,0.4c2.7-0.8,4.4-3.5,3.8-6.2l-1.1-4.7c-0.3-1.3-1.1-2.4-2.2-3
		c-0.9-0.5-2-0.7-3.1-0.6c-0.4-0.5-0.9-0.9-1.4-1.2C392.5,26.1,391.2,26,389.9,26.3"/>
	<path class="st1" d="M399.6,37.7c-0.1,1.3-1,2.5-2.3,2.8c-0.8,0.2-1.6,0.1-2.3-0.3c-0.1-0.1-0.2-0.1-0.3-0.2l-0.2-0.1l0.2-0.1
		c0.5-0.3,0.9-0.7,1.3-1.2l0.1-0.1l0.1,0.1c0.2,0.1,0.4,0.1,0.6,0c0.4-0.1,0.7-0.4,0.7-0.8c0-0.1,0-0.2,0-0.3l-1.1-4.7
		c-0.1-0.2-0.2-0.4-0.4-0.5c-0.2-0.1-0.5-0.1-0.7-0.1c-0.4,0.1-0.7,0.4-0.7,0.8c0,0.1,0,0.2,0,0.3L395,35c0.1,0.3,0.1,0.6,0.1,0.9
		c-0.1,1.3-1,2.5-2.3,2.8c-0.8,0.2-1.6,0.1-2.3-0.3c-0.7-0.4-1.2-1-1.3-1.8l-1.1-4.7c-0.1-0.3-0.1-0.6-0.1-0.9
		c0.1-1.3,1-2.5,2.3-2.8c0.8-0.2,1.6-0.1,2.3,0.3c0.1,0.1,0.2,0.1,0.3,0.2l0.2,0.1l-0.2,0.1c-0.5,0.3-0.9,0.7-1.3,1.2l-0.1,0.1
		l-0.1-0.1c-0.2-0.1-0.4-0.1-0.6,0c-0.4,0.1-0.7,0.4-0.7,0.8c0,0.1,0,0.2,0,0.3l1.1,4.7c0.1,0.2,0.2,0.4,0.4,0.5
		c0.2,0.1,0.5,0.1,0.7,0.1c0.4-0.1,0.7-0.4,0.7-0.8c0-0.1,0-0.2,0-0.3l-0.4-1.8c-0.1-0.3-0.1-0.6-0.1-0.9c0.1-1.3,1-2.5,2.3-2.8
		c0.8-0.2,1.6-0.1,2.3,0.3c0.7,0.4,1.2,1,1.3,1.8l1.1,4.7C399.6,37.1,399.6,37.4,399.6,37.7"/>
</g>
<g>
	<polygon class="st13" points="75,396.4 73.2,388.1 76,381.9 83.7,385.4 81.6,390 87.8,392.8 82.8,399.9 	"/>
</g>
<g>
	<path class="st14" d="M250.5,458.9c-0.4-0.1-1.3,0.1-1.9,0.5c-0.3-0.6-0.8-1-1.6-1.2l-0.4-0.1l-0.1,0.4c-0.1,0.6,0,1.3,0.2,1.9
		c0.1,0.2,0.3,0.6,0.7,0.8c-0.2,0.2-0.5,0.5-1.1,0.7l-10.6,4l0,0.1c0.1,0.7,0.8,2.6,2.6,3.6c1.3,0.8,2.9,0.8,4.7,0.2
		c3.9-1.4,6-4.3,6.1-8.2c0.5-0.2,1.7-0.6,1.8-2c0,0,0-0.1,0-0.4l0-0.1L250.5,458.9L250.5,458.9z M242.2,457.1l-1.6,0.6l0.6,1.5
		l1.6-0.6L242.2,457.1L242.2,457.1z M242.8,459l-1.6,0.6l0.6,1.5l1.6-0.6L242.8,459L242.8,459z M240.9,459.7l-1.6,0.6l0.6,1.5
		l1.6-0.6L240.9,459.7L240.9,459.7z M239,460.4l-1.6,0.6l0.6,1.5l1.6-0.6L239,460.4L239,460.4z M237.8,462.9l-1.6,0.6l0.6,1.5
		l1.6-0.6L237.8,462.9L237.8,462.9z M239.7,462.2l-1.6,0.6l0.6,1.5l1.6-0.6L239.7,462.2L239.7,462.2z M241.6,461.5l-1.6,0.6l0.6,1.5
		l1.6-0.6L241.6,461.5L241.6,461.5z M243.5,460.8l-1.6,0.6l0.6,1.5l1.6-0.6L243.5,460.8L243.5,460.8z M245.4,460.1l-1.6,0.6l0.6,1.5
		l1.6-0.6L245.4,460.1L245.4,460.1z"/>
</g>
</svg>
