<?xml version="1.0" encoding="utf-8"?>
<!-- Generator: Adobe Illustrator 19.0.0, SVG Export Plug-In . SVG Version: 6.00 Build 0)  -->
<svg version="1.1" id="Calque_1" xmlns="http://www.w3.org/2000/svg" xmlns:xlink="http://www.w3.org/1999/xlink" x="0px" y="0px"
	 viewBox="0 0 200 200" style="enable-background:new 0 0 200 200;" xml:space="preserve">
<style type="text/css">
	.st0{opacity:0.3;}
	.st1{fill:#585763;}
	.st2{fill:#4FC1EA;}
</style>
<g id="XMLID_149_">
	<g id="XMLID_2507_" class="st0">
		<path id="XMLID_2508_" class="st1" d="M122.7,144.2H77.3c-5,0-9-4.1-9-9v-76c0-5,4.1-9,9-9h45.4c5,0,9,4.1,9,9v76
			C131.7,140.2,127.7,144.2,122.7,144.2z M77.3,53.8c-3,0-5.4,2.4-5.4,5.4v76c0,3,2.4,5.4,5.4,5.4h45.4c3,0,5.4-2.4,5.4-5.4v-76
			c0-3-2.4-5.4-5.4-5.4H77.3z"/>
	</g>
	<g id="XMLID_2503_" class="st0">
		<path id="XMLID_2504_" class="st1" d="M120.7,131.4H79.3c-3,0-5.4-2.4-5.4-5.4V68.4c0-3,2.4-5.4,5.4-5.4h41.4c3,0,5.4,2.4,5.4,5.4
			v57.5C126.1,128.9,123.7,131.4,120.7,131.4z M79.3,66.6c-1,0-1.8,0.8-1.8,1.8v57.5c0,1,0.8,1.8,1.8,1.8h41.4c1,0,1.8-0.8,1.8-1.8
			V68.4c0-1-0.8-1.8-1.8-1.8H79.3z"/>
	</g>
	<g id="XMLID_2501_" class="st0">
		<rect id="XMLID_2442_" x="93.5" y="134.4" class="st1" width="12.9" height="3.6"/>
	</g>
	<g id="XMLID_2465_">
		<g id="XMLID_2470_">
			<path id="XMLID_2441_" class="st2" d="M102.8,107.8c-1.5-1.5-4-1.5-5.6,0l-2.6-2.6c2.9-2.9,7.7-2.9,10.7,0L102.8,107.8z"/>
		</g>
		<g id="XMLID_2468_">
			<path id="XMLID_2440_" class="st2" d="M108.7,101.9c-4.8-4.8-12.6-4.8-17.4,0l-2.6-2.6c6.2-6.2,16.3-6.2,22.5,0L108.7,101.9z"/>
		</g>
		<g id="XMLID_2466_">
			<path id="XMLID_261_" class="st2" d="M85.2,95.8l-2.6-2.6c9.6-9.6,25.2-9.6,34.8,0l-2.6,2.6C106.7,87.6,93.3,87.6,85.2,95.8z"/>
		</g>
	</g>
</g>
</svg>
