<?xml version="1.0" encoding="utf-8"?>
<!-- Generator: Adobe Illustrator 19.0.0, SVG Export Plug-In . SVG Version: 6.00 Build 0)  -->
<svg version="1.1" id="Calque_1" xmlns="http://www.w3.org/2000/svg" xmlns:xlink="http://www.w3.org/1999/xlink" x="0px" y="0px"
	 viewBox="-514 51 200 200" style="enable-background:new -514 51 200 200;" xml:space="preserve">
<style type="text/css">
	.st0{fill:#F39208;}
	.st1{opacity:0.3;}
	.st2{fill:#585763;}
</style>
<g id="XMLID_27_">
	<path id="XMLID_1509_" class="st0" d="M-363.7,171.2l-10.3-10.3c-8.3-8.3-21.8-8.3-30.1,0c-8.3,8.3-8.3,21.8,0,30.1l10.2,10.2
		c4.1,4.2,9.6,6.2,15.1,6.2s10.9-2.1,15.1-6.2C-355.4,193-355.4,179.5-363.7,171.2z M-389,159c3.7,0,7.3,1.2,10.3,3.5l-10.3,10.4
		l-10.3-10.3C-396.3,160.2-392.7,159-389,159z M-402.4,165.6l10.3,10.3l-10.3,10.3C-407.1,180.2-407.1,171.7-402.4,165.6z
		 M-366.8,198.2c-6.6,6.6-17.4,6.6-24,0l-8.7-8.7l24-24l8.7,8.7C-360.2,180.8-360.2,191.6-366.8,198.2z"/>
	<g id="XMLID_977_" class="st1">
		<path id="XMLID_981_" class="st2" d="M-393.8,201.3l-1.6-1.6c-1.5,0.6-3.1,1.1-4.7,1.5c1-1,2-2.1,2.9-3.3l-3.2-3.2
			c-3.4,4.5-7.3,7.4-11.5,8.1V184c1,0,2.1,0,3.1-0.1c-0.6-1.4-1-2.8-1.2-4.3c-0.6,0-1.3,0-1.9,0v-26.7h23.5c0,0.5,0,1.1-0.1,1.6
			c1.5,0,2.9,0.2,4.3,0.6c0-0.7,0.1-1.4,0.1-2.1h22.1c-0.2,5.8-1.4,11.3-3.4,16.4l1.6,1.6c0.6,0.6,1.2,1.2,1.7,1.9
			c2.9-6.8,4.5-14.3,4.5-22.1c0-31.1-25.3-56.5-56.5-56.5s-56.4,25.5-56.4,56.7s25.3,56.5,56.5,56.5c7.8,0,15.3-1.6,22.1-4.5
			C-392.6,202.4-393.2,201.9-393.8,201.3z M-367.7,127c3.4,6.6,5.5,14,5.8,21.8H-384c-0.2-9-1.4-17.5-3.5-24.9
			c6.6,0.9,13.2,2.1,19.7,3.7L-367.7,127z M-370.4,122.5c-6.2-1.4-12.4-2.4-18.7-3.2c-2.8-7.9-6.6-14.2-11.1-18.6
			C-387.7,104.2-377.2,112.1-370.4,122.5z M-411.8,99.1c7.1,1.3,13.5,8.8,17.9,19.7c-5.9-0.6-11.9-0.9-17.9-1V99.1z M-411.8,122.2
			c6.5,0.1,13,0.5,19.5,1.2c2.4,7.5,3.8,16.2,4,25.5h-23.5V122.2z M-427.9,100.7c-4.5,4.3-8.3,10.7-11.1,18.6
			c-6.3,0.8-12.5,1.9-18.7,3.2C-450.8,112.1-440.3,104.2-427.9,100.7z M-460.3,127l0.1,0.5c6.5-1.6,13.1-2.8,19.7-3.7
			c-2.1,7.4-3.4,15.8-3.5,24.9h-22.1C-465.8,141-463.7,133.6-460.3,127z M-460.3,174.9c-3.4-6.6-5.5-14-5.8-21.8h22.1
			c0.2,9,1.4,17.5,3.5,24.9c-6.6-0.9-13.2-2.1-19.7-3.7L-460.3,174.9z M-457.7,179.4c6.2,1.4,12.4,2.4,18.7,3.2
			c2.8,7.9,6.6,14.2,11.1,18.6C-440.3,197.8-450.8,189.9-457.7,179.4z M-416.2,202.9c-7.1-1.3-13.5-8.8-17.9-19.7
			c5.9,0.6,11.9,0.9,17.9,1V202.9z M-416.2,179.8c-6.5-0.1-13-0.5-19.5-1.2c-2.4-7.5-3.8-16.2-4-25.5h23.5V179.8z M-416.2,148.8
			h-23.5c0.2-9.3,1.7-18,4-25.5c6.5-0.7,13-1.1,19.5-1.2V148.8z M-416.2,117.8c-6,0.1-11.9,0.4-17.8,1c4.3-11,10.7-18.5,17.8-19.7
			V117.8z"/>
	</g>
</g>
</svg>
