<?xml version="1.0" encoding="utf-8"?>
<!-- Generator: Adobe Illustrator 19.0.0, SVG Export Plug-In . SVG Version: 6.00 Build 0)  -->
<svg version="1.1" id="Calque_1" xmlns="http://www.w3.org/2000/svg" xmlns:xlink="http://www.w3.org/1999/xlink" x="0px" y="0px"
	 viewBox="0 0 200 200" style="enable-background:new 0 0 200 200;" xml:space="preserve">
<style type="text/css">
	.st0{opacity:0.3;fill:#585763;}
	.st1{fill:#F39200;}
</style>
<g id="XMLID_81_">
	<path id="XMLID_2288_" class="st0" d="M116.1,87.9v-9h-4.2v8.9h-5.1v-8.9h-4.2v8.9h-5.1v-8.9h-4.2v8.9h-5.1v-8.9h-4.2v9
		c-3.2,0.4-5.6,3.1-5.6,6.3v13.3c0,5.9,4.8,10.6,10.6,10.6h9v34h4.2v-34h9c5.9,0,10.6-4.8,10.6-10.6V94.2
		C121.8,90.9,119.3,88.2,116.1,87.9z M117.5,107.5c0,3.5-2.9,6.4-6.4,6.4H88.8c-3.5,0-6.4-2.9-6.4-6.4V94.2c0-1.2,1-2.1,2.1-2.1
		h30.8c1.2,0,2.1,1,2.1,2.1V107.5z"/>
	<g id="XMLID_2286_">
		<path id="XMLID_2287_" class="st1" d="M131.8,71.9C131.8,71.9,131.8,71.9,131.8,71.9c0-7.4-5.9-13.4-13.2-13.6
			c-3-7.5-10.3-12.6-18.5-12.6c-8.2,0-15.5,5.1-18.5,12.6c-7.3,0.2-13.2,6.2-13.2,13.5c-5.4,1.9-9.1,7-9.1,12.8
			c0,7.5,6.1,13.5,13.5,13.5h5.5v-4c0-0.1,0-0.1,0-0.2h-5.5c-5.1,0-9.3-4.2-9.3-9.3c0-4.4,3.2-8.3,7.5-9.1c1.1-0.2,1.9-1.3,1.7-2.4
			c-0.1-0.5-0.1-0.9-0.1-1.3c0-5.1,4.2-9.3,9.3-9.3c0.3,0,0.6,0,1,0.1c1,0.1,2-0.5,2.3-1.5C87,54.6,93.2,50,100,50
			c6.8,0,13,4.6,14.9,11.1c0.3,1,1.2,1.6,2.3,1.5c0.3,0,0.6-0.1,1-0.1c5.1,0,9.3,4.2,9.3,9.3c0,0.4,0,0.8-0.1,1.3
			c-0.2,1.1,0.6,2.2,1.7,2.4c4.3,0.9,7.5,4.7,7.5,9.1c0,5.1-4.2,9.3-9.3,9.3h-5.5c0,0.1,0,0.1,0,0.2v4h5.5c7.5,0,13.5-6.1,13.5-13.5
			C140.8,78.9,137.1,73.8,131.8,71.9z"/>
	</g>
</g>
</svg>
