<?xml version="1.0" encoding="utf-8"?>
<!-- Generator: Adobe Illustrator 19.0.0, SVG Export Plug-In . SVG Version: 6.00 Build 0)  -->
<svg version="1.1" id="Calque_1" xmlns="http://www.w3.org/2000/svg" xmlns:xlink="http://www.w3.org/1999/xlink" x="0px" y="0px"
	 viewBox="0 0 1230 300" style="enable-background:new 0 0 1230 300;" xml:space="preserve">
<style type="text/css">
	.st0{fill:#344358;}
	.st1{fill:#F39208;}
	.st2{fill:#FCC010;}
	.st3{fill:#F49619;}
	.st4{fill:#EC630E;}
	.st5{fill:#CBEAFC;}
	.st6{fill:#77C2E0;}
	.st7{fill:#F9DE6A;}
	.st8{fill:#C6781A;}
	.st9{fill:#010202;}
</style>
<circle id="XMLID_2_" class="st0" cx="1103.4" cy="183.4" r="25.9"/>
<circle id="XMLID_19_" class="st1" cx="1157.3" cy="118.9" r="30.8"/>
<circle id="XMLID_20_" class="st0" cx="1161.7" cy="203.1" r="13"/>
<path id="XMLID_59_" class="st2" d="M37.7,140.8C6.9,110,6.9,60.1,37.7,29.3s80.8-30.8,111.6,0L37.7,140.8z"/>
<path id="XMLID_58_" class="st3" d="M136.7,41.9l-15.4,15.4l-51.8,51.8l-19.1,19.1c-23.9-23.9-23.9-62.5,0-86.4
	C74.2,18,112.9,18,136.7,41.9z"/>
<path id="XMLID_57_" class="st4" d="M121.3,57.3l-51.8,51.8L66,64.8c-0.3-4.1,2.9-7.6,7-7.6H121.3L121.3,57.3z"/>
<polygon id="XMLID_56_" class="st5" points="228.8,65.5 226.6,94 224.1,125.6 211.5,286.7 91.6,286.7 79.3,128.4 77.7,108.5 
	74.4,65.5 "/>
<rect id="XMLID_55_" x="133.2" y="114.5" class="st6" width="37.8" height="37.8"/>
<polygon id="XMLID_54_" class="st6" points="228.8,65.5 226.6,94 211.5,286.7 201.1,286.7 216.2,94 218.4,65.5 "/>
<path id="XMLID_53_" class="st1" d="M224.1,125.6l-12.6,161.1H91.6L79.3,128.4c11.4-4.4,27.9-6.9,48.8-0.6c31.4,9.5,57,3.3,85.6-0.9
	C217.1,126.5,220.6,126,224.1,125.6z"/>
<path id="XMLID_52_" class="st7" d="M171,132.6v19.7h-37.8v-23C146.5,132.7,158.9,133.3,171,132.6z"/>
<path id="XMLID_51_" class="st8" d="M224.1,125.6l-12.6,161.1h-10.4L213.6,127C217.1,126.5,220.6,126,224.1,125.6z"/>
<rect id="XMLID_50_" x="110.9" y="164.5" transform="matrix(0.3456 -0.9384 0.9384 0.3456 -87.1514 241.7549)" class="st7" width="37.8" height="37.8"/>
<path id="XMLID_42_" class="st9" d="M231.9,62.7c-0.8-0.9-1.9-1.4-3.1-1.4H123.3l16.4-16.4c0,0,0,0,0,0c0,0,0,0,0,0l12.6-12.6
	c1.7-1.7,1.7-4.3,0-6c-32.4-32.4-85.1-32.4-117.6,0C20.2,40.9,11.6,60.2,10.5,80.8c-0.1,2.3,1.7,4.3,4,4.4c0.1,0,0.1,0,0.2,0
	c2.2,0,4.1-1.8,4.2-4c1-18.5,8.7-35.8,21.8-48.9c14.1-14.1,32.8-21.9,52.8-21.9c18.5,0,36,6.7,49.7,19l-6.6,6.6
	C111,13.4,71.8,14.4,47.3,38.9c-24.5,24.5-25.4,63.7-2.9,89.3l-6.6,6.6c-9.6-10.7-15.8-23.8-18-38.1c-0.4-2.3-2.5-3.9-4.8-3.5
	c-2.3,0.4-3.9,2.5-3.5,4.8c2.7,17.5,10.8,33.3,23.3,45.8c0.8,0.8,1.9,1.2,3,1.2c1.1,0,2.2-0.4,3-1.2l32.9-32.9l1.4,17.7
	c0,0,0,0.1,0,0.1l8.7,111c0.2,2.2,2,3.9,4.2,3.9c0.1,0,0.2,0,0.3,0c2.3-0.2,4.1-2.2,3.9-4.6l-8.4-107.7c13.2-4.3,27.7-4.1,43.1,0.6
	c0.7,0.2,1.4,0.4,2.1,0.6v19.8c0,2.3,1.9,4.2,4.2,4.2H171c2.3,0,4.2-1.9,4.2-4.2v-15.8c9.4-0.8,18.7-2.2,28.1-3.7
	c5.3-0.8,10.7-1.7,16.2-2.4l-11.9,152H95.6l-2.1-27c-0.2-2.3-2.2-4.1-4.6-3.9c-2.3,0.2-4.1,2.2-3.9,4.6l2.4,30.9
	c0.2,2.2,2,3.9,4.2,3.9h119.9c2.2,0,4-1.7,4.2-3.9L228.4,126c0,0,0,0,0,0l2.7-34.7c0.2-2.3-1.6-4.4-3.9-4.6
	c-2.3-0.2-4.4,1.6-4.6,3.9l-2.4,31.2c-6.2,0.8-12.3,1.8-18.2,2.7c-9,1.4-17.9,2.8-26.8,3.6v-13.5c0-2.3-1.9-4.2-4.2-4.2h-37.8
	c-2.3,0-4.2,1.9-4.2,4.2v9.2c-16-4.8-31.7-5.1-45.9-1l-4.1-52.9h145.3l-0.4,4.5c-0.2,2.3,1.6,4.4,3.9,4.6c2.3,0.2,4.4-1.6,4.6-3.9
	l0.7-9.1C233.2,64.7,232.7,63.5,231.9,62.7z M166.7,148.1h-29.3v-13.5c8.7,1.8,16.9,2.5,25,2.5c1.5,0,2.9,0,4.4-0.1L166.7,148.1
	L166.7,148.1z M166.7,118.8v9.8c-9.5,0.3-19.1-0.3-29.3-2.6v-7.2L166.7,118.8L166.7,118.8z M111.3,61.3H98.7V28.5
	c11.5,1,22.7,5.5,31.9,13.5L111.3,61.3z M70.3,67.8l1.1,14H36.8C37.5,69.7,42,57.7,50.4,48L70.3,67.8z M50.4,122.2
	c-8-9.2-12.5-20.4-13.5-31.9H72l0.7,9.6L50.4,122.2z M75.8,61.3L56.4,42c9.8-8.4,21.7-13,33.8-13.6v33H75.8z"/>
<path id="XMLID_39_" class="st9" d="M155.5,168.2L120,155.1c-1.1-0.4-2.2-0.3-3.2,0.1c-1,0.5-1.8,1.3-2.2,2.4l-13.1,35.5
	c-0.8,2.2,0.3,4.6,2.5,5.4l35.5,13.1c0.5,0.2,1,0.3,1.5,0.3c1.7,0,3.3-1.1,4-2.8l13.1-35.5C158.8,171.4,157.7,169,155.5,168.2z
	 M138.5,202.2l-27.5-10.1l10.1-27.5l27.5,10.1L138.5,202.2z"/>
<path id="XMLID_38_" class="st9" d="M195.2,173.6c2.3,0,4.2-1.9,4.2-4.2v-0.9c0-2.3-1.9-4.2-4.2-4.2s-4.2,1.9-4.2,4.2v0.9
	C191,171.7,192.8,173.6,195.2,173.6z"/>
<path id="XMLID_37_" class="st9" d="M136.7,255.7c-2.3,0-4.2,1.9-4.2,4.2v0.9c0,2.3,1.9,4.2,4.2,4.2c2.3,0,4.2-1.9,4.2-4.2v-0.9
	C141,257.5,139.1,255.7,136.7,255.7z"/>
<path id="XMLID_36_" class="st9" d="M152.1,271.8c2.3,0,4.2-1.9,4.2-4.2v-0.9c0-2.3-1.9-4.2-4.2-4.2s-4.2,1.9-4.2,4.2v0.9
	C147.8,269.9,149.7,271.8,152.1,271.8z"/>
<path id="XMLID_35_" class="st9" d="M187.1,227.6c-2.3,0-4.2,1.9-4.2,4.2v0.9c0,2.3,1.9,4.2,4.2,4.2c2.3,0,4.2-1.9,4.2-4.2v-0.9
	C191.3,229.5,189.5,227.6,187.1,227.6z"/>
<path id="XMLID_34_" class="st9" d="M152.1,220.6v-0.9c0-2.3-1.9-4.2-4.2-4.2c-2.3,0-4.2,1.9-4.2,4.2v0.9c0,2.3,1.9,4.2,4.2,4.2
	C150.2,224.8,152.1,223,152.1,220.6z"/>
<path id="XMLID_33_" class="st9" d="M181.6,158.8c-2.3,0-4.2,1.9-4.2,4.2v0.9c0,2.3,1.9,4.2,4.2,4.2s4.2-1.9,4.2-4.2V163
	C185.8,160.7,183.9,158.8,181.6,158.8z"/>
<g id="XMLID_60_">
	<path id="XMLID_61_" class="st0" d="M345.6,111.9v43.6h84v49.7h-84v83h-51.7V62.2h137.3v49.7H345.6z"/>
	<path id="XMLID_63_" class="st0" d="M557.2,123.5v54.9c-20-3.2-48.5,4.8-48.5,36.8v73h-48.5V126.8h48.5v28.8
		C515.2,133.9,536.8,123.5,557.2,123.5z"/>
	<path id="XMLID_65_" class="st1" d="M657,249.5c13.2,0,24.6-5.2,31-12.3l38.8,22.3c-15.8,22-39.7,33.3-70.4,33.3
		c-55.2,0-89.5-37.1-89.5-85.3c0-48.1,34.9-85.3,85.9-85.3c47.2,0,82,36.5,82,85.3c0,6.8-0.6,13.2-1.9,19.4H618.2
		C624.4,243.7,639.2,249.5,657,249.5z M686.7,190.7c-5.2-18.7-19.7-25.5-34.2-25.5c-18.4,0-30.7,9-35.2,25.5H686.7z"/>
	<path id="XMLID_68_" class="st0" d="M881.2,239.8c0,37.1-32.3,53-67.2,53c-32.3,0-56.9-12.3-69.5-38.4l42-23.9
		c4.2,12.3,13.2,19.1,27.5,19.1c11.6,0,17.4-3.6,17.4-10c0-17.8-79.5-8.4-79.5-64.3c0-35.2,29.7-53,63.3-53
		c26.2,0,49.4,11.6,63,34.6l-41.3,22.3c-4.5-8.4-11-14.2-21.6-14.2c-8.4,0-13.6,3.2-13.6,9C801.7,192.3,881.2,180.1,881.2,239.8z"/>
	<path id="XMLID_70_" class="st0" d="M1060.4,189.1v99.2H1012v-92.1c0-20-12.6-29.4-28.1-29.4c-17.8,0-30,10.3-30,33.3v88.2h-48.5
		V62.2h48.5v79.8c8.7-12,24.9-19.7,46.2-19.7C1032.7,122.2,1060.4,145.5,1060.4,189.1z"/>
</g>
</svg>
