<?xml version="1.0" encoding="utf-8"?>
<!-- Generator: Adobe Illustrator 19.0.0, SVG Export Plug-In . SVG Version: 6.00 Build 0)  -->
<svg version="1.1" id="Calque_1" xmlns="http://www.w3.org/2000/svg" xmlns:xlink="http://www.w3.org/1999/xlink" x="0px" y="0px"
	 viewBox="390 76 1230 300" style="enable-background:new 390 76 1230 300;" xml:space="preserve">
<style type="text/css">
	.st0{fill:#344358;}
	.st1{fill:#F39208;}
	.st2{fill:#FCC010;}
	.st3{fill:#F49619;}
	.st4{fill:#EC630E;}
</style>
<circle id="XMLID_2_" class="st0" cx="1389.2" cy="223.1" r="25.9"/>
<circle id="XMLID_19_" class="st1" cx="1443.1" cy="158.6" r="30.8"/>
<circle id="XMLID_20_" class="st0" cx="1447.5" cy="242.8" r="13"/>
<g>
	<path id="XMLID_59_" class="st2" d="M570.6,374.2c-81.9,0-148.2-66.3-148.2-148.2S488.9,77.6,570.8,77.6L570.6,374.2z"/>
	<path id="XMLID_58_" class="st3" d="M570.8,111.1v40.9v137.7v50.8c-63.5,0-114.9-51.3-114.9-114.9
		C455.9,162.4,507.4,111,570.8,111.1z"/>
	<path id="XMLID_57_" class="st4" d="M570.8,152.1v137.7l-63.5-54.2c-5.8-5.1-6.2-14-0.8-19.4l64.2-64.2L570.8,152.1z"/>
</g>
<g id="XMLID_60_">
	<path id="XMLID_61_" class="st0" d="M676.4,161v43.2h83.3v49.3h-83.3v82.3h-51.2v-224h136.1V161H676.4z"/>
	<path id="XMLID_63_" class="st0" d="M886.1,172.5v54.4c-19.8-3.2-48.1,4.8-48.1,36.5v72.4H790v-160H838v28.5
		C844.5,182.8,865.9,172.5,886.1,172.5z"/>
	<path id="XMLID_65_" class="st1" d="M985,297.4c13.1,0,24.4-5.2,30.7-12.2l38.5,22.1c-15.7,21.8-39.4,33-69.8,33
		c-54.7,0-88.7-36.8-88.7-84.6c0-47.7,34.6-84.6,85.1-84.6c46.8,0,81.3,36.2,81.3,84.6c0,6.7-0.6,13.1-1.9,19.2H946.6
		C952.7,291.6,967.4,297.4,985,297.4z M1014.5,239.1c-5.2-18.5-19.5-25.3-33.9-25.3c-18.2,0-30.4,8.9-34.9,25.3H1014.5z"/>
	<path id="XMLID_68_" class="st0" d="M1207.3,287.8c0,36.8-32,52.5-66.6,52.5c-32,0-56.4-12.2-68.9-38.1l41.6-23.7
		c4.2,12.2,13.1,18.9,27.3,18.9c11.5,0,17.2-3.6,17.2-9.9c0-17.6-78.8-8.3-78.8-63.7c0-34.9,29.4-52.5,62.7-52.5
		c26,0,49,11.5,62.4,34.3l-40.9,22.1c-4.5-8.3-10.9-14.1-21.4-14.1c-8.3,0-13.5,3.2-13.5,8.9
		C1128.5,240.7,1207.3,228.6,1207.3,287.8z"/>
	<path id="XMLID_70_" class="st0" d="M1384.9,237.5v98.3h-48v-91.3c0-19.8-12.5-29.1-27.9-29.1c-17.6,0-29.7,10.2-29.7,33v87.4
		h-48.1V111.7h48.1v79.1c8.6-11.9,24.7-19.5,45.8-19.5C1357.4,171.2,1384.9,194.3,1384.9,237.5z"/>
</g>
</svg>
