<?xml version="1.0" encoding="utf-8"?>
<!-- Generator: Adobe Illustrator 19.0.0, SVG Export Plug-In . SVG Version: 6.00 Build 0)  -->
<svg version="1.1" id="Calque_1" xmlns="http://www.w3.org/2000/svg" xmlns:xlink="http://www.w3.org/1999/xlink" x="0px" y="0px"
	 viewBox="-514 51 200 200" style="enable-background:new -514 51 200 200;" xml:space="preserve">
<style type="text/css">
	.st0{opacity:0.3;}
	.st1{fill:#585763;}
	.st2{fill:#F39208;}
</style>
<g id="XMLID_67_">
	<g id="XMLID_2293_" class="st0">
		<path id="XMLID_2299_" class="st1" d="M-367.4,178.5h-93.2c-7.3,0-13.3-6-13.3-13.3V112c0-7.3,6-13.3,13.3-13.3h93.1
			c7.3,0,13.3,6,13.3,13.3v53.3C-354.2,172.6-360.1,178.5-367.4,178.5z M-460.6,104c-4.4,0-8,3.6-8,8v53.3c0,4.4,3.6,8,8,8h93.1
			c4.4,0,8-3.6,8-8V112c0-4.4-3.6-8-8-8H-460.6z"/>
	</g>
	<g id="XMLID_2284_" class="st0">
		<path id="XMLID_2290_" class="st1" d="M-352.8,203.3h-122.4c-4.4,0-8-3.6-8-8v-4.2c0-4.4,3.6-8,8-8h122.3c4.4,0,8,3.6,8,8v4.2
			C-344.9,199.8-348.4,203.3-352.8,203.3z M-475.2,188.5c-1.5,0-2.7,1.2-2.7,2.7v4.2c0,1.5,1.2,2.7,2.7,2.7h122.3
			c1.5,0,2.7-1.2,2.7-2.7v-4.2c0-1.5-1.2-2.7-2.7-2.7H-475.2z"/>
	</g>
	<g id="XMLID_2280_">
		<path id="XMLID_2281_" class="st2" d="M-392.6,160.2h-42.8c-6.4,0-11.6-5.2-11.6-11.6c0-4.8,2.9-9,7.2-10.8
			c0.3-5.8,4.9-10.5,10.7-10.9c2.5-5.9,8.5-9.9,15.1-9.9s12.6,4,15.2,9.9c5.8,0.5,10.4,5.1,10.7,10.9c4.2,1.8,7.1,6,7.1,10.7
			C-380.9,155-386.1,160.2-392.6,160.2z M-428.3,132.2c-3.5,0-6.3,2.8-6.3,6.3c0,0.3,0,0.5,0.1,0.9c0.2,1.4-0.7,2.7-2.1,3
			c-3,0.6-5.1,3.2-5.1,6.2c0,3.5,2.8,6.3,6.3,6.3h42.9c3.5,0,6.3-2.8,6.3-6.3c0-3-2.1-5.6-5.1-6.2c-1.4-0.3-2.3-1.6-2.1-3
			c0-0.3,0.1-0.6,0.1-0.9c0-3.5-2.8-6.3-6.3-6.3c-0.2,0-0.4,0-0.7,0c-1.3,0.1-2.5-0.7-2.8-1.9c-1.4-4.7-5.9-8.1-10.8-8.1
			c-5,0-9.4,3.3-10.8,8.1c-0.4,1.2-1.5,2-2.8,1.9C-427.8,132.2-428,132.2-428.3,132.2z"/>
	</g>
</g>
</svg>
